<svg xmlns="http://www.w3.org/2000/svg" xmlns:xlink="http://www.w3.org/1999/xlink" version="1.1" width="841.89pt" height="1190.551pt" viewBox="0 0 841.89 1190.551">
<path transform="matrix(1,0,0,-1,114.945,191.60803)" stroke-width=".797" stroke-linecap="butt" stroke-miterlimit="10" stroke-linejoin="miter" fill="none" stroke="#000000" d="M0 0H612"/>
<text xml:space="preserve" transform="matrix(1 0 -0 1 0 1190.551)" font-size="9.9626" font-family="CMBX10" font-weight="bold"><tspan y="-989.634" x="122.417 131.0745 134.25257 139.98107 145.70957 150.43184 153.60991 158.06319 164.42929 173.97347 183.03943 192.59357">Algorithme8:</tspan></text>
<text xml:space="preserve" transform="matrix(1 0 -0 1 0 1190.551)" font-size="9.9626" font-family="CMR10"><tspan y="-989.634" x="199.108 201.87761 204.64722 208.57248 212.44794">liste</tspan></text>
<path transform="matrix(1,0,0,-1,217.473,200.71802)" stroke-width=".398" stroke-linecap="butt" stroke-miterlimit="10" stroke-linejoin="miter" fill="none" stroke="#000000" d="M0 0H2.989"/>
<text xml:space="preserve" transform="matrix(1 0 -0 1 0 1190.551)" font-size="9.9626" font-family="CMR10"><tspan y="-989.634" x="220.461 228.75984 233.74114 239.28034 244.26165 248.68505 256.9839 261.4073 266.67753">mouvement</tspan></text>
<path transform="matrix(1,0,0,-1,271.149,200.71802)" stroke-width=".398" stroke-linecap="butt" stroke-miterlimit="10" stroke-linejoin="miter" fill="none" stroke="#000000" d="M0 0H2.989"/>
<text xml:space="preserve" transform="matrix(1 0 -0 1 0 1190.551)" font-size="9.9626" font-family="CMR10"><tspan y="-989.634" x="274.138 278.84037 283.82167 286.59126 289.36085 294.90007">valide</tspan></text>
<path transform="matrix(1,0,0,-1,299.919,200.71802)" stroke-width=".398" stroke-linecap="butt" stroke-miterlimit="10" stroke-linejoin="miter" fill="none" stroke="#000000" d="M0 0H2.989"/>
<text xml:space="preserve" transform="matrix(1 0 -0 1 0 1190.551)" font-size="9.9626" font-family="CMR10"><tspan y="-989.634" x="302.908 305.95655 310.93785 316.47706 320.90046 326.43968">joueur</tspan></text>
<path transform="matrix(1,0,0,-1,114.945,205.245)" stroke-width=".797" stroke-linecap="butt" stroke-miterlimit="10" stroke-linejoin="miter" fill="none" stroke="#000000" d="M0 0H612"/>
<text xml:space="preserve" transform="matrix(1 0 -0 1 0 1190.551)" font-size="9.9626" font-family="CMBX10" font-weight="bold"><tspan y="-975.996" x="129.889 138.67603 144.40453 150.77063 156.89763 157.13674 162.38703 167.63732 175.97602">Donn&#x00b4;ees:</tspan></text>
<text xml:space="preserve" transform="matrix(1 0 -0 1 0 1190.551)" font-size="9.9626" font-family="CMR10"><tspan y="-975.996" x="182.477 187.59778 192.57907 198.11827 202.54167 208.08087 215.30376 220.84296 225.82425 231.0845 238.28748 243.26877 252.12552 256.26997 261.80918 266.23258 270.1379 274.29234 279.83155 287.57249 290.34208 294.76548 302.00828 310.30714 315.28843 320.82765 325.8189 330.2423 338.54118 342.96458 348.22483 352.10029 359.34309 364.0554 369.03669 371.80628 374.57588 380.11509 384.53849 391.78129 397.8684 400.91697 405.89826 411.43748 415.86088 421.4001 425.30543 431.40254 438.59553 438.87446 443.29786 447.2032 449.97279 452.7374 455.50205 459.9354 464.9167 468.79216 471.5518 476.53309 485.3998 490.93904 493.42967 493.7086 498.132 502.27644 507.81565 512.239 519.98 526.0771 529.1257 534.66488 538.59017 542.4656">Joueurdontoncherchelesmouvementsvalides:joueur,V&#x00b4;erificationd&#x2019;&#x00b4;echec:juste</tspan></text>
<path transform="matrix(1,0,0,-1,547.459,214.35602)" stroke-width=".398" stroke-linecap="butt" stroke-miterlimit="10" stroke-linejoin="miter" fill="none" stroke="#000000" d="M0 0H2.989"/>
<text xml:space="preserve" transform="matrix(1 0 -0 1 0 1190.551)" font-size="9.9626" font-family="CMR10"><tspan y="-975.996" x="550.448 558.7468 563.72817 569.26736 574.24868 578.67208 586.9709 591.3943 596.6645">mouvement</tspan></text>
<text xml:space="preserve" transform="matrix(1 0 -0 1 0 1190.551)" font-size="9.9626" font-family="CMBX10" font-weight="bold"><tspan y="-964.04098" x="129.889 138.24762 138.48673 143.73702 148.26004 154.62615 157.80422 162.25749 167.82659 176.09554">R&#x00b4;esultat:</tspan></text>
<text xml:space="preserve" transform="matrix(1 0 -0 1 0 1190.551)" font-size="9.9626" font-family="CMR10"><tspan y="-964.04098" x="182.602 188.82863 191.59824 195.5235 199.39896 207.13991 212.67911 217.10251 224.35529 232.65413 237.63542 243.17462 248.15593 252.57933 260.87818 265.30158 270.56184 274.4373 281.69007 286.39244 291.37373 294.1433 296.9129 302.45213 306.87553 314.11833 319.9365 324.9178 330.457 337.67988 340.44947 348.20039 351.24894 356.23023 361.76945 366.19285 371.73207 378.95494 385.04206 387.81166 390.58125 394.5065 398.38197">Listedesmouvementsvalidespourlejoueur:liste</tspan></text>
<path transform="matrix(1,0,0,-1,403.402,226.31104)" stroke-width=".398" stroke-linecap="butt" stroke-miterlimit="10" stroke-linejoin="miter" fill="none" stroke="#000000" d="M0 0H2.989"/>
<text xml:space="preserve" transform="matrix(1 0 -0 1 0 1190.551)" font-size="9.9626" font-family="CMR10"><tspan y="-964.041" x="406.391 414.68986 419.67115 425.21037 430.19166 434.61506 442.9139 447.3373 452.60755">mouvement</tspan></text>
<text xml:space="preserve" transform="matrix(1 0 -0 1 0 1190.551)" font-size="6.9738" font-family="CMBX7" font-weight="bold"><tspan y="-947.796" x="120.39398">1</tspan></text>
<text xml:space="preserve" transform="matrix(1 0 -0 1 0 1190.551)" font-size="9.9626" font-family="CMR10"><tspan y="-947.796" x="129.88898 133.48548 139.02468 141.79428 145.66974 148.43935 153.42064 156.19025 158.95986 162.88512 167.30852 174.5314 177.30101 180.07062 183.99588 187.87134">Initialiserliste</tspan></text>
<path transform="matrix(1,0,0,-1,192.892,242.55506)" stroke-width=".398" stroke-linecap="butt" stroke-miterlimit="10" stroke-linejoin="miter" fill="none" stroke="#000000" d="M0 0H2.989"/>
<text xml:space="preserve" transform="matrix(1 0 -0 1 0 1190.551)" font-size="9.9626" font-family="CMR10"><tspan y="-947.796" x="195.88 204.17885 209.16014 214.69934 219.68065 224.10405 232.4029 236.8263 242.0965 249.2895 253.7129 258.6942 266.99308 275.29194 283.03288 288.57209 294.1113 301.8622 304.6318 307.4014 311.32667 315.20213 322.94306 328.2033 330.9729 336.51213">mouvementcommeunelistevide</tspan></text>
<text xml:space="preserve" transform="matrix(1 0 -0 1 0 1190.551)" font-size="6.9738" font-family="CMBX7" font-weight="bold"><tspan y="-935.841" x="120.394008">2</tspan></text>
<text xml:space="preserve" transform="matrix(1 0 -0 1 0 1190.551)" font-size="9.9626" font-family="CMBX10" font-weight="bold"><tspan y="-935.841" x="129.889 136.57392 142.30242 148.66852">pour</tspan></text>
<text xml:space="preserve" transform="matrix(1 0 -0 1 0 1190.551)" font-size="9.9626" font-family="CMTI10" font-style="italic"><tspan y="-935.841" x="156.705 163.33013 168.42102 171.47954 174.02997 179.12085 184.71984 191.59403 196.6849 204.82434 213.48183 213.48184 222.13933 229.54154 235.78809 239.63365 247.34471 254.74692 261.50157">iallantde1`aNLIGNES</tspan></text>
<text xml:space="preserve" transform="matrix(1 0 -0 1 0 1190.551)" font-size="9.9626" font-family="CMBX10" font-weight="bold"><tspan y="-935.841" x="271.618 275.1149 280.684 283.86207 288.58433">faire</tspan></text>
<path transform="matrix(1,0,0,-1,135.069,356.927)" stroke-width=".398" stroke-linecap="butt" stroke-miterlimit="10" stroke-linejoin="miter" fill="none" stroke="#000000" d="M0 0V98.63"/>
<text xml:space="preserve" transform="matrix(1 0 -0 1 0 1190.551)" font-size="6.9738" font-family="CMBX7" font-weight="bold"><tspan y="-923.886" x="120.792">3</tspan></text>
<text xml:space="preserve" transform="matrix(1 0 -0 1 0 1190.551)" font-size="9.9626" font-family="CMBX10" font-weight="bold"><tspan y="-923.886" x="145.231 151.91591 157.64441 164.01052">pour</tspan></text>
<text xml:space="preserve" transform="matrix(1 0 -0 1 0 1190.551)" font-size="9.9626" font-family="CMTI10" font-style="italic"><tspan y="-923.886" x="172.047 178.67212 183.763 186.82152 189.37195 194.46283 200.06182 206.936 212.02689 220.16632 228.8238 228.82382 237.48131 244.88352 252.01674 259.65806 265.9046 273.54594 280.94816 288.35038 295.105">jallantde1`aNCOLONNES</tspan></text>
<text xml:space="preserve" transform="matrix(1 0 -0 1 0 1190.551)" font-size="9.9626" font-family="CMBX10" font-weight="bold"><tspan y="-923.886" x="305.222 308.71888 314.28797 317.46604 322.1883">faire</tspan></text>
<path transform="matrix(1,0,0,-1,150.412,343.97505)" stroke-width=".398" stroke-linecap="butt" stroke-miterlimit="10" stroke-linejoin="miter" fill="none" stroke="#000000" d="M0 0V73.724"/>
<text xml:space="preserve" transform="matrix(1 0 -0 1 0 1190.551)" font-size="6.9738" font-family="CMBX7" font-weight="bold"><tspan y="-911.931" x="121.191">4</tspan></text>
<text xml:space="preserve" transform="matrix(1 0 -0 1 0 1190.551)" font-size="9.9626" font-family="CMBX10" font-weight="bold"><tspan y="-911.931" x="160.574 165.09703">si</tspan></text>
<text xml:space="preserve" transform="matrix(1 0 -0 1 0 1190.551)" font-size="9.9626" font-family="CMTI10" font-style="italic"><tspan y="-911.931" x="171.59601 174.14644 182.80394 186.87865 191.96955 196.04425 204.18369 204.18369 212.84117 215.3916 224.04909 228.6319 233.72278 237.79749 240.856 244.16359 247.2221 252.31299 261.47859 265.54335 268.60188 275.22703 278.28556 285.92689 290.50968 294.58439 301.4586 306.04139 310.1061 314.6889 320.03883 324.88066 325.1297 329.7125">lacase`alaposition(i,j)estoccup&#x00b4;ee</tspan></text>
<text xml:space="preserve" transform="matrix(1 0 -0 1 0 1190.551)" font-size="9.9626" font-family="CMBX10" font-weight="bold"><tspan y="-911.931" x="338.354 343.9231 347.10118 352.82966 357.5519">alors</tspan></text>
<path transform="matrix(1,0,0,-1,165.754,331.02406)" stroke-width=".398" stroke-linecap="butt" stroke-miterlimit="10" stroke-linejoin="miter" fill="none" stroke="#000000" d="M0 0V48.817"/>
<text xml:space="preserve" transform="matrix(1 0 -0 1 0 1190.551)" font-size="6.9738" font-family="CMBX7" font-weight="bold"><tspan y="-899.976" x="121.589">5</tspan></text>
<text xml:space="preserve" transform="matrix(1 0 -0 1 0 1190.551)" font-size="9.9626" font-family="CMBX10" font-weight="bold"><tspan y="-899.976" x="175.916 180.43903">si</tspan></text>
<text xml:space="preserve" transform="matrix(1 0 -0 1 0 1190.551)" font-size="9.9626" font-family="CMTI10" font-style="italic"><tspan y="-899.976" x="186.939 189.48943 198.14693 203.23783 206.03731 206.29634 210.87914 214.94388 223.09328 223.09329 231.75078 234.30121 242.9587 247.5415 252.63239 256.7071 259.76564 263.0732 266.13175 271.22264 280.37825 284.45295 287.51148 294.13664 297.19517 304.8365 309.92738 315.01826 319.60105 324.69194 328.89616 332.20375 335.26228 339.84507 345.44404 352.30827 357.39915 366.31568 369.3742 374.4651 379.815 384.3978 389.7477">lapi`ece`alaposition(i,j)appartientaujoueur</tspan></text>
<text xml:space="preserve" transform="matrix(1 0 -0 1 0 1190.551)" font-size="9.9626" font-family="CMBX10" font-weight="bold"><tspan y="-899.976" x="398.32099 403.89009 407.06816 412.79664 417.5189">alors</tspan></text>
<path transform="matrix(1,0,0,-1,181.097,318.07203)" stroke-width=".398" stroke-linecap="butt" stroke-miterlimit="10" stroke-linejoin="miter" fill="none" stroke="#000000" d="M0 0V23.91"/>
<text xml:space="preserve" transform="matrix(1 0 -0 1 0 1190.551)" font-size="6.9738" font-family="CMBX7" font-weight="bold"><tspan y="-888.02" x="121.988">6</tspan></text>
<text xml:space="preserve" transform="matrix(1 0 -0 1 0 1190.551)" font-size="9.9626" font-family="CMR10"><tspan y="-888.02" x="191.259 198.73096 201.77951 206.7608 212.3 216.17546 220.59886 227.81179 227.81179 236.10066 238.87027 241.63988 245.56514 249.4406">Ajouter`aliste</tspan></text>
<path transform="matrix(1,0,0,-1,254.456,302.33106)" stroke-width=".398" stroke-linecap="butt" stroke-miterlimit="10" stroke-linejoin="miter" fill="none" stroke="#000000" d="M0 0H2.989"/>
<text xml:space="preserve" transform="matrix(1 0 -0 1 0 1190.551)" font-size="9.9626" font-family="CMR10"><tspan y="-888.02" x="257.445 265.74388 270.72517 276.26438 281.24568 285.66908 293.96794 298.39134 303.66157 310.83464 314.71009 319.69139 325.2306 332.46345 335.23304 339.66639 346.89924 355.1981 360.17939 365.7186 370.6999 375.1233 383.42216 387.84556 393.1058 396.98127 404.2141 408.92643 413.9077 416.66737 419.43696 424.97618 429.39958 436.64237 442.45057 447.43186 452.97108 460.184 462.95359 471.24247 476.78169 479.2723 479.55125 483.97465 488.39805 496.12904 496.12904 504.4179 507.1875 515.4764 521.2945 526.2758 530.2011 532.9707 536.8461 539.6157 544.59707 553.4438 557.3192 560.0888 566.16598 569.21456 573.08999 579.1671 583.8695 588.8508 593.27426 601.0052 603.7748 606.5444 611.5257 617.0649 620.9403 623.7099 628.6912 637.53799 640.58657 646.12576 650.051 653.92648">mouvementtouslesmouvementsvalidespourlapi`ece`alaposition(i,j),avecl&#x2019;optionjuste</tspan></text>
<path transform="matrix(1,0,0,-1,658.922,302.33106)" stroke-width=".398" stroke-linecap="butt" stroke-miterlimit="10" stroke-linejoin="miter" fill="none" stroke="#000000" d="M0 0H2.989"/>
<text xml:space="preserve" transform="matrix(1 0 -0 1 0 1190.551)" font-size="9.9626" font-family="CMR10"><tspan y="-888.02" x="661.911 670.20986 675.19119 680.73037 685.7117 690.1351 698.4339 702.8573 708.11758">mouvement</tspan><tspan y="-876.065" x="196.24002 200.16529 206.25244 211.23374 215.65714 219.5326 222.3022 227.29346 227.56244 231.98584">siactiv&#x00b4;ee</tspan></text>
<text xml:space="preserve" transform="matrix(1 0 -0 1 0 1190.551)" font-size="6.9738" font-family="CMBX7" font-weight="bold"><tspan y="-863.114" x="121.58902">7</tspan></text>
<text xml:space="preserve" transform="matrix(1 0 -0 1 0 1190.551)" font-size="9.9626" font-family="CMBX10" font-weight="bold"><tspan y="-863.114" x="175.91602 179.09409 182.28212">fin</tspan></text>
<text xml:space="preserve" transform="matrix(1 0 -0 1 0 1190.551)" font-size="6.9738" font-family="CMBX7" font-weight="bold"><tspan y="-850.162" x="121.19102">8</tspan></text>
<text xml:space="preserve" transform="matrix(1 0 -0 1 0 1190.551)" font-size="9.9626" font-family="CMBX10" font-weight="bold"><tspan y="-850.162" x="160.57402 163.75209 166.94013">fin</tspan></text>
<text xml:space="preserve" transform="matrix(1 0 -0 1 0 1190.551)" font-size="6.9738" font-family="CMBX7" font-weight="bold"><tspan y="-837.211" x="120.79202">9</tspan></text>
<text xml:space="preserve" transform="matrix(1 0 -0 1 0 1190.551)" font-size="9.9626" font-family="CMBX10" font-weight="bold"><tspan y="-837.211" x="145.23102 148.40909 151.59712">fin</tspan></text>
<text xml:space="preserve" transform="matrix(1 0 -0 1 0 1190.551)" font-size="6.9738" font-family="CMBX7" font-weight="bold"><tspan y="-824.26" x="115.88002 120.39207">10</tspan></text>
<text xml:space="preserve" transform="matrix(1 0 -0 1 0 1190.551)" font-size="9.9626" font-family="CMBX10" font-weight="bold"><tspan y="-824.26" x="129.88903 133.0671 136.25513">fin</tspan></text>
<text xml:space="preserve" transform="matrix(1 0 -0 1 0 1190.551)" font-size="6.9738" font-family="CMBX7" font-weight="bold"><tspan y="-812.304" x="115.88002 120.39207">11</tspan></text>
<text xml:space="preserve" transform="matrix(1 0 -0 1 0 1190.551)" font-size="9.9626" font-family="CMBX10" font-weight="bold"><tspan y="-812.304" x="129.88903 134.6113 139.86159 144.31487 150.04337 156.40947 161.13175 167.49785 172.74814">retourner</tspan></text>
<text xml:space="preserve" transform="matrix(1 0 -0 1 0 1190.551)" font-size="9.9626" font-family="CMR10"><tspan y="-812.304" x="180.78102 183.55063 186.32024 190.2455 194.12096">liste</tspan></text>
<path transform="matrix(1,0,0,-1,199.146,378.047)" stroke-width=".398" stroke-linecap="butt" stroke-miterlimit="10" stroke-linejoin="miter" fill="none" stroke="#000000" d="M0 0H2.989"/>
<text xml:space="preserve" transform="matrix(1 0 -0 1 0 1190.551)" font-size="9.9626" font-family="CMR10"><tspan y="-812.304" x="202.134 210.43285 215.41414 220.95334 225.93465 230.35805 238.65689 243.08029 248.3505">mouvement</tspan></text>
<path transform="matrix(1,0,0,-1,114.945,384.224)" stroke-width=".797" stroke-linecap="butt" stroke-miterlimit="10" stroke-linejoin="miter" fill="none" stroke="#000000" d="M0 0H612"/>
</svg>
