<svg xmlns="http://www.w3.org/2000/svg" xmlns:xlink="http://www.w3.org/1999/xlink" version="1.1" width="841.89pt" height="1190.551pt" viewBox="0 0 841.89 1190.551">
<path transform="matrix(1,0,0,-1,114.945,191.60803)" stroke-width=".797" stroke-linecap="butt" stroke-miterlimit="10" stroke-linejoin="miter" fill="none" stroke="#000000" d="M0 0H612"/>
<text xml:space="preserve" transform="matrix(1 0 -0 1 0 1190.551)" font-size="9.9626" font-family="CMBX10" font-weight="bold"><tspan y="-989.634" x="122.417 131.0745 134.25257 139.98107 145.70957 150.43184 153.60991 158.06319 164.42929 173.97347 183.03943 192.59357">Algorithme5:</tspan></text>
<text xml:space="preserve" transform="matrix(1 0 -0 1 0 1190.551)" font-size="9.9626" font-family="CMR10"><tspan y="-989.634" x="199.108 201.87761 204.64722 208.57248 212.44794">liste</tspan></text>
<path transform="matrix(1,0,0,-1,217.473,200.71802)" stroke-width=".398" stroke-linecap="butt" stroke-miterlimit="10" stroke-linejoin="miter" fill="none" stroke="#000000" d="M0 0H2.989"/>
<text xml:space="preserve" transform="matrix(1 0 -0 1 0 1190.551)" font-size="9.9626" font-family="CMR10"><tspan y="-989.634" x="220.461 228.75984 233.74114 239.28034 244.26165 248.68505 256.9839 261.4073 266.67753">mouvement</tspan></text>
<path transform="matrix(1,0,0,-1,271.149,200.71802)" stroke-width=".398" stroke-linecap="butt" stroke-miterlimit="10" stroke-linejoin="miter" fill="none" stroke="#000000" d="M0 0H2.989"/>
<text xml:space="preserve" transform="matrix(1 0 -0 1 0 1190.551)" font-size="9.9626" font-family="CMR10"><tspan y="-989.634" x="274.138 278.04335 283.02464">roi</tspan></text>
<path transform="matrix(1,0,0,-1,114.945,205.245)" stroke-width=".797" stroke-linecap="butt" stroke-miterlimit="10" stroke-linejoin="miter" fill="none" stroke="#000000" d="M0 0H612"/>
<text xml:space="preserve" transform="matrix(1 0 -0 1 0 1190.551)" font-size="9.9626" font-family="CMBX10" font-weight="bold"><tspan y="-975.996" x="129.889 138.67603 144.40453 150.77063 156.89763 157.13674 162.38703 167.63732 175.97602">Donn&#x00b4;ees:</tspan></text>
<text xml:space="preserve" transform="matrix(1 0 -0 1 0 1190.551)" font-size="9.9626" font-family="CMR10"><tspan y="-975.996" x="182.477 188.98259 193.96389 197.88915 200.65876 204.53421 207.30382 212.28511 221.15183 226.13312 230.55652 234.43198 239.97118 244.39458 247.16419 249.93379 257.67475 263.21397 272.0707 275.97605 280.95735 287.04447 293.14158 298.95976 303.94105 307.8663 313.95344 321.14643 321.42536 325.84877 329.7541 332.52369 335.2883 338.0629 342.4863 347.4676 351.34306 354.11265 359.09394 367.95069 373.4899 375.98054 376.25947 380.68287 384.8273 390.36653 394.78993 402.54084 408.62797 411.6765 417.21574 421.141 425.01646">Positionactuelleduroi:pos,V&#x00b4;erificationd&#x2019;&#x00b4;echec:juste</tspan></text>
<path transform="matrix(1,0,0,-1,430.011,214.35602)" stroke-width=".398" stroke-linecap="butt" stroke-miterlimit="10" stroke-linejoin="miter" fill="none" stroke="#000000" d="M0 0H2.989"/>
<text xml:space="preserve" transform="matrix(1 0 -0 1 0 1190.551)" font-size="9.9626" font-family="CMR10"><tspan y="-975.996" x="433 441.29887 446.28016 451.81938 456.80067 461.22407 469.52293 473.94633 479.20658">mouvement</tspan></text>
<text xml:space="preserve" transform="matrix(1 0 -0 1 0 1190.551)" font-size="9.9626" font-family="CMBX10" font-weight="bold"><tspan y="-964.04098" x="129.889 138.24762 138.48673 143.73702 148.26004 154.62615 157.80422 162.25749 167.82659 176.09554">R&#x00b4;esultat:</tspan></text>
<text xml:space="preserve" transform="matrix(1 0 -0 1 0 1190.551)" font-size="9.9626" font-family="CMR10"><tspan y="-964.04098" x="182.602 188.82863 191.59824 195.5235 199.39896 207.13991 212.67911 217.10251 224.35529 232.65413 237.63542 243.17462 248.15593 252.57933 260.87818 265.30158 270.56184 274.4373 281.69007 286.39244 291.37373 294.1433 296.9129 302.45213 306.87553 314.11833 319.65754 328.52427 332.4296 337.4109 343.49803 349.58515 352.35475 355.12434 359.0496 362.92506">Listedesmouvementsvalidesduroi:liste</tspan></text>
<path transform="matrix(1,0,0,-1,367.952,226.31104)" stroke-width=".398" stroke-linecap="butt" stroke-miterlimit="10" stroke-linejoin="miter" fill="none" stroke="#000000" d="M0 0H2.989"/>
<text xml:space="preserve" transform="matrix(1 0 -0 1 0 1190.551)" font-size="9.9626" font-family="CMR10"><tspan y="-964.041" x="370.94 379.23887 383.9412 388.93247">move</tspan></text>
<path transform="matrix(1,0,0,-1,393.954,226.31104)" stroke-width=".398" stroke-linecap="butt" stroke-miterlimit="10" stroke-linejoin="miter" fill="none" stroke="#000000" d="M0 0H2.989"/>
<text xml:space="preserve" transform="matrix(1 0 -0 1 0 1190.551)" font-size="9.9626" font-family="CMR10"><tspan y="-964.041" x="396.943 400.84834 405.82963">roi</tspan></text>
<text xml:space="preserve" transform="matrix(1 0 -0 1 0 1190.551)" font-size="6.9738" font-family="CMBX7" font-weight="bold"><tspan y="-947.796" x="120.39398">1</tspan></text>
<text xml:space="preserve" transform="matrix(1 0 -0 1 0 1190.551)" font-size="9.9626" font-family="CMR10"><tspan y="-947.796" x="129.88898 133.48548 139.02468 141.79428 145.66974 148.43935 153.42064 156.19025 158.95986 162.88512 167.30852 174.5314 177.30101 180.07062 183.99588 187.87134">Initialiserliste</tspan></text>
<path transform="matrix(1,0,0,-1,192.892,242.55506)" stroke-width=".398" stroke-linecap="butt" stroke-miterlimit="10" stroke-linejoin="miter" fill="none" stroke="#000000" d="M0 0H2.989"/>
<text xml:space="preserve" transform="matrix(1 0 -0 1 0 1190.551)" font-size="9.9626" font-family="CMR10"><tspan y="-947.796" x="195.88 204.17885 208.8812 213.87245">move</tspan></text>
<path transform="matrix(1,0,0,-1,218.894,242.55506)" stroke-width=".398" stroke-linecap="butt" stroke-miterlimit="10" stroke-linejoin="miter" fill="none" stroke="#000000" d="M0 0H2.989"/>
<text xml:space="preserve" transform="matrix(1 0 -0 1 0 1190.551)" font-size="9.9626" font-family="CMR10"><tspan y="-947.796" x="221.883 225.78833 230.76963 236.85678 241.28018 246.26148 254.56032 262.85917 270.61009 276.1493 281.6885 289.42945 292.19905 294.96864 298.8939 302.76936 310.51029 315.77055 318.54014 324.07936">roicommeunelistevide</tspan></text>
<text xml:space="preserve" transform="matrix(1 0 -0 1 0 1190.551)" font-size="6.9738" font-family="CMBX7" font-weight="bold"><tspan y="-935.841" x="120.394">2</tspan></text>
<text xml:space="preserve" transform="matrix(1 0 -0 1 0 1190.551)" font-size="9.9626" font-family="CMR10"><tspan y="-935.841" x="129.88899 137.22147 137.50041 141.92382 144.68843 147.46302 153.00222 155.77182 162.9947 168.5339 172.9573">D&#x00b4;efinirdep</tspan></text>
<path transform="matrix(1,0,0,-1,179.082,254.51105)" stroke-width=".398" stroke-linecap="butt" stroke-miterlimit="10" stroke-linejoin="miter" fill="none" stroke="#000000" d="M0 0H2.989"/>
<text xml:space="preserve" transform="matrix(1 0 -0 1 0 1190.551)" font-size="9.9626" font-family="CMR10"><tspan y="-935.841" x="182.071 185.97634 190.95763 197.04479 201.46819 206.44948 214.74832 223.04717 230.79808 233.56769 237.99109 245.2339 253.54271 259.07197 261.84156 265.7469 270.1703 274.60365 278.4791 281.23875 286.22999 291.75926 299.01203 303.99333 309.53254 313.408 318.38929 323.9285 331.15138 336.69059 345.54734 349.45268 354.43397">roicommeles8directionsautourduroi</tspan></text>
<text xml:space="preserve" transform="matrix(1 0 -0 1 0 1190.551)" font-size="6.9738" font-family="CMBX7" font-weight="bold"><tspan y="-923.886" x="120.394">3</tspan></text>
<text xml:space="preserve" transform="matrix(1 0 -0 1 0 1190.551)" font-size="9.9626" font-family="CMBX10" font-weight="bold"><tspan y="-923.886" x="129.88899 136.5739 142.3024 148.6685 157.20645 161.97853 168.34464 173.91373 179.96103 186.32714">pourchaque</tspan></text>
<text xml:space="preserve" transform="matrix(1 0 -0 1 0 1190.551)" font-size="9.9626" font-family="CMTI10" font-style="italic"><tspan y="-923.886" x="194.89499 199.98587 203.04439 206.74053 210.81523 215.39803 218.70561 221.76413 226.85501 236.01065 241.10153 246.19242 251.80136 259.4327 264.5236 269.10639">directiondansdep</tspan></text>
<path transform="matrix(1,0,0,-1,274.813,266.466)" stroke-width=".398" stroke-linecap="butt" stroke-miterlimit="10" stroke-linejoin="miter" fill="none" stroke="#000000" d="M0 0H3.055"/>
<text xml:space="preserve" transform="matrix(1 0 -0 1 0 1190.551)" font-size="9.9626" font-family="CMTI10" font-style="italic"><tspan y="-923.886" x="277.869 281.56513 286.656">roi</tspan></text>
<text xml:space="preserve" transform="matrix(1 0 -0 1 0 1190.551)" font-size="9.9626" font-family="CMBX10" font-weight="bold"><tspan y="-923.886" x="294.043 297.5399 303.10899 306.28706 311.0093">faire</tspan></text>
<path transform="matrix(1,0,0,-1,135.069,415.70606)" stroke-width=".398" stroke-linecap="butt" stroke-miterlimit="10" stroke-linejoin="miter" fill="none" stroke="#000000" d="M0 0V145.455"/>
<text xml:space="preserve" transform="matrix(1 0 -0 1 0 1190.551)" font-size="6.9738" font-family="CMBX7" font-weight="bold"><tspan y="-911.931" x="120.792">4</tspan></text>
<text xml:space="preserve" transform="matrix(1 0 -0 1 0 1190.551)" font-size="9.9626" font-family="CMR10"><tspan y="-911.931" x="145.231 151.04915 156.03044">pos</tspan></text>
<path transform="matrix(1,0,0,-1,160.552,278.42103)" stroke-width=".398" stroke-linecap="butt" stroke-miterlimit="10" stroke-linejoin="miter" fill="none" stroke="#000000" d="M0 0H2.989"/>
<text xml:space="preserve" transform="matrix(1 0 -0 1 0 1190.551)" font-size="9.9626" font-family="CMR10"><tspan y="-911.931" x="163.54 166.58855 172.12775 176.0032 181.5424">futur</tspan></text>
<text xml:space="preserve" transform="matrix(1 0 -0 1 0 1190.551)" font-size="9.9626" font-family="CMSY10" font-style="italic"><tspan y="-911.931" x="188.752">&#x2190;</tspan></text>
<text xml:space="preserve" transform="matrix(1 0 -0 1 0 1190.551)" font-size="9.9626" font-family="CMR10"><tspan y="-911.931" x="202.035 207.85315 212.83444 220.07726 231.1457 237.66124 242.64253 246.5678 250.44326 255.98246 258.75205 262.65739 267.08079 271.50419 275.37965 278.14924 283.13053 288.66975 291.43934 296.42063 299.19023 305.27735 310.81657 313.58616 317.4915 321.9149 326.3383 330.21376 332.98335 337.96464 343.50386 346.27345 351.25474 354.02433">pos+Pos(direction[0],direction[1])</tspan></text>
<text xml:space="preserve" transform="matrix(1 0 -0 1 0 1190.551)" font-size="6.9738" font-family="CMBX7" font-weight="bold"><tspan y="-899.976" x="120.79201">5</tspan></text>
<text xml:space="preserve" transform="matrix(1 0 -0 1 0 1190.551)" font-size="9.9626" font-family="CMBX10" font-weight="bold"><tspan y="-899.976" x="145.231 149.75403">si</tspan></text>
<text xml:space="preserve" transform="matrix(1 0 -0 1 0 1190.551)" font-size="9.9626" font-family="CMTI10" font-style="italic"><tspan y="-899.976" x="156.254 160.83679 165.92768">pos</tspan></text>
<path transform="matrix(1,0,0,-1,170.613,290.37605)" stroke-width=".398" stroke-linecap="butt" stroke-miterlimit="10" stroke-linejoin="miter" fill="none" stroke="#000000" d="M0 0H3.055"/>
<text xml:space="preserve" transform="matrix(1 0 -0 1 0 1190.551)" font-size="9.9626" font-family="CMTI10" font-style="italic"><tspan y="-899.976" x="173.668 176.72652 182.07643 185.38402 190.73394 198.50476 203.07759 206.13611 210.7189 214.79361 221.6678 226.25061 231.34149 238.9828 244.0737 249.16458 253.3688 261.01014 266.101 275.00758 280.09846 282.64888 287.73976 291.04734 295.12205 300.21293 309.12947 313.71226 320.58647 324.66117 327.21159 335.86909 339.9338 345.0247 349.0994 357.2488 362.3397 370.4891 375.0719 380.16279">futurn&#x2019;estpashorsduplateauet(lacasedepos</tspan></text>
<path transform="matrix(1,0,0,-1,384.833,290.37605)" stroke-width=".398" stroke-linecap="butt" stroke-miterlimit="10" stroke-linejoin="miter" fill="none" stroke="#000000" d="M0 0H3.055"/>
<text xml:space="preserve" transform="matrix(1 0 -0 1 0 1190.551)" font-size="9.9626" font-family="CMTI10" font-style="italic"><tspan y="-899.976" x="387.888 390.94654 396.29646 399.60404 404.95396 412.7248 417.2976 420.35615 424.93894 429.01365 435.88786 440.47065 445.56153 453.20286 457.78565 461.86036 466.44316 471.79307 476.6249 476.88395 481.46675 489.60618 494.69706 503.6136 508.19639 512.27108 519.1452 523.72799 527.8027 532.3855 537.7354 542.56729 542.81637 547.3992 555.5486 560.13137 565.2222 572.99307 578.34298 587.50857 592.5994 597.6903 602.27316 606.85598 611.0602 615.1349 620.22579 623.2843 626.97048 631.5533">futurn&#x2019;estpasoccup&#x00b4;eeouestoccup&#x00b4;eeparunadversaire)</tspan></text>
<text xml:space="preserve" transform="matrix(1 0 -0 1 0 1190.551)" font-size="9.9626" font-family="CMBX10" font-weight="bold"><tspan y="-899.976" x="639.302 644.8711 648.04916 653.77767 658.49996">alors</tspan></text>
<path transform="matrix(1,0,0,-1,150.412,402.755)" stroke-width=".398" stroke-linecap="butt" stroke-miterlimit="10" stroke-linejoin="miter" fill="none" stroke="#000000" d="M0 0V108.593"/>
<text xml:space="preserve" transform="matrix(1 0 -0 1 0 1190.551)" font-size="6.9738" font-family="CMBX7" font-weight="bold"><tspan y="-888.02" x="121.191">6</tspan></text>
<text xml:space="preserve" transform="matrix(1 0 -0 1 0 1190.551)" font-size="9.9626" font-family="CMBX10" font-weight="bold"><tspan y="-888.02" x="160.574 165.09703">si</tspan></text>
<text xml:space="preserve" transform="matrix(1 0 -0 1 0 1190.551)" font-size="9.9626" font-family="CMTI10" font-style="italic"><tspan y="-888.02" x="171.59601 174.65453 180.00444 184.07915 187.38674">juste</tspan></text>
<path transform="matrix(1,0,0,-1,192.575,302.33106)" stroke-width=".398" stroke-linecap="butt" stroke-miterlimit="10" stroke-linejoin="miter" fill="none" stroke="#000000" d="M0 0H3.055"/>
<text xml:space="preserve" transform="matrix(1 0 -0 1 0 1190.551)" font-size="9.9626" font-family="CMTI10" font-style="italic"><tspan y="-888.02" x="195.63 203.77942 208.8703 214.22022 218.80301 223.3858 231.53522 236.11801 241.717">mouvement</tspan></text>
<text xml:space="preserve" transform="matrix(1 0 -0 1 0 1190.551)" font-size="9.9626" font-family="CMBX10" font-weight="bold"><tspan y="-888.02" x="249.289 254.8581 258.03617 263.76466 268.4869">alors</tspan></text>
<path transform="matrix(1,0,0,-1,165.754,318.07203)" stroke-width=".398" stroke-linecap="butt" stroke-miterlimit="10" stroke-linejoin="miter" fill="none" stroke="#000000" d="M0 0V11.955"/>
<text xml:space="preserve" transform="matrix(1 0 -0 1 0 1190.551)" font-size="6.9738" font-family="CMBX7" font-weight="bold"><tspan y="-876.065" x="121.589">7</tspan></text>
<text xml:space="preserve" transform="matrix(1 0 -0 1 0 1190.551)" font-size="9.9626" font-family="CMR10"><tspan y="-876.065" x="175.916 183.38796 186.43651 191.4178 196.957 200.83246 205.25586 212.47875 218.29689 223.27819">Ajouterpos</tspan></text>
<path transform="matrix(1,0,0,-1,227.794,314.286)" stroke-width=".398" stroke-linecap="butt" stroke-miterlimit="10" stroke-linejoin="miter" fill="none" stroke="#000000" d="M0 0H2.989"/>
<text xml:space="preserve" transform="matrix(1 0 -0 1 0 1190.551)" font-size="9.9626" font-family="CMR10"><tspan y="-876.065" x="230.783 233.83156 239.37076 243.24622 248.78542 256.0083 256.0083 264.30714 267.07673 269.8463 273.78153 277.64704">futur`aliste</tspan></text>
<path transform="matrix(1,0,0,-1,282.661,314.286)" stroke-width=".398" stroke-linecap="butt" stroke-miterlimit="10" stroke-linejoin="miter" fill="none" stroke="#000000" d="M0 0H2.989"/>
<text xml:space="preserve" transform="matrix(1 0 -0 1 0 1190.551)" font-size="9.9626" font-family="CMR10"><tspan y="-876.065" x="285.649 293.94786 298.65019 303.64146">move</tspan></text>
<path transform="matrix(1,0,0,-1,308.663,314.286)" stroke-width=".398" stroke-linecap="butt" stroke-miterlimit="10" stroke-linejoin="miter" fill="none" stroke="#000000" d="M0 0H2.989"/>
<text xml:space="preserve" transform="matrix(1 0 -0 1 0 1190.551)" font-size="9.9626" font-family="CMR10"><tspan y="-876.065" x="311.652 315.55735 320.53865">roi</tspan></text>
<text xml:space="preserve" transform="matrix(1 0 -0 1 0 1190.551)" font-size="6.9738" font-family="CMBX7" font-weight="bold"><tspan y="-864.11" x="121.19101">8</tspan></text>
<text xml:space="preserve" transform="matrix(1 0 -0 1 0 1190.551)" font-size="9.9626" font-family="CMBX10" font-weight="bold"><tspan y="-864.11" x="160.574 165.09703 168.2751 174.6412 180.3697">sinon</tspan></text>
<path transform="matrix(1,0,0,-1,165.754,389.80305)" stroke-width=".398" stroke-linecap="butt" stroke-miterlimit="10" stroke-linejoin="miter" fill="none" stroke="#000000" d="M0 0V59.776"/>
<text xml:space="preserve" transform="matrix(1 0 -0 1 0 1190.551)" font-size="6.9738" font-family="CMBX7" font-weight="bold"><tspan y="-852.155" x="121.589">9</tspan></text>
<text xml:space="preserve" transform="matrix(1 0 -0 1 0 1190.551)" font-size="9.9626" font-family="CMR10"><tspan y="-852.155" x="175.916 181.4552 184.22481 192.2447 197.7839 200.55352 204.97692 212.20977 214.9694 222.72032 231.01917 236.00046 241.53966 246.52097 250.94437 259.24324 263.66664 268.92689 276.12986 281.66908 290.52583 294.43116 299.41246 305.49958 310.48088 314.9142 318.8096 326.06239 331.88056 336.86186">Simulerlemouvementduroiverspos</tspan></text>
<path transform="matrix(1,0,0,-1,341.368,338.19703)" stroke-width=".398" stroke-linecap="butt" stroke-miterlimit="10" stroke-linejoin="miter" fill="none" stroke="#000000" d="M0 0H2.989"/>
<text xml:space="preserve" transform="matrix(1 0 -0 1 0 1190.551)" font-size="9.9626" font-family="CMR10"><tspan y="-852.155" x="344.357 347.40556 352.94477 356.82023 362.35945">futur</tspan></text>
<text xml:space="preserve" transform="matrix(1 0 -0 1 0 1190.551)" font-size="6.9738" font-family="CMBX7" font-weight="bold"><tspan y="-840.2" x="117.07599 121.588039">10</tspan></text>
<text xml:space="preserve" transform="matrix(1 0 -0 1 0 1190.551)" font-size="9.9626" font-family="CMBX10" font-weight="bold"><tspan y="-840.2" x="175.91599 180.43901">si</tspan></text>
<text xml:space="preserve" transform="matrix(1 0 -0 1 0 1190.551)" font-size="9.9626" font-family="CMTI10" font-style="italic"><tspan y="-840.2" x="186.93898 189.48941 197.63881 201.33495 206.42584 213.04102 217.62381 220.68233 225.26512 229.33983 236.21402 240.79682 245.8877 253.529 258.11183 267.01838 267.26744 271.85023 276.433 281.5239 285.5986 293.74803 298.8389 303.92979 307.87498 308.134 312.7168 320.35813 322.8986 331.048 339.19743 344.2883 349.6382 354.221 358.8038 366.95323 371.536 377.13499">leroin&#x2019;estpasen&#x00b4;echecapr`eslemouvement</tspan></text>
<text xml:space="preserve" transform="matrix(1 0 -0 1 0 1190.551)" font-size="9.9626" font-family="CMBX10" font-weight="bold"><tspan y="-840.2" x="384.69999 390.26908 393.44715 399.17564 403.8979">alors</tspan></text>
<path transform="matrix(1,0,0,-1,181.097,365.893)" stroke-width=".398" stroke-linecap="butt" stroke-miterlimit="10" stroke-linejoin="miter" fill="none" stroke="#000000" d="M0 0V11.955"/>
<text xml:space="preserve" transform="matrix(1 0 -0 1 0 1190.551)" font-size="6.9738" font-family="CMBX7" font-weight="bold"><tspan y="-828.245" x="117.474 121.986049">11</tspan></text>
<text xml:space="preserve" transform="matrix(1 0 -0 1 0 1190.551)" font-size="9.9626" font-family="CMR10"><tspan y="-828.245" x="191.259 198.73096 201.77951 206.7608 212.3 216.17546 220.59886 227.82175 233.6399 238.62119">Ajouterpos</tspan></text>
<path transform="matrix(1,0,0,-1,243.137,362.10707)" stroke-width=".398" stroke-linecap="butt" stroke-miterlimit="10" stroke-linejoin="miter" fill="none" stroke="#000000" d="M0 0H2.989"/>
<text xml:space="preserve" transform="matrix(1 0 -0 1 0 1190.551)" font-size="9.9626" font-family="CMR10"><tspan y="-828.245" x="246.125 249.17356 254.71276 258.5882 264.1274 271.35029 271.35029 279.6591 282.42869 285.19828 289.12355 292.999">futur`aliste</tspan></text>
<path transform="matrix(1,0,0,-1,298.003,362.10707)" stroke-width=".398" stroke-linecap="butt" stroke-miterlimit="10" stroke-linejoin="miter" fill="none" stroke="#000000" d="M0 0H2.989"/>
<text xml:space="preserve" transform="matrix(1 0 -0 1 0 1190.551)" font-size="9.9626" font-family="CMR10"><tspan y="-828.245" x="300.992 309.29087 313.9932 318.9745">move</tspan></text>
<path transform="matrix(1,0,0,-1,324.006,362.10707)" stroke-width=".398" stroke-linecap="butt" stroke-miterlimit="10" stroke-linejoin="miter" fill="none" stroke="#000000" d="M0 0H2.989"/>
<text xml:space="preserve" transform="matrix(1 0 -0 1 0 1190.551)" font-size="9.9626" font-family="CMR10"><tspan y="-828.245" x="326.994 330.89933 335.8806">roi</tspan></text>
<text xml:space="preserve" transform="matrix(1 0 -0 1 0 1190.551)" font-size="6.9738" font-family="CMBX7" font-weight="bold"><tspan y="-816.289" x="117.07599 121.588039">12</tspan></text>
<text xml:space="preserve" transform="matrix(1 0 -0 1 0 1190.551)" font-size="9.9626" font-family="CMBX10" font-weight="bold"><tspan y="-816.289" x="175.91599 179.09406 182.28209">fin</tspan></text>
<text xml:space="preserve" transform="matrix(1 0 -0 1 0 1190.551)" font-size="6.9738" font-family="CMBX7" font-weight="bold"><tspan y="-804.334" x="117.07599 121.588039">13</tspan></text>
<text xml:space="preserve" transform="matrix(1 0 -0 1 0 1190.551)" font-size="9.9626" font-family="CMR10"><tspan y="-804.334" x="175.91599 183.38794 188.92714 194.1874 199.7266 202.4962 206.9196 214.14249 216.9121 224.66301 232.96186 237.94315 243.48235 248.46366 252.88706 261.1859 265.6093 270.86958 278.07255 281.9978 284.7674 292.7873 298.3265 300.81715 301.09608">Annulerlemouvementsimul&#x00b4;e</tspan></text>
<text xml:space="preserve" transform="matrix(1 0 -0 1 0 1190.551)" font-size="6.9738" font-family="CMBX7" font-weight="bold"><tspan y="-791.383" x="116.67699 121.18903">14</tspan></text>
<text xml:space="preserve" transform="matrix(1 0 -0 1 0 1190.551)" font-size="9.9626" font-family="CMBX10" font-weight="bold"><tspan y="-791.383" x="160.57399 163.75206 166.9401">fin</tspan></text>
<text xml:space="preserve" transform="matrix(1 0 -0 1 0 1190.551)" font-size="6.9738" font-family="CMBX7" font-weight="bold"><tspan y="-778.43099" x="116.27899 120.79104">15</tspan></text>
<text xml:space="preserve" transform="matrix(1 0 -0 1 0 1190.551)" font-size="9.9626" font-family="CMBX10" font-weight="bold"><tspan y="-778.43099" x="145.23099 148.40906 151.59709">fin</tspan></text>
<text xml:space="preserve" transform="matrix(1 0 -0 1 0 1190.551)" font-size="6.9738" font-family="CMBX7" font-weight="bold"><tspan y="-765.48" x="115.87999 120.39204">16</tspan></text>
<text xml:space="preserve" transform="matrix(1 0 -0 1 0 1190.551)" font-size="9.9626" font-family="CMBX10" font-weight="bold"><tspan y="-765.48" x="129.88899 133.06707 136.2551">fin</tspan></text>
<text xml:space="preserve" transform="matrix(1 0 -0 1 0 1190.551)" font-size="6.9738" font-family="CMBX7" font-weight="bold"><tspan y="-753.52499" x="115.87999 120.39204">17</tspan></text>
<text xml:space="preserve" transform="matrix(1 0 -0 1 0 1190.551)" font-size="9.9626" font-family="CMBX10" font-weight="bold"><tspan y="-753.52499" x="129.88899 134.61127 139.86156 144.31484 150.04334 156.40944 161.13172 167.49782 172.74811">retourner</tspan></text>
<text xml:space="preserve" transform="matrix(1 0 -0 1 0 1190.551)" font-size="9.9626" font-family="CMR10"><tspan y="-753.52499" x="180.78099 183.5506 186.3202 190.24547 194.12093">liste</tspan></text>
<path transform="matrix(1,0,0,-1,199.146,436.82704)" stroke-width=".398" stroke-linecap="butt" stroke-miterlimit="10" stroke-linejoin="miter" fill="none" stroke="#000000" d="M0 0H2.989"/>
<text xml:space="preserve" transform="matrix(1 0 -0 1 0 1190.551)" font-size="9.9626" font-family="CMR10"><tspan y="-753.525" x="202.134 210.43285 215.1352 220.12645">move</tspan></text>
<path transform="matrix(1,0,0,-1,225.148,436.82704)" stroke-width=".398" stroke-linecap="butt" stroke-miterlimit="10" stroke-linejoin="miter" fill="none" stroke="#000000" d="M0 0H2.989"/>
<text xml:space="preserve" transform="matrix(1 0 -0 1 0 1190.551)" font-size="9.9626" font-family="CMR10"><tspan y="-753.525" x="228.137 232.04233 237.02362">roi</tspan></text>
<path transform="matrix(1,0,0,-1,114.945,443.00404)" stroke-width=".797" stroke-linecap="butt" stroke-miterlimit="10" stroke-linejoin="miter" fill="none" stroke="#000000" d="M0 0H612"/>
</svg>
