<svg xmlns="http://www.w3.org/2000/svg" xmlns:xlink="http://www.w3.org/1999/xlink" version="1.1" width="841.89pt" height="1190.551pt" viewBox="0 0 841.89 1190.551">
<path transform="matrix(1,0,0,-1,114.945,191.60803)" stroke-width=".797" stroke-linecap="butt" stroke-miterlimit="10" stroke-linejoin="miter" fill="none" stroke="#000000" d="M0 0H612"/>
<text xml:space="preserve" transform="matrix(1 0 -0 1 0 1190.551)" font-size="9.9626" font-family="CMBX10" font-weight="bold"><tspan y="-989.634" x="122.417 131.0745 134.25257 139.98107 145.70957 150.43184 153.60991 158.06319 164.42929 173.97347 183.03943 192.59357">Algorithme2:</tspan></text>
<text xml:space="preserve" transform="matrix(1 0 -0 1 0 1190.551)" font-size="9.9626" font-family="CMR10"><tspan y="-989.634" x="199.108 201.87761 204.64722 208.57248 212.44794">liste</tspan></text>
<path transform="matrix(1,0,0,-1,217.473,200.71802)" stroke-width=".398" stroke-linecap="butt" stroke-miterlimit="10" stroke-linejoin="miter" fill="none" stroke="#000000" d="M0 0H2.989"/>
<text xml:space="preserve" transform="matrix(1 0 -0 1 0 1190.551)" font-size="9.9626" font-family="CMR10"><tspan y="-989.634" x="220.461 228.75984 233.74114 239.28034 244.26165 248.68505 256.9839 261.4073 266.67753">mouvement</tspan></text>
<path transform="matrix(1,0,0,-1,271.149,200.71802)" stroke-width=".398" stroke-linecap="butt" stroke-miterlimit="10" stroke-linejoin="miter" fill="none" stroke="#000000" d="M0 0H2.989"/>
<text xml:space="preserve" transform="matrix(1 0 -0 1 0 1190.551)" font-size="9.9626" font-family="CMR10"><tspan y="-989.634" x="274.138 277.18656 282.16786">fou</tspan></text>
<path transform="matrix(1,0,0,-1,114.945,205.245)" stroke-width=".797" stroke-linecap="butt" stroke-miterlimit="10" stroke-linejoin="miter" fill="none" stroke="#000000" d="M0 0H612"/>
<text xml:space="preserve" transform="matrix(1 0 -0 1 0 1190.551)" font-size="9.9626" font-family="CMBX10" font-weight="bold"><tspan y="-975.996" x="129.889 138.67603 144.40453 150.77063 156.89763 157.13674 162.38703 167.63732 175.97602">Donn&#x00b4;ees:</tspan></text>
<text xml:space="preserve" transform="matrix(1 0 -0 1 0 1190.551)" font-size="9.9626" font-family="CMR10"><tspan y="-975.996" x="182.477 188.98259 193.96389 197.88915 200.65876 204.53421 207.30382 212.28511 221.15183 226.13312 230.55652 234.43198 239.97118 244.39458 247.16419 249.93379 257.67475 263.21397 272.0707 275.11927 280.10057 288.9573 295.0544 300.8626 305.8439">Positionactuelledufou:pos</tspan></text>
<text xml:space="preserve" transform="matrix(1 0 -0 1 0 1190.551)" font-size="9.9626" font-family="CMBX10" font-weight="bold"><tspan y="-964.04098" x="129.889 138.24762 138.48673 143.73702 148.26004 154.62615 157.80422 162.25749 167.82659 176.09554">R&#x00b4;esultat:</tspan></text>
<text xml:space="preserve" transform="matrix(1 0 -0 1 0 1190.551)" font-size="9.9626" font-family="CMR10"><tspan y="-964.04098" x="182.602 188.82863 191.59824 195.5235 199.39896 207.13991 212.67911 217.10251 224.35529 232.65413 237.63542 243.17462 248.15593 252.57933 260.87818 265.30158 270.56184 274.4373 281.69007 286.39244 291.37373 294.1433 296.9129 302.45213 306.87553 314.11833 319.65754 328.52427 331.5728 336.5541 345.41087 351.498 354.26759 357.03718 360.96244 364.8379">Listedesmouvementsvalidesdufou:liste</tspan></text>
<path transform="matrix(1,0,0,-1,369.861,226.31104)" stroke-width=".398" stroke-linecap="butt" stroke-miterlimit="10" stroke-linejoin="miter" fill="none" stroke="#000000" d="M0 0H2.989"/>
<text xml:space="preserve" transform="matrix(1 0 -0 1 0 1190.551)" font-size="9.9626" font-family="CMR10"><tspan y="-964.041" x="372.85 381.14888 385.8512 390.8325">move</tspan></text>
<path transform="matrix(1,0,0,-1,395.864,226.31104)" stroke-width=".398" stroke-linecap="butt" stroke-miterlimit="10" stroke-linejoin="miter" fill="none" stroke="#000000" d="M0 0H2.989"/>
<text xml:space="preserve" transform="matrix(1 0 -0 1 0 1190.551)" font-size="9.9626" font-family="CMR10"><tspan y="-964.041" x="398.853 401.90156 406.88285">fou</tspan></text>
<text xml:space="preserve" transform="matrix(1 0 -0 1 0 1190.551)" font-size="6.9738" font-family="CMBX7" font-weight="bold"><tspan y="-947.796" x="120.39398">1</tspan></text>
<text xml:space="preserve" transform="matrix(1 0 -0 1 0 1190.551)" font-size="9.9626" font-family="CMR10"><tspan y="-947.796" x="129.88898 133.48548 139.02468 141.79428 145.66974 148.43935 153.42064 156.19025 158.95986 162.88512 167.30852 174.5314 177.30101 180.07062 183.99588 187.87134">Initialiserliste</tspan></text>
<path transform="matrix(1,0,0,-1,192.892,242.55506)" stroke-width=".398" stroke-linecap="butt" stroke-miterlimit="10" stroke-linejoin="miter" fill="none" stroke="#000000" d="M0 0H2.989"/>
<text xml:space="preserve" transform="matrix(1 0 -0 1 0 1190.551)" font-size="9.9626" font-family="CMR10"><tspan y="-947.796" x="195.88 204.17885 208.8812 213.87245">move</tspan></text>
<path transform="matrix(1,0,0,-1,218.894,242.55506)" stroke-width=".398" stroke-linecap="butt" stroke-miterlimit="10" stroke-linejoin="miter" fill="none" stroke="#000000" d="M0 0H2.989"/>
<text xml:space="preserve" transform="matrix(1 0 -0 1 0 1190.551)" font-size="9.9626" font-family="CMR10"><tspan y="-947.796" x="221.883 224.93155 229.91284 238.76959 243.193 248.17429 256.47315 264.772 272.52293 278.06214 283.60136 291.3423 294.11189 296.88148 300.80674 304.6822 312.42314 317.68339 320.45298 325.9922">foucommeunelistevide</tspan></text>
<text xml:space="preserve" transform="matrix(1 0 -0 1 0 1190.551)" font-size="6.9738" font-family="CMBX7" font-weight="bold"><tspan y="-935.841" x="120.394">2</tspan></text>
<text xml:space="preserve" transform="matrix(1 0 -0 1 0 1190.551)" font-size="9.9626" font-family="CMR10"><tspan y="-935.841" x="129.88899 137.22147 137.50041 141.92382 144.68843 147.46302 153.00222 155.77182 162.9947 168.5339 172.9573">D&#x00b4;efinirdep</tspan></text>
<path transform="matrix(1,0,0,-1,179.082,254.51105)" stroke-width=".398" stroke-linecap="butt" stroke-miterlimit="10" stroke-linejoin="miter" fill="none" stroke="#000000" d="M0 0H2.989"/>
<text xml:space="preserve" transform="matrix(1 0 -0 1 0 1190.551)" font-size="9.9626" font-family="CMR10"><tspan y="-935.841" x="182.071 185.11956 190.10085 198.9576 203.381 208.36229 216.66114 224.95998 232.71089 235.4805 239.9039 247.14672 255.44556 260.98478 263.75437 267.6597 272.0831 276.5065 280.38197 283.15156 288.13285 293.67207 300.92485 306.46406 309.23365 314.21495 319.19624 324.17753 329.71675 334.69804 337.46763 341.89103">foucommeles4directionsdiagonales</tspan></text>
<text xml:space="preserve" transform="matrix(1 0 -0 1 0 1190.551)" font-size="6.9738" font-family="CMBX7" font-weight="bold"><tspan y="-923.886" x="120.394">3</tspan></text>
<text xml:space="preserve" transform="matrix(1 0 -0 1 0 1190.551)" font-size="9.9626" font-family="CMBX10" font-weight="bold"><tspan y="-923.886" x="129.88899 136.5739 142.3024 148.6685 157.20645 161.97853 168.34464 173.91373 179.96103 186.32714">pourchaque</tspan></text>
<text xml:space="preserve" transform="matrix(1 0 -0 1 0 1190.551)" font-size="9.9626" font-family="CMTI10" font-style="italic"><tspan y="-923.886" x="194.89499 199.98587 203.04439 206.74053 210.81523 215.39803 218.70561 221.76413 226.85501 236.01065 241.10153 246.19242 251.80136 259.4327 264.5236 269.10639">directiondansdep</tspan></text>
<path transform="matrix(1,0,0,-1,274.813,266.466)" stroke-width=".398" stroke-linecap="butt" stroke-miterlimit="10" stroke-linejoin="miter" fill="none" stroke="#000000" d="M0 0H3.055"/>
<text xml:space="preserve" transform="matrix(1 0 -0 1 0 1190.551)" font-size="9.9626" font-family="CMTI10" font-style="italic"><tspan y="-923.886" x="277.869 280.92753 286.0184">fou</tspan></text>
<text xml:space="preserve" transform="matrix(1 0 -0 1 0 1190.551)" font-size="9.9626" font-family="CMBX10" font-weight="bold"><tspan y="-923.886" x="295.447 298.94389 304.51298 307.69105 312.4133">faire</tspan></text>
<path transform="matrix(1,0,0,-1,135.069,488.43305)" stroke-width=".398" stroke-linecap="butt" stroke-miterlimit="10" stroke-linejoin="miter" fill="none" stroke="#000000" d="M0 0V218.182"/>
<text xml:space="preserve" transform="matrix(1 0 -0 1 0 1190.551)" font-size="6.9738" font-family="CMBX7" font-weight="bold"><tspan y="-911.931" x="120.792">4</tspan></text>
<text xml:space="preserve" transform="matrix(1 0 -0 1 0 1190.551)" font-size="9.9626" font-family="CMR10"><tspan y="-911.931" x="145.231">j</tspan></text>
<text xml:space="preserve" transform="matrix(1 0 -0 1 0 1190.551)" font-size="9.9626" font-family="CMSY10" font-style="italic"><tspan y="-911.931" x="151.59601">&#x2190;</tspan></text>
<text xml:space="preserve" transform="matrix(1 0 -0 1 0 1190.551)" font-size="9.9626" font-family="CMR10"><tspan y="-911.931" x="164.88">1</tspan></text>
<text xml:space="preserve" transform="matrix(1 0 -0 1 0 1190.551)" font-size="6.9738" font-family="CMBX7" font-weight="bold"><tspan y="-899.976" x="120.79201">5</tspan></text>
<text xml:space="preserve" transform="matrix(1 0 -0 1 0 1190.551)" font-size="9.9626" font-family="CMR10"><tspan y="-899.976" x="145.231 147.99562 150.7702 155.7515">flag</tspan></text>
<text xml:space="preserve" transform="matrix(1 0 -0 1 0 1190.551)" font-size="9.9626" font-family="CMSY10" font-style="italic"><tspan y="-899.976" x="164.05">&#x2190;</tspan></text>
<text xml:space="preserve" transform="matrix(1 0 -0 1 0 1190.551)" font-size="9.9626" font-family="CMR10"><tspan y="-899.976" x="177.33301 184.80496 192.13744 199.60939">VRAI</tspan></text>
<text xml:space="preserve" transform="matrix(1 0 -0 1 0 1190.551)" font-size="6.9738" font-family="CMBX7" font-weight="bold"><tspan y="-888.02" x="120.79201">6</tspan></text>
<text xml:space="preserve" transform="matrix(1 0 -0 1 0 1190.551)" font-size="9.9626" font-family="CMBX10" font-weight="bold"><tspan y="-888.02" x="145.231 149.68428 155.25337 161.30068 169.56963 175.62689 181.98303">tantque</tspan></text>
<text xml:space="preserve" transform="matrix(1 0 -0 1 0 1190.551)" font-size="9.9626" font-family="CMTI10" font-style="italic"><tspan y="-888.02" x="190.561">j</tspan></text>
<text xml:space="preserve" transform="matrix(1 0 -0 1 0 1190.551)" font-size="9.9626" font-family="CMSY10" font-style="italic"><tspan y="-888.02" x="197.181">&#x2264;</tspan></text>
<text xml:space="preserve" transform="matrix(1 0 -0 1 0 1190.551)" font-size="9.9626" font-family="CMTI10" font-style="italic"><tspan y="-888.02" x="208.494 216.6434 221.73429 226.35694 230.43164 237.83385 244.96707 252.60839 258.85493 266.49626 273.89848 281.3007 288.05534 293.6543 300.27946 307.68168 313.92823 317.77378 325.48484 332.88706 339.6417 345.24067 352.882 357.46479 364.329 367.25303 370.187 375.2779">max(NCOLONNES,NLIGNES)etflag</tspan></text>
<text xml:space="preserve" transform="matrix(1 0 -0 1 0 1190.551)" font-size="9.9626" font-family="CMBX10" font-weight="bold"><tspan y="-888.02" x="384.07203 387.5689 393.138 396.31608 401.03834">faire</tspan></text>
<path transform="matrix(1,0,0,-1,150.412,475.48207)" stroke-width=".398" stroke-linecap="butt" stroke-miterlimit="10" stroke-linejoin="miter" fill="none" stroke="#000000" d="M0 0V169.365"/>
<text xml:space="preserve" transform="matrix(1 0 -0 1 0 1190.551)" font-size="6.9738" font-family="CMBX7" font-weight="bold"><tspan y="-876.065" x="121.191">7</tspan></text>
<text xml:space="preserve" transform="matrix(1 0 -0 1 0 1190.551)" font-size="9.9626" font-family="CMR10"><tspan y="-876.065" x="160.574 166.39215 171.37345">pos</tspan></text>
<path transform="matrix(1,0,0,-1,175.894,314.286)" stroke-width=".398" stroke-linecap="butt" stroke-miterlimit="10" stroke-linejoin="miter" fill="none" stroke="#000000" d="M0 0H2.989"/>
<text xml:space="preserve" transform="matrix(1 0 -0 1 0 1190.551)" font-size="9.9626" font-family="CMR10"><tspan y="-876.065" x="178.883 181.93155 187.47075 191.3462 196.8854">futur</tspan></text>
<text xml:space="preserve" transform="matrix(1 0 -0 1 0 1190.551)" font-size="9.9626" font-family="CMSY10" font-style="italic"><tspan y="-876.065" x="204.094">&#x2190;</tspan></text>
<text xml:space="preserve" transform="matrix(1 0 -0 1 0 1190.551)" font-size="9.9626" font-family="CMR10"><tspan y="-876.065" x="217.37799 223.19614 228.17743 235.42024 246.4887 253.00423 257.98554 261.9108 265.78627 271.32548 274.09507 278.0004 282.4238 286.8472 290.72267 293.49226 298.47355 304.01277 306.78236 311.76365 317.85078 326.1496 329.19816 335.28529 340.8245 343.5941 347.49943 351.92283 356.34623 360.22169 362.99128 367.97257 373.51179 376.28138 381.26268 387.35978 395.6586 398.70716">pos+Pos(direction[0]*j,direction[1]*j)</tspan></text>
<text xml:space="preserve" transform="matrix(1 0 -0 1 0 1190.551)" font-size="6.9738" font-family="CMBX7" font-weight="bold"><tspan y="-864.11" x="121.190998">8</tspan></text>
<text xml:space="preserve" transform="matrix(1 0 -0 1 0 1190.551)" font-size="9.9626" font-family="CMBX10" font-weight="bold"><tspan y="-864.11" x="160.57399 165.09702">si</tspan></text>
<text xml:space="preserve" transform="matrix(1 0 -0 1 0 1190.551)" font-size="9.9626" font-family="CMTI10" font-style="italic"><tspan y="-864.11" x="171.596 176.1788 181.26969">pos</tspan></text>
<path transform="matrix(1,0,0,-1,185.956,326.242)" stroke-width=".398" stroke-linecap="butt" stroke-miterlimit="10" stroke-linejoin="miter" fill="none" stroke="#000000" d="M0 0H3.055"/>
<text xml:space="preserve" transform="matrix(1 0 -0 1 0 1190.551)" font-size="9.9626" font-family="CMTI10" font-style="italic"><tspan y="-864.11" x="189.011 192.06952 197.41944 200.72702 206.07694 213.84777 218.43056 222.50527 229.3695 234.46039 239.55127 243.7555 251.3968 256.4877 265.40425 270.49513 273.04554 278.1364 281.444 285.5187 290.6096">futuresthorsduplateau</tspan></text>
<text xml:space="preserve" transform="matrix(1 0 -0 1 0 1190.551)" font-size="9.9626" font-family="CMBX10" font-weight="bold"><tspan y="-864.11" x="300.028 305.5971 308.77519 314.50367 319.22593">alors</tspan></text>
<path transform="matrix(1,0,0,-1,165.754,353.93806)" stroke-width=".398" stroke-linecap="butt" stroke-miterlimit="10" stroke-linejoin="miter" fill="none" stroke="#000000" d="M0 0V23.91"/>
<text xml:space="preserve" transform="matrix(1 0 -0 1 0 1190.551)" font-size="6.9738" font-family="CMBX7" font-weight="bold"><tspan y="-852.155" x="121.589">9</tspan></text>
<text xml:space="preserve" transform="matrix(1 0 -0 1 0 1190.551)" font-size="9.9626" font-family="CMR10"><tspan y="-852.155" x="175.916 178.68062 181.4552 186.4365">flag</tspan></text>
<text xml:space="preserve" transform="matrix(1 0 -0 1 0 1190.551)" font-size="9.9626" font-family="CMSY10" font-style="italic"><tspan y="-852.155" x="194.735">&#x2190;</tspan></text>
<text xml:space="preserve" transform="matrix(1 0 -0 1 0 1190.551)" font-size="9.9626" font-family="CMR10"><tspan y="-852.155" x="208.018 213.41774 220.61075 228.0827">FAUX</tspan></text>
<text xml:space="preserve" transform="matrix(1 0 -0 1 0 1190.551)" font-size="6.9738" font-family="CMBX7" font-weight="bold"><tspan y="-840.2" x="117.076007 121.58805">10</tspan></text>
<text xml:space="preserve" transform="matrix(1 0 -0 1 0 1190.551)" font-size="9.9626" font-family="CMR10"><tspan y="-840.2" x="175.916 180.3394 185.3207 190.58095 194.4564 197.22602 202.48627 208.02547">continue</tspan></text>
<text xml:space="preserve" transform="matrix(1 0 -0 1 0 1190.551)" font-size="6.9738" font-family="CMBX7" font-weight="bold"><tspan y="-827.248" x="116.677 121.18905">11</tspan></text>
<text xml:space="preserve" transform="matrix(1 0 -0 1 0 1190.551)" font-size="9.9626" font-family="CMBX10" font-weight="bold"><tspan y="-827.248" x="160.574 163.75208 166.94011">fin</tspan></text>
<text xml:space="preserve" transform="matrix(1 0 -0 1 0 1190.551)" font-size="6.9738" font-family="CMBX7" font-weight="bold"><tspan y="-815.29299" x="116.677 121.18905">12</tspan></text>
<text xml:space="preserve" transform="matrix(1 0 -0 1 0 1190.551)" font-size="9.9626" font-family="CMBX10" font-weight="bold"><tspan y="-815.29299" x="160.574 165.09703">si</tspan></text>
<text xml:space="preserve" transform="matrix(1 0 -0 1 0 1190.551)" font-size="9.9626" font-family="CMTI10" font-style="italic"><tspan y="-815.29299" x="171.59601 174.14644 182.80394 186.87865 191.96955 196.04425 204.18369 209.27457 217.42397 222.00678 227.09766">lacasedepos</tspan></text>
<path transform="matrix(1,0,0,-1,231.783,375.05903)" stroke-width=".398" stroke-linecap="butt" stroke-miterlimit="10" stroke-linejoin="miter" fill="none" stroke="#000000" d="M0 0H3.055"/>
<text xml:space="preserve" transform="matrix(1 0 -0 1 0 1190.551)" font-size="9.9626" font-family="CMTI10" font-style="italic"><tspan y="-815.293" x="234.839 237.89752 243.24744 246.55503 251.90494 259.67579 264.25859 268.33329 275.1975 279.7803 283.855 288.4378 293.78773 298.62956 298.8786 303.4614">futurestoccup&#x00b4;ee</tspan></text>
<text xml:space="preserve" transform="matrix(1 0 -0 1 0 1190.551)" font-size="9.9626" font-family="CMBX10" font-weight="bold"><tspan y="-815.293" x="312.105 317.6741 320.85218 326.58067 331.30293">alors</tspan></text>
<path transform="matrix(1,0,0,-1,165.754,426.66505)" stroke-width=".398" stroke-linecap="butt" stroke-miterlimit="10" stroke-linejoin="miter" fill="none" stroke="#000000" d="M0 0V47.821"/>
<text xml:space="preserve" transform="matrix(1 0 -0 1 0 1190.551)" font-size="6.9738" font-family="CMBX7" font-weight="bold"><tspan y="-803.338" x="117.076 121.58804">13</tspan></text>
<text xml:space="preserve" transform="matrix(1 0 -0 1 0 1190.551)" font-size="9.9626" font-family="CMBX10" font-weight="bold"><tspan y="-803.338" x="175.916 180.43903">si</tspan></text>
<text xml:space="preserve" transform="matrix(1 0 -0 1 0 1190.551)" font-size="9.9626" font-family="CMTI10" font-style="italic"><tspan y="-803.338" x="186.939 189.48943 198.14693 202.22164 207.31253 211.38724 219.52667 224.61756 232.76696 237.34976 242.44065">lacasedepos</tspan></text>
<path transform="matrix(1,0,0,-1,247.126,387.01405)" stroke-width=".398" stroke-linecap="butt" stroke-miterlimit="10" stroke-linejoin="miter" fill="none" stroke="#000000" d="M0 0H3.055"/>
<text xml:space="preserve" transform="matrix(1 0 -0 1 0 1190.551)" font-size="9.9626" font-family="CMTI10" font-style="italic"><tspan y="-803.338" x="250.181 253.23952 258.58946 261.89704 267.24696 275.0178 279.6006 283.6753 290.53953 295.1223 299.19703 303.77983 309.12974 313.97157 314.2206 318.8034 326.95283 331.5356 336.6265 344.39735 349.7373 358.9029 363.99378 369.08467 373.66746 378.25025 382.45448 386.52919 391.62007 394.6786 398.37474">futurestoccup&#x00b4;eeparunadversaire</tspan></text>
<text xml:space="preserve" transform="matrix(1 0 -0 1 0 1190.551)" font-size="9.9626" font-family="CMBX10" font-weight="bold"><tspan y="-803.338" x="407.01 412.5791 415.75718 421.48567 426.20793">alors</tspan></text>
<path transform="matrix(1,0,0,-1,181.097,402.755)" stroke-width=".398" stroke-linecap="butt" stroke-miterlimit="10" stroke-linejoin="miter" fill="none" stroke="#000000" d="M0 0V11.955"/>
<text xml:space="preserve" transform="matrix(1 0 -0 1 0 1190.551)" font-size="6.9738" font-family="CMBX7" font-weight="bold"><tspan y="-791.383" x="117.474 121.986049">14</tspan></text>
<text xml:space="preserve" transform="matrix(1 0 -0 1 0 1190.551)" font-size="9.9626" font-family="CMR10"><tspan y="-791.383" x="191.259 198.73096 201.77951 206.7608 212.3 216.17546 220.59886 227.82175 233.6399 238.62119">Ajouterpos</tspan></text>
<path transform="matrix(1,0,0,-1,243.137,398.96907)" stroke-width=".398" stroke-linecap="butt" stroke-miterlimit="10" stroke-linejoin="miter" fill="none" stroke="#000000" d="M0 0H2.989"/>
<text xml:space="preserve" transform="matrix(1 0 -0 1 0 1190.551)" font-size="9.9626" font-family="CMR10"><tspan y="-791.383" x="246.125 249.17356 254.71276 258.5882 264.1274 271.35029 271.35029 279.6591 282.42869 285.19828 289.12355 292.999">futur`aliste</tspan></text>
<path transform="matrix(1,0,0,-1,298.003,398.96907)" stroke-width=".398" stroke-linecap="butt" stroke-miterlimit="10" stroke-linejoin="miter" fill="none" stroke="#000000" d="M0 0H2.989"/>
<text xml:space="preserve" transform="matrix(1 0 -0 1 0 1190.551)" font-size="9.9626" font-family="CMR10"><tspan y="-791.383" x="300.992 309.29087 313.9932 318.9745">move</tspan></text>
<path transform="matrix(1,0,0,-1,324.006,398.96907)" stroke-width=".398" stroke-linecap="butt" stroke-miterlimit="10" stroke-linejoin="miter" fill="none" stroke="#000000" d="M0 0H2.989"/>
<text xml:space="preserve" transform="matrix(1 0 -0 1 0 1190.551)" font-size="9.9626" font-family="CMR10"><tspan y="-791.383" x="326.994 330.04255 335.02384">fou</tspan></text>
<text xml:space="preserve" transform="matrix(1 0 -0 1 0 1190.551)" font-size="6.9738" font-family="CMBX7" font-weight="bold"><tspan y="-779.428" x="117.07599 121.588039">15</tspan></text>
<text xml:space="preserve" transform="matrix(1 0 -0 1 0 1190.551)" font-size="9.9626" font-family="CMBX10" font-weight="bold"><tspan y="-779.428" x="175.91599 179.09406 182.28209">fin</tspan></text>
<text xml:space="preserve" transform="matrix(1 0 -0 1 0 1190.551)" font-size="6.9738" font-family="CMBX7" font-weight="bold"><tspan y="-767.47299" x="117.07599 121.588039">16</tspan></text>
<text xml:space="preserve" transform="matrix(1 0 -0 1 0 1190.551)" font-size="9.9626" font-family="CMR10"><tspan y="-767.47299" x="175.91599 178.6806 181.45519 186.43648">flag</tspan></text>
<text xml:space="preserve" transform="matrix(1 0 -0 1 0 1190.551)" font-size="9.9626" font-family="CMSY10" font-style="italic"><tspan y="-767.47299" x="194.73499">&#x2190;</tspan></text>
<text xml:space="preserve" transform="matrix(1 0 -0 1 0 1190.551)" font-size="9.9626" font-family="CMR10"><tspan y="-767.47299" x="208.01799 213.41773 220.61074 228.08269">FAUX</tspan></text>
<text xml:space="preserve" transform="matrix(1 0 -0 1 0 1190.551)" font-size="6.9738" font-family="CMBX7" font-weight="bold"><tspan y="-754.52096" x="116.67699 121.18903">17</tspan></text>
<text xml:space="preserve" transform="matrix(1 0 -0 1 0 1190.551)" font-size="9.9626" font-family="CMBX10" font-weight="bold"><tspan y="-754.52096" x="160.57399 165.09702 168.27509 174.64119 180.36969">sinon</tspan></text>
<path transform="matrix(1,0,0,-1,165.754,451.57203)" stroke-width=".398" stroke-linecap="butt" stroke-miterlimit="10" stroke-linejoin="miter" fill="none" stroke="#000000" d="M0 0V11.955"/>
<text xml:space="preserve" transform="matrix(1 0 -0 1 0 1190.551)" font-size="6.9738" font-family="CMBX7" font-weight="bold"><tspan y="-742.566" x="117.076 121.58804">18</tspan></text>
<text xml:space="preserve" transform="matrix(1 0 -0 1 0 1190.551)" font-size="9.9626" font-family="CMR10"><tspan y="-742.566" x="175.916 183.38796 186.43651 191.4178 196.957 200.83246 205.25586 212.47875 218.29689 223.27819">Ajouterpos</tspan></text>
<path transform="matrix(1,0,0,-1,227.794,447.786)" stroke-width=".398" stroke-linecap="butt" stroke-miterlimit="10" stroke-linejoin="miter" fill="none" stroke="#000000" d="M0 0H2.989"/>
<text xml:space="preserve" transform="matrix(1 0 -0 1 0 1190.551)" font-size="9.9626" font-family="CMR10"><tspan y="-742.566" x="230.783 233.83156 239.37076 243.24622 248.78542 256.0083 256.0083 264.30714 267.07673 269.8463 273.78153 277.64704">futur`aliste</tspan></text>
<path transform="matrix(1,0,0,-1,282.661,447.786)" stroke-width=".398" stroke-linecap="butt" stroke-miterlimit="10" stroke-linejoin="miter" fill="none" stroke="#000000" d="M0 0H2.989"/>
<text xml:space="preserve" transform="matrix(1 0 -0 1 0 1190.551)" font-size="9.9626" font-family="CMR10"><tspan y="-742.566" x="285.649 293.94786 298.65019 303.64146">move</tspan></text>
<path transform="matrix(1,0,0,-1,308.663,447.786)" stroke-width=".398" stroke-linecap="butt" stroke-miterlimit="10" stroke-linejoin="miter" fill="none" stroke="#000000" d="M0 0H2.989"/>
<text xml:space="preserve" transform="matrix(1 0 -0 1 0 1190.551)" font-size="9.9626" font-family="CMR10"><tspan y="-742.566" x="311.652 314.70057 319.68186">fou</tspan></text>
<text xml:space="preserve" transform="matrix(1 0 -0 1 0 1190.551)" font-size="6.9738" font-family="CMBX7" font-weight="bold"><tspan y="-730.61099" x="116.677 121.18905">19</tspan></text>
<text xml:space="preserve" transform="matrix(1 0 -0 1 0 1190.551)" font-size="9.9626" font-family="CMBX10" font-weight="bold"><tspan y="-730.61099" x="160.574 163.75208 166.94011">fin</tspan></text>
<text xml:space="preserve" transform="matrix(1 0 -0 1 0 1190.551)" font-size="6.9738" font-family="CMBX7" font-weight="bold"><tspan y="-718.65597" x="116.677 121.18905">20</tspan></text>
<text xml:space="preserve" transform="matrix(1 0 -0 1 0 1190.551)" font-size="9.9626" font-family="CMR10"><tspan y="-718.65597" x="160.574">j</tspan></text>
<text xml:space="preserve" transform="matrix(1 0 -0 1 0 1190.551)" font-size="9.9626" font-family="CMSY10" font-style="italic"><tspan y="-718.65597" x="166.93901">&#x2190;</tspan></text>
<text xml:space="preserve" transform="matrix(1 0 -0 1 0 1190.551)" font-size="9.9626" font-family="CMR10"><tspan y="-718.65597" x="180.22202 186.58812 197.66654">j+1</tspan></text>
<text xml:space="preserve" transform="matrix(1 0 -0 1 0 1190.551)" font-size="6.9738" font-family="CMBX7" font-weight="bold"><tspan y="-705.7039" x="116.279018 120.79106">21</tspan></text>
<text xml:space="preserve" transform="matrix(1 0 -0 1 0 1190.551)" font-size="9.9626" font-family="CMBX10" font-weight="bold"><tspan y="-705.7039" x="145.23102 148.40909 151.59712">fin</tspan></text>
<text xml:space="preserve" transform="matrix(1 0 -0 1 0 1190.551)" font-size="6.9738" font-family="CMBX7" font-weight="bold"><tspan y="-692.7529" x="115.88002 120.39207">22</tspan></text>
<text xml:space="preserve" transform="matrix(1 0 -0 1 0 1190.551)" font-size="9.9626" font-family="CMBX10" font-weight="bold"><tspan y="-692.7529" x="129.88903 133.0671 136.25513">fin</tspan></text>
<text xml:space="preserve" transform="matrix(1 0 -0 1 0 1190.551)" font-size="6.9738" font-family="CMBX7" font-weight="bold"><tspan y="-680.7979" x="115.88002 120.39207">23</tspan></text>
<text xml:space="preserve" transform="matrix(1 0 -0 1 0 1190.551)" font-size="9.9626" font-family="CMBX10" font-weight="bold"><tspan y="-680.7979" x="129.88903 134.6113 139.86159 144.31487 150.04337 156.40947 161.13175 167.49785 172.74814">retourner</tspan></text>
<text xml:space="preserve" transform="matrix(1 0 -0 1 0 1190.551)" font-size="9.9626" font-family="CMR10"><tspan y="-680.7979" x="180.78102 183.55063 186.32024 190.2455 194.12096">liste</tspan></text>
<path transform="matrix(1,0,0,-1,199.146,509.55403)" stroke-width=".398" stroke-linecap="butt" stroke-miterlimit="10" stroke-linejoin="miter" fill="none" stroke="#000000" d="M0 0H2.989"/>
<text xml:space="preserve" transform="matrix(1 0 -0 1 0 1190.551)" font-size="9.9626" font-family="CMR10"><tspan y="-680.798" x="202.134 210.43285 215.1352 220.12645">move</tspan></text>
<path transform="matrix(1,0,0,-1,225.148,509.55403)" stroke-width=".398" stroke-linecap="butt" stroke-miterlimit="10" stroke-linejoin="miter" fill="none" stroke="#000000" d="M0 0H2.989"/>
<text xml:space="preserve" transform="matrix(1 0 -0 1 0 1190.551)" font-size="9.9626" font-family="CMR10"><tspan y="-680.798" x="228.137 231.18555 236.16684">fou</tspan></text>
<path transform="matrix(1,0,0,-1,114.945,515.731)" stroke-width=".797" stroke-linecap="butt" stroke-miterlimit="10" stroke-linejoin="miter" fill="none" stroke="#000000" d="M0 0H612"/>
</svg>
