<?xml version="1.0" encoding="UTF-8" standalone="no"?>
<!DOCTYPE svg PUBLIC "-//W3C//DTD SVG 1.1//EN" "http://www.w3.org/Graphics/SVG/1.1/DTD/svg11.dtd">
<svg xmlns="http://www.w3.org/2000/svg" xmlns:xlink="http://www.w3.org/1999/xlink" version="1.1" width="612.95498pt" height="120.00629pt" viewBox="0 0 612.95498 120.00629" style="background-color:white">
<g enable-background="new">
<path transform="matrix(1,0,0,-1,.47750093,1.4442749)" stroke-width=".797" stroke-linecap="butt" stroke-miterlimit="10" stroke-linejoin="miter" fill="none" stroke="#000000" d="M 0 0 L 612 0 "/>
<symbol id="font_0_e">
<path d="M .43300004 .67200008 C .42200003 .698 .41000004 .698 .393 .698 C .365 .698 .361 .69000008 .354 .67200008 L .106 .07 C .1 .055000005 .09700001 .047000003 .021000002 .047000003 L 0 .047000003 L 0 0 C .038000004 .001 .086 .003 .117000009 .003 C .15600002 .003 .21200001 .003 .24900002 0 L .24900002 .047000003 C .24700001 .047000003 .16 .047000003 .16 .060000004 C .16 .061000006 .16300002 .071 .164 .072000008 L .21400002 .193 L .482 .193 L .542 .047000003 L .44700004 .047000003 L .44700004 0 C .485 .003 .58000007 .003 .623 .003 C .66300007 .003 .75100007 .003 .786 0 L .786 .047000003 L .689 .047000003 L .43300004 .67200008 M .34800003 .518 L .462 .24000001 L .234 .24000001 L .34800003 .518 Z "/>
</symbol>
<symbol id="font_0_18">
<path d="M .177 .694 L 0 .68600007 L 0 .63900008 C .062000004 .63900008 .069000009 .63900008 .069000009 .6 L .069000009 .047000003 L 0 .047000003 L 0 0 C .032 .001 .08 .003 .122999999 .003 C .16600001 .003 .212 .001 .246 0 L .246 .047000003 L .177 .047000003 L .177 .694 Z "/>
</symbol>
<symbol id="font_0_15">
<path d="M .22300002 .39100004 C .135 .39100004 .135 .458 .135 .503 C .135 .548 .135 .615 .22300002 .615 C .31100003 .615 .31100003 .548 .31100003 .503 C .31100003 .458 .31100003 .39100004 .22300002 .39100004 M .100999999 .381 C .147 .357 .198 .35500003 .22300002 .35500003 C .367 .35500003 .42200003 .43300004 .42200003 .503 C .42200003 .55 .397 .58300009 .38200004 .59900006 C .41200004 .615 .43300004 .617 .444 .61800006 C .44200004 .61300006 .44000004 .60400006 .44000004 .59800007 C .44000004 .573 .45700003 .555 .48300005 .555 C .509 .555 .526 .574 .526 .59800007 C .526 .62100008 .509 .656 .46300004 .656 C .448 .656 .40100003 .653 .35700003 .61800006 C .33900003 .63 .29700003 .651 .22300002 .651 C .07900001 .651 .024 .573 .024 .503 C .024 .462 .044000005 .421 .076000008 .398 C .048000006 .363 .042 .33 .042 .30900003 C .042 .294 .046 .245 .08600001 .213 C .073 .21000001 0 .18900001 0 .126 C 0 .075 .055000005 0 .255 0 C .432 0 .51000007 .059 .51000007 .12900001 C .51000007 .15900001 .50200006 .222 .435 .256 C .379 .284 .319 .284 .22300002 .284 C .19700001 .284 .15100001 .284 .146 .28500004 C .102 .292 .091000009 .33 .091000009 .348 C .091000009 .358 .095 .37300004 .100999999 .381 M .163 .18800001 L .28 .18800001 C .31100003 .18800001 .42400003 .18800001 .42400003 .126 C .42400003 .089999999 .38500003 .036 .255 .036 C .135 .036 .08600001 .082 .08600001 .12799999 C .08600001 .18800001 .149 .18800001 .163 .18800001 Z "/>
</symbol>
<symbol id="font_0_1b">
<path d="M .51000007 .224 C .51000007 .35800005 .418 .45900003 .255 .45900003 C .091000009 .45900003 0 .35700003 0 .224 C 0 .1 .088 0 .255 0 C .423 0 .51000007 .101 .51000007 .224 M .255 .040000004 C .128 .040000004 .128 .148 .128 .23500002 C .128 .28000004 .128 .33100004 .145 .36500005 C .164 .40200005 .206 .42300005 .255 .42300005 C .29700003 .42300005 .33900003 .40700004 .361 .37200005 C .38200004 .33800004 .38200004 .28300003 .38200004 .23500002 C .38200004 .148 .38200004 .040000004 .255 .040000004 Z "/>
</symbol>
<symbol id="font_0_1e">
<path d="M .16600001 .337 L .16600001 .45000003 L 0 .44200004 L 0 .395 C .062000008 .395 .069000009 .395 .069000009 .356 L .069000009 .047000003 L 0 .047000003 L 0 0 C .035000005 .001 .080000009 .003 .126 .003 C .164 .003 .22800002 .003 .26400004 0 L .26400004 .047000003 L .17700002 .047000003 L .17700002 .22200002 C .17700002 .29200004 .202 .41400004 .30200003 .41400004 C .30100004 .41300003 .28300003 .397 .28300003 .36800004 C .28300003 .32700003 .31500004 .307 .344 .307 C .37300004 .307 .40500004 .328 .40500004 .36800004 C .40500004 .42100004 .351 .45000003 .29900003 .45000003 C .229 .45000003 .18900001 .4 .16600001 .337 Z "/>
</symbol>
<symbol id="font_0_17">
<path d="M .177 .45000003 L .0029999987 .44200004 L .0029999987 .395 C .062000004 .395 .069000009 .395 .069000009 .356 L .069000009 .047000003 L 0 .047000003 L 0 0 C .031 .001 .08 .003 .12200001 .003 C .15200001 .003 .203 .001 .23900001 0 L .23900001 .047000003 L .177 .047000003 L .177 .45000003 M .187 .61700007 C .187 .661 .15100001 .69500008 .109 .69500008 C .066 .69500008 .031 .66 .031 .61700007 C .031 .574 .066 .53900006 .109 .53900006 C .15100001 .53900006 .187 .573 .187 .61700007 Z "/>
</symbol>
<symbol id="font_0_20">
<path d="M .082 .40300004 L .082 .12900001 C .082 .022 .16900002 0 .24000001 0 C .316 0 .36100004 .057000005 .36100004 .13000001 L .36100004 .183 L .314 .183 L .314 .132 C .314 .064 .282 .040000004 .254 .040000004 C .19600001 .040000004 .19600001 .104 .19600001 .127 L .19600001 .40300004 L .342 .40300004 L .342 .45000006 L .19600001 .45000006 L .19600001 .64100006 L .149 .64100006 C .14800002 .541 .09900001 .44200004 0 .43900005 L 0 .40300004 L .082 .40300004 Z "/>
</symbol>
<symbol id="font_0_16">
<path d="M .069000009 .047000003 L 0 .047000003 L 0 0 C .028000005 .001 .088 .003 .126 .003 C .165 .003 .22400002 .001 .25200004 0 L .25200004 .047000003 L .18300002 .047000003 L .18300002 .256 C .18300002 .365 .269 .41400004 .33200003 .41400004 C .366 .41400004 .38700003 .393 .38700003 .317 L .38700003 .047000003 L .31800003 .047000003 L .31800003 0 C .34600003 .001 .40600003 .003 .444 .003 C .48299999 .003 .542 .001 .57 0 L .57 .047000003 L .501 .047000003 L .501 .30600003 C .501 .411 .44700004 .45000003 .347 .45000003 C .251 .45000003 .2 .39200003 .17700002 .35200004 L .17700002 .694 L 0 .68600007 L 0 .63900008 C .062000008 .63900008 .069000009 .63900008 .069000009 .6 L .069000009 .047000003 Z "/>
</symbol>
<symbol id="font_0_19">
<path d="M .069000009 .356 L .069000009 .047000003 L 0 .047000003 L 0 0 C .028000005 .001 .088 .003 .126 .003 C .165 .003 .22400002 .001 .25200004 0 L .25200004 .047000003 L .18300002 .047000003 L .18300002 .256 C .18300002 .365 .27000005 .41400004 .33200003 .41400004 C .366 .41400004 .388 .39400003 .388 .317 L .388 .047000003 L .319 .047000003 L .319 0 C .347 .001 .407 .003 .445 .003 C .48400004 .003 .543 .001 .57100006 0 L .57100006 .047000003 L .50200006 .047000003 L .50200006 .256 C .50200006 .365 .589 .41400004 .651 .41400004 C .685 .41400004 .707 .39400003 .707 .317 L .707 .047000003 L .638 .047000003 L .638 0 C .666 .001 .726 .003 .764 .003 C .80300006 .003 .86200007 .001 .89000007 0 L .89000007 .047000003 L .82100006 .047000003 L .82100006 .30600003 C .82100006 .409 .77000007 .45000003 .667 .45000003 C .57600006 .45000003 .524 .4 .49800004 .354 C .478 .44700004 .38600005 .45000003 .348 .45000003 C .26100005 .45000003 .20400001 .40500004 .172 .342 L .172 .45000003 L 0 .44200004 L 0 .395 C .062000008 .395 .069000009 .395 .069000009 .356 Z "/>
</symbol>
<symbol id="font_0_13">
<path d="M .43 .224 C .45200003 .224 .462 .224 .462 .25100003 C .462 .28200004 .45600004 .35500003 .40600003 .40500004 C .36900003 .44100005 .316 .45900003 .24700001 .45900003 C .087 .45900003 0 .35600005 0 .231 C 0 .097 .099999997 0 .261 0 C .41900004 0 .462 .106 .462 .123 C .462 .141 .44300003 .141 .43800003 .141 C .421 .141 .41900004 .136 .41300003 .120000008 C .39200003 .072 .335 .040000004 .27 .040000004 C .12900001 .040000004 .128 .17300001 .128 .224 L .43 .224 M .128 .25700004 C .13 .29600004 .131 .33800004 .15200001 .37100003 C .178 .41100005 .218 .42300005 .24700001 .42300005 C .36400003 .42300005 .36600004 .29200004 .367 .25700004 L .128 .25700004 Z "/>
</symbol>
<symbol id="font_0_4">
<path d="M .269 .623 C .269 .64500007 .269 .65500006 .243 .65500006 C .232 .65500006 .23000002 .65500006 .22100002 .648 C .14400003 .591 .041 .591 .020000004 .591 L 0 .591 L 0 .544 L .020000004 .544 C .036000007 .544 .09100001 .545 .15 .564 L .15 .047000003 L .011 .047000003 L .011 0 C .055 .003 .16100002 .003 .21000001 .003 C .259 .003 .365 .003 .409 0 L .409 .047000003 L .269 .047000003 L .269 .623 Z "/>
</symbol>
<symbol id="font_0_3">
<path d="M .48400004 .33 C .48400004 .42700003 .48299999 .666 .242 .666 C .001000002 .666 0 .42800004 0 .33 C 0 .23100002 .001000002 0 .242 0 C .482 0 .48400004 .23000002 .48400004 .33 M .242 .036000004 C .20600002 .036000004 .15 .058000003 .13700001 .13100001 C .128 .18300002 .128 .28700004 .128 .34200005 C .128 .41400004 .128 .47900004 .136 .531 C .148 .62 .21800001 .63 .242 .63 C .27899999 .63 .32 .611 .339 .56700006 C .356 .53000006 .356 .42400003 .356 .34200005 C .356 .286 .356 .19500003 .34900005 .143 C .33500005 .05 .272 .036000004 .242 .036000004 Z "/>
</symbol>
<symbol id="font_0_d">
<path d="M .15600002 .36600004 C .15600002 .409 .12100001 .44400005 .07800001 .44400005 C .035000005 .44400005 0 .409 0 .36600004 C 0 .323 .035000005 .28800003 .07800001 .28800003 C .12100001 .28800003 .15600002 .323 .15600002 .36600004 M .15600002 .078 C .15600002 .12100001 .12100001 .156 .07800001 .156 C .035000005 .156 0 .12100001 0 .078 C 0 .035 .035000005 0 .07800001 0 C .12100001 0 .15600002 .035 .15600002 .078 Z "/>
</symbol>
<use xlink:href="#font_0_e" transform="matrix(9.9626,0,0,-9.9626,8.357967,10.753296)"/>
<use xlink:href="#font_0_18" transform="matrix(9.9626,0,0,-9.9626,17.075238,10.753296)"/>
<use xlink:href="#font_0_15" transform="matrix(9.9626,0,0,-9.9626,20.103869,12.755778)"/>
<use xlink:href="#font_0_1b" transform="matrix(9.9626,0,0,-9.9626,25.832369,10.813071)"/>
<use xlink:href="#font_0_1e" transform="matrix(9.9626,0,0,-9.9626,31.610682,10.753296)"/>
<use xlink:href="#font_0_17" transform="matrix(9.9626,0,0,-9.9626,36.432584,10.753296)"/>
<use xlink:href="#font_0_20" transform="matrix(9.9626,0,0,-9.9626,39.351625,10.813071)"/>
<use xlink:href="#font_0_16" transform="matrix(9.9626,0,0,-9.9626,44.044008,10.753296)"/>
<use xlink:href="#font_0_19" transform="matrix(9.9626,0,0,-9.9626,50.41011,10.753296)"/>
<use xlink:href="#font_0_13" transform="matrix(9.9626,0,0,-9.9626,59.824769,10.813071)"/>
<use xlink:href="#font_0_4" transform="matrix(9.9626,0,0,-9.9626,69.418758,10.753296)"/>
<use xlink:href="#font_0_3" transform="matrix(9.9626,0,0,-9.9626,74.74875,10.8628849)"/>
<use xlink:href="#font_0_d" transform="matrix(9.9626,0,0,-9.9626,84.66154,10.753296)"/>
<symbol id="font_1_26">
<path d="M .08400001 .263 C .09 .41200004 .17400001 .43700005 .20800002 .43700005 C .31100003 .43700005 .321 .30200003 .321 .263 L .08400001 .263 M .083000008 .24200002 L .36200003 .24200002 C .38400004 .24200002 .38700003 .24200002 .38700003 .263 C .38700003 .36200003 .33300004 .45900003 .20800002 .45900003 C .09200001 .45900003 0 .35600005 0 .23100002 C 0 .097 .105000007 0 .22000002 0 C .342 0 .38700003 .111 .38700003 .13000001 C .38700003 .14000002 .379 .14200002 .374 .14200002 C .365 .14200002 .36300005 .136 .36100004 .128 C .326 .025000003 .236 .025000003 .22600001 .025000003 C .17600002 .025000003 .136 .055000005 .113000009 .092 C .083000008 .14000002 .083000008 .20600002 .083000008 .24200002 Z "/>
</symbol>
<symbol id="font_1_33">
<path d="M .17500001 .20500002 C .197 .20100002 .279 .18500002 .279 .113000009 C .279 .062000004 .24400002 .022000002 .16600001 .022000002 C .082 .022000002 .046000005 .079 .027000003 .16400002 C .024000004 .17700002 .023000002 .18100001 .013000004 .18100001 C 0 .18100001 0 .17400001 0 .15600002 L 0 .024 C 0 .0070000009 0 0 .011000004 0 C .016000003 0 .017 .0010000002 .036000007 .020000002 C .038000004 .022000002 .038000004 .024 .056 .043 C .1 .0010000002 .14500001 0 .16600001 0 C .28100003 0 .32700003 .067 .32700003 .13900002 C .32700003 .19200002 .29700003 .22200002 .28500004 .23400001 C .25200004 .26600004 .213 .27400003 .171 .28200004 C .115 .293 .048 .30600003 .048 .36400003 C .048 .39900003 .07400001 .44000004 .16 .44000004 C .27 .44000004 .27500005 .35000003 .277 .31900005 C .27800004 .31000004 .28700004 .31000004 .28900004 .31000004 C .30200003 .31000004 .30200003 .31500004 .30200003 .33400003 L .30200003 .43500004 C .30200003 .45200003 .30200003 .45900003 .291 .45900003 C .286 .45900003 .284 .45900003 .27100004 .44700004 C .26800005 .44300003 .25800003 .43400003 .254 .43100003 C .21600002 .45900003 .17500001 .45900003 .16 .45900003 C .038000004 .45900003 0 .39200003 0 .33600004 C 0 .30100004 .016000003 .27300004 .043000007 .25100003 C .075 .22500003 .10300001 .21900001 .17500001 .20500002 Z "/>
</symbol>
<symbol id="font_1_34">
<path d="M .15400002 .411 L .29700003 .411 L .29700003 .44200004 L .15400002 .44200004 L .15400002 .626 L .12900001 .626 C .12799999 .544 .098000008 .43700005 0 .43300004 L 0 .411 L .085 .411 L .085 .135 C .085 .012000001 .178 0 .21400002 0 C .28500004 0 .31300003 .071 .31300003 .135 L .31300003 .19200002 L .28800003 .19200002 L .28800003 .13700001 C .28800003 .063 .25800003 .025000003 .22100002 .025000003 C .15400002 .025000003 .15400002 .116000007 .15400002 .13300002 L .15400002 .411 Z "/>
</symbol>
<use xlink:href="#font_1_26" transform="matrix(9.9626,0,0,-9.9626,90.64846,10.8628849)"/>
<use xlink:href="#font_1_33" transform="matrix(9.9626,0,0,-9.9626,95.12167,10.8628849)"/>
<use xlink:href="#font_1_34" transform="matrix(9.9626,0,0,-9.9626,98.90746,10.8628849)"/>
<path transform="matrix(1,0,0,-1,103.1985,10.55426)" stroke-width=".398" stroke-linecap="butt" stroke-miterlimit="10" stroke-linejoin="miter" fill="none" stroke="#000000" d="M 0 0 L 2.989 0 "/>
<symbol id="font_1_2e">
<path d="M .07800001 .344 L .07800001 .076000008 C .07800001 .031000002 .067 .031000002 0 .031000002 L 0 0 C .035 .001 .08600001 .003 .113000009 .003 C .139 .003 .191 .001 .225 0 L .225 .031000002 C .158 .031000002 .147 .031000002 .147 .076000008 L .147 .26000003 C .147 .36400003 .218 .42000003 .282 .42000003 C .345 .42000003 .356 .36600004 .356 .30900003 L .356 .076000008 C .356 .031000002 .345 .031000002 .278 .031000002 L .278 0 C .31300003 .001 .36400003 .003 .391 .003 C .41700004 .003 .46900005 .001 .503 0 L .503 .031000002 C .451 .031000002 .42600004 .031000002 .425 .061000006 L .425 .252 C .425 .33800004 .425 .36900003 .39400003 .40500004 C .38000003 .42200003 .347 .44200004 .289 .44200004 C .216 .44200004 .169 .39900003 .141 .337 L .141 .44200004 L 0 .43100003 L 0 .4 C .07000001 .4 .07800001 .393 .07800001 .344 Z "/>
</symbol>
<use xlink:href="#font_1_26" transform="matrix(9.9626,0,0,-9.9626,106.46645,10.8628849)"/>
<use xlink:href="#font_1_2e" transform="matrix(9.9626,0,0,-9.9626,110.9297,10.753296)"/>
<path transform="matrix(1,0,0,-1,116.7475,10.55426)" stroke-width=".398" stroke-linecap="butt" stroke-miterlimit="10" stroke-linejoin="miter" fill="none" stroke="#000000" d="M 0 0 L 2.989 0 "/>
<symbol id="font_1_24">
<path d="M .083000008 .22900002 C .083000008 .39200003 .16500002 .43400003 .218 .43400003 C .227 .43400003 .29 .43300004 .32500003 .397 C .284 .39400003 .278 .36400003 .278 .351 C .278 .32500003 .296 .305 .324 .305 C .35 .305 .37 .32200004 .37 .35200004 C .37 .42000003 .294 .45900003 .21700001 .45900003 C .092 .45900003 0 .351 0 .22700002 C 0 .09900001 .099 0 .215 0 C .349 0 .381 .120000008 .381 .13000001 C .381 .14000002 .37100003 .14000002 .368 .14000002 C .359 .14000002 .35700003 .136 .35500003 .13000001 C .326 .037 .261 .025000003 .224 .025000003 C .171 .025000003 .083000008 .068 .083000008 .22900002 Z "/>
</symbol>
<symbol id="font_1_29">
<path d="M .07800001 .076000008 C .07800001 .031000002 .067 .031000002 0 .031000002 L 0 0 C .035 .001 .08600001 .003 .113000009 .003 C .139 .003 .191 .001 .225 0 L .225 .031000002 C .158 .031000002 .147 .031000002 .147 .076000008 L .147 .26000003 C .147 .36400003 .218 .42000003 .282 .42000003 C .345 .42000003 .356 .36600004 .356 .30900003 L .356 .076000008 C .356 .031000002 .345 .031000002 .278 .031000002 L .278 0 C .31300003 .001 .36400003 .003 .391 .003 C .41700004 .003 .46900005 .001 .503 0 L .503 .031000002 C .451 .031000002 .42600004 .031000002 .425 .061000006 L .425 .252 C .425 .33800004 .425 .36900003 .39400003 .40500004 C .38000003 .42200003 .347 .44200004 .289 .44200004 C .20500002 .44200004 .161 .38200004 .14400001 .344 L .14400001 .694 L 0 .683 L 0 .652 C .07000001 .652 .07800001 .64500007 .07800001 .596 L .07800001 .076000008 Z "/>
</symbol>
<use xlink:href="#font_1_26" transform="matrix(9.9626,0,0,-9.9626,120.01545,10.8628849)"/>
<use xlink:href="#font_1_24" transform="matrix(9.9626,0,0,-9.9626,124.49863,10.8628849)"/>
<use xlink:href="#font_1_29" transform="matrix(9.9626,0,0,-9.9626,128.62316,10.753296)"/>
<use xlink:href="#font_1_26" transform="matrix(9.9626,0,0,-9.9626,134.1225,10.8628849)"/>
<use xlink:href="#font_1_24" transform="matrix(9.9626,0,0,-9.9626,138.60569,10.8628849)"/>
<path transform="matrix(1,0,0,-1,143.3035,10.55426)" stroke-width=".398" stroke-linecap="butt" stroke-miterlimit="10" stroke-linejoin="miter" fill="none" stroke="#000000" d="M 0 0 L 2.989 0 "/>
<symbol id="font_1_22">
<path d="M .291 .087000008 C .29500003 .047000003 .32200004 .005000001 .36900003 .005000001 C .39000003 .005000001 .45100004 .019000002 .45100004 .1 L .45100004 .15600002 L .42600004 .15600002 L .42600004 .1 C .42600004 .042000005 .40100003 .036000004 .39000003 .036000004 C .35700003 .036000004 .35300002 .081 .35300002 .086 L .35300002 .286 C .35300002 .328 .35300002 .367 .31700004 .404 C .27800004 .44300003 .22800002 .45900003 .18 .45900003 C .098 .45900003 .029 .41200004 .029 .34600003 C .029 .316 .049000004 .29900003 .075 .29900003 C .10300001 .29900003 .121 .31900005 .121 .34500004 C .121 .35700003 .116000007 .39000003 .07 .39100004 C .09700001 .42600004 .146 .43700005 .178 .43700005 C .22700003 .43700005 .284 .39800004 .284 .30900003 L .284 .272 C .23300001 .26900003 .16300002 .26600004 .1 .23600002 C .024999999 .20200002 0 .15000002 0 .106000009 C 0 .025000003 .09700001 0 .16 0 C .22600001 0 .272 .040000004 .291 .087000008 M .284 .25100003 L .284 .15100001 C .284 .056 .21200001 .022000002 .167 .022000002 C .11800001 .022000002 .077 .057000005 .077 .107 C .077 .16200002 .11900001 .24500002 .284 .25100003 Z "/>
</symbol>
<symbol id="font_1_30">
<path d="M .14400001 .57000008 L .14400001 .63600006 L 0 .625 L 0 .594 C .07100001 .594 .07800001 .58800008 .07800001 .544 L .07800001 .076 C .07800001 .031000004 .067 .031000004 0 .031000004 L 0 0 C .034 .001000002 .08600001 .0029999912 .112 .0029999912 C .13900002 .0029999912 .19000001 .001000002 .22500003 0 L .22500003 .031000004 C .158 .031000004 .14700002 .031000004 .14700002 .076 L .14700002 .244 L .14700002 .25300003 C .15200001 .237 .19400002 .183 .27 .183 C .38900004 .183 .49300004 .28100003 .49300004 .41000004 C .49300004 .53700008 .39600004 .63600006 .284 .63600006 C .20600002 .63600006 .164 .592 .14400001 .57000008 M .14700002 .30800004 L .14700002 .531 C .17600002 .582 .22500003 .61100009 .27600003 .61100009 C .349 .61100009 .41000004 .523 .41000004 .41000004 C .41000004 .289 .34000004 .20500002 .266 .20500002 C .22600001 .20500002 .18800001 .22500001 .16100002 .266 C .14700002 .287 .14700002 .28800003 .14700002 .30800004 Z "/>
</symbol>
<symbol id="font_1_32">
<path d="M .13900002 .33200003 L .13900002 .44200004 L 0 .43100003 L 0 .4 C .07000001 .4 .07800001 .393 .07800001 .344 L .07800001 .076000008 C .07800001 .031000002 .067 .031000002 0 .031000002 L 0 0 C .039 .001 .08600001 .003 .11400001 .003 C .15400002 .003 .20100002 .003 .24100003 0 L .24100003 .031000002 L .22000002 .031000002 C .14600002 .031000002 .14400001 .042000005 .14400001 .078 L .14400001 .23200001 C .14400001 .33100004 .18600002 .42000003 .26200003 .42000003 C .26900003 .42000003 .27100004 .42000003 .27300004 .41900004 C .27 .418 .25000004 .40600003 .25000004 .38000003 C .25000004 .35200004 .27100004 .337 .293 .337 C .31100003 .337 .33600004 .349 .33600004 .381 C .33600004 .41300003 .305 .44200004 .26200003 .44200004 C .18900001 .44200004 .15300001 .37500004 .13900002 .33200003 Z "/>
</symbol>
<use xlink:href="#font_1_22" transform="matrix(9.9626,0,0,-9.9626,146.71094,10.8628849)"/>
<use xlink:href="#font_1_30" transform="matrix(9.9626,0,0,-9.9626,151.55275,12.68604)"/>
<use xlink:href="#font_1_32" transform="matrix(9.9626,0,0,-9.9626,157.09197,10.753296)"/>
<use xlink:href="#font_1_26" transform="matrix(9.9626,0,0,-9.9626,160.9973,10.8628849)"/>
<use xlink:href="#font_1_33" transform="matrix(9.9626,0,0,-9.9626,165.47052,10.8628849)"/>
<path transform="matrix(1,0,0,-1,169.6665,10.55426)" stroke-width=".398" stroke-linecap="butt" stroke-miterlimit="10" stroke-linejoin="miter" fill="none" stroke="#000000" d="M 0 0 L 2.989 0 "/>
<symbol id="font_1_2d">
<path d="M .07800001 .344 L .07800001 .076000008 C .07800001 .031000002 .067 .031000002 0 .031000002 L 0 0 C .035 .001 .08600001 .003 .113000009 .003 C .139 .003 .191 .001 .225 0 L .225 .031000002 C .158 .031000002 .147 .031000002 .147 .076000008 L .147 .26000003 C .147 .36400003 .218 .42000003 .282 .42000003 C .345 .42000003 .356 .36600004 .356 .30900003 L .356 .076000008 C .356 .031000002 .345 .031000002 .278 .031000002 L .278 0 C .31300003 .001 .36400003 .003 .391 .003 C .41700004 .003 .46900005 .001 .503 0 L .503 .031000002 C .43600003 .031000002 .425 .031000002 .425 .076000008 L .425 .26000003 C .425 .36400003 .496 .42000003 .56 .42000003 C .623 .42000003 .634 .36600004 .634 .30900003 L .634 .076000008 C .634 .031000002 .623 .031000002 .556 .031000002 L .556 0 C .591 .001 .642 .003 .669 .003 C .69500008 .003 .74700006 .001 .781 0 L .781 .031000002 C .72900006 .031000002 .70400008 .031000002 .703 .061000006 L .703 .252 C .703 .33800004 .703 .36900003 .67200008 .40500004 C .65800008 .42200003 .625 .44200004 .56700006 .44200004 C .48300005 .44200004 .439 .38200004 .42200003 .344 C .40800003 .43100003 .33400003 .44200004 .289 .44200004 C .216 .44200004 .169 .39900003 .141 .337 L .141 .44200004 L 0 .43100003 L 0 .4 C .07000001 .4 .07800001 .393 .07800001 .344 Z "/>
</symbol>
<symbol id="font_1_2f">
<path d="M .44300003 .22500003 C .44300003 .35300002 .34300003 .45900003 .222 .45900003 C .097 .45900003 0 .35000003 0 .22500003 C 0 .096 .104 0 .22100002 0 C .342 0 .44300003 .098000008 .44300003 .22500003 M .222 .025000003 C .17900002 .025000003 .135 .046 .10800001 .092 C .083000008 .136 .083000008 .19700001 .083000008 .23300003 C .083000008 .272 .083000008 .32600004 .10700001 .37000004 C .134 .41600005 .18100001 .43700005 .22100002 .43700005 C .26500003 .43700005 .30800004 .41500003 .33400003 .37200005 C .36 .32900004 .36 .27100004 .36 .23300003 C .36 .19700001 .36 .143 .33800004 .09900001 C .316 .054 .272 .025000003 .222 .025000003 Z "/>
</symbol>
<symbol id="font_1_35">
<path d="M .35900004 .09 L .35900004 0 L .503 .011000001 L .503 .042000005 C .43300004 .042000005 .425 .049000004 .425 .098000008 L .425 .45300005 L .278 .44200004 L .278 .411 C .34800003 .411 .356 .404 .356 .35500003 L .356 .17700002 C .356 .09 .308 .022000002 .23500002 .022000002 C .15100001 .022000002 .147 .069000009 .147 .12100001 L .147 .45300005 L 0 .44200004 L 0 .411 C .07800001 .411 .07800001 .40800003 .07800001 .31900005 L .07800001 .16900002 C .07800001 .091000009 .07800001 0 .23000002 0 C .286 0 .33 .028 .35900004 .09 Z "/>
</symbol>
<symbol id="font_1_36">
<path d="M .397 .344 C .40600003 .367 .42300005 .41000004 .48900003 .411 L .48900003 .44200004 C .46600003 .44000004 .43700005 .43900005 .41400004 .43900005 C .39000003 .43900005 .344 .441 .32700003 .44200004 L .32700003 .411 C .36400003 .41000004 .37500004 .38700003 .37500004 .36800004 C .37500004 .35900004 .37300004 .35500003 .36900003 .344 L .26700003 .089 L .155 .36800004 C .14900002 .381 .14900002 .38300003 .14900002 .38500003 C .14900002 .411 .18800003 .411 .206 .411 L .206 .44200004 C .176 .441 .12000001 .43900005 .097 .43900005 C .07 .43900005 .030000002 .44000004 0 .44200004 L 0 .411 C .063 .411 .067 .40500004 .080000009 .374 L .224 .019000002 C .23000002 .005000001 .23200003 0 .245 0 C .25800003 0 .26200003 .009000001 .26600004 .019000002 L .397 .344 Z "/>
</symbol>
<use xlink:href="#font_1_2d" transform="matrix(9.9626,0,0,-9.9626,172.97332,10.753296)"/>
<use xlink:href="#font_1_2f" transform="matrix(9.9626,0,0,-9.9626,181.23232,10.8628849)"/>
<use xlink:href="#font_1_35" transform="matrix(9.9626,0,0,-9.9626,186.25347,10.8628849)"/>
<use xlink:href="#font_1_36" transform="matrix(9.9626,0,0,-9.9626,191.66316,10.8628849)"/>
<use xlink:href="#font_1_26" transform="matrix(9.9626,0,0,-9.9626,196.73412,10.8628849)"/>
<use xlink:href="#font_1_2d" transform="matrix(9.9626,0,0,-9.9626,201.19738,10.753296)"/>
<use xlink:href="#font_1_26" transform="matrix(9.9626,0,0,-9.9626,209.45638,10.8628849)"/>
<use xlink:href="#font_1_2e" transform="matrix(9.9626,0,0,-9.9626,213.91963,10.753296)"/>
<use xlink:href="#font_1_34" transform="matrix(9.9626,0,0,-9.9626,219.06035,10.8628849)"/>
<path transform="matrix(1,0,0,-1,.47750093,15.081238)" stroke-width=".797" stroke-linecap="butt" stroke-miterlimit="10" stroke-linejoin="miter" fill="none" stroke="#000000" d="M 0 0 L 612 0 "/>
<symbol id="font_0_f">
<path d="M .107999999 .63900008 L .107999999 .047000003 L 0 .047000003 L 0 0 L .43100003 0 C .6280001 0 .77800008 .123 .77800008 .337 C .77800008 .55700007 .6280001 .68600007 .43 .68600007 L 0 .68600007 L 0 .63900008 L .107999999 .63900008 M .24400002 .047000003 L .24400002 .63900008 L .39000003 .63900008 C .45600004 .63900008 .53900006 .62 .58800008 .55 C .6230001 .499 .63100007 .43100003 .63100007 .33800004 C .63100007 .22900002 .6190001 .17600002 .5870001 .13100001 C .53900006 .063 .451 .047000003 .39000003 .047000003 L .24400002 .047000003 Z "/>
</symbol>
<symbol id="font_0_1a">
<path d="M .069000009 .356 L .069000009 .047000003 L 0 .047000003 L 0 0 C .028000005 .001 .088 .003 .126 .003 C .165 .003 .22400002 .001 .25200004 0 L .25200004 .047000003 L .18300002 .047000003 L .18300002 .256 C .18300002 .365 .269 .41400004 .33200003 .41400004 C .366 .41400004 .38700003 .393 .38700003 .317 L .38700003 .047000003 L .31800003 .047000003 L .31800003 0 C .34600003 .001 .40600003 .003 .444 .003 C .48299999 .003 .542 .001 .57 0 L .57 .047000003 L .501 .047000003 L .501 .30600003 C .501 .411 .44700004 .45000003 .347 .45000003 C .251 .45000003 .19800002 .393 .172 .342 L .172 .45000003 L 0 .44200004 L 0 .395 C .062000008 .395 .069000009 .395 .069000009 .356 Z "/>
</symbol>
<symbol id="font_0_2">
<path d="M .18100003 .08100003 C .19700003 .09000003 .21900001 .10100001 .21900001 .13300002 C .21900001 .16400004 .19100002 .19500005 .15900001 .19500005 C .136 .19500005 .12400001 .18200004 .11200002 .16900003 C .085999999 .14000005 .025000006 .066000048 0 .037 L .030000002 0 L .18100003 .08100003 Z "/>
</symbol>
<symbol id="font_0_1f">
<path d="M .17300001 .3 C .136 .30700005 .071 .31800003 .071 .36500005 C .071 .42700006 .164 .42700006 .18300002 .42700006 C .25800003 .42700006 .296 .39800004 .301 .34300003 C .302 .32800005 .30300004 .323 .324 .323 C .348 .323 .348 .32800005 .348 .35100005 L .348 .43100003 C .348 .45000006 .348 .45900003 .33000005 .45900003 C .32600004 .45900003 .324 .45900003 .28500004 .44000004 C .259 .45300005 .22400002 .45900003 .18400002 .45900003 C .154 .45900003 0 .45900003 0 .32800005 C 0 .28800003 .02 .26100005 .04 .244 C .080000009 .209 .118 .20300001 .19500001 .18900001 C .23100002 .183 .306 .17 .306 .111 C .306 .036000004 .214 .036000004 .192 .036000004 C .086 .036000004 .060000004 .109000008 .048 .15200001 C .042999999 .16600001 .038000004 .16600001 .024 .16600001 C 0 .16600001 0 .16000001 0 .13700001 L 0 .028 C 0 .009 0 0 .018 0 C .024999999 0 .027000003 0 .048 .015000001 C .049000004 .015000001 .071 .030000002 .074 .032 C .120000008 0 .172 0 .192 0 C .223 0 .37700004 0 .37700004 .146 C .37700004 .18900001 .357 .224 .32200004 .252 C .283 .28100003 .251 .28700004 .17300001 .3 Z "/>
</symbol>
<use xlink:href="#font_0_f" transform="matrix(9.9626,0,0,-9.9626,15.81005,24.391297)"/>
<use xlink:href="#font_0_1b" transform="matrix(9.9626,0,0,-9.9626,24.52733,24.451073)"/>
<use xlink:href="#font_0_1a" transform="matrix(9.9626,0,0,-9.9626,30.385344,24.391297)"/>
<use xlink:href="#font_0_1a" transform="matrix(9.9626,0,0,-9.9626,36.75145,24.391297)"/>
<use xlink:href="#font_0_2" transform="matrix(9.9626,0,0,-9.9626,44.801229,19.320334)"/>
<use xlink:href="#font_0_13" transform="matrix(9.9626,0,0,-9.9626,42.988039,24.451073)"/>
<use xlink:href="#font_0_13" transform="matrix(9.9626,0,0,-9.9626,48.238328,24.451073)"/>
<use xlink:href="#font_0_1f" transform="matrix(9.9626,0,0,-9.9626,53.548395,24.451073)"/>
<use xlink:href="#font_0_d" transform="matrix(9.9626,0,0,-9.9626,62.315485,24.391297)"/>
<symbol id="font_1_19">
<path d="M .19200002 .316 L .36100004 .316 C .48100005 .316 .589 .397 .589 .497 C .589 .595 .49000005 .683 .35300002 .683 L 0 .683 L 0 .652 L .024000004 .652 C .10100001 .652 .103000018 .64100006 .103000018 .605 L .103000018 .078 C .103000018 .042000005 .10100001 .031000002 .024000004 .031000002 L 0 .031000002 L 0 0 C .035 .003 .10900001 .003 .14700002 .003 C .18500002 .003 .26000003 .003 .29500003 0 L .29500003 .031000002 L .27100004 .031000002 C .19400002 .031000002 .19200002 .042000005 .19200002 .078 L .19200002 .316 M .18900001 .342 L .18900001 .61200007 C .18900001 .64500007 .19100002 .652 .238 .652 L .32700003 .652 C .48600004 .652 .48600004 .546 .48600004 .497 C .48600004 .45000003 .48600004 .342 .32700003 .342 L .18900001 .342 Z "/>
</symbol>
<symbol id="font_1_2a">
<path d="M .144 .44200004 L .0040000008 .43100003 L .0040000008 .4 C .069000009 .4 .07800001 .39400003 .07800001 .34500004 L .07800001 .076000008 C .07800001 .031000002 .067 .031000002 0 .031000002 L 0 0 C .032000007 .001 .086 .003 .11000001 .003 C .14500001 .003 .18 .001 .21400002 0 L .21400002 .031000002 C .148 .031000002 .144 .036000004 .144 .075 L .144 .44200004 M .148 .61600008 C .148 .648 .123 .669 .095000009 .669 C .064 .669 .042000005 .642 .042000005 .61600008 C .042000005 .58900007 .064 .563 .095000009 .563 C .123 .563 .148 .58400008 .148 .61600008 Z "/>
</symbol>
<symbol id="font_1_25">
<path d="M .34600003 .06600001 L .34600003 0 L .493 .011000001 L .493 .042000005 C .423 .042000005 .41500003 .049000004 .41500003 .098000008 L .41500003 .705 L .271 .694 L .271 .663 C .34100003 .663 .349 .656 .349 .607 L .349 .39100004 C .32 .42700003 .277 .45300005 .22299999 .45300005 C .10500001 .45300005 0 .35500003 0 .22600001 C 0 .09900001 .098 0 .21200001 0 C .276 0 .321 .034 .34600003 .06600001 M .34600003 .33400003 L .34600003 .12900001 C .34600003 .111 .34600003 .109000008 .335 .092 C .305 .044 .26 .022000002 .21700001 .022000002 C .17200002 .022000002 .136 .048 .11200001 .086 C .086 .127 .083000008 .18400002 .083000008 .22500003 C .083000008 .26200003 .085 .32200004 .114 .367 C .13500002 .39800004 .17300001 .43100003 .227 .43100003 C .262 .43100003 .30400003 .41600005 .335 .37100003 C .34600003 .35400004 .34600003 .35200004 .34600003 .33400003 Z "/>
</symbol>
<symbol id="font_1_4">
<path d="M .16900002 .12199998 C .17799999 .12900001 .186 .13999999 .186 .15200001 C .186 .16999996 .168 .18799997 .14999999 .18799997 C .135 .18799997 .124 .17699999 .11999999 .171 L 0 .017999948 L .01699999 0 L .16900002 .12199998 Z "/>
</symbol>
<symbol id="font_1_10">
<path d="M .106 .37800003 C .106 .407 .08200001 .43100003 .05300001 .43100003 C .024000004 .43100003 0 .407 0 .37800003 C 0 .349 .024000004 .32500003 .05300001 .32500003 C .08200001 .32500003 .106 .349 .106 .37800003 M .106 .053000004 C .106 .082 .08200001 .106000009 .05300001 .106000009 C .024000004 .106000009 0 .082 0 .053000004 C 0 .024 .024000004 0 .05300001 0 C .08200001 0 .106 .024 .106 .053000004 Z "/>
</symbol>
<use xlink:href="#font_1_19" transform="matrix(9.9626,0,0,-9.9626,68.3582,24.391297)"/>
<use xlink:href="#font_1_2f" transform="matrix(9.9626,0,0,-9.9626,74.794048,24.500885)"/>
<use xlink:href="#font_1_33" transform="matrix(9.9626,0,0,-9.9626,79.82515,24.500885)"/>
<use xlink:href="#font_1_2a" transform="matrix(9.9626,0,0,-9.9626,83.75041,24.391297)"/>
<use xlink:href="#font_1_34" transform="matrix(9.9626,0,0,-9.9626,86.38055,24.500885)"/>
<use xlink:href="#font_1_2a" transform="matrix(9.9626,0,0,-9.9626,90.39548,24.391297)"/>
<use xlink:href="#font_1_2f" transform="matrix(9.9626,0,0,-9.9626,93.11527,24.500885)"/>
<use xlink:href="#font_1_2e" transform="matrix(9.9626,0,0,-9.9626,98.13641,24.391297)"/>
<use xlink:href="#font_1_25" transform="matrix(9.9626,0,0,-9.9626,107.023059,24.500885)"/>
<use xlink:href="#font_1_26" transform="matrix(9.9626,0,0,-9.9626,112.492519,24.500885)"/>
<use xlink:href="#font_1_25" transform="matrix(9.9626,0,0,-9.9626,120.30321,24.500885)"/>
<use xlink:href="#font_1_4" transform="matrix(9.9626,0,0,-9.9626,127.27702,19.31037)"/>
<use xlink:href="#font_1_26" transform="matrix(9.9626,0,0,-9.9626,125.78263,24.500885)"/>
<use xlink:href="#font_1_30" transform="matrix(9.9626,0,0,-9.9626,130.20603,26.324042)"/>
<use xlink:href="#font_1_22" transform="matrix(9.9626,0,0,-9.9626,135.8847,24.500885)"/>
<use xlink:href="#font_1_32" transform="matrix(9.9626,0,0,-9.9626,140.72652,24.391297)"/>
<use xlink:href="#font_1_34" transform="matrix(9.9626,0,0,-9.9626,144.54219,24.500885)"/>
<use xlink:href="#font_1_10" transform="matrix(9.9626,0,0,-9.9626,152.40268,24.391297)"/>
<use xlink:href="#font_1_30" transform="matrix(9.9626,0,0,-9.9626,157.91197,26.324042)"/>
<use xlink:href="#font_1_2f" transform="matrix(9.9626,0,0,-9.9626,163.73015,24.500885)"/>
<use xlink:href="#font_1_33" transform="matrix(9.9626,0,0,-9.9626,168.76126,24.500885)"/>
<path transform="matrix(1,0,0,-1,172.9385,24.19226)" stroke-width=".398" stroke-linecap="butt" stroke-miterlimit="10" stroke-linejoin="miter" fill="none" stroke="#000000" d="M 0 0 L 2.989 0 "/>
<symbol id="font_1_a">
<path d="M .117000009 .194 C .117000009 .25800003 .093 .29900003 .05300001 .29900003 C .018 .29900003 0 .272 0 .246 C 0 .22 .017000005 .193 .05300001 .193 C .069 .193 .08100001 .199 .091 .207 L .093 .209 C .094000007 .209 .095000009 .208 .095000009 .194 C .095000009 .13 .06700001 .069 .023000002 .022 C .017000005 .016000003 .016000003 .015000001 .016000003 .0109999929 C .016000003 .003999993 .021000006 0 .026 0 C .038000004 0 .117000009 .078999999 .117000009 .194 Z "/>
</symbol>
<symbol id="font_1_1">
<path d="M .303 .4 C .349 .4 .356 .38700003 .356 .34600003 L .356 .076000008 C .356 .031000002 .345 .031000002 .278 .031000002 L .278 0 C .31100003 .001 .36400003 .003 .389 .003 C .414 .003 .463 .001 .5 0 L .5 .031000002 C .433 .031000002 .42200003 .031000002 .42200003 .076000008 L .42200003 .44300003 L .296 .43400003 C .28 .43300004 .279 .432 .278 .432 C .276 .43100003 .27400003 .43100003 .26 .43100003 L .14200002 .43100003 L .14200002 .544 C .14200002 .643 .22800003 .683 .29 .683 C .32 .683 .356 .67300006 .37600003 .65000006 C .335 .648 .329 .62 .329 .60400006 C .329 .57100006 .35500003 .558 .374 .558 C .397 .558 .42000003 .574 .42000003 .60400006 C .42000003 .66300007 .365 .70500007 .291 .70500007 C .19800002 .70500007 .079 .65400007 .079 .545 L .079 .43100003 L 0 .43100003 L 0 .4 L .079 .4 L .079 .076000008 C .079 .031000002 .068 .031000002 .0010000002 .031000002 L .0010000002 0 C .034 .001 .087000008 .003 .11200001 .003 C .13700001 .003 .18600002 .001 .223 0 L .223 .031000002 C .15600002 .031000002 .14500001 .031000002 .14500001 .076000008 L .14500001 .4 L .303 .4 Z "/>
</symbol>
<use xlink:href="#font_1_25" transform="matrix(9.9626,0,0,-9.9626,176.26622,24.500885)"/>
<use xlink:href="#font_1_26" transform="matrix(9.9626,0,0,-9.9626,181.74565,24.500885)"/>
<use xlink:href="#font_1_30" transform="matrix(9.9626,0,0,-9.9626,186.16905,26.324042)"/>
<use xlink:href="#font_1_22" transform="matrix(9.9626,0,0,-9.9626,191.84775,24.500885)"/>
<use xlink:href="#font_1_32" transform="matrix(9.9626,0,0,-9.9626,196.68956,24.391297)"/>
<use xlink:href="#font_1_34" transform="matrix(9.9626,0,0,-9.9626,200.50524,24.500885)"/>
<use xlink:href="#font_1_a" transform="matrix(9.9626,0,0,-9.9626,205.04819,26.314078)"/>
<use xlink:href="#font_1_19" transform="matrix(9.9626,0,0,-9.9626,210.62723,24.391297)"/>
<use xlink:href="#font_1_2f" transform="matrix(9.9626,0,0,-9.9626,217.06307,24.500885)"/>
<use xlink:href="#font_1_33" transform="matrix(9.9626,0,0,-9.9626,222.09418,24.500885)"/>
<use xlink:href="#font_1_2a" transform="matrix(9.9626,0,0,-9.9626,226.01944,24.391297)"/>
<use xlink:href="#font_1_34" transform="matrix(9.9626,0,0,-9.9626,228.64955,24.500885)"/>
<use xlink:href="#font_1_2a" transform="matrix(9.9626,0,0,-9.9626,232.66449,24.391297)"/>
<use xlink:href="#font_1_2f" transform="matrix(9.9626,0,0,-9.9626,235.38426,24.500885)"/>
<use xlink:href="#font_1_2e" transform="matrix(9.9626,0,0,-9.9626,240.40541,24.391297)"/>
<use xlink:href="#font_1_25" transform="matrix(9.9626,0,0,-9.9626,249.29207,24.500885)"/>
<use xlink:href="#font_1_26" transform="matrix(9.9626,0,0,-9.9626,254.7715,24.500885)"/>
<use xlink:href="#font_1_1" transform="matrix(9.9626,0,0,-9.9626,262.50248,24.391297)"/>
<use xlink:href="#font_1_2e" transform="matrix(9.9626,0,0,-9.9626,268.09153,24.391297)"/>
<use xlink:href="#font_1_10" transform="matrix(9.9626,0,0,-9.9626,277.48625,24.391297)"/>
<use xlink:href="#font_1_30" transform="matrix(9.9626,0,0,-9.9626,283.00553,26.324042)"/>
<use xlink:href="#font_1_2f" transform="matrix(9.9626,0,0,-9.9626,288.81373,24.500885)"/>
<use xlink:href="#font_1_33" transform="matrix(9.9626,0,0,-9.9626,293.84483,24.500885)"/>
<path transform="matrix(1,0,0,-1,298.0145,24.19226)" stroke-width=".398" stroke-linecap="butt" stroke-miterlimit="10" stroke-linejoin="miter" fill="none" stroke="#000000" d="M 0 0 L 2.989 0 "/>
<symbol id="font_1_15">
<path d="M .261 .17 C .261 .078 .211 .022000002 .15800002 .022000002 C .15200001 .022000002 .084 .022000002 .048 .080000009 C .1 .080000009 .11200001 .11000001 .11200001 .136 C .11200001 .172 .084 .192 .056 .192 C .034 .192 0 .178 0 .134 C 0 .060000004 .071 0 .16 0 C .262 0 .335 .07 .34600003 .14500001 C .347 .15300001 .347 .155 .347 .18900001 L .347 .633 C .347 .674 .361 .674 .42400003 .674 L .42400003 .70500007 C .38000003 .70300009 .342 .702 .29500003 .702 C .253 .702 .16500002 .702 .127 .70500007 L .127 .674 L .16300002 .674 C .261 .674 .261 .6610001 .261 .62600007 L .261 .17 Z "/>
</symbol>
<symbol id="font_1_2c">
<path d="M .144 .694 L 0 .683 L 0 .652 C .07000001 .652 .07800001 .64500007 .07800001 .596 L .07800001 .076000008 C .07800001 .031000002 .067 .031000002 0 .031000002 L 0 0 C .033 .001 .086 .003 .11100001 .003 C .136 .003 .185 .001 .22200004 0 L .22200004 .031000002 C .155 .031000002 .144 .031000002 .144 .076000008 L .144 .694 Z "/>
</symbol>
<symbol id="font_1_2b">
<path d="M .25 .6470001 L .098000008 .63600006 L .098000008 .605 C .17500001 .605 .18400002 .59800007 .18400002 .549 L .18400002 .15300001 C .18400002 .10800001 .17500001 .022 .111 .022 C .106000009 .022 .083000008 .022 .057000005 .03500001 C .072000008 .039000006 .09200001 .053000004 .09200001 .08000001 C .09200001 .106000009 .074 .12600002 .046000005 .12600002 C .018000002 .12600002 0 .106000009 0 .08000001 C 0 .028000012 .056 0 .113000009 0 C .18800001 0 .25 .06400001 .25 .15500002 L .25 .6470001 M .25 .8210001 C .25 .85 .22600001 .8740001 .19700001 .8740001 C .16800002 .8740001 .14400001 .85 .14400001 .8210001 C .14400001 .79200008 .16800002 .768 .19700001 .768 C .22600001 .768 .25 .79200008 .25 .8210001 Z "/>
</symbol>
<use xlink:href="#font_1_1" transform="matrix(9.9626,0,0,-9.9626,301.2725,24.391297)"/>
<use xlink:href="#font_1_2e" transform="matrix(9.9626,0,0,-9.9626,306.86155,24.391297)"/>
<use xlink:href="#font_1_a" transform="matrix(9.9626,0,0,-9.9626,312.93873,26.314078)"/>
<use xlink:href="#font_1_15" transform="matrix(9.9626,0,0,-9.9626,318.57756,24.610474)"/>
<use xlink:href="#font_1_2f" transform="matrix(9.9626,0,0,-9.9626,323.56883,24.500885)"/>
<use xlink:href="#font_1_35" transform="matrix(9.9626,0,0,-9.9626,328.58998,24.500885)"/>
<use xlink:href="#font_1_26" transform="matrix(9.9626,0,0,-9.9626,334.08934,24.500885)"/>
<use xlink:href="#font_1_35" transform="matrix(9.9626,0,0,-9.9626,338.55259,24.500885)"/>
<use xlink:href="#font_1_32" transform="matrix(9.9626,0,0,-9.9626,344.05195,24.391297)"/>
<use xlink:href="#font_1_22" transform="matrix(9.9626,0,0,-9.9626,351.41429,24.500885)"/>
<use xlink:href="#font_1_24" transform="matrix(9.9626,0,0,-9.9626,356.31587,24.500885)"/>
<use xlink:href="#font_1_34" transform="matrix(9.9626,0,0,-9.9626,360.5998,24.500885)"/>
<use xlink:href="#font_1_35" transform="matrix(9.9626,0,0,-9.9626,364.60478,24.500885)"/>
<use xlink:href="#font_1_26" transform="matrix(9.9626,0,0,-9.9626,370.09419,24.500885)"/>
<use xlink:href="#font_1_2c" transform="matrix(9.9626,0,0,-9.9626,374.57734,24.391297)"/>
<use xlink:href="#font_1_10" transform="matrix(9.9626,0,0,-9.9626,381.19248,24.391297)"/>
<use xlink:href="#font_1_2b" transform="matrix(9.9626,0,0,-9.9626,386.02433,26.43363)"/>
<use xlink:href="#font_1_2f" transform="matrix(9.9626,0,0,-9.9626,389.75035,24.500885)"/>
<use xlink:href="#font_1_35" transform="matrix(9.9626,0,0,-9.9626,394.77149,24.500885)"/>
<use xlink:href="#font_1_26" transform="matrix(9.9626,0,0,-9.9626,400.2708,24.500885)"/>
<use xlink:href="#font_1_35" transform="matrix(9.9626,0,0,-9.9626,404.73408,24.500885)"/>
<use xlink:href="#font_1_32" transform="matrix(9.9626,0,0,-9.9626,410.2334,24.391297)"/>
<symbol id="font_0_10">
<path d="M .24400002 .37200005 L .24400002 .65000006 L .36200003 .65000006 C .52300009 .65000006 .52500006 .572 .52500006 .511 C .52500006 .45500005 .52500006 .37200005 .36 .37200005 L .24400002 .37200005 M .51100006 .351 C .62700006 .381 .67800006 .44600005 .67800006 .512 C .67800006 .61300006 .5680001 .697 .38000003 .697 L 0 .697 L 0 .65000006 L .107999999 .65000006 L .107999999 .058000003 L 0 .058000003 L 0 .011000001 C .036000004 .014 .134 .014 .176 .014 C .218 .014 .316 .014 .35200004 .011000001 L .35200004 .058000003 L .24400002 .058000003 L .24400002 .33600004 L .361 .33600004 C .37500004 .33600004 .41900004 .33600004 .45000003 .30200003 C .48200003 .26700003 .48200003 .24800003 .48200003 .17500001 C .48200003 .109000008 .48200003 .060000004 .55200007 .026 C .5960001 .0040000008 .65800008 0 .69900009 0 C .80600008 0 .81900009 .09 .81900009 .106000009 C .81900009 .128 .80500009 .128 .7950001 .128 C .77400007 .128 .77300009 .11800001 .7720001 .105000007 C .7670001 .058000003 .73800006 .036000004 .70800009 .036000004 C .64800009 .036000004 .63900008 .107 .63400009 .14900002 C .632 .16000001 .6240001 .22900002 .6230001 .23400001 C .609 .30400003 .5540001 .335 .51100006 .351 Z "/>
</symbol>
<symbol id="font_0_21">
<path d="M .393 .078 L .393 0 L .57 .006 L .57 .053000004 C .508 .053000004 .501 .053000004 .501 .092 L .501 .45600004 L .31800003 .44800005 L .31800003 .40100003 C .38 .40100003 .38700003 .40100003 .38700003 .36200003 L .38700003 .171 C .38700003 .089 .33600004 .036000004 .263 .036000004 C .186 .036000004 .18300002 .061000006 .18300002 .115 L .18300002 .45600004 L 0 .44800005 L 0 .40100003 C .062000008 .40100003 .069000009 .40100003 .069000009 .36200003 L .069000009 .12900001 C .069000009 .022 .15 0 .249 0 C .27500005 0 .347 0 .393 .078 Z "/>
</symbol>
<symbol id="font_0_11">
<path d="M .342 .083000008 C .342 .052000006 .342 .006 .446 .006 L .49400003 .006 C .514 .006 .526 .006 .526 .030000002 C .526 .053000004 .513 .053000004 .5 .053000004 C .439 .054 .439 .067 .439 .09 L .439 .30500005 C .439 .39400003 .368 .45900003 .21900001 .45900003 C .162 .45900003 .040000004 .45500005 .040000004 .36700005 C .040000004 .323 .075 .30400003 .102 .30400003 C .133 .30400003 .165 .32500003 .165 .36700005 C .165 .39700005 .146 .41400004 .143 .41600005 C .171 .42200003 .20300001 .42300005 .215 .42300005 C .29000003 .42300005 .32500003 .38100005 .32500003 .30500005 L .32500003 .27100004 C .254 .26800005 0 .25900004 0 .114 C 0 .018 .124 0 .193 0 C .273 0 .32000003 .041 .342 .083000008 M .32500003 .24000001 L .32500003 .14500001 C .32500003 .049000004 .23300001 .036000004 .208 .036000004 C .157 .036000004 .117 .071 .117 .115 C .117 .223 .275 .237 .32500003 .24000001 Z "/>
</symbol>
<use xlink:href="#font_0_10" transform="matrix(9.9626,0,0,-9.9626,15.81005,36.455904)"/>
<use xlink:href="#font_0_2" transform="matrix(9.9626,0,0,-9.9626,26.15122,31.27535)"/>
<use xlink:href="#font_0_13" transform="matrix(9.9626,0,0,-9.9626,24.33803,36.40609)"/>
<use xlink:href="#font_0_1f" transform="matrix(9.9626,0,0,-9.9626,29.648095,36.40609)"/>
<use xlink:href="#font_0_21" transform="matrix(9.9626,0,0,-9.9626,34.24086,36.40609)"/>
<use xlink:href="#font_0_18" transform="matrix(9.9626,0,0,-9.9626,40.62689,36.346315)"/>
<use xlink:href="#font_0_20" transform="matrix(9.9626,0,0,-9.9626,43.54593,36.40609)"/>
<use xlink:href="#font_0_11" transform="matrix(9.9626,0,0,-9.9626,48.108797,36.40609)"/>
<use xlink:href="#font_0_20" transform="matrix(9.9626,0,0,-9.9626,53.5683,36.40609)"/>
<use xlink:href="#font_0_d" transform="matrix(9.9626,0,0,-9.9626,62.435007,36.346315)"/>
<symbol id="font_1_1e">
<path d="M .60200008 .60700008 C .61600008 .64400008 .64300009 .67300006 .711 .674 L .711 .70500007 C .68000009 .70300009 .64000007 .702 .614 .702 C .58400008 .702 .526 .70400008 .50000008 .70500007 L .50000008 .674 C .55200007 .67300006 .573 .647 .573 .6240001 C .573 .61600008 .57000008 .61 .568 .60400006 L .38500003 .122 L .194 .62700006 C .18800003 .64100006 .18800003 .64300009 .18800003 .64500007 C .18800003 .674 .245 .674 .27 .674 L .27 .70500007 C .23400003 .702 .16500002 .702 .127 .702 C .079 .702 .036000004 .70400008 0 .70500007 L 0 .674 C .065000008 .674 .08400001 .674 .098000008 .63600006 L .33 .022000002 C .337 .0030000006 .34200005 0 .35500003 0 C .37200005 0 .374 .005000001 .37900005 .019000002 L .60200008 .60700008 Z "/>
</symbol>
<symbol id="font_1_13">
<path d="M .549 .68 L 0 .68 L 0 .64900007 L .024000004 .64900007 C .101 .64900007 .10300001 .638 .10300001 .60200008 L .10300001 .078 C .10300001 .042000005 .101 .031000002 .024000004 .031000002 L 0 .031000002 L 0 0 C .035000005 .003 .11300001 .003 .15200001 .003 C .19300002 .003 .284 .003 .32000003 0 L .32000003 .031000002 L .28700004 .031000002 C .192 .031000002 .192 .044000005 .192 .079 L .192 .32500003 L .27800004 .32500003 C .374 .32500003 .38400004 .293 .38400004 .208 L .40900005 .208 L .40900005 .47300003 L .38400004 .47300003 C .38400004 .38900004 .374 .356 .27800004 .356 L .192 .356 L .192 .609 C .192 .642 .194 .64900007 .24100003 .64900007 L .36100004 .64900007 C .51100006 .64900007 .536 .59300008 .55200007 .455 L .577 .455 L .549 .68 Z "/>
</symbol>
<symbol id="font_1_37">
<path d="M .275 .23500002 C .305 .273 .34300003 .32200004 .367 .34800003 C .39800004 .384 .43900005 .39900003 .48600004 .4 L .48600004 .43100003 C .46000005 .42900003 .43000005 .42800004 .404 .42800004 C .374 .42800004 .321 .43 .30800004 .43100003 L .30800004 .4 C .32900004 .39800004 .337 .38500003 .337 .36900003 C .337 .35300002 .32700003 .34 .32200004 .33400003 L .26000003 .256 L .18200001 .35700003 C .17300001 .367 .17300001 .36900003 .17300001 .37500004 C .17300001 .39000003 .18800001 .39900003 .20800002 .4 L .20800002 .43100003 C .18200001 .43 .116000007 .42800004 .1 .42800004 C .079 .42800004 .032000007 .42900003 .005000001 .43100003 L .005000001 .4 C .075 .4 .076000008 .39900003 .123 .33900003 L .22200002 .21000001 L .128 .091000009 C .080000009 .033 .021 .031000002 0 .031000002 L 0 0 C .026000003 .002 .057000005 .003 .083000008 .003 C .112 .003 .15400002 .001 .17800002 0 L .17800002 .031000002 C .15600002 .034 .14900002 .047000003 .14900002 .062000004 C .14900002 .08400001 .17800002 .117000009 .23900002 .18900001 L .31500004 .089 C .323 .078 .33600004 .062000004 .33600004 .056 C .33600004 .047000003 .32700003 .032 .3 .031000002 L .3 0 C .33 .001 .38600005 .003 .40800003 .003 C .43500004 .003 .47400005 .002 .504 0 L .504 .031000002 C .45000003 .031000002 .43200005 .033 .40900005 .062000004 L .275 .23500002 Z "/>
</symbol>
<use xlink:href="#font_1_1e" transform="matrix(9.9626,0,0,-9.9626,68.3238,36.56549)"/>
<use xlink:href="#font_1_32" transform="matrix(9.9626,0,0,-9.9626,75.058528,36.346315)"/>
<use xlink:href="#font_1_22" transform="matrix(9.9626,0,0,-9.9626,79.10333,36.455904)"/>
<use xlink:href="#font_1_2a" transform="matrix(9.9626,0,0,-9.9626,83.994968,36.346315)"/>
<use xlink:href="#font_1_33" transform="matrix(9.9626,0,0,-9.9626,90.08212,36.455904)"/>
<use xlink:href="#font_1_2a" transform="matrix(9.9626,0,0,-9.9626,94.007389,36.346315)"/>
<use xlink:href="#font_1_2c" transform="matrix(9.9626,0,0,-9.9626,100.09454,36.346315)"/>
<use xlink:href="#font_1_26" transform="matrix(9.9626,0,0,-9.9626,102.81434,36.455904)"/>
<use xlink:href="#font_1_2d" transform="matrix(9.9626,0,0,-9.9626,110.6051,36.346315)"/>
<use xlink:href="#font_1_2f" transform="matrix(9.9626,0,0,-9.9626,118.8641,36.455904)"/>
<use xlink:href="#font_1_35" transform="matrix(9.9626,0,0,-9.9626,123.88524,36.455904)"/>
<use xlink:href="#font_1_36" transform="matrix(9.9626,0,0,-9.9626,129.29492,36.455904)"/>
<use xlink:href="#font_1_26" transform="matrix(9.9626,0,0,-9.9626,134.36589,36.455904)"/>
<use xlink:href="#font_1_2d" transform="matrix(9.9626,0,0,-9.9626,138.82915,36.346315)"/>
<use xlink:href="#font_1_26" transform="matrix(9.9626,0,0,-9.9626,147.08815,36.455904)"/>
<use xlink:href="#font_1_2e" transform="matrix(9.9626,0,0,-9.9626,151.5514,36.346315)"/>
<use xlink:href="#font_1_34" transform="matrix(9.9626,0,0,-9.9626,156.68215,36.455904)"/>
<use xlink:href="#font_1_2d" transform="matrix(9.9626,0,0,-9.9626,164.01464,36.346315)"/>
<use xlink:href="#font_1_26" transform="matrix(9.9626,0,0,-9.9626,172.27364,36.455904)"/>
<use xlink:href="#font_1_34" transform="matrix(9.9626,0,0,-9.9626,176.60738,36.455904)"/>
<use xlink:href="#font_1_2c" transform="matrix(9.9626,0,0,-9.9626,183.93985,36.346315)"/>
<use xlink:href="#font_1_26" transform="matrix(9.9626,0,0,-9.9626,186.65962,36.455904)"/>
<use xlink:href="#font_1_2b" transform="matrix(9.9626,0,0,-9.9626,193.72312,38.388647)"/>
<use xlink:href="#font_1_2f" transform="matrix(9.9626,0,0,-9.9626,197.44911,36.455904)"/>
<use xlink:href="#font_1_35" transform="matrix(9.9626,0,0,-9.9626,202.47026,36.455904)"/>
<use xlink:href="#font_1_26" transform="matrix(9.9626,0,0,-9.9626,207.96962,36.455904)"/>
<use xlink:href="#font_1_35" transform="matrix(9.9626,0,0,-9.9626,212.43288,36.455904)"/>
<use xlink:href="#font_1_32" transform="matrix(9.9626,0,0,-9.9626,217.93224,36.346315)"/>
<use xlink:href="#font_1_26" transform="matrix(9.9626,0,0,-9.9626,225.16509,36.455904)"/>
<use xlink:href="#font_1_2e" transform="matrix(9.9626,0,0,-9.9626,229.62834,36.346315)"/>
<use xlink:href="#font_1_4" transform="matrix(9.9626,0,0,-9.9626,239.93965,31.265387)"/>
<use xlink:href="#font_1_26" transform="matrix(9.9626,0,0,-9.9626,238.44524,36.455904)"/>
<use xlink:href="#font_1_24" transform="matrix(9.9626,0,0,-9.9626,242.92842,36.455904)"/>
<use xlink:href="#font_1_29" transform="matrix(9.9626,0,0,-9.9626,247.05294,36.346315)"/>
<use xlink:href="#font_1_26" transform="matrix(9.9626,0,0,-9.9626,252.55229,36.455904)"/>
<use xlink:href="#font_1_24" transform="matrix(9.9626,0,0,-9.9626,257.03547,36.455904)"/>
<use xlink:href="#font_1_a" transform="matrix(9.9626,0,0,-9.9626,261.97694,38.269098)"/>
<use xlink:href="#font_1_13" transform="matrix(9.9626,0,0,-9.9626,267.54603,36.346315)"/>
<use xlink:href="#font_1_22" transform="matrix(9.9626,0,0,-9.9626,273.3044,36.455904)"/>
<use xlink:href="#font_1_35" transform="matrix(9.9626,0,0,-9.9626,278.1861,36.455904)"/>
<use xlink:href="#font_1_37" transform="matrix(9.9626,0,0,-9.9626,283.52604,36.346315)"/>
<use xlink:href="#font_1_33" transform="matrix(9.9626,0,0,-9.9626,292.31306,36.455904)"/>
<use xlink:href="#font_1_2a" transform="matrix(9.9626,0,0,-9.9626,296.2383,36.346315)"/>
<use xlink:href="#font_1_2e" transform="matrix(9.9626,0,0,-9.9626,298.99797,36.346315)"/>
<use xlink:href="#font_1_2f" transform="matrix(9.9626,0,0,-9.9626,304.4973,36.455904)"/>
<use xlink:href="#font_1_2e" transform="matrix(9.9626,0,0,-9.9626,309.51847,36.346315)"/>
<symbol id="font_2_2">
<path d="M .29700003 .62100008 C .29700003 .656 .29000003 .656 .24800003 .656 C .18600002 .606 .10400001 .592 .023999997 .592 L 0 .592 L 0 .536 L .023999997 .536 C .064 .536 .125 .54300007 .16700003 .55700007 L .16700003 .056 L .009000003 .056 L .009000003 0 C .058000007 .004 .178 .004 .23200003 .004 C .268 .004 .30400003 .003 .34000004 .003 C .37000004 .003 .42200006 .002 .45100004 0 L .45100004 .056 L .29700003 .056 L .29700003 .62100008 Z "/>
</symbol>
<use xlink:href="#font_2_2" transform="matrix(6.9738,0,0,-6.9738,6.6378338,52.59131)"/>
<use xlink:href="#font_1_30" transform="matrix(9.9626,0,0,-9.9626,15.700461,54.52405)"/>
<use xlink:href="#font_1_2a" transform="matrix(9.9626,0,0,-9.9626,21.289475,52.59131)"/>
<use xlink:href="#font_1_26" transform="matrix(9.9626,0,0,-9.9626,24.00927,52.700899)"/>
<use xlink:href="#font_1_24" transform="matrix(9.9626,0,0,-9.9626,28.492445,52.700899)"/>
<use xlink:href="#font_1_26" transform="matrix(9.9626,0,0,-9.9626,32.85607,52.700899)"/>
<path transform="matrix(1,0,0,-1,37.604509,52.391298)" stroke-width=".398" stroke-linecap="butt" stroke-miterlimit="10" stroke-linejoin="miter" fill="none" stroke="#000000" d="M 0 0 L 2.989 0 "/>
<use xlink:href="#font_1_24" transform="matrix(9.9626,0,0,-9.9626,40.932237,52.700838)"/>
<use xlink:href="#font_1_22" transform="matrix(9.9626,0,0,-9.9626,45.435338,52.700838)"/>
<use xlink:href="#font_1_30" transform="matrix(9.9626,0,0,-9.9626,50.277154,54.52399)"/>
<use xlink:href="#font_1_34" transform="matrix(9.9626,0,0,-9.9626,55.72669,52.700838)"/>
<use xlink:href="#font_1_35" transform="matrix(9.9626,0,0,-9.9626,59.73166,52.700838)"/>
<use xlink:href="#font_1_32" transform="matrix(9.9626,0,0,-9.9626,65.23101,52.591249)"/>
<use xlink:href="#font_1_26" transform="matrix(9.9626,0,0,-9.9626,69.136348,52.700838)"/>
<use xlink:href="#font_1_26" transform="matrix(9.9626,0,0,-9.9626,73.559749,52.700838)"/>
<symbol id="font_3_2">
<path d="M .85200008 .24100001 C .87000009 .24100001 .8880001 .24100001 .8880001 .261 C .8880001 .28100003 .87000009 .28100003 .85200008 .28100003 L .109000008 .28100003 C .164 .323 .19100002 .36400003 .19900003 .37700004 C .24400002 .44600005 .25200004 .509 .25200004 .51 C .25200004 .522 .24000001 .522 .23200003 .522 C .21500004 .522 .21400002 .52 .21000001 .50200006 C .187 .404 .12800002 .321 .015000001 .27400003 C .0040000008 .27 0 .268 0 .261 C 0 .254 .0050000029 .252 .015000001 .24800003 C .11900001 .20500002 .18600002 .127 .21100003 .015000001 C .21400002 .0030000006 .21500004 0 .23200003 0 C .24000001 0 .25200004 0 .25200004 .012000001 C .25200004 .014 .24300003 .077 .201 .14400001 C .18100003 .17400001 .15200001 .20900002 .109000008 .24100001 L .85200008 .24100001 Z "/>
</symbol>
<use xlink:href="#font_3_2" transform="matrix(9.9626,0,0,-9.9626,81.58342,52.700838)"/>
<symbol id="font_1_18">
<path d="M .665 .36100004 C .665 .56500008 .51400008 .72700008 .33200003 .72700008 C .153 .72700008 0 .56700006 0 .36100004 C 0 .156 .15400002 0 .33200003 0 C .51400008 0 .665 .15900001 .665 .36100004 M .33300004 .026000003 C .23700002 .026000003 .10300001 .11400001 .10300001 .37500004 C .10300001 .63400009 .24900002 .702 .33200003 .702 C .41900004 .702 .56200006 .63100007 .56200006 .37500004 C .56200006 .11000001 .42500005 .026000003 .33300004 .026000003 Z "/>
</symbol>
<symbol id="font_1_23">
<path d="M .14400001 .388 L .14400001 .705 L 0 .694 L 0 .663 C .07000001 .663 .07800001 .656 .07800001 .607 L .07800001 .011000001 L .103000018 .011000001 C .104 .012000001 .112 .026 .13900002 .07300001 C .15400002 .05 .19600001 0 .27 0 C .38900004 0 .49300004 .098000008 .49300004 .22700002 C .49300004 .35400004 .395 .45300005 .28100003 .45300005 C .20300001 .45300005 .16000001 .40600003 .14400001 .388 M .14700002 .12500002 L .14700002 .33100004 C .14700002 .35000003 .14700002 .351 .158 .367 C .19700001 .42300005 .252 .43100003 .27600003 .43100003 C .321 .43100003 .35700003 .40500004 .381 .367 C .40700004 .32600004 .41000004 .26900003 .41000004 .22800002 C .41000004 .19100002 .40800003 .13100001 .379 .086 C .358 .055000005 .32000003 .022000002 .266 .022000002 C .22100002 .022000002 .18500002 .046 .16100002 .083000008 C .14700002 .104 .14700002 .107 .14700002 .12500002 Z "/>
</symbol>
<symbol id="font_1_3">
<path d="M .168 0 L .186 .01699996 L .066 .171 C .06299999 .17500001 .052 .18799997 .036 .18799997 C .017999992 .18799997 0 .16999996 0 .15200001 C 0 .13999999 .0069999995 .13 .016999998 .12199998 L .168 0 Z "/>
</symbol>
<use xlink:href="#font_1_18" transform="matrix(9.9626,0,0,-9.9626,94.866428,52.810426)"/>
<use xlink:href="#font_1_23" transform="matrix(9.9626,0,0,-9.9626,102.33837,52.700838)"/>
<use xlink:href="#font_1_34" transform="matrix(9.9626,0,0,-9.9626,107.78791,52.700838)"/>
<use xlink:href="#font_1_26" transform="matrix(9.9626,0,0,-9.9626,111.75303,52.700838)"/>
<use xlink:href="#font_1_2e" transform="matrix(9.9626,0,0,-9.9626,116.21628,52.591249)"/>
<use xlink:href="#font_1_2a" transform="matrix(9.9626,0,0,-9.9626,121.76544,52.591249)"/>
<use xlink:href="#font_1_32" transform="matrix(9.9626,0,0,-9.9626,124.48524,52.591249)"/>
<use xlink:href="#font_1_2c" transform="matrix(9.9626,0,0,-9.9626,131.75794,52.591249)"/>
<use xlink:href="#font_1_22" transform="matrix(9.9626,0,0,-9.9626,134.6172,52.700838)"/>
<use xlink:href="#font_1_30" transform="matrix(9.9626,0,0,-9.9626,142.78652,54.52399)"/>
<use xlink:href="#font_1_2a" transform="matrix(9.9626,0,0,-9.9626,148.37555,52.591249)"/>
<use xlink:href="#font_1_3" transform="matrix(9.9626,0,0,-9.9626,151.60341,47.510324)"/>
<use xlink:href="#font_1_26" transform="matrix(9.9626,0,0,-9.9626,151.09529,52.700838)"/>
<use xlink:href="#font_1_24" transform="matrix(9.9626,0,0,-9.9626,155.57848,52.700838)"/>
<use xlink:href="#font_1_26" transform="matrix(9.9626,0,0,-9.9626,159.9421,52.700838)"/>
<use xlink:href="#font_1_3" transform="matrix(9.9626,0,0,-9.9626,168.47008,47.510324)"/>
<use xlink:href="#font_1_22" transform="matrix(9.9626,0,0,-9.9626,167.82251,52.700838)"/>
<use xlink:href="#font_1_2c" transform="matrix(9.9626,0,0,-9.9626,176.03168,52.591249)"/>
<use xlink:href="#font_1_22" transform="matrix(9.9626,0,0,-9.9626,178.89093,52.700838)"/>
<use xlink:href="#font_1_30" transform="matrix(9.9626,0,0,-9.9626,187.06026,54.52399)"/>
<use xlink:href="#font_1_2f" transform="matrix(9.9626,0,0,-9.9626,192.86846,52.700838)"/>
<use xlink:href="#font_1_33" transform="matrix(9.9626,0,0,-9.9626,197.89957,52.700838)"/>
<use xlink:href="#font_1_2a" transform="matrix(9.9626,0,0,-9.9626,201.82483,52.591249)"/>
<use xlink:href="#font_1_34" transform="matrix(9.9626,0,0,-9.9626,204.45494,52.700838)"/>
<use xlink:href="#font_1_2a" transform="matrix(9.9626,0,0,-9.9626,208.46988,52.591249)"/>
<use xlink:href="#font_1_2f" transform="matrix(9.9626,0,0,-9.9626,211.18965,52.700838)"/>
<use xlink:href="#font_1_2e" transform="matrix(9.9626,0,0,-9.9626,216.2108,52.591249)"/>
<use xlink:href="#font_1_25" transform="matrix(9.9626,0,0,-9.9626,225.09746,52.700838)"/>
<use xlink:href="#font_1_26" transform="matrix(9.9626,0,0,-9.9626,230.57689,52.700838)"/>
<use xlink:href="#font_1_1" transform="matrix(9.9626,0,0,-9.9626,238.30788,52.591249)"/>
<use xlink:href="#font_1_2e" transform="matrix(9.9626,0,0,-9.9626,243.8969,52.591249)"/>
<symbol id="font_2_3">
<path d="M .51 .22800002 L .44700004 .22800002 C .445 .216 .436 .14500001 .41800005 .141 C .397 .13700001 .337 .13700001 .314 .13700001 L .177 .13700001 C .23200001 .178 .288 .21900001 .34600003 .256 C .42700006 .30800004 .51 .36100004 .51 .46100004 C .51 .58100005 .397 .656 .23800002 .656 C .102 .656 0 .60300007 0 .508 C 0 .45000003 .047 .42900003 .07700001 .42900003 C .113000009 .42900003 .155 .45400004 .155 .507 C .155 .555 .118 .57500007 .11500001 .57600006 C .15100001 .59900006 .19700001 .6 .209 .6 C .29400004 .6 .361 .546 .361 .46 C .361 .38300003 .30900003 .319 .251 .268 L .012999997 .057000005 C .001000002 .045 0 .044000005 0 .024 L 0 0 L .476 0 L .51 .22800002 Z "/>
</symbol>
<use xlink:href="#font_2_3" transform="matrix(6.9738,0,0,-6.9738,6.400732,64.546268)"/>
<symbol id="font_1_12">
<path d="M 0 .683 L 0 .652 L .024000004 .652 C .10100001 .652 .103000018 .64100006 .103000018 .605 L .103000018 .078 C .103000018 .042000005 .10100001 .031000002 .024000004 .031000002 L 0 .031000002 L 0 0 L .36600004 0 C .534 0 .672 .148 .672 .33600004 C .672 .526 .537 .683 .36600004 .683 L 0 .683 M .238 .031000002 C .19100002 .031000002 .18900001 .038000004 .18900001 .071 L .18900001 .61200007 C .18900001 .64500007 .19100002 .652 .238 .652 L .33800004 .652 C .40000005 .652 .469 .63000008 .52 .559 C .563 .5 .572 .41400004 .572 .33600004 C .572 .22500001 .553 .165 .517 .116000007 C .497 .089 .44000004 .031000002 .33900003 .031000002 L .238 .031000002 Z "/>
</symbol>
<use xlink:href="#font_1_12" transform="matrix(9.9626,0,0,-9.9626,15.7702,64.546268)"/>
<use xlink:href="#font_1_4" transform="matrix(9.9626,0,0,-9.9626,24.806279,59.46534)"/>
<use xlink:href="#font_1_26" transform="matrix(9.9626,0,0,-9.9626,23.311882,64.65585)"/>
<use xlink:href="#font_1_30" transform="matrix(9.9626,0,0,-9.9626,27.735283,66.47901)"/>
<use xlink:href="#font_1_2c" transform="matrix(9.9626,0,0,-9.9626,33.324296,64.546268)"/>
<use xlink:href="#font_1_22" transform="matrix(9.9626,0,0,-9.9626,36.183568,64.65585)"/>
<use xlink:href="#font_1_24" transform="matrix(9.9626,0,0,-9.9626,41.08516,64.65585)"/>
<use xlink:href="#font_1_26" transform="matrix(9.9626,0,0,-9.9626,45.448785,64.65585)"/>
<use xlink:href="#font_1_32" transform="matrix(9.9626,0,0,-9.9626,49.872186,64.546268)"/>
<use xlink:href="#font_1_2c" transform="matrix(9.9626,0,0,-9.9626,57.144884,64.546268)"/>
<use xlink:href="#font_1_22" transform="matrix(9.9626,0,0,-9.9626,60.004156,64.65585)"/>
<use xlink:href="#font_1_30" transform="matrix(9.9626,0,0,-9.9626,68.173488,66.47901)"/>
<use xlink:href="#font_1_2a" transform="matrix(9.9626,0,0,-9.9626,73.7625,64.546268)"/>
<use xlink:href="#font_1_3" transform="matrix(9.9626,0,0,-9.9626,76.990398,59.46534)"/>
<use xlink:href="#font_1_26" transform="matrix(9.9626,0,0,-9.9626,76.48229,64.65585)"/>
<use xlink:href="#font_1_24" transform="matrix(9.9626,0,0,-9.9626,80.96547,64.65585)"/>
<use xlink:href="#font_1_26" transform="matrix(9.9626,0,0,-9.9626,85.329097,64.65585)"/>
<use xlink:href="#font_1_25" transform="matrix(9.9626,0,0,-9.9626,93.12982,64.65585)"/>
<use xlink:href="#font_1_26" transform="matrix(9.9626,0,0,-9.9626,98.609249,64.65585)"/>
<use xlink:href="#font_1_30" transform="matrix(9.9626,0,0,-9.9626,106.3502,66.47901)"/>
<use xlink:href="#font_1_2f" transform="matrix(9.9626,0,0,-9.9626,112.16834,64.65585)"/>
<use xlink:href="#font_1_33" transform="matrix(9.9626,0,0,-9.9626,117.19945,64.65585)"/>
<path transform="matrix(1,0,0,-1,121.401508,64.34729)" stroke-width=".398" stroke-linecap="butt" stroke-miterlimit="10" stroke-linejoin="miter" fill="none" stroke="#000000" d="M 0 0 L 2.989 0 "/>
<use xlink:href="#font_1_25" transform="matrix(9.9626,0,0,-9.9626,124.72923,64.65585)"/>
<use xlink:href="#font_1_26" transform="matrix(9.9626,0,0,-9.9626,130.20865,64.65585)"/>
<use xlink:href="#font_1_30" transform="matrix(9.9626,0,0,-9.9626,134.63205,66.47901)"/>
<use xlink:href="#font_1_22" transform="matrix(9.9626,0,0,-9.9626,140.31073,64.65585)"/>
<use xlink:href="#font_1_32" transform="matrix(9.9626,0,0,-9.9626,145.15254,64.546268)"/>
<use xlink:href="#font_1_34" transform="matrix(9.9626,0,0,-9.9626,148.96822,64.65585)"/>
<use xlink:href="#font_1_3" transform="matrix(9.9626,0,0,-9.9626,157.03792,59.46534)"/>
<use xlink:href="#font_1_22" transform="matrix(9.9626,0,0,-9.9626,156.39035,64.65585)"/>
<use xlink:href="#font_1_30" transform="matrix(9.9626,0,0,-9.9626,164.55968,66.47901)"/>
<use xlink:href="#font_1_2f" transform="matrix(9.9626,0,0,-9.9626,170.36788,64.65585)"/>
<use xlink:href="#font_1_33" transform="matrix(9.9626,0,0,-9.9626,175.39899,64.65585)"/>
<path transform="matrix(1,0,0,-1,179.58951,64.34729)" stroke-width=".398" stroke-linecap="butt" stroke-miterlimit="10" stroke-linejoin="miter" fill="none" stroke="#000000" d="M 0 0 L 2.989 0 "/>
<use xlink:href="#font_1_1" transform="matrix(9.9626,0,0,-9.9626,182.84749,64.546268)"/>
<use xlink:href="#font_1_2e" transform="matrix(9.9626,0,0,-9.9626,188.43651,64.546268)"/>
<use xlink:href="#font_1_33" transform="matrix(9.9626,0,0,-9.9626,197.30323,64.65585)"/>
<use xlink:href="#font_1_35" transform="matrix(9.9626,0,0,-9.9626,201.21852,64.65585)"/>
<use xlink:href="#font_1_32" transform="matrix(9.9626,0,0,-9.9626,206.71788,64.546268)"/>
<use xlink:href="#font_1_2c" transform="matrix(9.9626,0,0,-9.9626,214.00055,64.546268)"/>
<use xlink:href="#font_1_26" transform="matrix(9.9626,0,0,-9.9626,216.72032,64.65585)"/>
<use xlink:href="#font_1_30" transform="matrix(9.9626,0,0,-9.9626,224.46126,66.47901)"/>
<use xlink:href="#font_1_2c" transform="matrix(9.9626,0,0,-9.9626,230.0503,64.546268)"/>
<use xlink:href="#font_1_22" transform="matrix(9.9626,0,0,-9.9626,232.90955,64.65585)"/>
<use xlink:href="#font_1_34" transform="matrix(9.9626,0,0,-9.9626,237.6617,64.65585)"/>
<use xlink:href="#font_1_26" transform="matrix(9.9626,0,0,-9.9626,241.62682,64.65585)"/>
<use xlink:href="#font_1_22" transform="matrix(9.9626,0,0,-9.9626,246.1897,64.65585)"/>
<use xlink:href="#font_1_35" transform="matrix(9.9626,0,0,-9.9626,251.07137,64.65585)"/>
<symbol id="font_2_4">
<path d="M .245 .337 C .36400003 .337 .36900003 .24700001 .36900003 .194 C .36900003 .152 .36900003 .051 .24900002 .051 C .222 .051 .15900001 .056 .116000007 .083000008 C .137 .09200001 .16300002 .11500001 .16300002 .158 C .16300002 .204 .13 .23900001 .08200001 .23900001 C .031999999 .23900001 0 .204 0 .157 C 0 .055 .11100001 0 .253 0 C .46200005 0 .53200009 .109000008 .53200009 .193 C .53200009 .27 .471 .34 .35700003 .363 C .42900003 .39000003 .49600003 .442 .49600003 .526 C .49600003 .60400006 .416 .66800007 .256 .66800007 C .12 .66800007 .036 .6010001 .036 .51800009 C .036 .46800003 .072000008 .441 .11100001 .441 C .16100002 .441 .187 .47800002 .187 .51600006 C .187 .56700006 .14700002 .58500006 .137 .58800008 C .178 .61800006 .231 .62200006 .25100003 .62200006 C .349 .62200006 .349 .55700007 .349 .52900007 C .349 .483 .329 .391 .229 .386 C .204 .38500003 .17900002 .384 .17300001 .382 C .16 .37800003 .16 .366 .16 .36 C .16 .337 .17300001 .337 .192 .337 L .245 .337 Z "/>
</symbol>
<use xlink:href="#font_2_4" transform="matrix(6.9738,0,0,-6.9738,6.324005,76.58497)"/>
<use xlink:href="#font_1_26" transform="matrix(9.9626,0,0,-9.9626,15.700446,76.61087)"/>
<use xlink:href="#font_1_24" transform="matrix(9.9626,0,0,-9.9626,20.183623,76.61087)"/>
<use xlink:href="#font_1_29" transform="matrix(9.9626,0,0,-9.9626,24.308154,76.50128)"/>
<use xlink:href="#font_1_26" transform="matrix(9.9626,0,0,-9.9626,29.807503,76.61087)"/>
<use xlink:href="#font_1_24" transform="matrix(9.9626,0,0,-9.9626,34.29068,76.61087)"/>
<use xlink:href="#font_3_2" transform="matrix(9.9626,0,0,-9.9626,42.269395,76.61087)"/>
<use xlink:href="#font_1_1e" transform="matrix(9.9626,0,0,-9.9626,55.184774,76.72046)"/>
<use xlink:href="#font_1_4" transform="matrix(9.9626,0,0,-9.9626,64.24078,71.42036)"/>
<use xlink:href="#font_1_26" transform="matrix(9.9626,0,0,-9.9626,62.74639,76.61087)"/>
<use xlink:href="#font_1_32" transform="matrix(9.9626,0,0,-9.9626,67.16979,76.50128)"/>
<use xlink:href="#font_1_2a" transform="matrix(9.9626,0,0,-9.9626,71.12494,76.50128)"/>
<use xlink:href="#font_1_1" transform="matrix(9.9626,0,0,-9.9626,73.83477,76.50128)"/>
<use xlink:href="#font_1_26" transform="matrix(9.9626,0,0,-9.9626,79.383937,76.61087)"/>
<use xlink:href="#font_1_32" transform="matrix(9.9626,0,0,-9.9626,83.807338,76.50128)"/>
<use xlink:href="#font_1_33" transform="matrix(9.9626,0,0,-9.9626,91.08003,76.61087)"/>
<use xlink:href="#font_1_2a" transform="matrix(9.9626,0,0,-9.9626,95.005298,76.50128)"/>
<use xlink:href="#font_1_2c" transform="matrix(9.9626,0,0,-9.9626,101.10242,76.50128)"/>
<use xlink:href="#font_1_26" transform="matrix(9.9626,0,0,-9.9626,103.82221,76.61087)"/>
<use xlink:href="#font_1_2b" transform="matrix(9.9626,0,0,-9.9626,110.885707,78.54362)"/>
<use xlink:href="#font_1_2f" transform="matrix(9.9626,0,0,-9.9626,114.61172,76.61087)"/>
<use xlink:href="#font_1_35" transform="matrix(9.9626,0,0,-9.9626,119.63286,76.61087)"/>
<use xlink:href="#font_1_26" transform="matrix(9.9626,0,0,-9.9626,125.13221,76.61087)"/>
<use xlink:href="#font_1_35" transform="matrix(9.9626,0,0,-9.9626,129.59546,76.61087)"/>
<use xlink:href="#font_1_32" transform="matrix(9.9626,0,0,-9.9626,135.0948,76.50128)"/>
<use xlink:href="#font_1_26" transform="matrix(9.9626,0,0,-9.9626,142.31768,76.61087)"/>
<use xlink:href="#font_1_33" transform="matrix(9.9626,0,0,-9.9626,146.7909,76.61087)"/>
<use xlink:href="#font_1_34" transform="matrix(9.9626,0,0,-9.9626,150.57668,76.61087)"/>
<use xlink:href="#font_1_26" transform="matrix(9.9626,0,0,-9.9626,157.86931,76.61087)"/>
<use xlink:href="#font_1_2e" transform="matrix(9.9626,0,0,-9.9626,162.33257,76.50128)"/>
<use xlink:href="#font_1_4" transform="matrix(9.9626,0,0,-9.9626,172.64388,71.42036)"/>
<use xlink:href="#font_1_26" transform="matrix(9.9626,0,0,-9.9626,171.14946,76.61087)"/>
<use xlink:href="#font_1_24" transform="matrix(9.9626,0,0,-9.9626,175.63265,76.61087)"/>
<use xlink:href="#font_1_29" transform="matrix(9.9626,0,0,-9.9626,179.75716,76.50128)"/>
<use xlink:href="#font_1_26" transform="matrix(9.9626,0,0,-9.9626,185.25652,76.61087)"/>
<use xlink:href="#font_1_24" transform="matrix(9.9626,0,0,-9.9626,189.7397,76.61087)"/>
<use xlink:href="#font_1_22" transform="matrix(9.9626,0,0,-9.9626,197.57032,76.61087)"/>
<use xlink:href="#font_1_30" transform="matrix(9.9626,0,0,-9.9626,202.41213,78.43403)"/>
<use xlink:href="#font_1_32" transform="matrix(9.9626,0,0,-9.9626,207.95134,76.50128)"/>
<use xlink:href="#font_1_3" transform="matrix(9.9626,0,0,-9.9626,212.36476,71.42036)"/>
<use xlink:href="#font_1_26" transform="matrix(9.9626,0,0,-9.9626,211.85665,76.61087)"/>
<use xlink:href="#font_1_33" transform="matrix(9.9626,0,0,-9.9626,216.32987,76.61087)"/>
<use xlink:href="#font_1_2c" transform="matrix(9.9626,0,0,-9.9626,223.57266,76.50128)"/>
<use xlink:href="#font_1_26" transform="matrix(9.9626,0,0,-9.9626,226.29244,76.61087)"/>
<use xlink:href="#font_1_2d" transform="matrix(9.9626,0,0,-9.9626,234.07323,76.50128)"/>
<use xlink:href="#font_1_2f" transform="matrix(9.9626,0,0,-9.9626,242.33223,76.61087)"/>
<use xlink:href="#font_1_35" transform="matrix(9.9626,0,0,-9.9626,247.35338,76.61087)"/>
<use xlink:href="#font_1_36" transform="matrix(9.9626,0,0,-9.9626,252.76308,76.61087)"/>
<use xlink:href="#font_1_26" transform="matrix(9.9626,0,0,-9.9626,257.84403,76.61087)"/>
<use xlink:href="#font_1_2d" transform="matrix(9.9626,0,0,-9.9626,262.30729,76.50128)"/>
<use xlink:href="#font_1_26" transform="matrix(9.9626,0,0,-9.9626,270.56629,76.61087)"/>
<use xlink:href="#font_1_2e" transform="matrix(9.9626,0,0,-9.9626,275.02955,76.50128)"/>
<use xlink:href="#font_1_34" transform="matrix(9.9626,0,0,-9.9626,280.16029,76.61087)"/>
<symbol id="font_2_5">
<path d="M .566 .15400002 L .566 .21000001 L .45700003 .21000001 L .45700003 .62700006 C .45700003 .657 .45200003 .66200008 .42200003 .66200008 L .40700004 .66200008 C .38800005 .66200008 .38000003 .66200008 .367 .647 L 0 .21000001 L 0 .15400002 L .32000003 .15400002 L .32000003 .056 L .19600001 .056 L .19600001 0 C .24500002 .004 .33500005 .004 .38700003 .004 C .40900005 .004 .541 .002 .566 0 L .566 .056 L .45700003 .056 L .45700003 .15400002 L .566 .15400002 M .33300004 .52400007 L .33300004 .21000001 L .069000009 .21000001 L .33300004 .52400007 Z "/>
</symbol>
<use xlink:href="#font_2_5" transform="matrix(6.9738,0,0,-6.9738,6.2054355,88.4563)"/>
<symbol id="font_1_1a">
<path d="M .18900001 .37500004 L .18900001 .63400009 C .18900001 .65700009 .18900001 .669 .21100001 .67200008 C .22100002 .674 .25000004 .674 .27 .674 C .36 .674 .47200004 .67 .47200004 .52500006 C .47200004 .45600004 .448 .37500004 .3 .37500004 L .18900001 .37500004 M .40000005 .36200003 C .497 .38600005 .575 .44700004 .575 .52500006 C .575 .62100008 .46100004 .70500007 .314 .70500007 L 0 .70500007 L 0 .674 L .024000004 .674 C .10100001 .674 .103000018 .66300007 .103000018 .62700006 L .103000018 .1 C .103000018 .064 .10100001 .053000004 .024000004 .053000004 L 0 .053000004 L 0 .022000002 C .036000004 .025000003 .10700001 .025000003 .14600002 .025000003 C .18500002 .025000003 .256 .025000003 .29200004 .022000002 L .29200004 .053000004 L .268 .053000004 C .19100002 .053000004 .18900001 .064 .18900001 .1 L .18900001 .35300005 L .30400003 .35300005 C .32000003 .35300005 .36200003 .35300005 .397 .31900005 C .43500004 .28300003 .43500004 .252 .43500004 .185 C .43500004 .120000008 .43500004 .080000009 .47600005 .042000005 C .517 .006000001 .572 0 .602 0 C .68 0 .697 .082 .697 .11000001 C .697 .116000007 .697 .127 .684 .127 C .673 .127 .673 .118 .672 .111 C .666 .040000004 .631 .022000002 .606 .022000002 C .557 .022000002 .549 .07300001 .535 .16600001 L .522 .246 C .504 .31000004 .455 .34300003 .40000005 .36200003 Z "/>
</symbol>
<use xlink:href="#font_1_1a" transform="matrix(9.9626,0,0,-9.9626,15.770169,88.675479)"/>
<use xlink:href="#font_1_26" transform="matrix(9.9626,0,0,-9.9626,23.032906,88.56589)"/>
<use xlink:href="#font_1_33" transform="matrix(9.9626,0,0,-9.9626,27.506119,88.56589)"/>
<use xlink:href="#font_1_34" transform="matrix(9.9626,0,0,-9.9626,31.291905,88.56589)"/>
<use xlink:href="#font_1_22" transform="matrix(9.9626,0,0,-9.9626,35.396505,88.56589)"/>
<use xlink:href="#font_1_35" transform="matrix(9.9626,0,0,-9.9626,40.278169,88.56589)"/>
<use xlink:href="#font_1_32" transform="matrix(9.9626,0,0,-9.9626,45.77752,88.4563)"/>
<use xlink:href="#font_1_26" transform="matrix(9.9626,0,0,-9.9626,49.682855,88.56589)"/>
<use xlink:href="#font_1_32" transform="matrix(9.9626,0,0,-9.9626,54.106256,88.4563)"/>
<use xlink:href="#font_1_2c" transform="matrix(9.9626,0,0,-9.9626,61.378953,88.4563)"/>
<use xlink:href="#font_1_26" transform="matrix(9.9626,0,0,-9.9626,64.09875,88.56589)"/>
<use xlink:href="#font_1_30" transform="matrix(9.9626,0,0,-9.9626,71.84966,90.389049)"/>
<use xlink:href="#font_1_2c" transform="matrix(9.9626,0,0,-9.9626,77.438678,88.4563)"/>
<use xlink:href="#font_1_22" transform="matrix(9.9626,0,0,-9.9626,80.29794,88.56589)"/>
<use xlink:href="#font_1_34" transform="matrix(9.9626,0,0,-9.9626,85.0501,88.56589)"/>
<use xlink:href="#font_1_26" transform="matrix(9.9626,0,0,-9.9626,89.01522,88.56589)"/>
<use xlink:href="#font_1_22" transform="matrix(9.9626,0,0,-9.9626,93.578098,88.56589)"/>
<use xlink:href="#font_1_35" transform="matrix(9.9626,0,0,-9.9626,98.45976,88.56589)"/>
<use xlink:href="#font_1_3" transform="matrix(9.9626,0,0,-9.9626,108.06371,83.375377)"/>
<use xlink:href="#font_1_22" transform="matrix(9.9626,0,0,-9.9626,107.41614,88.56589)"/>
<use xlink:href="#font_1_33" transform="matrix(9.9626,0,0,-9.9626,115.62532,88.56589)"/>
<use xlink:href="#font_1_2f" transform="matrix(9.9626,0,0,-9.9626,119.50077,88.56589)"/>
<use xlink:href="#font_1_2e" transform="matrix(9.9626,0,0,-9.9626,124.52191,88.4563)"/>
<use xlink:href="#font_1_4" transform="matrix(9.9626,0,0,-9.9626,134.84316,83.375377)"/>
<use xlink:href="#font_1_26" transform="matrix(9.9626,0,0,-9.9626,133.34876,88.56589)"/>
<use xlink:href="#font_1_34" transform="matrix(9.9626,0,0,-9.9626,137.6825,88.56589)"/>
<use xlink:href="#font_1_22" transform="matrix(9.9626,0,0,-9.9626,141.7871,88.56589)"/>
<use xlink:href="#font_1_34" transform="matrix(9.9626,0,0,-9.9626,146.53926,88.56589)"/>
<use xlink:href="#font_1_2a" transform="matrix(9.9626,0,0,-9.9626,153.87174,88.4563)"/>
<use xlink:href="#font_1_2e" transform="matrix(9.9626,0,0,-9.9626,156.63137,88.4563)"/>
<use xlink:href="#font_1_2a" transform="matrix(9.9626,0,0,-9.9626,162.18054,88.4563)"/>
<use xlink:href="#font_1_34" transform="matrix(9.9626,0,0,-9.9626,164.81066,88.56589)"/>
<use xlink:href="#font_1_2a" transform="matrix(9.9626,0,0,-9.9626,168.82559,88.4563)"/>
<use xlink:href="#font_1_22" transform="matrix(9.9626,0,0,-9.9626,171.68485,88.56589)"/>
<use xlink:href="#font_1_2c" transform="matrix(9.9626,0,0,-9.9626,176.57648,88.4563)"/>
<symbol id="font_2_6">
<path d="M .12100001 .508 C .157 .503 .18300002 .503 .19500001 .503 C .219 .503 .288 .503 .362 .54700008 C .39100004 .56400009 .45999999 .61500009 .45999999 .64500007 C .45999999 .64900007 .45999999 .66800007 .44200004 .66800007 C .44 .66800007 .43800003 .66800007 .426 .66400006 C .36 .6420001 .301 .63600006 .255 .63600006 C .214 .63600006 .15200001 .64100006 .08600001 .66300007 C .072 .66800007 .07000001 .66800007 .068 .66800007 C .050000006 .66800007 .050000006 .65200009 .050000006 .637 L .050000006 .34100003 C .050000006 .321 .050000006 .307 .078999999 .307 C .089 .307 .096 .307 .104 .315 C .12300001 .336 .16000001 .37600003 .255 .37600003 C .35900004 .37600003 .35900004 .289 .35900004 .21700001 C .35900004 .15 .35900004 .051 .221 .051 C .17400001 .051 .12200001 .067 .09300001 .10000001 C .143 .113000009 .147 .155 .147 .17 C .147 .21900001 .109 .244 .074 .244 C .038000004 .244 0 .22 0 .169 C 0 .07700001 .09 0 .22500001 0 C .41400004 0 .51 .10000001 .51 .213 C .51 .319 .43199999 .42200003 .26 .42200003 C .221 .42200003 .16900002 .41700004 .12100001 .389 L .12100001 .508 Z "/>
</symbol>
<use xlink:href="#font_2_6" transform="matrix(6.9738,0,0,-6.9738,6.400694,100.495)"/>
<use xlink:href="#font_1_1a" transform="matrix(9.9626,0,0,-9.9626,15.770169,100.63049)"/>
<use xlink:href="#font_1_26" transform="matrix(9.9626,0,0,-9.9626,23.032906,100.520908)"/>
<use xlink:href="#font_1_2d" transform="matrix(9.9626,0,0,-9.9626,27.496157,100.411319)"/>
<use xlink:href="#font_1_26" transform="matrix(9.9626,0,0,-9.9626,35.75515,100.520908)"/>
<use xlink:href="#font_1_34" transform="matrix(9.9626,0,0,-9.9626,40.088888,100.520908)"/>
<use xlink:href="#font_1_34" transform="matrix(9.9626,0,0,-9.9626,43.964345,100.520908)"/>
<use xlink:href="#font_1_32" transform="matrix(9.9626,0,0,-9.9626,47.929468,100.411319)"/>
<use xlink:href="#font_1_26" transform="matrix(9.9626,0,0,-9.9626,51.8348,100.520908)"/>
<use xlink:href="#font_1_2c" transform="matrix(9.9626,0,0,-9.9626,59.625566,100.411319)"/>
<use xlink:href="#font_1_22" transform="matrix(9.9626,0,0,-9.9626,62.484838,100.520908)"/>
<use xlink:href="#font_1_30" transform="matrix(9.9626,0,0,-9.9626,70.65417,102.34406)"/>
<use xlink:href="#font_1_2a" transform="matrix(9.9626,0,0,-9.9626,76.24318,100.411319)"/>
<use xlink:href="#font_1_3" transform="matrix(9.9626,0,0,-9.9626,79.47108,95.33039)"/>
<use xlink:href="#font_1_26" transform="matrix(9.9626,0,0,-9.9626,78.962978,100.520908)"/>
<use xlink:href="#font_1_24" transform="matrix(9.9626,0,0,-9.9626,83.44615,100.520908)"/>
<use xlink:href="#font_1_26" transform="matrix(9.9626,0,0,-9.9626,87.80978,100.520908)"/>
<use xlink:href="#font_1_24" transform="matrix(9.9626,0,0,-9.9626,95.610507,100.520908)"/>
<use xlink:href="#font_1_22" transform="matrix(9.9626,0,0,-9.9626,100.1136,100.520908)"/>
<use xlink:href="#font_1_30" transform="matrix(9.9626,0,0,-9.9626,104.95542,102.34406)"/>
<use xlink:href="#font_1_34" transform="matrix(9.9626,0,0,-9.9626,110.40496,100.520908)"/>
<use xlink:href="#font_1_35" transform="matrix(9.9626,0,0,-9.9626,114.40993,100.520908)"/>
<use xlink:href="#font_1_32" transform="matrix(9.9626,0,0,-9.9626,119.90928,100.411319)"/>
<use xlink:href="#font_1_4" transform="matrix(9.9626,0,0,-9.9626,125.309009,95.33039)"/>
<use xlink:href="#font_1_26" transform="matrix(9.9626,0,0,-9.9626,123.81461,100.520908)"/>
<use xlink:href="#font_1_26" transform="matrix(9.9626,0,0,-9.9626,128.238,100.520908)"/>
<use xlink:href="#font_1_3" transform="matrix(9.9626,0,0,-9.9626,136.77597,95.33039)"/>
<use xlink:href="#font_1_22" transform="matrix(9.9626,0,0,-9.9626,136.1284,100.520908)"/>
<use xlink:href="#font_1_33" transform="matrix(9.9626,0,0,-9.9626,144.33759,100.520908)"/>
<use xlink:href="#font_1_22" transform="matrix(9.9626,0,0,-9.9626,148.35251,100.520908)"/>
<use xlink:href="#font_1_30" transform="matrix(9.9626,0,0,-9.9626,156.51186,102.34406)"/>
<use xlink:href="#font_1_2f" transform="matrix(9.9626,0,0,-9.9626,162.33003,100.520908)"/>
<use xlink:href="#font_1_33" transform="matrix(9.9626,0,0,-9.9626,167.36115,100.520908)"/>
<use xlink:href="#font_1_2a" transform="matrix(9.9626,0,0,-9.9626,171.2864,100.411319)"/>
<use xlink:href="#font_1_34" transform="matrix(9.9626,0,0,-9.9626,173.91652,100.520908)"/>
<use xlink:href="#font_1_2a" transform="matrix(9.9626,0,0,-9.9626,177.93146,100.411319)"/>
<use xlink:href="#font_1_2f" transform="matrix(9.9626,0,0,-9.9626,180.65123,100.520908)"/>
<use xlink:href="#font_1_2e" transform="matrix(9.9626,0,0,-9.9626,185.67238,100.411319)"/>
<use xlink:href="#font_1_2a" transform="matrix(9.9626,0,0,-9.9626,194.5391,100.411319)"/>
<use xlink:href="#font_1_2e" transform="matrix(9.9626,0,0,-9.9626,197.29872,100.411319)"/>
<use xlink:href="#font_1_2a" transform="matrix(9.9626,0,0,-9.9626,202.8479,100.411319)"/>
<use xlink:href="#font_1_34" transform="matrix(9.9626,0,0,-9.9626,205.47801,100.520908)"/>
<use xlink:href="#font_1_2a" transform="matrix(9.9626,0,0,-9.9626,209.49295,100.411319)"/>
<use xlink:href="#font_1_22" transform="matrix(9.9626,0,0,-9.9626,212.3522,100.520908)"/>
<use xlink:href="#font_1_2c" transform="matrix(9.9626,0,0,-9.9626,217.24384,100.411319)"/>
<use xlink:href="#font_1_26" transform="matrix(9.9626,0,0,-9.9626,219.96361,100.520908)"/>
<symbol id="font_2_7">
<path d="M .14700002 .35500003 C .14700002 .423 .151 .50000008 .187 .5500001 C .236 .6190001 .315 .62200006 .336 .62200006 C .367 .62200006 .393 .61300006 .40800003 .6010001 C .379 .59000006 .361 .56500008 .361 .53400006 C .361 .49600003 .388 .465 .43 .465 C .471 .465 .50000008 .49300004 .50000008 .5360001 C .50000008 .59700009 .46 .66800007 .33400003 .66800007 C .16500002 .66800007 0 .56600007 0 .33 C 0 .19500001 .036 0 .27 0 C .43 0 .53200009 .086 .53200009 .21800001 C .53200009 .35000003 .43 .432 .287 .432 C .26500003 .432 .197 .432 .14700002 .35500003 M .269 .051 C .15 .051 .14900002 .17 .14900002 .231 C .14900002 .303 .19 .386 .276 .386 C .38500003 .386 .38500003 .31 .38500003 .21900001 C .38500003 .126 .38500003 .051 .269 .051 Z "/>
</symbol>
<use xlink:href="#font_2_7" transform="matrix(6.9738,0,0,-6.9738,6.3239824,112.451)"/>
<use xlink:href="#font_0_1e" transform="matrix(9.9626,0,0,-9.9626,15.790094,112.36731)"/>
<use xlink:href="#font_0_13" transform="matrix(9.9626,0,0,-9.9626,20.462557,112.427089)"/>
<use xlink:href="#font_0_20" transform="matrix(9.9626,0,0,-9.9626,25.603259,112.427089)"/>
<use xlink:href="#font_0_1b" transform="matrix(9.9626,0,0,-9.9626,30.166125,112.427089)"/>
<use xlink:href="#font_0_21" transform="matrix(9.9626,0,0,-9.9626,36.02414,112.427089)"/>
<use xlink:href="#font_0_1e" transform="matrix(9.9626,0,0,-9.9626,42.310544,112.36731)"/>
<use xlink:href="#font_0_1a" transform="matrix(9.9626,0,0,-9.9626,47.11252,112.36731)"/>
<use xlink:href="#font_0_13" transform="matrix(9.9626,0,0,-9.9626,53.349107,112.427089)"/>
<use xlink:href="#font_0_1e" transform="matrix(9.9626,0,0,-9.9626,58.64921,112.36731)"/>
<use xlink:href="#font_1_26" transform="matrix(9.9626,0,0,-9.9626,66.59243,112.4769)"/>
<use xlink:href="#font_1_24" transform="matrix(9.9626,0,0,-9.9626,71.07561,112.4769)"/>
<use xlink:href="#font_1_29" transform="matrix(9.9626,0,0,-9.9626,75.200138,112.36731)"/>
<use xlink:href="#font_1_26" transform="matrix(9.9626,0,0,-9.9626,80.699489,112.4769)"/>
<use xlink:href="#font_1_24" transform="matrix(9.9626,0,0,-9.9626,85.18266,112.4769)"/>
<path transform="matrix(1,0,0,-1,.47750093,118.34424)" stroke-width=".797" stroke-linecap="butt" stroke-miterlimit="10" stroke-linejoin="miter" fill="none" stroke="#000000" d="M 0 0 L 612 0 "/>
</g>
</svg>
