<svg xmlns="http://www.w3.org/2000/svg" xmlns:xlink="http://www.w3.org/1999/xlink" width="817.273" height="435.715" viewBox="0 0 612.955 326.786" style="background-color:white"><path stroke-width=".797" stroke-miterlimit="10" fill="none" stroke="#000" d="M.478 1.444h612"/><symbol id="a"><path d="M.433.672C.422.698.41.698.393.698.365.698.361.69.354.672L.106.07C.1.055.097.047.021.047H0V0l.117.003C.156.003.212.003.249 0v.047C.247.047.16.047.16.06l.004.012.05.121h.268l.06-.146H.447V0C.485.003.58.003.623.003c.04 0 .128 0 .163-.003v.047H.689L.433.672M.348.518.462.24H.234l.114.278z"/></symbol><symbol id="b"><path d="M.177.694 0 .686V.639C.062.639.069.639.069.6V.047H0V0c.032.001.08.003.123.003S.212.001.246 0v.047H.177v.647z"/></symbol><symbol id="c"><path d="M.223.391C.135.391.135.458.135.503s0 .112.088.112S.311.548.311.503s0-.112-.088-.112M.101.381A.269.269 0 0 1 .223.355c.144 0 .199.078.199.148 0 .047-.025.08-.04.096a.15.15 0 0 0 .062.019.065.065 0 0 1-.004-.02.04.04 0 0 1 .043-.043c.026 0 .043.019.043.043a.059.059 0 0 1-.063.058.175.175 0 0 1-.106-.038.24.24 0 0 1-.134.033C.079.651.024.573.024.503c0-.041.02-.082.052-.105A.143.143 0 0 1 .042.309c0-.015.004-.064.044-.096C.073.21 0 .189 0 .126 0 .075.055 0 .255 0 .432 0 .51.059.51.129c0 .03-.008.093-.075.127C.379.284.319.284.223.284L.146.285a.064.064 0 0 0-.055.063c0 .01.004.025.01.033M.163.188H.28c.031 0 .144 0 .144-.062C.424.09.385.036.255.036c-.12 0-.169.046-.169.092 0 .06.063.06.077.06z"/></symbol><symbol id="d"><path d="M.51.224C.51.358.418.459.255.459.091.459 0 .357 0 .224 0 .1.088 0 .255 0 .423 0 .51.101.51.224M.255.04C.128.04.128.148.128.235c0 .045 0 .096.017.13.019.037.061.058.11.058.042 0 .084-.016.106-.051C.382.338.382.283.382.235.382.148.382.04.255.04z"/></symbol><symbol id="e"><path d="M.166.337V.45L0 .442V.395c.062 0 .069 0 .069-.039V.047H0V0c.035.001.08.003.126.003.038 0 .102 0 .138-.003v.047H.177v.175c0 .07.025.192.125.192C.301.413.283.397.283.368c0-.041.032-.061.061-.061a.06.06 0 0 1 .061.061C.405.421.351.45.299.45.229.45.189.4.166.337z"/></symbol><symbol id="f"><path d="M.177.45.003.442V.395c.059 0 .066 0 .066-.039V.047H0V0c.031.001.08.003.122.003L.239 0v.047H.177V.45m.01.167a.078.078 0 1 1-.156 0 .078.078 0 0 1 .156 0z"/></symbol><symbol id="g"><path d="M.082.403V.129C.082.022.169 0 .24 0c.076 0 .121.057.121.13v.053H.314V.132C.314.064.282.04.254.04.196.04.196.104.196.127v.276h.146V.45H.196v.191H.149C.148.541.099.442 0 .439V.403h.082z"/></symbol><symbol id="h"><path d="M.069.047H0V0a4.263 4.263 0 0 0 .252 0v.047H.183v.209c0 .109.086.158.149.158.034 0 .055-.021.055-.097v-.27H.318V0A4.263 4.263 0 0 0 .57 0v.047H.501v.259C.501.411.447.45.347.45a.19.19 0 0 1-.17-.098v.342L0 .686V.639C.062.639.069.639.069.6V.047z"/></symbol><symbol id="i"><path d="M.069.356V.047H0V0a4.263 4.263 0 0 0 .252 0v.047H.183v.209c0 .109.087.158.149.158.034 0 .056-.02.056-.097v-.27H.319V0a4.263 4.263 0 0 0 .252 0v.047H.502v.209c0 .109.087.158.149.158.034 0 .056-.02.056-.097v-.27H.638V0A4.263 4.263 0 0 0 .89 0v.047H.821v.259C.821.409.77.45.667.45A.186.186 0 0 1 .498.354C.478.447.386.45.348.45A.187.187 0 0 1 .172.342V.45L0 .442V.395c.062 0 .069 0 .069-.039z"/></symbol><symbol id="j"><path d="M.43.224c.022 0 .032 0 .032.027a.223.223 0 0 1-.056.154C.369.441.316.459.247.459.087.459 0 .356 0 .231 0 .097.1 0 .261 0c.158 0 .201.106.201.123 0 .018-.019.018-.024.018C.421.141.419.136.413.12.392.072.335.04.27.04.129.04.128.173.128.224H.43M.128.257C.13.296.131.338.152.371c.026.04.066.052.095.052.117 0 .119-.131.12-.166H.128z"/></symbol><symbol id="k"><path d="M.413.156H.51v.047H.413v.421c0 .027-.002.032-.03.032C.362.656.361.655.349.64L0 .203V.156h.288V.047H.176V0c.038.003.129.003.172.003.04 0 .127 0 .162-.003v.047H.413v.109M.299.203H.052l.247.31v-.31z"/></symbol><symbol id="l"><path d="M.156.366a.078.078 0 1 1-.156 0 .078.078 0 0 1 .156 0m0-.288a.078.078 0 1 1-.156 0 .078.078 0 0 1 .156 0z"/></symbol><use xlink:href="#a" transform="matrix(9.9626 0 0 -9.9626 8.358 10.753)"/><use xlink:href="#b" transform="matrix(9.9626 0 0 -9.9626 17.075 10.753)"/><use xlink:href="#c" transform="matrix(9.9626 0 0 -9.9626 20.104 12.756)"/><use xlink:href="#d" transform="matrix(9.9626 0 0 -9.9626 25.832 10.813)"/><use xlink:href="#e" transform="matrix(9.9626 0 0 -9.9626 31.61 10.753)"/><use xlink:href="#f" transform="matrix(9.9626 0 0 -9.9626 36.433 10.753)"/><use xlink:href="#g" transform="matrix(9.9626 0 0 -9.9626 39.352 10.813)"/><use xlink:href="#h" transform="matrix(9.9626 0 0 -9.9626 44.044 10.753)"/><use xlink:href="#i" transform="matrix(9.9626 0 0 -9.9626 50.41 10.753)"/><use xlink:href="#j" transform="matrix(9.9626 0 0 -9.9626 59.825 10.813)"/><use xlink:href="#k" transform="matrix(9.9626 0 0 -9.9626 68.89 10.753)"/><use xlink:href="#l" transform="matrix(9.9626 0 0 -9.9626 78.933 10.753)"/><symbol id="m"><path d="M.144.694 0 .683V.652C.07.652.078.645.078.596v-.52C.078.031.067.031 0 .031V0l.111.003L.222 0v.031c-.067 0-.078 0-.078.045v.618z"/></symbol><symbol id="n"><path d="M.144.442.004.431V.4C.069.4.078.394.078.345V.076C.078.031.067.031 0 .031V0l.11.003C.145.003.18.001.214 0v.031c-.066 0-.07.005-.07.044v.367m.004.174a.052.052 0 0 1-.053.053.054.054 0 0 1-.053-.053c0-.027.022-.053.053-.053.028 0 .053.021.053.053z"/></symbol><symbol id="o"><path d="M.175.205C.197.201.279.185.279.113.279.062.244.022.166.022c-.084 0-.12.057-.139.142C.024.177.023.181.013.181 0 .181 0 .174 0 .156V.024C0 .007 0 0 .011 0c.005 0 .006.001.025.02.002.002.002.004.02.023A.15.15 0 0 1 .166 0c.115 0 .161.067.161.139 0 .053-.03.083-.042.095C.252.266.213.274.171.282.115.293.048.306.048.364.048.399.074.44.16.44.27.44.275.35.277.319.278.31.287.31.289.31c.013 0 .013.005.013.024v.101c0 .017 0 .024-.011.024-.005 0-.007 0-.02-.012A.129.129 0 0 0 .254.431C.216.459.175.459.16.459.038.459 0 .392 0 .336 0 .301.016.273.043.251.075.225.103.219.175.205z"/></symbol><symbol id="p"><path d="M.154.411h.143v.031H.154v.184H.129C.128.544.098.437 0 .433V.411h.085V.135C.085.012.178 0 .214 0c.071 0 .099.071.099.135v.057H.288V.137C.288.063.258.025.221.025.154.025.154.116.154.133v.278z"/></symbol><symbol id="q"><path d="M.084.263c.006.149.09.174.124.174.103 0 .113-.135.113-.174H.084M.083.242h.279c.022 0 .025 0 .025.021 0 .099-.054.196-.179.196C.092.459 0 .356 0 .231 0 .097.105 0 .22 0a.17.17 0 0 1 .167.13c0 .01-.008.012-.013.012C.365.142.363.136.361.128.326.025.236.025.226.025c-.05 0-.09.03-.113.067-.03.048-.03.114-.03.15z"/></symbol><use xlink:href="#m" transform="matrix(9.9626 0 0 -9.9626 84.97 10.753)"/><use xlink:href="#n" transform="matrix(9.9626 0 0 -9.9626 87.739 10.753)"/><use xlink:href="#o" transform="matrix(9.9626 0 0 -9.9626 90.508 10.863)"/><use xlink:href="#p" transform="matrix(9.9626 0 0 -9.9626 94.294 10.863)"/><use xlink:href="#q" transform="matrix(9.9626 0 0 -9.9626 98.26 10.863)"/><path stroke-width=".398" stroke-miterlimit="10" fill="none" stroke="#000" d="M103.006 10.554h2.989"/><symbol id="r"><path d="M.078.344V.076C.078.031.067.031 0 .031V0l.113.003L.225 0v.031c-.067 0-.078 0-.078.045V.26c0 .104.071.16.135.16C.345.42.356.366.356.309V.076C.356.031.345.031.278.031V0l.113.003L.503 0v.031c-.067 0-.078 0-.078.045V.26c0 .104.071.16.135.16C.623.42.634.366.634.309V.076C.634.031.623.031.556.031V0l.113.003L.781 0v.031c-.052 0-.077 0-.078.03v.191c0 .086 0 .117-.031.153C.658.422.625.442.567.442A.158.158 0 0 1 .422.344C.408.431.334.442.289.442.216.442.169.399.141.337v.105L0 .431V.4C.07.4.078.393.078.344z"/></symbol><symbol id="s"><path d="M.443.225c0 .128-.1.234-.221.234C.097.459 0 .35 0 .225 0 .096.104 0 .221 0c.121 0 .222.098.222.225m-.221-.2a.13.13 0 0 0-.114.067C.083.136.083.197.083.233c0 .039 0 .093.024.137a.134.134 0 0 0 .114.067.131.131 0 0 0 .113-.065C.36.329.36.271.36.233c0-.036 0-.09-.022-.134A.129.129 0 0 0 .222.025z"/></symbol><symbol id="t"><path d="M.359.09V0l.144.011v.031c-.07 0-.078.007-.078.056v.355L.278.442V.411c.07 0 .078-.007.078-.056V.177C.356.09.308.022.235.022.151.022.147.069.147.121v.332L0 .442V.411C.078.411.078.408.078.319v-.15C.078.091.078 0 .23 0c.056 0 .1.028.129.09z"/></symbol><symbol id="u"><path d="M.397.344C.406.367.423.41.489.411v.031a.94.94 0 0 0-.162 0V.411C.364.41.375.387.375.368.375.359.373.355.369.344L.267.089.155.368C.149.381.149.383.149.385c0 .026.039.026.057.026v.031L.097.439C.07.439.03.44 0 .442V.411C.063.411.067.405.08.374L.224.019C.23.005.232 0 .245 0c.013 0 .017.009.021.019l.131.325z"/></symbol><symbol id="v"><path d="M.078.344V.076C.078.031.067.031 0 .031V0l.113.003L.225 0v.031c-.067 0-.078 0-.078.045V.26c0 .104.071.16.135.16C.345.42.356.366.356.309V.076C.356.031.345.031.278.031V0l.113.003L.503 0v.031c-.052 0-.077 0-.078.03v.191c0 .086 0 .117-.031.153C.38.422.347.442.289.442.216.442.169.399.141.337v.105L0 .431V.4C.07.4.078.393.078.344z"/></symbol><use xlink:href="#r" transform="matrix(9.9626 0 0 -9.9626 106.312 10.753)"/><use xlink:href="#s" transform="matrix(9.9626 0 0 -9.9626 114.571 10.863)"/><use xlink:href="#t" transform="matrix(9.9626 0 0 -9.9626 119.592 10.863)"/><use xlink:href="#u" transform="matrix(9.9626 0 0 -9.9626 125.002 10.863)"/><use xlink:href="#q" transform="matrix(9.9626 0 0 -9.9626 130.073 10.863)"/><use xlink:href="#r" transform="matrix(9.9626 0 0 -9.9626 134.536 10.753)"/><use xlink:href="#q" transform="matrix(9.9626 0 0 -9.9626 142.795 10.863)"/><use xlink:href="#v" transform="matrix(9.9626 0 0 -9.9626 147.259 10.753)"/><use xlink:href="#p" transform="matrix(9.9626 0 0 -9.9626 152.4 10.863)"/><path stroke-width=".398" stroke-miterlimit="10" fill="none" stroke="#000" d="M156.681 10.554h2.99"/><symbol id="w"><path d="M.346.066V0l.147.011v.031c-.07 0-.078.007-.078.056v.607L.271.694V.663c.07 0 .078-.007.078-.056V.391a.16.16 0 0 1-.126.062A.226.226 0 0 1 0 .226C0 .099.098 0 .212 0c.064 0 .109.034.134.066m0 .268V.129c0-.018 0-.02-.011-.037a.14.14 0 0 0-.118-.07C.172.022.136.048.112.086a.269.269 0 0 0-.029.139c0 .037.002.097.031.142a.137.137 0 0 0 .113.064.13.13 0 0 0 .108-.06C.346.354.346.352.346.334z"/></symbol><symbol id="x"><path d="M.291.087C.295.047.322.005.369.005.39.005.451.019.451.1v.056H.426V.1C.426.042.401.036.39.036c-.033 0-.037.045-.037.05v.2c0 .042 0 .081-.036.118A.191.191 0 0 1 .18.459C.098.459.029.412.029.346c0-.03.02-.047.046-.047.028 0 .046.02.046.046C.121.357.116.39.07.391c.027.035.076.046.108.046.049 0 .106-.039.106-.128V.272C.233.269.163.266.1.236.025.202 0 .15 0 .106 0 .025.097 0 .16 0c.066 0 .112.04.131.087M.284.251v-.1C.284.056.212.022.167.022c-.049 0-.09.035-.09.085 0 .055.042.138.207.144z"/></symbol><use xlink:href="#w" transform="matrix(9.9626 0 0 -9.9626 160.01 10.863)"/><use xlink:href="#x" transform="matrix(9.9626 0 0 -9.9626 165.628 10.863)"/><use xlink:href="#r" transform="matrix(9.9626 0 0 -9.9626 170.51 10.753)"/><use xlink:href="#q" transform="matrix(9.9626 0 0 -9.9626 178.769 10.863)"/><path stroke-width=".797" stroke-miterlimit="10" fill="none" stroke="#000" d="M.478 15.081h612"/><symbol id="y"><path d="M.108.639V.047H0V0h.431c.197 0 .347.123.347.337 0 .22-.15.349-.348.349H0V.639h.108M.244.047v.592H.39C.456.639.539.62.588.55.623.499.631.431.631.338.631.229.619.176.587.131.539.063.451.047.39.047H.244z"/></symbol><symbol id="z"><path d="M.069.356V.047H0V0a4.263 4.263 0 0 0 .252 0v.047H.183v.209c0 .109.086.158.149.158.034 0 .055-.021.055-.097v-.27H.318V0A4.263 4.263 0 0 0 .57 0v.047H.501v.259C.501.411.447.45.347.45A.189.189 0 0 1 .172.342V.45L0 .442V.395c.062 0 .069 0 .069-.039z"/></symbol><symbol id="A"><path d="M.181.081c.016.009.038.02.038.052 0 .031-.028.062-.06.062C.136.195.124.182.112.169.086.14.025.066 0 .037L.03 0l.151.081z"/></symbol><symbol id="B"><path d="M.173.3C.136.307.071.318.071.365c0 .062.093.062.112.062.075 0 .113-.029.118-.084.001-.015.002-.02.023-.02.024 0 .024.005.024.028v.08c0 .019 0 .028-.018.028-.004 0-.006 0-.045-.019a.23.23 0 0 1-.101.019C.154.459 0 .459 0 .328 0 .288.02.261.04.244.08.209.118.203.195.189.231.183.306.17.306.111.306.036.214.036.192.036.086.036.06.109.048.152.043.166.038.166.024.166 0 .166 0 .16 0 .137V.028C0 .009 0 0 .018 0c.007 0 .009 0 .03.015l.026.017C.12 0 .172 0 .192 0c.031 0 .185 0 .185.146 0 .043-.02.078-.055.106C.283.281.251.287.173.3z"/></symbol><use xlink:href="#y" transform="matrix(9.9626 0 0 -9.9626 15.81 24.391)"/><use xlink:href="#d" transform="matrix(9.9626 0 0 -9.9626 24.527 24.451)"/><use xlink:href="#z" transform="matrix(9.9626 0 0 -9.9626 30.385 24.391)"/><use xlink:href="#z" transform="matrix(9.9626 0 0 -9.9626 36.751 24.391)"/><use xlink:href="#A" transform="matrix(9.9626 0 0 -9.9626 44.801 19.32)"/><use xlink:href="#j" transform="matrix(9.9626 0 0 -9.9626 42.988 24.451)"/><use xlink:href="#j" transform="matrix(9.9626 0 0 -9.9626 48.238 24.451)"/><use xlink:href="#B" transform="matrix(9.9626 0 0 -9.9626 53.548 24.451)"/><use xlink:href="#l" transform="matrix(9.9626 0 0 -9.9626 62.315 24.391)"/><symbol id="C"><path d="M.192.316h.169c.12 0 .228.081.228.181C.589.595.49.683.353.683H0V.652h.024C.101.652.103.641.103.605V.078C.103.042.101.031.024.031H0V0c.035.003.109.003.147.003C.185.003.26.003.295 0v.031H.271C.194.031.192.042.192.078v.238M.189.342v.27c0 .033.002.04.049.04h.089C.486.652.486.546.486.497c0-.047 0-.155-.159-.155H.189z"/></symbol><symbol id="D"><path d="M.083.229c0 .163.082.205.135.205C.227.434.29.433.325.397.284.394.278.364.278.351c0-.026.018-.046.046-.046C.35.305.37.322.37.352.37.42.294.459.217.459.092.459 0 .351 0 .227 0 .099.099 0 .215 0c.134 0 .166.12.166.13 0 .01-.01.01-.013.01C.359.14.357.136.355.13.326.037.261.025.224.025.171.025.083.068.083.229z"/></symbol><symbol id="E"><path d="M.106.378a.053.053 0 0 1-.053.053A.053.053 0 0 1 0 .378C0 .349.024.325.053.325c.029 0 .053.024.053.053m0-.325a.053.053 0 0 1-.053.053A.053.053 0 0 1 0 .053C0 .024.024 0 .053 0c.029 0 .053.024.053.053z"/></symbol><symbol id="F"><path d="M.144.57v.066L0 .625V.594c.071 0 .078-.006.078-.05V.076C.078.031.067.031 0 .031V0l.112.003L.225 0v.031c-.067 0-.078 0-.078.045V.253C.152.237.194.183.27.183c.119 0 .223.098.223.227 0 .127-.097.226-.209.226A.18.18 0 0 1 .144.57M.147.308v.223a.15.15 0 0 0 .129.08C.349.611.41.523.41.41.41.289.34.205.266.205c-.04 0-.078.02-.105.061C.147.287.147.288.147.308z"/></symbol><use xlink:href="#C" transform="matrix(9.9626 0 0 -9.9626 68.358 24.391)"/><use xlink:href="#s" transform="matrix(9.9626 0 0 -9.9626 74.794 24.5)"/><use xlink:href="#o" transform="matrix(9.9626 0 0 -9.9626 79.825 24.5)"/><use xlink:href="#n" transform="matrix(9.9626 0 0 -9.9626 83.75 24.391)"/><use xlink:href="#p" transform="matrix(9.9626 0 0 -9.9626 86.38 24.5)"/><use xlink:href="#n" transform="matrix(9.9626 0 0 -9.9626 90.395 24.391)"/><use xlink:href="#s" transform="matrix(9.9626 0 0 -9.9626 93.115 24.5)"/><use xlink:href="#v" transform="matrix(9.9626 0 0 -9.9626 98.136 24.391)"/><use xlink:href="#x" transform="matrix(9.9626 0 0 -9.9626 107.103 24.5)"/><use xlink:href="#D" transform="matrix(9.9626 0 0 -9.9626 112.004 24.5)"/><use xlink:href="#p" transform="matrix(9.9626 0 0 -9.9626 116.278 24.5)"/><use xlink:href="#t" transform="matrix(9.9626 0 0 -9.9626 120.283 24.5)"/><use xlink:href="#q" transform="matrix(9.9626 0 0 -9.9626 125.783 24.5)"/><use xlink:href="#m" transform="matrix(9.9626 0 0 -9.9626 130.256 24.391)"/><use xlink:href="#m" transform="matrix(9.9626 0 0 -9.9626 133.025 24.391)"/><use xlink:href="#q" transform="matrix(9.9626 0 0 -9.9626 135.745 24.5)"/><use xlink:href="#w" transform="matrix(9.9626 0 0 -9.9626 143.546 24.5)"/><use xlink:href="#q" transform="matrix(9.9626 0 0 -9.9626 149.025 24.5)"/><use xlink:href="#m" transform="matrix(9.9626 0 0 -9.9626 156.816 24.391)"/><use xlink:href="#x" transform="matrix(9.9626 0 0 -9.9626 159.675 24.5)"/><use xlink:href="#w" transform="matrix(9.9626 0 0 -9.9626 167.905 24.5)"/><use xlink:href="#x" transform="matrix(9.9626 0 0 -9.9626 173.523 24.5)"/><use xlink:href="#r" transform="matrix(9.9626 0 0 -9.9626 178.405 24.391)"/><use xlink:href="#q" transform="matrix(9.9626 0 0 -9.9626 186.664 24.5)"/><use xlink:href="#E" transform="matrix(9.9626 0 0 -9.9626 194.983 24.391)"/><use xlink:href="#F" transform="matrix(9.9626 0 0 -9.9626 200.492 26.324)"/><use xlink:href="#s" transform="matrix(9.9626 0 0 -9.9626 206.31 24.5)"/><use xlink:href="#o" transform="matrix(9.9626 0 0 -9.9626 211.341 24.5)"/><symbol id="G"><path d="M.244.372V.65h.118C.523.65.525.572.525.511c0-.056 0-.139-.165-.139H.244M.511.351c.116.03.167.095.167.161 0 .101-.11.185-.298.185H0V.65h.108V.058H0V.011c.036.003.134.003.176.003.042 0 .14 0 .176-.003v.047H.244v.278h.117c.014 0 .058 0 .089-.034C.482.267.482.248.482.175c0-.066 0-.115.07-.149A.355.355 0 0 1 .699 0c.107 0 .12.09.12.106 0 .022-.014.022-.024.022C.774.128.773.118.772.105.767.058.738.036.708.036c-.06 0-.069.071-.074.113L.623.234C.609.304.554.335.511.351z"/></symbol><symbol id="H"><path d="M.393.078V0L.57.006v.047c-.062 0-.069 0-.069.039v.364L.318.448V.401c.062 0 .069 0 .069-.039V.171C.387.089.336.036.263.036c-.077 0-.08.025-.08.079v.341L0 .448V.401c.062 0 .069 0 .069-.039V.129C.069.022.15 0 .249 0c.026 0 .098 0 .144.078z"/></symbol><symbol id="I"><path d="M.342.083c0-.031 0-.077.104-.077h.048c.02 0 .032 0 .032.024C.526.053.513.053.5.053.439.054.439.067.439.09v.215c0 .089-.071.154-.22.154C.162.459.04.455.04.367.04.323.075.304.102.304c.031 0 .063.021.063.063 0 .03-.019.047-.022.049.028.006.06.007.072.007.075 0 .11-.042.11-.118V.271C.254.268 0 .259 0 .114 0 .018.124 0 .193 0c.08 0 .127.041.149.083M.325.24V.145C.325.049.233.036.208.036.157.036.117.071.117.115c0 .108.158.122.208.125z"/></symbol><use xlink:href="#G" transform="matrix(9.9626 0 0 -9.9626 15.81 36.456)"/><use xlink:href="#A" transform="matrix(9.9626 0 0 -9.9626 26.151 31.275)"/><use xlink:href="#j" transform="matrix(9.9626 0 0 -9.9626 24.338 36.406)"/><use xlink:href="#B" transform="matrix(9.9626 0 0 -9.9626 29.648 36.406)"/><use xlink:href="#H" transform="matrix(9.9626 0 0 -9.9626 34.24 36.406)"/><use xlink:href="#b" transform="matrix(9.9626 0 0 -9.9626 40.627 36.346)"/><use xlink:href="#g" transform="matrix(9.9626 0 0 -9.9626 43.546 36.406)"/><use xlink:href="#I" transform="matrix(9.9626 0 0 -9.9626 48.109 36.406)"/><use xlink:href="#g" transform="matrix(9.9626 0 0 -9.9626 53.568 36.406)"/><use xlink:href="#l" transform="matrix(9.9626 0 0 -9.9626 62.435 36.346)"/><symbol id="J"><path d="M.549.258H.524C.513.156.499.031.323.031H.241c-.047 0-.049.007-.049.04v.533c0 .034 0 .048.095.048H.32v.031C.284.68.193.68.152.68.113.68.035.68 0 .683V.652h.024C.101.652.103.641.103.605V.078C.103.042.101.031.024.031H0V0h.521l.028.258z"/></symbol><use xlink:href="#J" transform="matrix(9.9626 0 0 -9.9626 68.463 36.346)"/><use xlink:href="#n" transform="matrix(9.9626 0 0 -9.9626 74.69 36.346)"/><use xlink:href="#o" transform="matrix(9.9626 0 0 -9.9626 77.46 36.456)"/><use xlink:href="#p" transform="matrix(9.9626 0 0 -9.9626 81.245 36.456)"/><use xlink:href="#q" transform="matrix(9.9626 0 0 -9.9626 85.21 36.456)"/><use xlink:href="#w" transform="matrix(9.9626 0 0 -9.9626 93.011 36.456)"/><use xlink:href="#q" transform="matrix(9.9626 0 0 -9.9626 98.49 36.456)"/><use xlink:href="#o" transform="matrix(9.9626 0 0 -9.9626 102.964 36.456)"/><use xlink:href="#r" transform="matrix(9.9626 0 0 -9.9626 110.207 36.346)"/><use xlink:href="#s" transform="matrix(9.9626 0 0 -9.9626 118.466 36.456)"/><use xlink:href="#t" transform="matrix(9.9626 0 0 -9.9626 123.487 36.456)"/><use xlink:href="#u" transform="matrix(9.9626 0 0 -9.9626 128.896 36.456)"/><use xlink:href="#q" transform="matrix(9.9626 0 0 -9.9626 133.967 36.456)"/><use xlink:href="#r" transform="matrix(9.9626 0 0 -9.9626 138.43 36.346)"/><use xlink:href="#q" transform="matrix(9.9626 0 0 -9.9626 146.69 36.456)"/><use xlink:href="#v" transform="matrix(9.9626 0 0 -9.9626 151.153 36.346)"/><use xlink:href="#p" transform="matrix(9.9626 0 0 -9.9626 156.284 36.456)"/><use xlink:href="#o" transform="matrix(9.9626 0 0 -9.9626 160.299 36.456)"/><use xlink:href="#u" transform="matrix(9.9626 0 0 -9.9626 167.412 36.456)"/><use xlink:href="#x" transform="matrix(9.9626 0 0 -9.9626 172.343 36.456)"/><use xlink:href="#m" transform="matrix(9.9626 0 0 -9.9626 177.235 36.346)"/><use xlink:href="#n" transform="matrix(9.9626 0 0 -9.9626 180.005 36.346)"/><use xlink:href="#w" transform="matrix(9.9626 0 0 -9.9626 182.784 36.456)"/><use xlink:href="#q" transform="matrix(9.9626 0 0 -9.9626 188.264 36.456)"/><use xlink:href="#o" transform="matrix(9.9626 0 0 -9.9626 192.737 36.456)"/><use xlink:href="#w" transform="matrix(9.9626 0 0 -9.9626 199.99 36.456)"/><use xlink:href="#q" transform="matrix(9.9626 0 0 -9.9626 205.469 36.456)"/><use xlink:href="#m" transform="matrix(9.9626 0 0 -9.9626 213.27 36.346)"/><use xlink:href="#x" transform="matrix(9.9626 0 0 -9.9626 216.129 36.456)"/><use xlink:href="#w" transform="matrix(9.9626 0 0 -9.9626 224.348 36.456)"/><use xlink:href="#x" transform="matrix(9.9626 0 0 -9.9626 229.967 36.456)"/><use xlink:href="#r" transform="matrix(9.9626 0 0 -9.9626 234.849 36.346)"/><use xlink:href="#q" transform="matrix(9.9626 0 0 -9.9626 243.108 36.456)"/><use xlink:href="#E" transform="matrix(9.9626 0 0 -9.9626 251.426 36.346)"/><use xlink:href="#m" transform="matrix(9.9626 0 0 -9.9626 256.996 36.346)"/><use xlink:href="#n" transform="matrix(9.9626 0 0 -9.9626 259.765 36.346)"/><use xlink:href="#o" transform="matrix(9.9626 0 0 -9.9626 262.535 36.456)"/><use xlink:href="#p" transform="matrix(9.9626 0 0 -9.9626 266.32 36.456)"/><use xlink:href="#q" transform="matrix(9.9626 0 0 -9.9626 270.286 36.456)"/><path stroke-width=".398" stroke-miterlimit="10" fill="none" stroke="#000" d="M275.043 36.147h2.988"/><use xlink:href="#r" transform="matrix(9.9626 0 0 -9.9626 278.35 36.346)"/><use xlink:href="#s" transform="matrix(9.9626 0 0 -9.9626 286.61 36.456)"/><use xlink:href="#u" transform="matrix(9.9626 0 0 -9.9626 291.222 36.456)"/><use xlink:href="#q" transform="matrix(9.9626 0 0 -9.9626 296.293 36.456)"/><path stroke-width=".398" stroke-miterlimit="10" fill="none" stroke="#000" d="M301.045 36.147h2.988"/><use xlink:href="#w" transform="matrix(9.9626 0 0 -9.9626 304.372 36.456)"/><use xlink:href="#x" transform="matrix(9.9626 0 0 -9.9626 309.991 36.456)"/><use xlink:href="#r" transform="matrix(9.9626 0 0 -9.9626 314.873 36.346)"/><use xlink:href="#q" transform="matrix(9.9626 0 0 -9.9626 323.132 36.456)"/><symbol id="K"><path d="M.297.621C.297.656.29.656.248.656A.351.351 0 0 0 .024.592H0V.536h.024c.04 0 .101.007.143.021V.056H.009V0c.049.004.169.004.223.004L.34.003C.37.003.422.002.451 0v.056H.297v.565z"/></symbol><use xlink:href="#K" transform="matrix(6.9738 0 0 -6.9738 6.638 52.591)"/><symbol id="L"><path d="M.197.605c0 .036.003.047.082.047h.026v.031C.27.68.191.68.153.68.114.68.035.68 0 .683V.652h.026C.105.652.108.641.108.605V.078C.108.042.105.031.026.031H0V0c.035.003.114.003.152.003C.191.003.27.003.305 0v.031H.279C.2.031.197.042.197.078v.527z"/></symbol><symbol id="M"><path d="M.139.332v.11L0 .431V.4C.07.4.078.393.078.344V.076C.078.031.067.031 0 .031V0l.114.003c.04 0 .087 0 .127-.003v.031H.22C.146.031.144.042.144.078v.154c0 .099.042.188.118.188L.273.419A.043.043 0 0 1 .25.38C.25.352.271.337.293.337c.018 0 .043.012.043.044S.305.442.262.442C.189.442.153.375.139.332z"/></symbol><use xlink:href="#L" transform="matrix(9.9626 0 0 -9.9626 15.7 52.591)"/><use xlink:href="#v" transform="matrix(9.9626 0 0 -9.9626 19.337 52.591)"/><use xlink:href="#n" transform="matrix(9.9626 0 0 -9.9626 24.886 52.591)"/><use xlink:href="#p" transform="matrix(9.9626 0 0 -9.9626 27.516 52.7)"/><use xlink:href="#n" transform="matrix(9.9626 0 0 -9.9626 31.531 52.591)"/><use xlink:href="#x" transform="matrix(9.9626 0 0 -9.9626 34.39 52.7)"/><use xlink:href="#m" transform="matrix(9.9626 0 0 -9.9626 39.282 52.591)"/><use xlink:href="#n" transform="matrix(9.9626 0 0 -9.9626 42.052 52.591)"/><use xlink:href="#o" transform="matrix(9.9626 0 0 -9.9626 44.821 52.7)"/><use xlink:href="#q" transform="matrix(9.9626 0 0 -9.9626 48.697 52.7)"/><use xlink:href="#M" transform="matrix(9.9626 0 0 -9.9626 53.12 52.591)"/><use xlink:href="#m" transform="matrix(9.9626 0 0 -9.9626 60.393 52.591)"/><use xlink:href="#n" transform="matrix(9.9626 0 0 -9.9626 63.162 52.591)"/><use xlink:href="#o" transform="matrix(9.9626 0 0 -9.9626 65.932 52.7)"/><use xlink:href="#p" transform="matrix(9.9626 0 0 -9.9626 69.718 52.7)"/><use xlink:href="#q" transform="matrix(9.9626 0 0 -9.9626 73.683 52.7)"/><path stroke-width=".398" stroke-miterlimit="10" fill="none" stroke="#000" d="M78.424 52.391h2.99"/><use xlink:href="#r" transform="matrix(9.9626 0 0 -9.9626 81.731 52.591)"/><use xlink:href="#s" transform="matrix(9.9626 0 0 -9.9626 89.99 52.7)"/><use xlink:href="#u" transform="matrix(9.9626 0 0 -9.9626 94.603 52.7)"/><use xlink:href="#q" transform="matrix(9.9626 0 0 -9.9626 99.684 52.7)"/><path stroke-width=".398" stroke-miterlimit="10" fill="none" stroke="#000" d="M104.427 52.391h2.989"/><use xlink:href="#w" transform="matrix(9.9626 0 0 -9.9626 107.754 52.7)"/><use xlink:href="#x" transform="matrix(9.9626 0 0 -9.9626 113.373 52.7)"/><use xlink:href="#r" transform="matrix(9.9626 0 0 -9.9626 118.255 52.591)"/><use xlink:href="#q" transform="matrix(9.9626 0 0 -9.9626 126.514 52.7)"/><use xlink:href="#D" transform="matrix(9.9626 0 0 -9.9626 134.315 52.7)"/><use xlink:href="#s" transform="matrix(9.9626 0 0 -9.9626 138.678 52.7)"/><use xlink:href="#r" transform="matrix(9.9626 0 0 -9.9626 143.7 52.591)"/><use xlink:href="#r" transform="matrix(9.9626 0 0 -9.9626 151.998 52.591)"/><use xlink:href="#q" transform="matrix(9.9626 0 0 -9.9626 160.257 52.7)"/><use xlink:href="#t" transform="matrix(9.9626 0 0 -9.9626 168.048 52.7)"/><use xlink:href="#v" transform="matrix(9.9626 0 0 -9.9626 173.587 52.591)"/><use xlink:href="#q" transform="matrix(9.9626 0 0 -9.9626 179.087 52.7)"/><use xlink:href="#m" transform="matrix(9.9626 0 0 -9.9626 186.877 52.591)"/><use xlink:href="#n" transform="matrix(9.9626 0 0 -9.9626 189.647 52.591)"/><use xlink:href="#o" transform="matrix(9.9626 0 0 -9.9626 192.416 52.7)"/><use xlink:href="#p" transform="matrix(9.9626 0 0 -9.9626 196.202 52.7)"/><use xlink:href="#q" transform="matrix(9.9626 0 0 -9.9626 200.167 52.7)"/><use xlink:href="#u" transform="matrix(9.9626 0 0 -9.9626 207.829 52.7)"/><use xlink:href="#n" transform="matrix(9.9626 0 0 -9.9626 213.228 52.591)"/><use xlink:href="#w" transform="matrix(9.9626 0 0 -9.9626 216.008 52.7)"/><use xlink:href="#q" transform="matrix(9.9626 0 0 -9.9626 221.477 52.7)"/><symbol id="N"><path d="M.51.228H.447C.445.216.436.145.418.141.397.137.337.137.314.137H.177c.055.041.111.082.169.119C.427.308.51.361.51.461c0 .12-.113.195-.272.195C.102.656 0 .603 0 .508 0 .45.047.429.077.429c.036 0 .078.025.078.078a.076.076 0 0 1-.04.069A.186.186 0 0 0 .209.6C.294.6.361.546.361.46.361.383.309.319.251.268L.013.057C.001.045 0 .044 0 .024V0h.476L.51.228z"/></symbol><use xlink:href="#N" transform="matrix(6.9738 0 0 -6.9738 6.4 64.546)"/><symbol id="O"><path d="M0 .683V.652h.024C.101.652.103.641.103.605V.078C.103.042.101.031.024.031H0V0h.366c.168 0 .306.148.306.336 0 .19-.135.347-.306.347H0M.238.031c-.047 0-.049.007-.049.04v.541c0 .033.002.04.049.04h.1A.216.216 0 0 0 .52.559C.563.5.572.414.572.336.572.225.553.165.517.116A.22.22 0 0 0 .339.031H.238z"/></symbol><symbol id="P"><path d="M.169.122c.009.007.017.018.017.03A.039.039 0 0 1 .15.188.039.039 0 0 1 .12.171L0 .018.017 0l.152.122z"/></symbol><symbol id="Q"><path d="M.303.4C.349.4.356.387.356.346v-.27C.356.031.345.031.278.031V0l.111.003L.5 0v.031c-.067 0-.078 0-.078.045v.367L.296.434.278.432.26.431H.142v.113c0 .099.086.139.148.139.03 0 .066-.01.086-.033C.335.648.329.62.329.604c0-.033.026-.046.045-.046.023 0 .046.016.046.046C.42.663.365.705.291.705.198.705.079.654.079.545V.431H0V.4h.079V.076C.079.031.068.031.001.031V0l.111.003L.223 0v.031c-.067 0-.078 0-.078.045V.4h.158z"/></symbol><use xlink:href="#O" transform="matrix(9.9626 0 0 -9.9626 15.77 64.546)"/><use xlink:href="#P" transform="matrix(9.9626 0 0 -9.9626 24.806 59.465)"/><use xlink:href="#q" transform="matrix(9.9626 0 0 -9.9626 23.312 64.656)"/><use xlink:href="#Q" transform="matrix(9.9626 0 0 -9.9626 27.725 64.546)"/><use xlink:href="#v" transform="matrix(9.9626 0 0 -9.9626 33.314 64.546)"/><use xlink:href="#n" transform="matrix(9.9626 0 0 -9.9626 38.863 64.546)"/><use xlink:href="#M" transform="matrix(9.9626 0 0 -9.9626 41.583 64.546)"/><use xlink:href="#w" transform="matrix(9.9626 0 0 -9.9626 48.866 64.656)"/><use xlink:href="#q" transform="matrix(9.9626 0 0 -9.9626 54.345 64.656)"/><use xlink:href="#F" transform="matrix(9.9626 0 0 -9.9626 58.769 66.479)"/><path stroke-width=".398" stroke-miterlimit="10" fill="none" stroke="#000" d="M64.615 64.347h2.989"/><symbol id="R"><path d="M.121.479C.075.509.071.543.071.56c0 .061.065.103.136.103C.28.663.344.611.344.539.344.482.305.434.245.399l-.124.08M.267.384c.072.037.121.089.121.155 0 .092-.089.149-.18.149-.1 0-.181-.074-.181-.167a.16.16 0 0 1 .044-.11C.082.399.119.374.144.357.086.328 0 .272 0 .173 0 .067.102 0 .207 0 .32 0 .415.083.415.19a.18.18 0 0 1-.049.123.422.422 0 0 1-.099.071m-.1-.042L.29.264C.318.245.365.215.365.154.365.08.29.028.208.028.122.028.05.09.05.173c0 .058.032.122.117.169z"/></symbol><symbol id="S"><path d="M.232.01c0 .003 0 .005-.017.022C.09.158.058.347.058.5c0 .174.038.348.161.473.013.012.013.014.013.017 0 .007-.004.01-.01.01-.01 0-.1-.068-.159-.195A.727.727 0 0 1 0 .5C0 .422.011.301.066.188A.432.432 0 0 1 .222 0c.006 0 .01.003.01.01z"/></symbol><symbol id="T"><path d="M.266.165V.078C.266.042.264.031.19.031H.169V0C.21.003.262.003.304.003.346.003.399.003.44 0v.031H.419C.345.031.343.042.343.078v.087h.1v.031h-.1v.455c0 .02 0 .026-.016.026-.009 0-.012 0-.02-.012L0 .196V.165h.266m.006.031H.028l.244.373V.196z"/></symbol><symbol id="U"><path d="M.194.378c-.087 0-.087.1-.087.123 0 .027.001.059.016.084.008.012.031.04.071.04.087 0 .087-.1.087-.123A.164.164 0 0 0 .265.418a.086.086 0 0 0-.071-.04M.078.339c0 .004 0 .027.017.047A.17.17 0 0 1 .194.355c.093 0 .162.069.162.146a.135.135 0 0 1-.041.097.131.131 0 0 0 .09.039l.01-.001C.404.632.399.621.399.609.399.592.412.58.428.58c.01 0 .029.007.029.03a.049.049 0 0 1-.051.049A.154.154 0 0 1 .3.612a.167.167 0 0 1-.106.036C.101.648.032.579.032.502.032.458.054.42.079.399A.138.138 0 0 1 .048.316c0-.031.013-.069.044-.089C.032.21 0 .167 0 .127 0 .055.099 0 .221 0c.118 0 .222.051.222.129a.128.128 0 0 1-.065.114C.325.271.267.271.206.271L.131.272C.099.276.078.307.078.339M.222.023c-.101 0-.17.051-.17.104 0 .046.038.083.082.086h.059c.086 0 .198 0 .198-.086C.391.073.32.023.222.023z"/></symbol><symbol id="V"><path d="M.232.5a.729.729 0 0 1-.066.312A.432.432 0 0 1 .01 1C.004 1 0 .996 0 .99 0 .987 0 .985.019.967.117.868.174.709.174.5.174.329.137.153.013.027 0 .015 0 .013 0 .01 0 .004.004 0 .01 0c.01 0 .1.068.159.195C.22.305.232.416.232.5z"/></symbol><use xlink:href="#w" transform="matrix(9.9626 0 0 -9.9626 67.942 64.656)"/><use xlink:href="#x" transform="matrix(9.9626 0 0 -9.9626 73.561 64.656)"/><use xlink:href="#r" transform="matrix(9.9626 0 0 -9.9626 78.443 64.546)"/><use xlink:href="#q" transform="matrix(9.9626 0 0 -9.9626 86.702 64.656)"/><use xlink:href="#D" transform="matrix(9.9626 0 0 -9.9626 94.503 64.656)"/><use xlink:href="#s" transform="matrix(9.9626 0 0 -9.9626 98.866 64.656)"/><use xlink:href="#r" transform="matrix(9.9626 0 0 -9.9626 103.887 64.546)"/><use xlink:href="#r" transform="matrix(9.9626 0 0 -9.9626 112.186 64.546)"/><use xlink:href="#q" transform="matrix(9.9626 0 0 -9.9626 120.455 64.656)"/><use xlink:href="#m" transform="matrix(9.9626 0 0 -9.9626 128.246 64.546)"/><use xlink:href="#q" transform="matrix(9.9626 0 0 -9.9626 130.966 64.656)"/><use xlink:href="#o" transform="matrix(9.9626 0 0 -9.9626 135.439 64.656)"/><use xlink:href="#R" transform="matrix(9.9626 0 0 -9.9626 142.771 64.765)"/><use xlink:href="#w" transform="matrix(9.9626 0 0 -9.9626 151 64.656)"/><use xlink:href="#n" transform="matrix(9.9626 0 0 -9.9626 156.53 64.546)"/><use xlink:href="#M" transform="matrix(9.9626 0 0 -9.9626 159.25 64.546)"/><use xlink:href="#q" transform="matrix(9.9626 0 0 -9.9626 163.155 64.656)"/><use xlink:href="#D" transform="matrix(9.9626 0 0 -9.9626 167.638 64.656)"/><use xlink:href="#p" transform="matrix(9.9626 0 0 -9.9626 171.912 64.656)"/><use xlink:href="#n" transform="matrix(9.9626 0 0 -9.9626 175.927 64.546)"/><use xlink:href="#s" transform="matrix(9.9626 0 0 -9.9626 178.647 64.656)"/><use xlink:href="#v" transform="matrix(9.9626 0 0 -9.9626 183.668 64.546)"/><use xlink:href="#o" transform="matrix(9.9626 0 0 -9.9626 189.217 64.656)"/><use xlink:href="#S" transform="matrix(9.9626 0 0 -9.9626 197.117 67.037)"/><use xlink:href="#T" transform="matrix(9.9626 0 0 -9.9626 200.285 64.546)"/><use xlink:href="#D" transform="matrix(9.9626 0 0 -9.9626 208.644 64.656)"/><use xlink:href="#x" transform="matrix(9.9626 0 0 -9.9626 213.147 64.656)"/><use xlink:href="#M" transform="matrix(9.9626 0 0 -9.9626 217.989 64.546)"/><use xlink:href="#w" transform="matrix(9.9626 0 0 -9.9626 221.954 64.656)"/><use xlink:href="#n" transform="matrix(9.9626 0 0 -9.9626 227.483 64.546)"/><use xlink:href="#v" transform="matrix(9.9626 0 0 -9.9626 230.243 64.546)"/><use xlink:href="#x" transform="matrix(9.9626 0 0 -9.9626 235.882 64.656)"/><use xlink:href="#m" transform="matrix(9.9626 0 0 -9.9626 240.773 64.546)"/><use xlink:href="#q" transform="matrix(9.9626 0 0 -9.9626 243.493 64.656)"/><use xlink:href="#o" transform="matrix(9.9626 0 0 -9.9626 247.966 64.656)"/><use xlink:href="#q" transform="matrix(9.9626 0 0 -9.9626 255.17 64.656)"/><use xlink:href="#p" transform="matrix(9.9626 0 0 -9.9626 259.503 64.656)"/><use xlink:href="#T" transform="matrix(9.9626 0 0 -9.9626 266.786 64.546)"/><use xlink:href="#w" transform="matrix(9.9626 0 0 -9.9626 275.144 64.656)"/><use xlink:href="#n" transform="matrix(9.9626 0 0 -9.9626 280.674 64.546)"/><use xlink:href="#x" transform="matrix(9.9626 0 0 -9.9626 283.533 64.656)"/><use xlink:href="#U" transform="matrix(9.9626 0 0 -9.9626 288.375 66.599)"/><use xlink:href="#s" transform="matrix(9.9626 0 0 -9.9626 293.356 64.656)"/><use xlink:href="#v" transform="matrix(9.9626 0 0 -9.9626 298.377 64.546)"/><use xlink:href="#x" transform="matrix(9.9626 0 0 -9.9626 304.016 64.656)"/><use xlink:href="#m" transform="matrix(9.9626 0 0 -9.9626 308.908 64.546)"/><use xlink:href="#q" transform="matrix(9.9626 0 0 -9.9626 311.627 64.656)"/><use xlink:href="#o" transform="matrix(9.9626 0 0 -9.9626 316.1 64.656)"/><use xlink:href="#V" transform="matrix(9.9626 0 0 -9.9626 320.265 67.037)"/><symbol id="W"><path d="M.245.337c.119 0 .124-.09.124-.143 0-.042 0-.143-.12-.143a.277.277 0 0 0-.133.032.078.078 0 0 1 .047.075.078.078 0 0 1-.081.081A.078.078 0 0 1 0 .157C0 .055.111 0 .253 0c.209 0 .279.109.279.193C.532.27.471.34.357.363.429.39.496.442.496.526c0 .078-.08.142-.24.142-.136 0-.22-.067-.22-.15 0-.05.036-.077.075-.077.05 0 .076.037.076.075 0 .051-.04.069-.05.072.041.03.094.034.114.034.098 0 .098-.065.098-.093 0-.046-.02-.138-.12-.143A.419.419 0 0 1 .173.382C.16.378.16.366.16.36.16.337.173.337.192.337h.053z"/></symbol><use xlink:href="#W" transform="matrix(6.9738 0 0 -6.9738 6.324 76.585)"/><symbol id="X"><path d="M.183.523c0 .019.001.02.015.034.04.041.092.047.114.047.067 0 .123-.061.123-.187C.435.276.365.224.3.224c-.014 0-.061 0-.106.054C.183.291.183.292.183.311v.212m0-.29A.195.195 0 0 1 .311.188c.15 0 .252.09.252.229C.563.55.472.644.328.644A.25.25 0 0 1 .177.595v.049L0 .636V.589c.062 0 .069 0 .069-.038V.047H0V0a4.263 4.263 0 0 0 .252 0v.047H.183v.186z"/></symbol><symbol id="Y"><path d="M.322.413a.061.061 0 0 1-.02-.046c0-.044.035-.063.062-.063.031 0 .063.021.063.063 0 .086-.116.092-.174.092C.074.459 0 .344 0 .228 0 .095.094 0 .248 0 .41 0 .44.116.44.123.44.137.426.137.416.137.398.137.397.135.392.122.366.059.318.04.267.04.128.04.128.187.128.233c0 .056 0 .186.129.186A.267.267 0 0 0 .322.413z"/></symbol><symbol id="Z"><path d="M.386.336c0-.018 0-.021-.015-.042A.145.145 0 0 0 .25.224C.188.224.128.282.128.415c0 .142.074.189.134.189.076 0 .124-.079.124-.129V.336M.4.565a.186.186 0 0 1-.151.079C.103.644 0 .555 0 .416 0 .275.101.188.24.188c.049 0 .094.014.14.054V.047H.311V0a4.263 4.263 0 0 0 .252 0v.047H.494v.597H.453L.4.565z"/></symbol><use xlink:href="#X" transform="matrix(9.9626 0 0 -9.9626 15.79 78.434)"/><use xlink:href="#d" transform="matrix(9.9626 0 0 -9.9626 22.425 76.561)"/><use xlink:href="#H" transform="matrix(9.9626 0 0 -9.9626 28.283 76.561)"/><use xlink:href="#e" transform="matrix(9.9626 0 0 -9.9626 34.57 76.501)"/><use xlink:href="#Y" transform="matrix(9.9626 0 0 -9.9626 43.118 76.561)"/><use xlink:href="#h" transform="matrix(9.9626 0 0 -9.9626 47.96 76.501)"/><use xlink:href="#I" transform="matrix(9.9626 0 0 -9.9626 54.196 76.561)"/><use xlink:href="#Z" transform="matrix(9.9626 0 0 -9.9626 59.825 78.434)"/><use xlink:href="#H" transform="matrix(9.9626 0 0 -9.9626 65.942 76.561)"/><use xlink:href="#j" transform="matrix(9.9626 0 0 -9.9626 72.178 76.561)"/><symbol id="aa"><path d="M.449.68a.079.079 0 0 1 .003.013c0 .009-.006.012-.014.012A.088.088 0 0 1 .422.703L.323.695C.311.694.3.693.3.674.3.663.31.663.324.663c.048 0 .05-.007.05-.017L.371.629.313.395C.298.426.271.453.229.453.118.453 0 .301 0 .155 0 .07.046 0 .121 0c.036 0 .08.021.12.07A.084.084 0 0 1 .324 0c.037 0 .058.025.073.056.018.038.03.096.03.098 0 .01-.008.01-.015.01C.4.164.399.163.393.141.379.085.36.022.326.022.3.022.3.049.3.063.3.07.3.085.306.109L.449.68M.247.133C.239.102.178.022.123.022.076.022.068.081.068.111c0 .05.031.167.049.209.025.061.071.111.112.111C.237.431.26.43.278.402a.146.146 0 0 0 .02-.064.045.045 0 0 0-.003-.013L.247.133z"/></symbol><symbol id="ab"><path d="M.248.154c0 .01-.008.01-.015.01C.22.164.22.162.216.147.208.118.181.022.123.022.115.022.101.023.101.05c0 .026.013.059.026.096l.064.171a.14.14 0 0 1 .012.056c0 .055-.038.08-.075.08C.034.453 0 .304 0 .299c0-.01.01-.01.015-.01.013 0 .014.002.018.016.009.033.035.126.093.126.011 0 .022-.005.022-.028C.148.379.137.35.13.331L.1.248A3.975 3.975 0 0 1 .063.149.181.181 0 0 1 .045.08C.045.041.069 0 .121 0c.094 0 .127.15.127.154m-.005.48c0 .025-.02.033-.034.033C.188.667.161.647.161.619c0-.025.02-.033.034-.033.02 0 .048.019.048.048z"/></symbol><symbol id="ac"><path d="M.175.299c.001.003.046.132.132.132.005 0 .033 0 .053-.014A.053.053 0 0 1 .322.369c0-.013.009-.032.035-.032A.05.05 0 0 1 .406.39c0 .052-.065.063-.098.063C.239.453.203.403.187.381.176.434.137.453.104.453.068.453.048.43.032.4A.516.516 0 0 1 0 .299c0-.01.01-.01.015-.01.013 0 .014.001.019.023.018.07.037.119.068.119.026 0 .026-.029.026-.04A.224.224 0 0 0 .121.34L.046.04A.05.05 0 0 1 .043.026C.043.015.051 0 .071 0c.03 0 .037.029.039.037l.065.262z"/></symbol><symbol id="ad"><path d="M.125.242c.03 0 .097.003.145.022.079.032.079.097.079.104 0 .046-.037.085-.101.085C.143.453 0 .352 0 .175 0 .085.048 0 .143 0c.128 0 .211.1.211.115C.354.12.346.131.338.131.334.131.333.13.325.12a.236.236 0 0 0-.18-.098C.08.022.069.093.069.132c0 .038.01.083.017.11h.039M.092.264c.043.164.146.167.156.167.04 0 .063-.027.063-.061C.311.264.146.264.113.264H.092z"/></symbol><symbol id="ae"><path d="M.325.388C.275.382.275.341.275.339c0-.016.011-.032.034-.032.027 0 .051.022.051.06C.36.416.317.453.253.453.129.453 0 .311 0 .165 0 .066.059 0 .147 0c.128 0 .211.1.211.115C.358.12.35.131.342.131.338.131.337.13.329.12a.236.236 0 0 0-.18-.098C.095.022.07.067.07.125c0 .053.027.158.053.206.036.065.086.1.131.1C.265.431.31.429.325.388z"/></symbol><symbol id="af"><path d="M.169.411h.085c.017 0 .028 0 .028.019 0 .012-.009.012-.025.012h-.08L.214.59c.004.014.004.016.004.021 0 .021-.017.026-.027.026C.166.637.156.616.152.601L.113.442H.028C.011.442 0 .442 0 .423 0 .411.009.411.025.411h.08L.033.124A.154.154 0 0 1 .028.09C.028.04.061 0 .113 0c.101 0 .152.149.152.154 0 .01-.008.01-.015.01C.238.164.238.163.23.145.212.097.172.022.115.022.088.022.088.047.088.063c0 .007 0 .023.007.051l.074.297z"/></symbol><symbol id="ag"><path d="M.399.289C.399.384.34.453.253.453.129.453 0 .311 0 .165 0 .062.063 0 .146 0 .27 0 .399.142.399.289M.146.022C.107.022.07.053.07.125c0 .05.026.161.058.215.037.061.085.091.124.091.049 0 .077-.044.077-.103A.568.568 0 0 0 .275.122C.246.067.195.022.146.022z"/></symbol><symbol id="ah"><path d="m.147.186.016.065c.013.051.013.052.03.081.014.024.059.099.135.099.044 0 .046-.045.046-.066C.374.303.33.184.316.144A.15.15 0 0 1 .3.08C.3.036.328 0 .376 0c.093 0 .127.149.127.154 0 .01-.008.01-.015.01C.475.164.475.162.471.147.463.12.436.022.378.022.357.022.356.037.356.051c0 .025.01.051.018.075.02.053.061.165.061.223C.435.431.38.453.331.453A.179.179 0 0 1 .188.374C.181.423.147.453.104.453.068.453.048.43.032.4A.516.516 0 0 1 0 .299c0-.01.01-.01.015-.01.013 0 .014.001.019.023.018.07.037.119.068.119.026 0 .026-.029.026-.04A.224.224 0 0 0 .121.34L.046.04A.05.05 0 0 1 .043.026C.043.015.051 0 .071 0 .083 0 .1.007.107.026l.04.16z"/></symbol><symbol id="ai"><path d="M.241.07A.084.084 0 0 1 .324 0c.037 0 .058.025.073.056.018.038.03.096.03.098 0 .01-.008.01-.015.01C.4.164.399.163.393.141.379.085.36.022.326.022.3.022.3.049.3.063.3.07.3.086.307.114l.068.272C.379.4.379.402.379.407c0 .021-.017.026-.027.026C.32.433.313.399.312.394.293.437.261.453.229.453.118.453 0 .301 0 .155 0 .07.046 0 .121 0c.036 0 .08.021.12.07m.054.254L.248.135C.24.103.178.022.123.022.076.022.068.081.068.111c0 .05.031.167.049.209.025.061.071.111.112.111.044 0 .069-.052.069-.094A.053.053 0 0 0 .295.324z"/></symbol><symbol id="aj"><path d="M.171.208C.215.198.26.188.26.134.26.102.233.022.13.022.108.022.05.027.034.078c.051.005.051.047.051.049 0 .019-.013.032-.034.032C.028.159 0 .142 0 .097 0 .036.058 0 .129 0c.15 0 .188.122.188.168 0 .087-.078.105-.119.114C.17.288.134.296.134.339c0 .024.021.092.101.092.027 0 .064-.01.075-.049A.044.044 0 0 1 .27.341C.27.33.276.313.3.313c.017 0 .043.012.043.055 0 .046-.041.085-.107.085A.152.152 0 0 1 .078.305c0-.077.065-.091.093-.097z"/></symbol><symbol id="ak"><path d="M.076.066C.068.035.06.032.021.031.012.031 0 .031 0 .012 0 .005.005 0 .012 0l.084.003L.193 0c.006 0 .019 0 .019.019 0 .012-.01.012-.024.012-.051 0-.051.006-.051.016 0 .006.007.032.011.048l.036.146C.191.224.216.183.268.183c.109 0 .228.148.228.297 0 .107-.06.156-.12.156C.327.636.284.6.255.566a.081.081 0 0 1-.082.07C.137.636.117.613.101.583A.516.516 0 0 1 .069.482c0-.01.01-.01.015-.01.013 0 .014.001.019.023.018.07.037.119.068.119.026 0 .026-.029.026-.04 0-.006 0-.022-.007-.05L.076.066m.173.435c.008.034.07.113.125.113.045 0 .055-.057.055-.089A.783.783 0 0 0 .373.3C.361.275.318.205.267.205.209.205.199.29.199.298l.003.014.047.189z"/></symbol><use xlink:href="#aa" transform="matrix(9.9626 0 0 -9.9626 81.503 76.61)"/><use xlink:href="#ab" transform="matrix(9.9626 0 0 -9.9626 86.345 76.61)"/><use xlink:href="#ac" transform="matrix(9.9626 0 0 -9.9626 89.404 76.61)"/><use xlink:href="#ad" transform="matrix(9.9626 0 0 -9.9626 93.409 76.61)"/><use xlink:href="#ae" transform="matrix(9.9626 0 0 -9.9626 97.444 76.61)"/><use xlink:href="#af" transform="matrix(9.9626 0 0 -9.9626 101.837 76.61)"/><use xlink:href="#ab" transform="matrix(9.9626 0 0 -9.9626 105.065 76.61)"/><use xlink:href="#ag" transform="matrix(9.9626 0 0 -9.9626 108.393 76.61)"/><use xlink:href="#ah" transform="matrix(9.9626 0 0 -9.9626 113.214 76.61)"/><use xlink:href="#aa" transform="matrix(9.9626 0 0 -9.9626 122.62 76.61)"/><use xlink:href="#ai" transform="matrix(9.9626 0 0 -9.9626 127.71 76.61)"/><use xlink:href="#ah" transform="matrix(9.9626 0 0 -9.9626 132.552 76.61)"/><use xlink:href="#aj" transform="matrix(9.9626 0 0 -9.9626 138.091 76.61)"/><use xlink:href="#aa" transform="matrix(9.9626 0 0 -9.9626 146.041 76.61)"/><use xlink:href="#ad" transform="matrix(9.9626 0 0 -9.9626 151.192 76.61)"/><use xlink:href="#ak" transform="matrix(9.9626 0 0 -9.9626 154.778 78.434)"/><path stroke-width=".398" stroke-miterlimit="10" fill="none" stroke="#000" d="M160.345 76.302h3.055"/><symbol id="al"><path d="m.147.186.016.065C.176.3.176.302.188.323c.029.05.072.108.141.108C.375.431.375.38.375.365.375.338.368.309.366.3L.301.04A.05.05 0 0 1 .298.026C.298.015.306 0 .326 0c.012 0 .029.007.036.026l.04.16.016.065C.431.3.431.302.443.323c.029.05.072.108.141.108C.63.431.63.38.63.365.63.303.586.184.572.144A.15.15 0 0 1 .556.08C.556.036.584 0 .632 0c.093 0 .127.149.127.154 0 .01-.008.01-.015.01C.731.164.731.162.727.147.719.12.692.022.634.022.613.022.612.037.612.051c0 .025.01.051.018.075.02.053.061.165.061.223 0 .084-.058.104-.105.104a.184.184 0 0 1-.15-.088C.428.434.376.453.331.453A.178.178 0 0 1 .188.374C.181.423.147.453.104.453.068.453.048.43.032.4A.516.516 0 0 1 0 .299c0-.01.01-.01.015-.01.013 0 .014.001.019.023.018.07.037.119.068.119.026 0 .026-.029.026-.04A.224.224 0 0 0 .121.34L.046.04A.05.05 0 0 1 .043.026C.043.015.051 0 .071 0 .083 0 .1.007.107.026l.04.16z"/></symbol><use xlink:href="#aa" transform="matrix(9.9626 0 0 -9.9626 164.477 76.61)"/><use xlink:href="#ai" transform="matrix(9.9626 0 0 -9.9626 169.568 76.61)"/><use xlink:href="#al" transform="matrix(9.9626 0 0 -9.9626 174.41 76.61)"/><use xlink:href="#ad" transform="matrix(9.9626 0 0 -9.9626 182.868 76.61)"/><symbol id="am"><path d="M.075.444H0V.397h.075v-.35H.006V0c.035.001.08.003.126.003C.17.003.234.003.27 0v.047H.183v.35h.115v.047H.177v.101c0 .11.076.119.101.119.005 0 .01 0 .017-.002A.06.06 0 0 1 .272.613.06.06 0 0 1 .333.551a.06.06 0 0 1 .062.062C.395.655.359.7.281.7.183.7.075.658.075.545V.444z"/></symbol><use xlink:href="#am" transform="matrix(9.9626 0 0 -9.9626 190.803 76.501)"/><use xlink:href="#I" transform="matrix(9.9626 0 0 -9.9626 194.2 76.561)"/><use xlink:href="#f" transform="matrix(9.9626 0 0 -9.9626 199.919 76.501)"/><use xlink:href="#e" transform="matrix(9.9626 0 0 -9.9626 202.997 76.501)"/><use xlink:href="#j" transform="matrix(9.9626 0 0 -9.9626 207.67 76.561)"/><path stroke-width=".398" stroke-miterlimit="10" fill="none" stroke="#000" d="M20.602 298.27V80.086"/><symbol id="an"><path d="M.566.154V.21H.457v.417c0 .03-.005.035-.035.035H.407c-.019 0-.027 0-.04-.015L0 .21V.154h.32V.056H.196V0a5.529 5.529 0 0 0 .37 0v.056H.457v.098h.109m-.233.37V.21H.069l.264.314z"/></symbol><use xlink:href="#an" transform="matrix(6.9738 0 0 -6.9738 6.603 88.456)"/><symbol id="ao"><path d="M.25.647.098.636V.605C.175.605.184.598.184.549V.153C.184.108.175.022.111.022c-.005 0-.028 0-.054.013A.046.046 0 0 1 .092.08a.044.044 0 0 1-.046.046A.044.044 0 0 1 0 .08C0 .028.056 0 .113 0 .188 0 .25.064.25.155v.492m0 .174a.053.053 0 0 1-.053.053.053.053 0 0 1-.053-.053c0-.029.024-.053.053-.053.029 0 .053.024.053.053z"/></symbol><use xlink:href="#ao" transform="matrix(9.9626 0 0 -9.9626 30.365 90.499)"/><symbol id="ap"><path d="M.852.241c.018 0 .036 0 .036.02S.87.281.852.281H.109A.366.366 0 0 1 .252.51c0 .012-.012.012-.02.012C.215.522.214.52.21.502A.314.314 0 0 0 .015.274C.004.27 0 .268 0 .261 0 .254.005.252.015.248A.314.314 0 0 0 .211.015C.214.003.215 0 .232 0c.008 0 .02 0 .02.012a.36.36 0 0 1-.143.229h.743z"/></symbol><use xlink:href="#ap" transform="matrix(9.9626 0 0 -9.9626 37.686 88.566)"/><symbol id="aq"><path d="M.205.64c0 .024 0 .026-.023.026C.12.602.032.602 0 .602V.571a.3.3 0 0 1 .131.026V.079C.131.043.128.031.038.031H.006V0c.035.003.122.003.162.003.04 0 .127 0 .162-.003v.031H.298c-.09 0-.093.011-.093.048V.64z"/></symbol><use xlink:href="#aq" transform="matrix(9.9626 0 0 -9.9626 51.3 88.456)"/><symbol id="ar"><path d="M.121.508C.157.503.183.503.195.503c.024 0 .093 0 .167.044C.391.564.46.615.46.645c0 .004 0 .023-.018.023L.426.664a.54.54 0 0 0-.34-.001C.072.668.07.668.068.668.05.668.05.652.05.637V.341c0-.02 0-.034.029-.034.01 0 .017 0 .025.008.019.021.056.061.151.061.104 0 .104-.087.104-.159 0-.067 0-.166-.138-.166C.174.051.122.067.093.1c.05.013.054.055.054.07a.072.072 0 0 1-.073.074C.038.244 0 .22 0 .169 0 .077.09 0 .225 0 .414 0 .51.1.51.213.51.319.432.422.26.422A.273.273 0 0 1 .121.389v.119z"/></symbol><use xlink:href="#ar" transform="matrix(6.9738 0 0 -6.9738 6.799 100.495)"/><symbol id="as"><path d="M.356.4V.076C.356.031.345.031.278.031V0l.111.003L.5 0v.031c-.067 0-.078 0-.078.045v.618L.386.688C.382.688.381.689.377.691.345.705.304.705.293.705.188.705.079.649.079.545V.431H0V.4h.079V.076C.079.031.068.031.001.031V0l.111.003L.223 0v.031c-.067 0-.078 0-.078.045V.4h.211m0 .031H.142v.113c0 .093.076.139.15.139.009 0 .036 0 .064-.009a.04.04 0 0 1-.025-.04c0-.018.008-.033.025-.039V.431z"/></symbol><use xlink:href="#as" transform="matrix(9.9626 0 0 -9.9626 31.032 100.411)"/><use xlink:href="#x" transform="matrix(9.9626 0 0 -9.9626 36.721 100.52)"/><use xlink:href="#U" transform="matrix(9.9626 0 0 -9.9626 41.563 102.464)"/><use xlink:href="#ap" transform="matrix(9.9626 0 0 -9.9626 50.14 100.52)"/><symbol id="at"><path d="M.602.607c.014.037.041.066.109.067v.031a1.7 1.7 0 0 0-.211 0V.674C.552.673.573.647.573.624.573.616.57.61.568.604L.385.122.194.627C.188.641.188.643.188.645c0 .029.057.029.082.029v.031C.234.702.165.702.127.702.079.702.036.704 0 .705V.674c.065 0 .084 0 .098-.038L.33.022C.337.003.342 0 .355 0c.017 0 .019.005.024.019l.223.588z"/></symbol><symbol id="au"><path d="M.189.375v.259c0 .023 0 .035.022.038A.49.49 0 0 0 .27.674C.36.674.472.67.472.525.472.456.448.375.3.375H.189M.4.362c.097.024.175.085.175.163 0 .096-.114.18-.261.18H0V.674h.024C.101.674.103.663.103.627V.1C.103.064.101.053.024.053H0V.022c.036.003.107.003.146.003.039 0 .11 0 .146-.003v.031H.268C.191.053.189.064.189.1v.253h.115c.016 0 .058 0 .093-.034C.435.283.435.252.435.185c0-.065 0-.105.041-.143A.195.195 0 0 1 .602 0C.68 0 .697.082.697.11c0 .006 0 .017-.013.017C.673.127.673.118.672.111.666.04.631.022.606.022.557.022.549.073.535.166l-.013.08C.504.31.455.343.4.362z"/></symbol><symbol id="av"><path d="M.366.696C.361.709.359.716.343.716S.324.71.319.696L.112.098C.094.047.054.032 0 .031V0c.023.001.066.003.102.003L.217 0v.031c-.05 0-.075.025-.075.051l.002.015.046.131h.247L.49.075.493.061c0-.03-.056-.03-.083-.03V0a2.274 2.274 0 0 0 .275 0v.031H.667c-.06 0-.074.007-.085.04L.366.696M.313.584.426.259H.201l.112.325z"/></symbol><use xlink:href="#at" transform="matrix(9.9626 0 0 -9.9626 63.055 100.63)"/><use xlink:href="#au" transform="matrix(9.9626 0 0 -9.9626 70.686 100.63)"/><use xlink:href="#av" transform="matrix(9.9626 0 0 -9.9626 77.989 100.411)"/><use xlink:href="#L" transform="matrix(9.9626 0 0 -9.9626 85.42 100.411)"/><symbol id="aw"><path d="M.147.355c0 .068.004.145.04.195a.182.182 0 0 0 .149.072.119.119 0 0 0 .072-.021.07.07 0 0 1-.047-.067C.361.496.388.465.43.465.471.465.5.493.5.536.5.597.46.668.334.668.165.668 0 .566 0 .33 0 .195.036 0 .27 0c.16 0 .262.086.262.218S.43.432.287.432c-.022 0-.09 0-.14-.077M.269.051c-.119 0-.12.119-.12.18 0 .072.041.155.127.155C.385.386.385.31.385.219c0-.093 0-.168-.116-.168z"/></symbol><use xlink:href="#aw" transform="matrix(6.9738 0 0 -6.9738 6.722 112.45)"/><use xlink:href="#g" transform="matrix(9.9626 0 0 -9.9626 30.973 112.427)"/><use xlink:href="#I" transform="matrix(9.9626 0 0 -9.9626 35.536 112.427)"/><use xlink:href="#z" transform="matrix(9.9626 0 0 -9.9626 41.234 112.367)"/><use xlink:href="#g" transform="matrix(9.9626 0 0 -9.9626 47.042 112.427)"/><use xlink:href="#Z" transform="matrix(9.9626 0 0 -9.9626 55.48 114.3)"/><use xlink:href="#H" transform="matrix(9.9626 0 0 -9.9626 61.608 112.427)"/><use xlink:href="#j" transform="matrix(9.9626 0 0 -9.9626 67.834 112.427)"/><symbol id="ax"><path d="M.351.524a.133.133 0 0 1 .005.033c0 .047-.03.09-.086.09C.171.647.118.5.118.493c0-.01.01-.01.015-.01.013 0 .013.001.019.017.025.063.065.125.117.125.025 0 .027-.022.027-.04A.224.224 0 0 0 .289.534L.194.153C.181.1.142.022.08.022.062.022.048.03.046.031a.053.053 0 0 1 .038.048c0 .013-.009.032-.035.032A.05.05 0 0 1 0 .058C0 .021.037 0 .081 0c.076 0 .156.065.177.15l.093.374m.041.303C.392.855.37.861.358.861.333.861.309.837.309.813.309.8.319.78.343.78s.049.022.049.047z"/></symbol><use xlink:href="#ax" transform="matrix(9.9626 0 0 -9.9626 75.745 114.41)"/><symbol id="ay"><path d="M.592.731c.011.005.019.01.019.022a.02.02 0 0 1-.02.02.055.055 0 0 1-.018-.006L.02.506C.003.498 0 .491 0 .483 0 .474.006.467.02.461l.553-.26C.586.194.588.194.591.194a.02.02 0 0 1 .02.02C.611.223.607.229.59.237L.067.483l.525.248M.576 0c.017 0 .035 0 .035.02S.59.04.575.04H.036C.021.04 0 .04 0 .02S.018 0 .035 0h.541z"/></symbol><use xlink:href="#ay" transform="matrix(9.9626 0 0 -9.9626 83.54 113.732)"/><symbol id="az"><path d="M.421.417C.381.407.381.37.381.369.381.356.39.337.416.337A.05.05 0 0 1 .465.39c0 .051-.058.063-.087.063C.323.453.29.404.28.385a.097.097 0 0 1-.096.068C.084.453.03.322.03.299c0-.01.01-.01.015-.01.013 0 .013.001.018.017.027.086.079.125.119.125C.211.431.23.408.23.368.23.344.218.295.209.258A2.394 2.394 0 0 1 .186.167C.17.102.149.022.089.022c-.003 0-.027 0-.044.014a.05.05 0 0 1 .039.048C.084.11.063.116.05.116.025.116 0 .095 0 .062 0 .023.042 0 .088 0c.048 0 .081.038.098.068A.098.098 0 0 1 .281 0c.103 0 .154.134.154.154 0 .01-.008.01-.015.01C.408.164.407.163.402.147.375.061.325.022.283.022c-.02 0-.047.012-.047.064 0 .024.011.067.019.101l.034.137C.303.376.33.431.377.431c.003 0 .028 0 .044-.014z"/></symbol><symbol id="aA"><path d="M.119.01c0 .002 0 .004-.007.014A.413.413 0 0 0 .05.261c0 .136.059.507.299.711.014.014.015.015.015.018C.364.997.36 1 .354 1A.641.641 0 0 1 .141.777.979.979 0 0 1 0 .297.53.53 0 0 1 .027.125C.052.058.095 0 .109 0c.006 0 .01.004.01.01z"/></symbol><symbol id="aB"><path d="M.674.584C.69.648.746.651.775.652.778.652.79.653.79.67.79.678.786.683.777.683L.681.68.584.683c-.005 0-.018 0-.018-.019 0-.011.009-.012.018-.012C.636.65.644.63.644.609.644.6.642.593.64.585L.53.146l-.187.52C.337.682.336.683.315.683H.19c-.016 0-.027 0-.027-.019C.163.652.171.652.19.652c.007 0 .061 0 .061-.008L.248.631.116.101C.102.046.065.033.019.031.011.031 0 .03 0 .012 0 .003.006 0 .013 0l.095.003L.206 0c.006 0 .018 0 .018.018C.224.03.217.031.205.031.148.033.146.059.146.074c0 .003 0 .009.004.025l.129.515.215-.597C.499.002.5 0 .514 0c.011 0 .015.001.02.02l.14.564z"/></symbol><symbol id="aC"><path d="m.66.703.002.014c0 .002-.001.01-.011.01-.002 0-.007 0-.016-.011L.572.642a.167.167 0 0 1-.151.085C.215.727 0 .502 0 .267 0 .103.107 0 .245 0 .44 0 .549.214.549.262c0 .01-.01.01-.015.01-.006 0-.013 0-.016-.008C.467.095.342.031.259.031.175.031.087.087.087.229c0 .062.025.219.105.329.068.092.16.138.237.138C.535.696.571.6.571.513.571.487.566.455.566.452c0-.01.01-.01.015-.01.011 0 .014.001.018.018L.66.703z"/></symbol><symbol id="aD"><path d="M.64.466C.64.63.538.727.412.727.207.727 0 .49 0 .258 0 .107.094 0 .23 0c.2 0 .41.225.41.466M.237.026C.146.026.09.108.09.227c0 .046.014.186.084.308.053.094.144.167.231.167.078 0 .15-.06.15-.194A.708.708 0 0 0 .466.196C.401.085.312.026.237.026z"/></symbol><symbol id="aE"><path d="M.324.607C.333.642.339.652.42.652h.01c.017 0 .028 0 .028.019 0 .012-.011.012-.015.012L.305.68.182.683c-.006 0-.019 0-.019-.019C.163.652.171.652.19.652c.031 0 .058 0 .058-.017 0-.003 0-.005-.004-.019L.109.073C.101.039.095.031.027.031.011.031 0 .031 0 .012 0 0 .009 0 .025 0h.428c.022 0 .023.001.029.018l.076.215.004.013C.562.258.55.258.547.258.535.258.534.255.527.236.495.147.452.031.296.031H.215c-.031 0-.031.003-.031.01 0 .006.003.016.004.022l.136.544z"/></symbol><symbol id="aF"><path d="M.621.235a.084.084 0 0 1 .004.012C.625.258.613.258.61.258.599.258.598.257.589.234.531.096.496.031.337.031H.215c-.031 0-.031.003-.031.01 0 .006.003.016.004.022l.069.275h.087C.412.338.419.322.419.295A.197.197 0 0 0 .41.244L.408.233c0-.012.01-.012.016-.012.011 0 .014.002.018.02l.055.22A.079.079 0 0 1 .5.474C.5.486.488.486.484.486.471.486.471.483.465.462.446.391.427.369.346.369H.265l.061.246c.008.033.015.034.048.034h.125c.108 0 .133-.03.133-.101C.632.521.63.508.627.484A.128.128 0 0 1 .625.467C.625.455.636.455.64.455c.014 0 .015.004.017.022L.68.654C.683.68.677.68.656.68H.189C.172.68.162.68.162.662c0-.013.007-.013.027-.013.058 0 .058-.008.058-.017 0-.001 0-.008-.004-.023L.109.073C.101.039.095.031.027.031.011.031 0 .031 0 .012 0 0 .009 0 .025 0h.479c.02 0 .021.001.028.016l.089.219z"/></symbol><symbol id="aG"><path d="m.556.703.002.014c0 .002-.001.01-.011.01C.542.727.541.726.532.715L.487.659C.448.726.377.727.357.727.234.727.125.604.125.489c0-.052.022-.105.08-.132A.4.4 0 0 1 .248.344L.297.33C.349.315.357.312.374.294A.111.111 0 0 0 .396.222C.396.131.318.031.229.031c-.075 0-.15.036-.15.14 0 .023.005.05.008.061l.001.006c0 .011-.009.011-.015.011C.061.249.059.247.055.232L.003.023 0 .01C0 .004.005 0 .011 0c.007 0 .008.002.016.012l.047.057C.111.015.175 0 .227 0c.126 0 .237.134.237.26 0 .029-.007.07-.033.102C.406.393.394.396.299.424L.244.44C.21.455.193.487.193.528c0 .082.077.171.162.171.094 0 .122-.068.122-.142A.234.234 0 0 0 .472.502L.471.488c0-.01.01-.01.015-.01.011 0 .014.001.018.018l.052.207z"/></symbol><symbol id="aH"><path d="M.125.208A.331.331 0 0 0 .013.027C.001.015 0 .014 0 .01 0 .007.003 0 .01 0c.018 0 .141.121.141.24 0 .033-.014.059-.046.059A.066.066 0 0 1 .04.235C.04.203.063.193.084.193a.07.07 0 0 1 .041.015z"/></symbol><symbol id="aI"><path d="M.33.611c.008.032.014.041.083.041.021 0 .031 0 .031.019 0 .012-.01.012-.014.012L.307.68.182.683c-.007 0-.019 0-.019-.018C.163.652.17.652.19.652c.034 0 .063 0 .063-.017A.125.125 0 0 0 .25.616L.114.072C.106.039.097.031.03.031c-.021 0-.03 0-.03-.018C0 .002.007 0 .014 0l.123.003L.261 0c.007 0 .02 0 .02.019 0 .012-.008.012-.028.012-.062 0-.062.007-.062.018 0 .001 0 .007.004.022l.135.54z"/></symbol><symbol id="aJ"><path d="M.542.231C.548.254.55.264.594.264c.013 0 .024 0 .024.018C.618.29.614.295.605.295L.508.292.377.295c-.008 0-.021 0-.021-.02 0-.011.011-.011.026-.011H.39L.433.262C.454.259.462.258.462.244.462.24.462.238.454.21.432.121.43.11.4.082A.207.207 0 0 0 .264.031C.169.031.087.097.087.23c0 .058.024.217.105.328.068.092.16.138.237.138C.535.696.571.6.571.513.571.487.566.455.566.452c0-.01.01-.01.015-.01.011 0 .014.001.018.018L.66.703l.002.014c0 .002-.001.01-.011.01-.002 0-.007 0-.016-.011L.572.642a.167.167 0 0 1-.151.085C.215.727 0 .502 0 .267 0 .106.104 0 .246 0 .338 0 .411.046.44.083.449.059.471.023.482.023c.007 0 .009.006.012.017l.048.191z"/></symbol><symbol id="aK"><path d="M.364.703a.53.53 0 0 1-.027.172C.312.942.269 1 .255 1 .249 1 .245.996.245.99c0-.002 0-.004.007-.014A.413.413 0 0 0 .314.739C.314.603.255.232.015.028.001.014 0 .013 0 .01 0 .003.004 0 .01 0c.011 0 .126.081.213.223.11.181.141.373.141.48z"/></symbol><symbol id="aL"><path d="m.659.876.003.013c0 .01-.008.01-.024.01H.623C.602.899.601.898.595.879L.586.844H.585c0 .01-.001.035-.04.052A.218.218 0 0 1 .461.91C.294.91.275.81.243.636H.178C.161.636.15.636.15.617.15.605.159.605.175.605h.062L.167.242A3.03 3.03 0 0 0 .136.105C.128.074.115.022.079.022.074.022.052.023.04.04a.05.05 0 0 1 .044.049C.084.111.066.121.05.121.025.121 0 .101 0 .066 0 .019.045 0 .079 0 .168 0 .213.143.24.285l.062.32h.225L.455.318C.454.314.45.298.45.284c0-.053.036-.09.084-.09.037 0 .058.025.073.056.018.038.03.096.03.098 0 .01-.008.01-.015.01C.61.358.609.357.603.335.589.279.57.216.536.216.51.216.51.243.51.257c0 .007 0 .023.007.051l.142.568M.308.636C.32.699.335.782.35.823c.018.051.07.065.112.065.008 0 .053 0 .078-.019A.05.05 0 0 1 .501.821c0-.022.018-.032.034-.032a.05.05 0 0 1 .042.023h.001L.535.636H.308z"/></symbol><symbol id="aM"><path d="M.285.258.264.174A.211.211 0 0 0 .218.069C.178.022.138.022.123.022c-.013 0-.044 0-.071.011.02.008.032.029.032.046 0 .013-.009.032-.035.032A.05.05 0 0 1 0 .058C0 .018.037 0 .121 0c.105 0 .181.066.2.142L.43.58c.004.015.004.017.004.021 0 .021-.017.026-.027.026A.04.04 0 0 1 .368.59C.354.619.327.647.284.647.172.647.057.499.057.358c0-.085.047-.153.122-.153.051 0 .094.041.106.053M.35.519.305.337C.297.305.236.227.181.227.127.227.125.303.125.314c0 .048.03.165.051.212.025.054.069.099.108.099.06 0 .069-.084.069-.092L.35.519z"/></symbol><use xlink:href="#al" transform="matrix(9.9626 0 0 -9.9626 94.853 112.477)"/><use xlink:href="#ai" transform="matrix(9.9626 0 0 -9.9626 103.252 112.477)"/><use xlink:href="#az" transform="matrix(9.9626 0 0 -9.9626 107.795 112.477)"/><use xlink:href="#aA" transform="matrix(9.9626 0 0 -9.9626 113.404 114.858)"/><use xlink:href="#aB" transform="matrix(9.9626 0 0 -9.9626 116.582 112.367)"/><use xlink:href="#aC" transform="matrix(9.9626 0 0 -9.9626 124.86 112.586)"/><use xlink:href="#aD" transform="matrix(9.9626 0 0 -9.9626 131.974 112.586)"/><use xlink:href="#aE" transform="matrix(9.9626 0 0 -9.9626 138.759 112.367)"/><use xlink:href="#aD" transform="matrix(9.9626 0 0 -9.9626 145.862 112.586)"/><use xlink:href="#aB" transform="matrix(9.9626 0 0 -9.9626 152.646 112.367)"/><use xlink:href="#aB" transform="matrix(9.9626 0 0 -9.9626 160.049 112.367)"/><use xlink:href="#aF" transform="matrix(9.9626 0 0 -9.9626 167.45 112.367)"/><use xlink:href="#aG" transform="matrix(9.9626 0 0 -9.9626 174.325 112.586)"/><use xlink:href="#aH" transform="matrix(9.9626 0 0 -9.9626 179.914 114.29)"/><use xlink:href="#aB" transform="matrix(9.9626 0 0 -9.9626 186.43 112.367)"/><use xlink:href="#aE" transform="matrix(9.9626 0 0 -9.9626 193.832 112.367)"/><use xlink:href="#aI" transform="matrix(9.9626 0 0 -9.9626 200.029 112.367)"/><use xlink:href="#aJ" transform="matrix(9.9626 0 0 -9.9626 204.8 112.586)"/><use xlink:href="#aB" transform="matrix(9.9626 0 0 -9.9626 211.635 112.367)"/><use xlink:href="#aF" transform="matrix(9.9626 0 0 -9.9626 219.037 112.367)"/><use xlink:href="#aG" transform="matrix(9.9626 0 0 -9.9626 225.911 112.586)"/><use xlink:href="#aK" transform="matrix(9.9626 0 0 -9.9626 230.952 114.858)"/><use xlink:href="#ad" transform="matrix(9.9626 0 0 -9.9626 239.55 112.477)"/><use xlink:href="#af" transform="matrix(9.9626 0 0 -9.9626 243.904 112.477)"/><use xlink:href="#aL" transform="matrix(9.9626 0 0 -9.9626 249.612 114.41)"/><use xlink:href="#ai" transform="matrix(9.9626 0 0 -9.9626 256.795 112.477)"/><use xlink:href="#aM" transform="matrix(9.9626 0 0 -9.9626 261.338 114.41)"/><use xlink:href="#am" transform="matrix(9.9626 0 0 -9.9626 270.023 112.367)"/><use xlink:href="#I" transform="matrix(9.9626 0 0 -9.9626 273.42 112.427)"/><use xlink:href="#f" transform="matrix(9.9626 0 0 -9.9626 279.139 112.367)"/><use xlink:href="#e" transform="matrix(9.9626 0 0 -9.9626 282.217 112.367)"/><use xlink:href="#j" transform="matrix(9.9626 0 0 -9.9626 286.89 112.427)"/><path stroke-width=".398" stroke-miterlimit="10" fill="none" stroke="#000" d="M35.945 285.318V115.953"/><symbol id="aN"><path d="M.298.656.227.66.158.663.143.662c-.038 0-.04.013-.042.024H.038L0 .428h.063c.008.057.021.085.031.086a.866.866 0 0 0 .113.005H.37C.343.489.33.478.296.442A.57.57 0 0 1 .144.077C.144 0 .208 0 .213 0c.032 0 .049.018.054.023.016.019.016.029.016.096 0 .161.029.25.089.311l.17.175.005.009c.002.003.002.005.002.042H.298z"/></symbol><use xlink:href="#aN" transform="matrix(6.9738 0 0 -6.9738 7.247 124.406)"/><use xlink:href="#F" transform="matrix(9.9626 0 0 -9.9626 46.385 126.255)"/><use xlink:href="#s" transform="matrix(9.9626 0 0 -9.9626 52.204 124.432)"/><use xlink:href="#o" transform="matrix(9.9626 0 0 -9.9626 57.235 124.432)"/><path stroke-width=".398" stroke-miterlimit="10" fill="none" stroke="#000" d="M61.426 124.122h2.99"/><symbol id="aO"><path d="M.142.431v.116c0 .088.048.136.092.136.003 0 .018 0 .033-.007a.044.044 0 0 1-.03-.042C.237.611.253.591.28.591c.029 0 .044.02.044.044 0 .037-.037.07-.09.07A.155.155 0 0 1 .079.546V.431H0V.4h.079V.076C.079.031.068.031.001.031V0l.114.003c.04 0 .087 0 .127-.003v.031H.221C.147.031.145.042.145.078V.4h.114v.031H.142z"/></symbol><use xlink:href="#aO" transform="matrix(9.9626 0 0 -9.9626 64.744 124.322)"/><use xlink:href="#t" transform="matrix(9.9626 0 0 -9.9626 67.783 124.432)"/><use xlink:href="#p" transform="matrix(9.9626 0 0 -9.9626 73.193 124.432)"/><use xlink:href="#t" transform="matrix(9.9626 0 0 -9.9626 77.198 124.432)"/><use xlink:href="#M" transform="matrix(9.9626 0 0 -9.9626 82.697 124.322)"/><use xlink:href="#ap" transform="matrix(9.9626 0 0 -9.9626 90.184 124.432)"/><symbol id="aP"><path d="M.353.313h.279c.014 0 .033 0 .033.02s-.019.02-.033.02H.353v.28c0 .014 0 .033-.02.033S.313.647.313.633v-.28h-.28C.019.353 0 .353 0 .333s.019-.02.033-.02h.28v-.28c0-.014 0-.033.02-.033s.02.019.02.033v.28z"/></symbol><symbol id="aQ"><path d="M.137 0v.04H.04v.92h.097V1H0V0h.137z"/></symbol><symbol id="aR"><path d="M.421.342c0 .08-.005.16-.04.234A.185.185 0 0 1 .037.569.535.535 0 0 1 0 .342C0 .267.004.177.045.101A.183.183 0 0 1 .21 0c.054 0 .13.021.174.116a.533.533 0 0 1 .037.226M.21.022C.171.022.112.047.094.143.083.203.083.295.083.354c0 .064 0 .13.008.184C.11.657.185.666.21.666.243.666.309.648.328.549c.01-.056.01-.132.01-.195 0-.075 0-.143-.011-.207C.312.052.255.022.21.022z"/></symbol><symbol id="aS"><path d="M.137 1H0V.96h.097V.04H0V0h.137v1z"/></symbol><symbol id="aT"><path d="M.196.195.326.1C.331.097.334.094.342.094c.016 0 .027.015.027.028 0 .011-.004.019-.021.027L.207.215l.139.066C.365.29.369.297.369.309c0 .013-.011.028-.027.028-.007 0-.009 0-.035-.019L.196.236l.015.17c0 .015-.013.025-.026.025C.169.431.158.419.158.406l.015-.17-.124.09C.035.337.033.337.027.337.011.337 0 .322 0 .309 0 .298.004.29.021.282L.162.216.023.15C.004.141 0 .134 0 .122 0 .12 0 .094.033.094l.14.101-.015-.17C.158.01.171 0 .184 0 .2 0 .211.012.211.025l-.015.17z"/></symbol><symbol id="aU"><path d="M.117.194c0 .064-.024.105-.064.105C.018.299 0 .272 0 .246S.017.193.053.193c.016 0 .028.006.038.014l.002.002C.094.209.095.208.095.194A.255.255 0 0 0 .023.022C.017.016.016.015.016.011.016.004.021 0 .026 0c.012 0 .091.079.091.194z"/></symbol><use xlink:href="#F" transform="matrix(9.9626 0 0 -9.9626 103.19 126.255)"/><use xlink:href="#s" transform="matrix(9.9626 0 0 -9.9626 109.008 124.432)"/><use xlink:href="#o" transform="matrix(9.9626 0 0 -9.9626 114.039 124.432)"/><use xlink:href="#aP" transform="matrix(9.9626 0 0 -9.9626 121.51 125.15)"/><use xlink:href="#C" transform="matrix(9.9626 0 0 -9.9626 132.37 124.322)"/><use xlink:href="#s" transform="matrix(9.9626 0 0 -9.9626 138.816 124.432)"/><use xlink:href="#o" transform="matrix(9.9626 0 0 -9.9626 143.847 124.432)"/><use xlink:href="#S" transform="matrix(9.9626 0 0 -9.9626 148.43 126.813)"/><use xlink:href="#w" transform="matrix(9.9626 0 0 -9.9626 151.657 124.432)"/><use xlink:href="#n" transform="matrix(9.9626 0 0 -9.9626 157.187 124.322)"/><use xlink:href="#M" transform="matrix(9.9626 0 0 -9.9626 159.907 124.322)"/><use xlink:href="#q" transform="matrix(9.9626 0 0 -9.9626 163.812 124.432)"/><use xlink:href="#D" transform="matrix(9.9626 0 0 -9.9626 168.295 124.432)"/><use xlink:href="#p" transform="matrix(9.9626 0 0 -9.9626 172.569 124.432)"/><use xlink:href="#n" transform="matrix(9.9626 0 0 -9.9626 176.584 124.322)"/><use xlink:href="#s" transform="matrix(9.9626 0 0 -9.9626 179.304 124.432)"/><use xlink:href="#v" transform="matrix(9.9626 0 0 -9.9626 184.325 124.322)"/><use xlink:href="#aQ" transform="matrix(9.9626 0 0 -9.9626 190.72 126.813)"/><use xlink:href="#aR" transform="matrix(9.9626 0 0 -9.9626 192.703 124.541)"/><use xlink:href="#aS" transform="matrix(9.9626 0 0 -9.9626 197.515 126.813)"/><use xlink:href="#aT" transform="matrix(9.9626 0 0 -9.9626 204.03 121.144)"/><use xlink:href="#ao" transform="matrix(9.9626 0 0 -9.9626 211.284 126.365)"/><use xlink:href="#aU" transform="matrix(9.9626 0 0 -9.9626 215.587 126.245)"/><use xlink:href="#w" transform="matrix(9.9626 0 0 -9.9626 221.157 124.432)"/><use xlink:href="#n" transform="matrix(9.9626 0 0 -9.9626 226.686 124.322)"/><use xlink:href="#M" transform="matrix(9.9626 0 0 -9.9626 229.406 124.322)"/><use xlink:href="#q" transform="matrix(9.9626 0 0 -9.9626 233.31 124.432)"/><use xlink:href="#D" transform="matrix(9.9626 0 0 -9.9626 237.794 124.432)"/><use xlink:href="#p" transform="matrix(9.9626 0 0 -9.9626 242.068 124.432)"/><use xlink:href="#n" transform="matrix(9.9626 0 0 -9.9626 246.083 124.322)"/><use xlink:href="#s" transform="matrix(9.9626 0 0 -9.9626 248.803 124.432)"/><use xlink:href="#v" transform="matrix(9.9626 0 0 -9.9626 253.824 124.322)"/><use xlink:href="#aQ" transform="matrix(9.9626 0 0 -9.9626 260.22 126.813)"/><use xlink:href="#aq" transform="matrix(9.9626 0 0 -9.9626 262.7 124.322)"/><use xlink:href="#aS" transform="matrix(9.9626 0 0 -9.9626 267.014 126.813)"/><use xlink:href="#aT" transform="matrix(9.9626 0 0 -9.9626 273.54 121.144)"/><use xlink:href="#ao" transform="matrix(9.9626 0 0 -9.9626 280.793 126.365)"/><use xlink:href="#V" transform="matrix(9.9626 0 0 -9.9626 284.808 126.813)"/><symbol id="aV"><path d="M.391.381c.072.035.105.081.105.138 0 .149-.189.149-.227.149C.107.668.036.587.036.49c0-.093.086-.142.096-.148C.053.311 0 .258 0 .175 0 .014.183 0 .264 0c.183 0 .268.089.268.2 0 .111-.098.159-.141.181M.17.493C.135.511.124.529.124.549c0 .051.051.073.139.073.092 0 .145-.037.145-.104C.408.468.377.435.333.411L.17.493M.196.31.338.239C.392.211.43.192.43.147.43.069.343.051.268.051c-.096 0-.166.04-.166.124 0 .062.036.106.094.135z"/></symbol><use xlink:href="#aV" transform="matrix(6.9738 0 0 -6.9738 7.121 136.361)"/><use xlink:href="#B" transform="matrix(9.9626 0 0 -9.9626 46.485 136.337)"/><use xlink:href="#f" transform="matrix(9.9626 0 0 -9.9626 51.098 136.277)"/><use xlink:href="#ak" transform="matrix(9.9626 0 0 -9.9626 57.268 138.21)"/><use xlink:href="#ag" transform="matrix(9.9626 0 0 -9.9626 62.807 136.387)"/><use xlink:href="#aj" transform="matrix(9.9626 0 0 -9.9626 67.56 136.387)"/><path stroke-width=".398" stroke-miterlimit="10" fill="none" stroke="#000" d="M71.488 136.078h3.055"/><symbol id="aW"><path d="M.302.605h.082c.017 0 .027 0 .027.018 0 .013-.008.013-.025.013H.308C.322.71.325.728.34.798c.008.037.019.09.055.09C.403.888.424.886.437.87A.05.05 0 0 1 .393.821c0-.022.018-.032.034-.032.025 0 .05.02.05.055C.477.887.436.91.395.91.297.91.272.78.265.746L.244.636H.178c-.016 0-.027 0-.027-.02 0-.011.01-.011.025-.011h.062L.165.232A1.595 1.595 0 0 0 .137.108C.129.074.116.022.08.022.07.022.051.025.04.04a.05.05 0 0 1 .044.049C.084.111.066.121.05.121.025.121 0 .101 0 .066 0 .021.043 0 .08 0c.104 0 .145.21.152.246l.07.359z"/></symbol><symbol id="aX"><path d="M.43.402a.05.05 0 0 1 .003.014c0 .011-.008.026-.028.026C.375.442.368.413.366.405L.293.113C.288.095.288.093.279.08.26.052.231.022.187.022.142.022.133.066.133.099c0 .061.033.151.058.219a.142.142 0 0 1 .013.054c0 .05-.033.081-.076.081C.035.453 0 .305 0 .299c0-.01.01-.01.015-.01.013 0 .014.002.018.016.008.031.035.126.093.126.011 0 .022-.003.022-.029 0-.024-.01-.051-.024-.09A.667.667 0 0 1 .072.116C.072.029.13 0 .184 0c.053 0 .087.03.111.06A.08.08 0 0 1 .375 0c.037 0 .058.025.073.056.018.038.03.096.03.098 0 .01-.008.01-.015.01C.451.164.45.163.444.141.43.085.411.022.377.022.351.022.351.049.351.063c0 .007 0 .023.007.051L.43.402z"/></symbol><symbol id="aY"><path d="M.228.68a.079.079 0 0 1 .003.013c0 .009-.006.012-.014.012A.088.088 0 0 1 .201.703L.102.695C.09.694.079.693.079.674c0-.011.01-.011.024-.011.048 0 .05-.007.05-.017L.15.629.002.039A.059.059 0 0 1 0 .026C0 .015.009 0 .028 0a.04.04 0 0 1 .037.028l.043.173.016.065c.009.036.01.038.028.07.02.032.063.095.133.095.044 0 .046-.045.046-.066C.331.303.287.184.273.144A.15.15 0 0 1 .257.08C.257.036.285 0 .333 0 .426 0 .46.149.46.154c0 .01-.008.01-.015.01C.432.164.432.162.428.147.42.12.393.022.335.022.314.022.313.037.313.051c0 .025.01.051.018.075.02.053.061.165.061.223 0 .082-.055.104-.104.104C.221.453.186.418.155.388L.228.68z"/></symbol><symbol id="aZ"><path d="M.209.68a.079.079 0 0 1 .003.013c0 .009-.006.012-.014.012A.088.088 0 0 1 .182.703L.083.695C.071.694.06.693.06.674.06.663.07.663.084.663c.048 0 .05-.007.05-.017L.131.629l-.125-.5C.005.125 0 .105 0 .09 0 .037.036 0 .084 0c.038 0 .058.027.071.052a.512.512 0 0 1 .031.102c0 .01-.008.01-.015.01-.005 0-.011 0-.014-.005L.15.134C.133.064.114.022.086.022.06.022.06.049.06.063c0 .007 0 .022.006.046L.209.68z"/></symbol><use xlink:href="#aW" transform="matrix(9.9626 0 0 -9.9626 74.294 138.32)"/><use xlink:href="#aX" transform="matrix(9.9626 0 0 -9.9626 78.429 136.387)"/><use xlink:href="#af" transform="matrix(9.9626 0 0 -9.9626 83.859 136.387)"/><use xlink:href="#aX" transform="matrix(9.9626 0 0 -9.9626 87.086 136.387)"/><use xlink:href="#ac" transform="matrix(9.9626 0 0 -9.9626 92.436 136.387)"/><use xlink:href="#ad" transform="matrix(9.9626 0 0 -9.9626 100.516 136.387)"/><use xlink:href="#aj" transform="matrix(9.9626 0 0 -9.9626 104.72 136.387)"/><use xlink:href="#af" transform="matrix(9.9626 0 0 -9.9626 108.944 136.387)"/><use xlink:href="#aY" transform="matrix(9.9626 0 0 -9.9626 115.65 136.387)"/><use xlink:href="#ag" transform="matrix(9.9626 0 0 -9.9626 121.089 136.387)"/><use xlink:href="#ac" transform="matrix(9.9626 0 0 -9.9626 125.91 136.387)"/><use xlink:href="#aj" transform="matrix(9.9626 0 0 -9.9626 130.045 136.387)"/><use xlink:href="#aa" transform="matrix(9.9626 0 0 -9.9626 138.005 136.387)"/><use xlink:href="#aX" transform="matrix(9.9626 0 0 -9.9626 142.847 136.387)"/><use xlink:href="#ak" transform="matrix(9.9626 0 0 -9.9626 151.076 138.21)"/><use xlink:href="#aZ" transform="matrix(9.9626 0 0 -9.9626 156.964 136.387)"/><use xlink:href="#ai" transform="matrix(9.9626 0 0 -9.9626 159.654 136.387)"/><use xlink:href="#af" transform="matrix(9.9626 0 0 -9.9626 164.576 136.387)"/><use xlink:href="#ad" transform="matrix(9.9626 0 0 -9.9626 168.112 136.387)"/><use xlink:href="#ai" transform="matrix(9.9626 0 0 -9.9626 172.127 136.387)"/><use xlink:href="#aX" transform="matrix(9.9626 0 0 -9.9626 176.969 136.387)"/><use xlink:href="#I" transform="matrix(9.9626 0 0 -9.9626 185.88 136.337)"/><use xlink:href="#b" transform="matrix(9.9626 0 0 -9.9626 191.598 136.277)"/><use xlink:href="#d" transform="matrix(9.9626 0 0 -9.9626 194.626 136.337)"/><use xlink:href="#e" transform="matrix(9.9626 0 0 -9.9626 200.405 136.277)"/><use xlink:href="#B" transform="matrix(9.9626 0 0 -9.9626 205.137 136.337)"/><path stroke-width=".398" stroke-miterlimit="10" fill="none" stroke="#000" d="M51.286 163.774v-23.91"/><symbol id="ba"><path d="M.385.314c0-.07-.004-.143-.033-.19A.162.162 0 0 0 .211.051c-.009 0-.05 0-.081.019a.066.066 0 0 1 .041.064.067.067 0 0 1-.069.069C.061.203.032.175.032.132.032.064.081 0 .213 0c.168 0 .319.107.319.34 0 .158-.049.328-.264.328C.105.668 0 .582 0 .452 0 .318.104.237.245.237c.024 0 .088 0 .14.077M.256.283C.147.283.147.359.147.451c0 .088 0 .171.122.171.06 0 .087-.039.097-.058C.383.533.383.448.383.447.383.344.327.283.256.283z"/></symbol><use xlink:href="#ba" transform="matrix(6.9738 0 0 -6.9738 7.519 148.316)"/><use xlink:href="#as" transform="matrix(9.9626 0 0 -9.9626 61.717 148.232)"/><use xlink:href="#x" transform="matrix(9.9626 0 0 -9.9626 67.406 148.342)"/><use xlink:href="#U" transform="matrix(9.9626 0 0 -9.9626 72.248 150.285)"/><use xlink:href="#ap" transform="matrix(9.9626 0 0 -9.9626 80.825 148.342)"/><symbol id="bb"><path d="M.549.68H0V.649h.024C.101.649.103.638.103.602V.078C.103.042.101.031.024.031H0V0c.035.003.113.003.152.003C.193.003.284.003.32 0v.031H.287C.192.031.192.044.192.079v.246h.086C.374.325.384.293.384.208h.025v.265H.384C.384.389.374.356.278.356H.192v.253c0 .033.002.04.049.04h.12c.15 0 .175-.056.191-.194h.025L.549.68z"/></symbol><symbol id="bc"><path d="M.549.253C.549.111.452.031.357.031.31.031.192.056.192.246v.381c0 .036.002.047.079.047h.024v.031C.26.702.186.702.148.702.11.702.035.702 0 .705V.674h.024C.101.674.103.663.103.627V.25C.103.109.219 0 .355 0 .47 0 .56.093.577.207.58.227.58.236.58.276v.32c0 .033 0 .078.103.078v.031L.565.702.446.705V.674C.549.674.549.627.549.6V.253z"/></symbol><symbol id="bd"><path d="m.378.386.137.201C.537.619.571.651.66.652v.031L.549.68c-.04 0-.088 0-.128.003V.652C.461.651.483.629.483.606.483.596.481.594.474.583L.36.414.231.607C.229.61.224.618.224.622c0 .012.022.029.065.03v.031C.254.68.181.68.143.68.112.68.05.681.013.683V.652h.019C.087.652.106.645.125.617L.309.339.145.097C.131.077.101.031 0 .031V0l.111.003C.148.003.203.003.239 0v.031C.193.032.176.059.176.077c0 .009.003.013.01.024l.142.21.158-.239C.488.068.491.064.491.061.491.049.469.032.426.031V0a2.82 2.82 0 0 0 .276 0v.031H.683C.631.031.61.036.589.067L.378.386z"/></symbol><use xlink:href="#bb" transform="matrix(9.9626 0 0 -9.9626 93.88 148.232)"/><use xlink:href="#av" transform="matrix(9.9626 0 0 -9.9626 99.269 148.232)"/><use xlink:href="#bc" transform="matrix(9.9626 0 0 -9.9626 106.472 148.451)"/><use xlink:href="#bd" transform="matrix(9.9626 0 0 -9.9626 113.854 148.232)"/><symbol id="be"><path d="M.538.33c0 .123-.013.338-.269.338S0 .452 0 .33C0 .204.016 0 .269 0s.269.203.269.33M.269.046a.13.13 0 0 0-.086.032C.156.101.139.116.139.343c0 .069 0 .148.011.196.016.065.078.083.119.083.038 0 .103-.016.119-.085C.399.49.399.407.399.343c0-.07 0-.143-.01-.199C.375.063.306.046.269.046z"/></symbol><use xlink:href="#K" transform="matrix(6.9738 0 0 -6.9738 3.32 160.187)"/><use xlink:href="#be" transform="matrix(6.9738 0 0 -6.9738 7.497 160.27)"/><use xlink:href="#D" transform="matrix(9.9626 0 0 -9.9626 61.787 160.297)"/><use xlink:href="#s" transform="matrix(9.9626 0 0 -9.9626 66.15 160.297)"/><use xlink:href="#v" transform="matrix(9.9626 0 0 -9.9626 71.172 160.187)"/><use xlink:href="#p" transform="matrix(9.9626 0 0 -9.9626 76.303 160.297)"/><use xlink:href="#n" transform="matrix(9.9626 0 0 -9.9626 80.318 160.187)"/><use xlink:href="#v" transform="matrix(9.9626 0 0 -9.9626 83.077 160.187)"/><use xlink:href="#t" transform="matrix(9.9626 0 0 -9.9626 88.338 160.297)"/><use xlink:href="#q" transform="matrix(9.9626 0 0 -9.9626 93.837 160.297)"/><use xlink:href="#K" transform="matrix(6.9738 0 0 -6.9738 2.92 173.14)"/><use xlink:href="#K" transform="matrix(6.9738 0 0 -6.9738 7.433 173.14)"/><symbol id="bf"><path d="M.363.397c.024 0 .03 0 .03-.035V.047H.324V0c.032.001.08.003.123.003S.536.001.57 0v.047H.501v.407L.325.448.324.444H.177v.098c0 .084.068.122.16.122.029 0 .05-.005.073-.018A.064.064 0 0 1 .366.583c0-.039.029-.065.065-.065.037 0 .066.025.066.066C.497.636.453.7.343.7.219.7.075.661.075.544v-.1H0V.397h.075v-.35H.006V0c.032.001.08.003.123.003S.218.001.252 0v.047H.183v.35h.18z"/></symbol><use xlink:href="#bf" transform="matrix(9.9626 0 0 -9.9626 46.415 173.14)"/><use xlink:href="#z" transform="matrix(9.9626 0 0 -9.9626 52.92 173.14)"/><use xlink:href="#K" transform="matrix(6.9738 0 0 -6.9738 2.92 185.094)"/><use xlink:href="#N" transform="matrix(6.9738 0 0 -6.9738 7.196 185.094)"/><use xlink:href="#B" transform="matrix(9.9626 0 0 -9.9626 46.485 185.154)"/><use xlink:href="#f" transform="matrix(9.9626 0 0 -9.9626 51.098 185.094)"/><use xlink:href="#aZ" transform="matrix(9.9626 0 0 -9.9626 58.065 185.204)"/><use xlink:href="#ai" transform="matrix(9.9626 0 0 -9.9626 60.755 185.204)"/><use xlink:href="#ae" transform="matrix(9.9626 0 0 -9.9626 69.432 185.204)"/><use xlink:href="#ai" transform="matrix(9.9626 0 0 -9.9626 73.487 185.204)"/><use xlink:href="#aj" transform="matrix(9.9626 0 0 -9.9626 78.26 185.204)"/><use xlink:href="#ad" transform="matrix(9.9626 0 0 -9.9626 82.712 185.204)"/><use xlink:href="#aa" transform="matrix(9.9626 0 0 -9.9626 90.792 185.204)"/><use xlink:href="#ad" transform="matrix(9.9626 0 0 -9.9626 95.943 185.204)"/><use xlink:href="#ak" transform="matrix(9.9626 0 0 -9.9626 103.096 187.027)"/><use xlink:href="#ag" transform="matrix(9.9626 0 0 -9.9626 108.635 185.204)"/><use xlink:href="#aj" transform="matrix(9.9626 0 0 -9.9626 113.387 185.204)"/><path stroke-width=".398" stroke-miterlimit="10" fill="none" stroke="#000" d="M117.316 184.895h3.055"/><symbol id="bg"><path d="M.191.131c.009.006.02.015.02.032 0 .018-.016.028-.028.028C.169.191.161.183.152.174L.01.032C0 .022 0 .02 0 .017 0 .009.009 0 .016 0 .019 0 .021 0 .03.008l.161.123z"/></symbol><use xlink:href="#aW" transform="matrix(9.9626 0 0 -9.9626 120.122 187.137)"/><use xlink:href="#aX" transform="matrix(9.9626 0 0 -9.9626 124.257 185.204)"/><use xlink:href="#af" transform="matrix(9.9626 0 0 -9.9626 129.687 185.204)"/><use xlink:href="#aX" transform="matrix(9.9626 0 0 -9.9626 132.914 185.204)"/><use xlink:href="#ac" transform="matrix(9.9626 0 0 -9.9626 138.264 185.204)"/><use xlink:href="#ad" transform="matrix(9.9626 0 0 -9.9626 146.344 185.204)"/><use xlink:href="#aj" transform="matrix(9.9626 0 0 -9.9626 150.548 185.204)"/><use xlink:href="#af" transform="matrix(9.9626 0 0 -9.9626 154.772 185.204)"/><use xlink:href="#ag" transform="matrix(9.9626 0 0 -9.9626 161.826 185.204)"/><use xlink:href="#ae" transform="matrix(9.9626 0 0 -9.9626 166.409 185.204)"/><use xlink:href="#ae" transform="matrix(9.9626 0 0 -9.9626 170.483 185.204)"/><use xlink:href="#aX" transform="matrix(9.9626 0 0 -9.9626 174.797 185.204)"/><use xlink:href="#ak" transform="matrix(9.9626 0 0 -9.9626 179.46 187.027)"/><use xlink:href="#bg" transform="matrix(9.9626 0 0 -9.9626 187.55 180.063)"/><use xlink:href="#ad" transform="matrix(9.9626 0 0 -9.9626 185.547 185.204)"/><use xlink:href="#ad" transform="matrix(9.9626 0 0 -9.9626 190.13 185.204)"/><use xlink:href="#I" transform="matrix(9.9626 0 0 -9.9626 197.956 185.154)"/><use xlink:href="#b" transform="matrix(9.9626 0 0 -9.9626 203.675 185.094)"/><use xlink:href="#d" transform="matrix(9.9626 0 0 -9.9626 206.703 185.154)"/><use xlink:href="#e" transform="matrix(9.9626 0 0 -9.9626 212.482 185.094)"/><use xlink:href="#B" transform="matrix(9.9626 0 0 -9.9626 217.214 185.154)"/><path stroke-width=".398" stroke-miterlimit="10" fill="none" stroke="#000" d="M51.286 236.501v-47.82"/><use xlink:href="#K" transform="matrix(6.9738 0 0 -6.9738 3.32 197.05)"/><use xlink:href="#W" transform="matrix(6.9738 0 0 -6.9738 7.518 197.133)"/><use xlink:href="#B" transform="matrix(9.9626 0 0 -9.9626 61.827 197.109)"/><use xlink:href="#f" transform="matrix(9.9626 0 0 -9.9626 66.44 197.05)"/><use xlink:href="#aZ" transform="matrix(9.9626 0 0 -9.9626 73.408 197.159)"/><use xlink:href="#ai" transform="matrix(9.9626 0 0 -9.9626 76.098 197.159)"/><use xlink:href="#ae" transform="matrix(9.9626 0 0 -9.9626 84.775 197.159)"/><use xlink:href="#ai" transform="matrix(9.9626 0 0 -9.9626 88.83 197.159)"/><use xlink:href="#aj" transform="matrix(9.9626 0 0 -9.9626 93.602 197.159)"/><use xlink:href="#ad" transform="matrix(9.9626 0 0 -9.9626 98.055 197.159)"/><use xlink:href="#aa" transform="matrix(9.9626 0 0 -9.9626 106.135 197.159)"/><use xlink:href="#ad" transform="matrix(9.9626 0 0 -9.9626 111.286 197.159)"/><use xlink:href="#ak" transform="matrix(9.9626 0 0 -9.9626 118.439 198.982)"/><use xlink:href="#ag" transform="matrix(9.9626 0 0 -9.9626 123.978 197.159)"/><use xlink:href="#aj" transform="matrix(9.9626 0 0 -9.9626 128.73 197.159)"/><path stroke-width=".398" stroke-miterlimit="10" fill="none" stroke="#000" d="M132.659 196.85h3.055"/><symbol id="bh"><path d="M.41.387C.41.422.398.453.369.453.346.453.321.43.321.407c0-.013.007-.02.013-.027A.113.113 0 0 0 .361.301C.361.273.314.022.199.022c-.054 0-.065.05-.065.083 0 .058.032.145.059.217.005.016.011.031.011.05 0 .05-.033.081-.076.081C.035.453 0 .305 0 .299c0-.01.01-.01.015-.01.013 0 .014.002.018.016.008.031.035.126.093.126.011 0 .022-.003.022-.029 0-.024-.01-.051-.024-.09A.637.637 0 0 1 .073.12C.073.029.137 0 .196 0 .364 0 .41.361.41.387z"/></symbol><use xlink:href="#aW" transform="matrix(9.9626 0 0 -9.9626 135.464 199.092)"/><use xlink:href="#aX" transform="matrix(9.9626 0 0 -9.9626 139.599 197.159)"/><use xlink:href="#af" transform="matrix(9.9626 0 0 -9.9626 145.029 197.159)"/><use xlink:href="#aX" transform="matrix(9.9626 0 0 -9.9626 148.256 197.159)"/><use xlink:href="#ac" transform="matrix(9.9626 0 0 -9.9626 153.606 197.159)"/><use xlink:href="#ad" transform="matrix(9.9626 0 0 -9.9626 161.686 197.159)"/><use xlink:href="#aj" transform="matrix(9.9626 0 0 -9.9626 165.89 197.159)"/><use xlink:href="#af" transform="matrix(9.9626 0 0 -9.9626 170.114 197.159)"/><use xlink:href="#ag" transform="matrix(9.9626 0 0 -9.9626 177.168 197.159)"/><use xlink:href="#ae" transform="matrix(9.9626 0 0 -9.9626 181.75 197.159)"/><use xlink:href="#ae" transform="matrix(9.9626 0 0 -9.9626 185.825 197.159)"/><use xlink:href="#aX" transform="matrix(9.9626 0 0 -9.9626 190.14 197.159)"/><use xlink:href="#ak" transform="matrix(9.9626 0 0 -9.9626 194.802 198.982)"/><use xlink:href="#bg" transform="matrix(9.9626 0 0 -9.9626 202.891 192.018)"/><use xlink:href="#ad" transform="matrix(9.9626 0 0 -9.9626 200.889 197.159)"/><use xlink:href="#ad" transform="matrix(9.9626 0 0 -9.9626 205.472 197.159)"/><use xlink:href="#ak" transform="matrix(9.9626 0 0 -9.9626 212.625 198.982)"/><use xlink:href="#ai" transform="matrix(9.9626 0 0 -9.9626 218.144 197.159)"/><use xlink:href="#ac" transform="matrix(9.9626 0 0 -9.9626 222.986 197.159)"/><use xlink:href="#aX" transform="matrix(9.9626 0 0 -9.9626 230.757 197.159)"/><use xlink:href="#ah" transform="matrix(9.9626 0 0 -9.9626 236.097 197.159)"/><use xlink:href="#ai" transform="matrix(9.9626 0 0 -9.9626 245.511 197.159)"/><use xlink:href="#aa" transform="matrix(9.9626 0 0 -9.9626 250.602 197.159)"/><use xlink:href="#bh" transform="matrix(9.9626 0 0 -9.9626 255.444 197.159)"/><use xlink:href="#ad" transform="matrix(9.9626 0 0 -9.9626 260.336 197.159)"/><use xlink:href="#ac" transform="matrix(9.9626 0 0 -9.9626 264.61 197.159)"/><use xlink:href="#aj" transform="matrix(9.9626 0 0 -9.9626 268.744 197.159)"/><use xlink:href="#ai" transform="matrix(9.9626 0 0 -9.9626 273.138 197.159)"/><use xlink:href="#ab" transform="matrix(9.9626 0 0 -9.9626 277.98 197.159)"/><use xlink:href="#ac" transform="matrix(9.9626 0 0 -9.9626 281.038 197.159)"/><use xlink:href="#ad" transform="matrix(9.9626 0 0 -9.9626 285.043 197.159)"/><use xlink:href="#I" transform="matrix(9.9626 0 0 -9.9626 292.861 197.109)"/><use xlink:href="#b" transform="matrix(9.9626 0 0 -9.9626 298.58 197.05)"/><use xlink:href="#d" transform="matrix(9.9626 0 0 -9.9626 301.608 197.109)"/><use xlink:href="#e" transform="matrix(9.9626 0 0 -9.9626 307.387 197.05)"/><use xlink:href="#B" transform="matrix(9.9626 0 0 -9.9626 312.119 197.109)"/><path stroke-width=".398" stroke-miterlimit="10" fill="none" stroke="#000" d="M66.63 212.591v-11.955"/><use xlink:href="#K" transform="matrix(6.9738 0 0 -6.9738 3.718 209.004)"/><use xlink:href="#an" transform="matrix(6.9738 0 0 -6.9738 7.797 209.004)"/><use xlink:href="#av" transform="matrix(9.9626 0 0 -9.9626 77.11 209.004)"/><use xlink:href="#ao" transform="matrix(9.9626 0 0 -9.9626 83.865 211.047)"/><use xlink:href="#s" transform="matrix(9.9626 0 0 -9.9626 87.591 209.114)"/><use xlink:href="#t" transform="matrix(9.9626 0 0 -9.9626 92.612 209.114)"/><use xlink:href="#p" transform="matrix(9.9626 0 0 -9.9626 98.022 209.114)"/><use xlink:href="#q" transform="matrix(9.9626 0 0 -9.9626 101.987 209.114)"/><use xlink:href="#M" transform="matrix(9.9626 0 0 -9.9626 106.41 209.004)"/><use xlink:href="#F" transform="matrix(9.9626 0 0 -9.9626 113.633 210.937)"/><use xlink:href="#s" transform="matrix(9.9626 0 0 -9.9626 119.451 209.114)"/><use xlink:href="#o" transform="matrix(9.9626 0 0 -9.9626 124.482 209.114)"/><path stroke-width=".398" stroke-miterlimit="10" fill="none" stroke="#000" d="M128.67 208.805h2.989"/><symbol id="bi"><path d="m.168 0 .018.017-.12.154C.063.175.052.188.036.188A.039.039 0 0 1 0 .152C0 .14.007.13.017.122L.168 0z"/></symbol><use xlink:href="#aO" transform="matrix(9.9626 0 0 -9.9626 131.986 209.004)"/><use xlink:href="#t" transform="matrix(9.9626 0 0 -9.9626 135.025 209.114)"/><use xlink:href="#p" transform="matrix(9.9626 0 0 -9.9626 140.435 209.114)"/><use xlink:href="#t" transform="matrix(9.9626 0 0 -9.9626 144.44 209.114)"/><use xlink:href="#M" transform="matrix(9.9626 0 0 -9.9626 149.939 209.004)"/><use xlink:href="#bi" transform="matrix(9.9626 0 0 -9.9626 157.949 203.923)"/><use xlink:href="#x" transform="matrix(9.9626 0 0 -9.9626 157.301 209.114)"/><use xlink:href="#m" transform="matrix(9.9626 0 0 -9.9626 165.52 209.004)"/><use xlink:href="#n" transform="matrix(9.9626 0 0 -9.9626 168.29 209.004)"/><use xlink:href="#o" transform="matrix(9.9626 0 0 -9.9626 171.06 209.114)"/><use xlink:href="#p" transform="matrix(9.9626 0 0 -9.9626 174.845 209.114)"/><use xlink:href="#q" transform="matrix(9.9626 0 0 -9.9626 178.81 209.114)"/><path stroke-width=".398" stroke-miterlimit="10" fill="none" stroke="#000" d="M183.535 208.805h2.99"/><use xlink:href="#r" transform="matrix(9.9626 0 0 -9.9626 186.843 209.004)"/><use xlink:href="#s" transform="matrix(9.9626 0 0 -9.9626 195.102 209.114)"/><use xlink:href="#u" transform="matrix(9.9626 0 0 -9.9626 199.715 209.114)"/><use xlink:href="#q" transform="matrix(9.9626 0 0 -9.9626 204.786 209.114)"/><path stroke-width=".398" stroke-miterlimit="10" fill="none" stroke="#000" d="M209.539 208.805h2.989"/><use xlink:href="#w" transform="matrix(9.9626 0 0 -9.9626 212.865 209.114)"/><use xlink:href="#x" transform="matrix(9.9626 0 0 -9.9626 218.484 209.114)"/><use xlink:href="#r" transform="matrix(9.9626 0 0 -9.9626 223.366 209.004)"/><use xlink:href="#q" transform="matrix(9.9626 0 0 -9.9626 231.625 209.114)"/><use xlink:href="#K" transform="matrix(6.9738 0 0 -6.9738 3.32 220.96)"/><use xlink:href="#ar" transform="matrix(6.9738 0 0 -6.9738 7.595 221.043)"/><use xlink:href="#bf" transform="matrix(9.9626 0 0 -9.9626 61.757 220.96)"/><use xlink:href="#z" transform="matrix(9.9626 0 0 -9.9626 68.263 220.96)"/><use xlink:href="#K" transform="matrix(6.9738 0 0 -6.9738 3.32 232.914)"/><use xlink:href="#aw" transform="matrix(6.9738 0 0 -6.9738 7.518 232.998)"/><use xlink:href="#as" transform="matrix(9.9626 0 0 -9.9626 61.717 232.914)"/><use xlink:href="#x" transform="matrix(9.9626 0 0 -9.9626 67.406 233.024)"/><use xlink:href="#U" transform="matrix(9.9626 0 0 -9.9626 72.248 234.967)"/><use xlink:href="#ap" transform="matrix(9.9626 0 0 -9.9626 80.825 233.024)"/><use xlink:href="#bb" transform="matrix(9.9626 0 0 -9.9626 93.88 232.914)"/><use xlink:href="#av" transform="matrix(9.9626 0 0 -9.9626 99.269 232.914)"/><use xlink:href="#bc" transform="matrix(9.9626 0 0 -9.9626 106.472 233.133)"/><use xlink:href="#bd" transform="matrix(9.9626 0 0 -9.9626 113.854 232.914)"/><use xlink:href="#K" transform="matrix(6.9738 0 0 -6.9738 2.92 245.866)"/><use xlink:href="#aN" transform="matrix(6.9738 0 0 -6.9738 7.245 245.95)"/><use xlink:href="#B" transform="matrix(9.9626 0 0 -9.9626 46.485 245.926)"/><use xlink:href="#f" transform="matrix(9.9626 0 0 -9.9626 51.098 245.866)"/><use xlink:href="#z" transform="matrix(9.9626 0 0 -9.9626 54.256 245.866)"/><use xlink:href="#d" transform="matrix(9.9626 0 0 -9.9626 60.492 245.926)"/><use xlink:href="#z" transform="matrix(9.9626 0 0 -9.9626 66.35 245.866)"/><path stroke-width=".398" stroke-miterlimit="10" fill="none" stroke="#000" d="M51.286 261.408v-11.955"/><use xlink:href="#K" transform="matrix(6.9738 0 0 -6.9738 3.32 257.821)"/><use xlink:href="#aV" transform="matrix(6.9738 0 0 -6.9738 7.518 257.905)"/><use xlink:href="#av" transform="matrix(9.9626 0 0 -9.9626 61.767 257.821)"/><use xlink:href="#ao" transform="matrix(9.9626 0 0 -9.9626 68.522 259.864)"/><use xlink:href="#s" transform="matrix(9.9626 0 0 -9.9626 72.248 257.93)"/><use xlink:href="#t" transform="matrix(9.9626 0 0 -9.9626 77.27 257.93)"/><use xlink:href="#p" transform="matrix(9.9626 0 0 -9.9626 82.679 257.93)"/><use xlink:href="#q" transform="matrix(9.9626 0 0 -9.9626 86.644 257.93)"/><use xlink:href="#M" transform="matrix(9.9626 0 0 -9.9626 91.067 257.821)"/><use xlink:href="#F" transform="matrix(9.9626 0 0 -9.9626 98.29 259.754)"/><use xlink:href="#s" transform="matrix(9.9626 0 0 -9.9626 104.108 257.93)"/><use xlink:href="#o" transform="matrix(9.9626 0 0 -9.9626 109.14 257.93)"/><path stroke-width=".398" stroke-miterlimit="10" fill="none" stroke="#000" d="M113.327 257.622h2.989"/><use xlink:href="#aO" transform="matrix(9.9626 0 0 -9.9626 116.644 257.821)"/><use xlink:href="#t" transform="matrix(9.9626 0 0 -9.9626 119.683 257.93)"/><use xlink:href="#p" transform="matrix(9.9626 0 0 -9.9626 125.093 257.93)"/><use xlink:href="#t" transform="matrix(9.9626 0 0 -9.9626 129.098 257.93)"/><use xlink:href="#M" transform="matrix(9.9626 0 0 -9.9626 134.597 257.821)"/><use xlink:href="#bi" transform="matrix(9.9626 0 0 -9.9626 142.607 252.74)"/><use xlink:href="#x" transform="matrix(9.9626 0 0 -9.9626 141.96 257.93)"/><use xlink:href="#m" transform="matrix(9.9626 0 0 -9.9626 150.168 257.821)"/><use xlink:href="#n" transform="matrix(9.9626 0 0 -9.9626 152.938 257.821)"/><use xlink:href="#o" transform="matrix(9.9626 0 0 -9.9626 155.708 257.93)"/><use xlink:href="#p" transform="matrix(9.9626 0 0 -9.9626 159.503 257.93)"/><use xlink:href="#q" transform="matrix(9.9626 0 0 -9.9626 163.458 257.93)"/><path stroke-width=".398" stroke-miterlimit="10" fill="none" stroke="#000" d="M168.194 257.622h2.989"/><use xlink:href="#r" transform="matrix(9.9626 0 0 -9.9626 171.5 257.821)"/><use xlink:href="#s" transform="matrix(9.9626 0 0 -9.9626 179.76 257.93)"/><use xlink:href="#u" transform="matrix(9.9626 0 0 -9.9626 184.372 257.93)"/><use xlink:href="#q" transform="matrix(9.9626 0 0 -9.9626 189.453 257.93)"/><path stroke-width=".398" stroke-miterlimit="10" fill="none" stroke="#000" d="M194.196 257.622h2.989"/><use xlink:href="#w" transform="matrix(9.9626 0 0 -9.9626 197.523 257.93)"/><use xlink:href="#x" transform="matrix(9.9626 0 0 -9.9626 203.142 257.93)"/><use xlink:href="#r" transform="matrix(9.9626 0 0 -9.9626 208.024 257.821)"/><use xlink:href="#q" transform="matrix(9.9626 0 0 -9.9626 216.283 257.93)"/><use xlink:href="#K" transform="matrix(6.9738 0 0 -6.9738 2.92 269.776)"/><use xlink:href="#ba" transform="matrix(6.9738 0 0 -6.9738 7.12 269.86)"/><use xlink:href="#bf" transform="matrix(9.9626 0 0 -9.9626 46.415 269.776)"/><use xlink:href="#z" transform="matrix(9.9626 0 0 -9.9626 52.92 269.776)"/><use xlink:href="#N" transform="matrix(6.9738 0 0 -6.9738 2.684 281.731)"/><use xlink:href="#be" transform="matrix(6.9738 0 0 -6.9738 7.098 281.815)"/><use xlink:href="#ao" transform="matrix(9.9626 0 0 -9.9626 45.708 283.774)"/><use xlink:href="#ap" transform="matrix(9.9626 0 0 -9.9626 53.03 281.84)"/><use xlink:href="#ao" transform="matrix(9.9626 0 0 -9.9626 65.356 283.774)"/><use xlink:href="#aP" transform="matrix(9.9626 0 0 -9.9626 72.679 282.558)"/><use xlink:href="#aq" transform="matrix(9.9626 0 0 -9.9626 84.086 281.731)"/><use xlink:href="#N" transform="matrix(6.9738 0 0 -6.9738 2.286 294.683)"/><use xlink:href="#K" transform="matrix(6.9738 0 0 -6.9738 7.035 294.683)"/><use xlink:href="#bf" transform="matrix(9.9626 0 0 -9.9626 31.072 294.683)"/><use xlink:href="#z" transform="matrix(9.9626 0 0 -9.9626 37.578 294.683)"/><use xlink:href="#N" transform="matrix(6.9738 0 0 -6.9738 1.887 307.634)"/><use xlink:href="#N" transform="matrix(6.9738 0 0 -6.9738 6.399 307.634)"/><use xlink:href="#bf" transform="matrix(9.9626 0 0 -9.9626 15.73 307.634)"/><use xlink:href="#z" transform="matrix(9.9626 0 0 -9.9626 22.236 307.634)"/><use xlink:href="#N" transform="matrix(6.9738 0 0 -6.9738 1.887 319.59)"/><use xlink:href="#W" transform="matrix(6.9738 0 0 -6.9738 6.322 319.673)"/><use xlink:href="#e" transform="matrix(9.9626 0 0 -9.9626 15.79 319.59)"/><use xlink:href="#j" transform="matrix(9.9626 0 0 -9.9626 20.463 319.65)"/><use xlink:href="#g" transform="matrix(9.9626 0 0 -9.9626 25.603 319.65)"/><use xlink:href="#d" transform="matrix(9.9626 0 0 -9.9626 30.166 319.65)"/><use xlink:href="#H" transform="matrix(9.9626 0 0 -9.9626 36.024 319.65)"/><use xlink:href="#e" transform="matrix(9.9626 0 0 -9.9626 42.31 319.59)"/><use xlink:href="#z" transform="matrix(9.9626 0 0 -9.9626 47.113 319.59)"/><use xlink:href="#j" transform="matrix(9.9626 0 0 -9.9626 53.35 319.65)"/><use xlink:href="#e" transform="matrix(9.9626 0 0 -9.9626 58.65 319.59)"/><use xlink:href="#m" transform="matrix(9.9626 0 0 -9.9626 66.642 319.59)"/><use xlink:href="#n" transform="matrix(9.9626 0 0 -9.9626 69.412 319.59)"/><use xlink:href="#o" transform="matrix(9.9626 0 0 -9.9626 72.181 319.699)"/><use xlink:href="#p" transform="matrix(9.9626 0 0 -9.9626 75.967 319.699)"/><use xlink:href="#q" transform="matrix(9.9626 0 0 -9.9626 79.932 319.699)"/><path stroke-width=".398" stroke-miterlimit="10" fill="none" stroke="#000" d="M84.678 319.39h2.99"/><use xlink:href="#r" transform="matrix(9.9626 0 0 -9.9626 87.985 319.59)"/><use xlink:href="#s" transform="matrix(9.9626 0 0 -9.9626 96.244 319.699)"/><use xlink:href="#u" transform="matrix(9.9626 0 0 -9.9626 100.857 319.699)"/><use xlink:href="#q" transform="matrix(9.9626 0 0 -9.9626 105.938 319.699)"/><path stroke-width=".398" stroke-miterlimit="10" fill="none" stroke="#000" d="M110.68 319.39h2.99"/><use xlink:href="#w" transform="matrix(9.9626 0 0 -9.9626 114.008 319.699)"/><use xlink:href="#x" transform="matrix(9.9626 0 0 -9.9626 119.627 319.699)"/><use xlink:href="#r" transform="matrix(9.9626 0 0 -9.9626 124.509 319.59)"/><use xlink:href="#q" transform="matrix(9.9626 0 0 -9.9626 132.768 319.699)"/><path stroke-width=".797" stroke-miterlimit="10" fill="none" stroke="#000" d="M.478 325.567h612"/></svg>
