<svg xmlns="http://www.w3.org/2000/svg" xmlns:xlink="http://www.w3.org/1999/xlink" version="1.1" width="841.89pt" height="1190.551pt" viewBox="0 0 841.89 1190.551">
<path transform="matrix(1,0,0,-1,114.945,191.60803)" stroke-width=".797" stroke-linecap="butt" stroke-miterlimit="10" stroke-linejoin="miter" fill="none" stroke="#000000" d="M0 0H612"/>
<text xml:space="preserve" transform="matrix(1 0 -0 1 0 1190.551)" font-size="9.9626" font-family="CMBX10" font-weight="bold"><tspan y="-989.634" x="122.417 131.0745 134.25257 139.98107 145.70957 150.43184 153.60991 158.06319 164.42929 173.97347 183.03943 192.59357">Algorithme1:</tspan></text>
<text xml:space="preserve" transform="matrix(1 0 -0 1 0 1190.551)" font-size="9.9626" font-family="CMR10"><tspan y="-989.634" x="199.108 201.87761 204.64722 208.57248 212.44794">liste</tspan></text>
<path transform="matrix(1,0,0,-1,217.473,200.71802)" stroke-width=".398" stroke-linecap="butt" stroke-miterlimit="10" stroke-linejoin="miter" fill="none" stroke="#000000" d="M0 0H2.989"/>
<text xml:space="preserve" transform="matrix(1 0 -0 1 0 1190.551)" font-size="9.9626" font-family="CMR10"><tspan y="-989.634" x="220.461 228.75984 233.74114 239.28034 244.26165 248.68505 256.9839 261.4073 266.67753">mouvement</tspan></text>
<path transform="matrix(1,0,0,-1,271.149,200.71802)" stroke-width=".398" stroke-linecap="butt" stroke-miterlimit="10" stroke-linejoin="miter" fill="none" stroke="#000000" d="M0 0H2.989"/>
<text xml:space="preserve" transform="matrix(1 0 -0 1 0 1190.551)" font-size="9.9626" font-family="CMR10"><tspan y="-989.634" x="274.138 278.5614 283.26374 287.97605 292.95735 295.72694 298.49653 302.91993">cavalier</tspan></text>
<path transform="matrix(1,0,0,-1,114.945,205.245)" stroke-width=".797" stroke-linecap="butt" stroke-miterlimit="10" stroke-linejoin="miter" fill="none" stroke="#000000" d="M0 0H612"/>
<text xml:space="preserve" transform="matrix(1 0 -0 1 0 1190.551)" font-size="9.9626" font-family="CMBX10" font-weight="bold"><tspan y="-975.996" x="129.889 138.67603 144.40453 150.77063 156.89763 157.13674 162.38703 167.63732 175.97602">Donn&#x00b4;ees:</tspan></text>
<text xml:space="preserve" transform="matrix(1 0 -0 1 0 1190.551)" font-size="9.9626" font-family="CMR10"><tspan y="-975.996" x="182.477 188.98259 193.96389 197.88915 200.65876 204.53421 207.30382 212.28511 221.15183 226.13312 230.55652 234.43198 239.97118 244.39458 247.16419 249.93379 257.67475 263.21397 272.0707 276.4941 281.19645 285.90876 290.89006 293.65965 296.42924 300.85264 308.0755 314.16264 319.9808 324.9621">Positionactuelleducavalier:pos</tspan></text>
<text xml:space="preserve" transform="matrix(1 0 -0 1 0 1190.551)" font-size="9.9626" font-family="CMBX10" font-weight="bold"><tspan y="-964.04098" x="129.889 138.24762 138.48673 143.73702 148.26004 154.62615 157.80422 162.25749 167.82659 176.09554">R&#x00b4;esultat:</tspan></text>
<text xml:space="preserve" transform="matrix(1 0 -0 1 0 1190.551)" font-size="9.9626" font-family="CMR10"><tspan y="-964.04098" x="182.602 188.82863 191.59824 195.5235 199.39896 207.13991 212.67911 217.10251 224.35529 232.65413 237.63542 243.17462 248.15593 252.57933 260.87818 265.30158 270.56184 274.4373 281.69007 286.39244 291.37373 294.1433 296.9129 302.45213 306.87553 314.11833 319.65754 328.52427 332.94767 337.65 342.35237 347.33366 350.10325 352.87284 357.29624 364.52909 370.6162 373.3858 376.1554 380.08067 383.95613">Listedesmouvementsvalidesducavalier:liste</tspan></text>
<path transform="matrix(1,0,0,-1,388.984,226.31104)" stroke-width=".398" stroke-linecap="butt" stroke-miterlimit="10" stroke-linejoin="miter" fill="none" stroke="#000000" d="M0 0H2.989"/>
<text xml:space="preserve" transform="matrix(1 0 -0 1 0 1190.551)" font-size="9.9626" font-family="CMR10"><tspan y="-964.041" x="391.973 400.27186 404.97419 409.95549">move</tspan></text>
<path transform="matrix(1,0,0,-1,414.986,226.31104)" stroke-width=".398" stroke-linecap="butt" stroke-miterlimit="10" stroke-linejoin="miter" fill="none" stroke="#000000" d="M0 0H2.989"/>
<text xml:space="preserve" transform="matrix(1 0 -0 1 0 1190.551)" font-size="9.9626" font-family="CMR10"><tspan y="-964.041" x="417.975 422.3984 427.10075 431.81306 436.79435 439.56394 442.33354 446.75694">cavalier</tspan></text>
<text xml:space="preserve" transform="matrix(1 0 -0 1 0 1190.551)" font-size="6.9738" font-family="CMBX7" font-weight="bold"><tspan y="-947.796" x="120.39401">1</tspan></text>
<text xml:space="preserve" transform="matrix(1 0 -0 1 0 1190.551)" font-size="9.9626" font-family="CMR10"><tspan y="-947.796" x="129.889 133.4855 139.0247 141.79431 145.66977 148.43938 153.42067 156.19028 158.95989 162.88515 167.30855 174.53144 177.30104 180.07065 183.99591 187.87137">Initialiserliste</tspan></text>
<path transform="matrix(1,0,0,-1,192.892,242.55506)" stroke-width=".398" stroke-linecap="butt" stroke-miterlimit="10" stroke-linejoin="miter" fill="none" stroke="#000000" d="M0 0H2.989"/>
<text xml:space="preserve" transform="matrix(1 0 -0 1 0 1190.551)" font-size="9.9626" font-family="CMR10"><tspan y="-947.796" x="195.88 204.17885 208.8812 213.87245">move</tspan></text>
<path transform="matrix(1,0,0,-1,218.894,242.55506)" stroke-width=".398" stroke-linecap="butt" stroke-miterlimit="10" stroke-linejoin="miter" fill="none" stroke="#000000" d="M0 0H2.989"/>
<text xml:space="preserve" transform="matrix(1 0 -0 1 0 1190.551)" font-size="9.9626" font-family="CMR10"><tspan y="-947.796" x="221.883 226.3064 231.00875 235.72106 240.70235 243.47196 246.24156 250.66497 257.88786 262.31126 267.29255 275.5914 283.89027 291.64118 297.17045 302.70967 310.46058 313.23017 315.99977 319.92503 323.80049 331.5414 336.80168 339.57127 345.11048">cavaliercommeunelistevide</tspan></text>
<text xml:space="preserve" transform="matrix(1 0 -0 1 0 1190.551)" font-size="6.9738" font-family="CMBX7" font-weight="bold"><tspan y="-935.841" x="120.394">2</tspan></text>
<text xml:space="preserve" transform="matrix(1 0 -0 1 0 1190.551)" font-size="9.9626" font-family="CMR10"><tspan y="-935.841" x="129.88899 137.22147 137.50041 141.92382 144.68843 147.46302 153.00222 155.77182 162.9947 168.5339 172.9573">D&#x00b4;efinirdep</tspan></text>
<path transform="matrix(1,0,0,-1,179.082,254.51105)" stroke-width=".398" stroke-linecap="butt" stroke-miterlimit="10" stroke-linejoin="miter" fill="none" stroke="#000000" d="M0 0H2.989"/>
<text xml:space="preserve" transform="matrix(1 0 -0 1 0 1190.551)" font-size="9.9626" font-family="CMR10"><tspan y="-935.841" x="182.071 186.4944 191.19675 195.90906 200.89035 203.65996 206.42957 210.85297 218.07585 222.49925 227.48055 235.77939 244.07823 251.82915 254.58879 259.02214 266.26493 274.56376 279.824 280.10295 284.52635 290.06556 292.83515 297.81645 302.23985 306.66325 314.9621 319.3855 324.65574 328.5312 335.774 341.59217 346.57347 350.49873 354.42399 357.19358 362.7328 365.50239 369.92579 377.16859 382.7078 391.56455 395.98796 400.70027 405.40263 410.3839 413.1535 415.9231 420.3465">cavaliercommeles8d&#x00b4;eplacementspossiblesducavalier</tspan></text>
<text xml:space="preserve" transform="matrix(1 0 -0 1 0 1190.551)" font-size="6.9738" font-family="CMBX7" font-weight="bold"><tspan y="-923.886" x="120.394">3</tspan></text>
<text xml:space="preserve" transform="matrix(1 0 -0 1 0 1190.551)" font-size="9.9626" font-family="CMBX10" font-weight="bold"><tspan y="-923.886" x="129.88899 136.5739 142.3024 148.6685 157.20645 161.97853 168.34464 173.91373 179.96103 186.32714">pourchaque</tspan></text>
<text xml:space="preserve" transform="matrix(1 0 -0 1 0 1190.551)" font-size="9.9626" font-family="CMTI10" font-style="italic"><tspan y="-923.886" x="194.89499 199.72684 199.98586 204.56865 209.65955 212.20998 217.30088 221.37558 225.95838 234.10779 238.69058 244.28957 251.16376 256.25465 261.34553 266.9445 274.57585 279.66673 284.2495">d&#x00b4;eplacementdansdep</tspan></text>
<path transform="matrix(1,0,0,-1,289.962,266.466)" stroke-width=".398" stroke-linecap="butt" stroke-miterlimit="10" stroke-linejoin="miter" fill="none" stroke="#000000" d="M0 0H3.055"/>
<text xml:space="preserve" transform="matrix(1 0 -0 1 0 1190.551)" font-size="9.9626" font-family="CMTI10" font-style="italic"><tspan y="-923.886" x="293.017 297.0917 302.1826 306.76539 311.85627 314.40669 317.4652 322.048">cavalier</tspan></text>
<text xml:space="preserve" transform="matrix(1 0 -0 1 0 1190.551)" font-size="9.9626" font-family="CMBX10" font-weight="bold"><tspan y="-923.886" x="330.636 334.13288 339.70198 342.88005 347.6023">faire</tspan></text>
<path transform="matrix(1,0,0,-1,135.069,318.07203)" stroke-width=".398" stroke-linecap="butt" stroke-miterlimit="10" stroke-linejoin="miter" fill="none" stroke="#000000" d="M0 0V47.821"/>
<text xml:space="preserve" transform="matrix(1 0 -0 1 0 1190.551)" font-size="6.9738" font-family="CMBX7" font-weight="bold"><tspan y="-911.931" x="120.792">4</tspan></text>
<text xml:space="preserve" transform="matrix(1 0 -0 1 0 1190.551)" font-size="9.9626" font-family="CMR10"><tspan y="-911.931" x="145.231 151.04915 156.03044">pos</tspan></text>
<path transform="matrix(1,0,0,-1,160.552,278.42103)" stroke-width=".398" stroke-linecap="butt" stroke-miterlimit="10" stroke-linejoin="miter" fill="none" stroke="#000000" d="M0 0H2.989"/>
<text xml:space="preserve" transform="matrix(1 0 -0 1 0 1190.551)" font-size="9.9626" font-family="CMR10"><tspan y="-911.931" x="163.54 166.58855 172.12775 176.0032 181.5424">futur</tspan></text>
<text xml:space="preserve" transform="matrix(1 0 -0 1 0 1190.551)" font-size="9.9626" font-family="CMSY10" font-style="italic"><tspan y="-911.931" x="188.752">&#x2190;</tspan></text>
<text xml:space="preserve" transform="matrix(1 0 -0 1 0 1190.551)" font-size="9.9626" font-family="CMR10"><tspan y="-911.931" x="202.035 207.85315 212.83444 220.07726 231.1457 236.41591 236.68489 241.10829 246.64749 249.4171 254.39839 258.82179 263.24519 271.554 275.9774 281.23765">pos+d&#x00b4;eplacement</tspan></text>
<text xml:space="preserve" transform="matrix(1 0 -0 1 0 1190.551)" font-size="6.9738" font-family="CMBX7" font-weight="bold"><tspan y="-899.976" x="120.79201">5</tspan></text>
<text xml:space="preserve" transform="matrix(1 0 -0 1 0 1190.551)" font-size="9.9626" font-family="CMBX10" font-weight="bold"><tspan y="-899.976" x="145.231 149.75403">si</tspan></text>
<text xml:space="preserve" transform="matrix(1 0 -0 1 0 1190.551)" font-size="9.9626" font-family="CMTI10" font-style="italic"><tspan y="-899.976" x="156.254 160.83679 165.92768">pos</tspan></text>
<path transform="matrix(1,0,0,-1,170.613,290.37605)" stroke-width=".398" stroke-linecap="butt" stroke-miterlimit="10" stroke-linejoin="miter" fill="none" stroke="#000000" d="M0 0H3.055"/>
<text xml:space="preserve" transform="matrix(1 0 -0 1 0 1190.551)" font-size="9.9626" font-family="CMTI10" font-style="italic"><tspan y="-899.976" x="173.668 176.72652 182.07643 185.38402 190.73394 198.50476 203.07759 206.13611 210.7189 214.79361 221.6678 226.25061 231.34149 238.9828 244.0737 249.16458 253.3688 261.01014 266.101 275.00758 280.09846 282.64888 287.73976 291.04734 295.12205 300.21293 309.12947 313.71226 320.58647 324.66117 327.21159 335.86909 339.9338 345.0247 349.0994 357.2488 362.3397 370.4891 375.0719 380.16279">futurn&#x2019;estpashorsduplateauet(lacasedepos</tspan></text>
<path transform="matrix(1,0,0,-1,384.833,290.37605)" stroke-width=".398" stroke-linecap="butt" stroke-miterlimit="10" stroke-linejoin="miter" fill="none" stroke="#000000" d="M0 0H3.055"/>
<text xml:space="preserve" transform="matrix(1 0 -0 1 0 1190.551)" font-size="9.9626" font-family="CMTI10" font-style="italic"><tspan y="-899.976" x="387.888 390.94654 396.29646 399.60404 404.95396 412.7248 417.2976 420.35615 424.93894 429.01365 435.88786 440.47065 445.56153 453.20286 457.78565 461.86036 466.44316 471.79307 476.6249 476.88395 481.46675 489.60618 494.69706 503.6136 508.19639 512.27108 519.1452 523.72799 527.8027 532.3855 537.7354 542.56729 542.81637 547.3992 555.5486 560.13137 565.2222 572.99307 578.34298 587.50857 592.5994 597.6903 602.27316 606.85598 611.0602 615.1349 620.22579 623.2843 626.97048 631.5533">futurn&#x2019;estpasoccup&#x00b4;eeouestoccup&#x00b4;eeparunadversaire)</tspan></text>
<text xml:space="preserve" transform="matrix(1 0 -0 1 0 1190.551)" font-size="9.9626" font-family="CMBX10" font-weight="bold"><tspan y="-899.976" x="639.302 644.8711 648.04916 653.77767 658.49996">alors</tspan></text>
<path transform="matrix(1,0,0,-1,150.412,306.117)" stroke-width=".398" stroke-linecap="butt" stroke-miterlimit="10" stroke-linejoin="miter" fill="none" stroke="#000000" d="M0 0V11.955"/>
<text xml:space="preserve" transform="matrix(1 0 -0 1 0 1190.551)" font-size="6.9738" font-family="CMBX7" font-weight="bold"><tspan y="-888.02" x="121.191">6</tspan></text>
<text xml:space="preserve" transform="matrix(1 0 -0 1 0 1190.551)" font-size="9.9626" font-family="CMR10"><tspan y="-888.02" x="160.574 168.04596 171.09452 176.0758 181.615 185.49047 189.91387 197.13675 202.9549 207.93619">Ajouterpos</tspan></text>
<path transform="matrix(1,0,0,-1,212.452,302.33106)" stroke-width=".398" stroke-linecap="butt" stroke-miterlimit="10" stroke-linejoin="miter" fill="none" stroke="#000000" d="M0 0H2.989"/>
<text xml:space="preserve" transform="matrix(1 0 -0 1 0 1190.551)" font-size="9.9626" font-family="CMR10"><tspan y="-888.02" x="215.44 218.48856 224.02776 227.90322 233.44242 240.6653 240.6653 248.9741 251.74372 254.51332 258.4386 262.31407">futur`aliste</tspan></text>
<path transform="matrix(1,0,0,-1,267.318,302.33106)" stroke-width=".398" stroke-linecap="butt" stroke-miterlimit="10" stroke-linejoin="miter" fill="none" stroke="#000000" d="M0 0H2.989"/>
<text xml:space="preserve" transform="matrix(1 0 -0 1 0 1190.551)" font-size="9.9626" font-family="CMR10"><tspan y="-888.02" x="270.307 278.60588 283.3082 288.2895">move</tspan></text>
<path transform="matrix(1,0,0,-1,293.321,302.33106)" stroke-width=".398" stroke-linecap="butt" stroke-miterlimit="10" stroke-linejoin="miter" fill="none" stroke="#000000" d="M0 0H2.989"/>
<text xml:space="preserve" transform="matrix(1 0 -0 1 0 1190.551)" font-size="9.9626" font-family="CMR10"><tspan y="-888.02" x="296.309 300.7324 305.43473 310.14704 315.12834 317.89793 320.6675 325.0909">cavalier</tspan></text>
<text xml:space="preserve" transform="matrix(1 0 -0 1 0 1190.551)" font-size="6.9738" font-family="CMBX7" font-weight="bold"><tspan y="-876.065" x="120.79199">7</tspan></text>
<text xml:space="preserve" transform="matrix(1 0 -0 1 0 1190.551)" font-size="9.9626" font-family="CMBX10" font-weight="bold"><tspan y="-876.065" x="145.23099 148.40906 151.59709">fin</tspan></text>
<text xml:space="preserve" transform="matrix(1 0 -0 1 0 1190.551)" font-size="6.9738" font-family="CMBX7" font-weight="bold"><tspan y="-863.114" x="120.39399">8</tspan></text>
<text xml:space="preserve" transform="matrix(1 0 -0 1 0 1190.551)" font-size="9.9626" font-family="CMBX10" font-weight="bold"><tspan y="-863.114" x="129.88899 133.06707 136.2551">fin</tspan></text>
<text xml:space="preserve" transform="matrix(1 0 -0 1 0 1190.551)" font-size="6.9738" font-family="CMBX7" font-weight="bold"><tspan y="-851.159" x="120.39399">9</tspan></text>
<text xml:space="preserve" transform="matrix(1 0 -0 1 0 1190.551)" font-size="9.9626" font-family="CMBX10" font-weight="bold"><tspan y="-851.159" x="129.88899 134.61127 139.86156 144.31484 150.04334 156.40944 161.13172 167.49782 172.74811">retourner</tspan></text>
<text xml:space="preserve" transform="matrix(1 0 -0 1 0 1190.551)" font-size="9.9626" font-family="CMR10"><tspan y="-851.159" x="180.78099 183.5506 186.3202 190.24547 194.12093">liste</tspan></text>
<path transform="matrix(1,0,0,-1,199.146,339.19306)" stroke-width=".398" stroke-linecap="butt" stroke-miterlimit="10" stroke-linejoin="miter" fill="none" stroke="#000000" d="M0 0H2.989"/>
<text xml:space="preserve" transform="matrix(1 0 -0 1 0 1190.551)" font-size="9.9626" font-family="CMR10"><tspan y="-851.159" x="202.134 210.43285 215.1352 220.12645">move</tspan></text>
<path transform="matrix(1,0,0,-1,225.148,339.19306)" stroke-width=".398" stroke-linecap="butt" stroke-miterlimit="10" stroke-linejoin="miter" fill="none" stroke="#000000" d="M0 0H2.989"/>
<text xml:space="preserve" transform="matrix(1 0 -0 1 0 1190.551)" font-size="9.9626" font-family="CMR10"><tspan y="-851.159" x="228.137 232.5604 237.26274 241.97505 246.95635 249.72595 252.49556 256.91896">cavalier</tspan></text>
<path transform="matrix(1,0,0,-1,114.945,345.37)" stroke-width=".797" stroke-linecap="butt" stroke-miterlimit="10" stroke-linejoin="miter" fill="none" stroke="#000000" d="M0 0H612"/>
</svg>
