<svg xmlns="http://www.w3.org/2000/svg" xmlns:xlink="http://www.w3.org/1999/xlink" version="1.1" width="841.89pt" height="1190.551pt" viewBox="0 0 841.89 1190.551">
<path transform="matrix(1,0,0,-1,114.945,191.60803)" stroke-width=".797" stroke-linecap="butt" stroke-miterlimit="10" stroke-linejoin="miter" fill="none" stroke="#000000" d="M0 0H612"/>
<text xml:space="preserve" transform="matrix(1 0 -0 1 0 1190.551)" font-size="9.9626" font-family="CMBX10" font-weight="bold"><tspan y="-989.634" x="122.417 131.0745 134.25257 139.98107 145.70957 150.43184 153.60991 158.06319 164.42929 173.97347 183.03943 192.59357">Algorithme7:</tspan></text>
<text xml:space="preserve" transform="matrix(1 0 -0 1 0 1190.551)" font-size="9.9626" font-family="CMR10"><tspan y="-989.634" x="199.108 204.92615 209.90744">pos</tspan></text>
<path transform="matrix(1,0,0,-1,214.428,200.71802)" stroke-width=".398" stroke-linecap="butt" stroke-miterlimit="10" stroke-linejoin="miter" fill="none" stroke="#000000" d="M0 0H2.989"/>
<text xml:space="preserve" transform="matrix(1 0 -0 1 0 1190.551)" font-size="9.9626" font-family="CMR10"><tspan y="-989.634" x="217.417 221.32234 226.30364">roi</tspan></text>
<path transform="matrix(1,0,0,-1,229.666,200.71802)" stroke-width=".398" stroke-linecap="butt" stroke-miterlimit="10" stroke-linejoin="miter" fill="none" stroke="#000000" d="M0 0H2.989"/>
<text xml:space="preserve" transform="matrix(1 0 -0 1 0 1190.551)" font-size="9.9626" font-family="CMR10"><tspan y="-989.634" x="232.655 235.70355 240.68485 246.22405 250.64745 256.18666">joueur</tspan></text>
<path transform="matrix(1,0,0,-1,114.945,205.245)" stroke-width=".797" stroke-linecap="butt" stroke-miterlimit="10" stroke-linejoin="miter" fill="none" stroke="#000000" d="M0 0H612"/>
<text xml:space="preserve" transform="matrix(1 0 -0 1 0 1190.551)" font-size="9.9626" font-family="CMBX10" font-weight="bold"><tspan y="-975.996" x="129.889 138.67603 144.40453 150.77063 156.89763 157.13674 162.38703 167.63732 175.97602">Donn&#x00b4;ees:</tspan></text>
<text xml:space="preserve" transform="matrix(1 0 -0 1 0 1190.551)" font-size="9.9626" font-family="CMR10"><tspan y="-975.996" x="182.477 187.59778 192.57907 198.11827 202.54167 208.08087 215.30376 220.84296 225.82425 231.0845 238.28748 243.26877 252.12552 256.26997 261.80918 266.23258 270.1379 274.29234 279.83155 287.57249 290.34208 298.6409 304.45909 309.44038 313.36564 316.13523 320.01069 322.78028 327.76158 336.61833 342.15754 351.02427 354.91966 359.90095 365.99806 372.08518 375.13374 380.11503 385.65425 390.07765 395.61686">Joueurdontoncherchelapositionduroi:joueur</tspan></text>
<text xml:space="preserve" transform="matrix(1 0 -0 1 0 1190.551)" font-size="9.9626" font-family="CMBX10" font-weight="bold"><tspan y="-964.04098" x="129.889 138.24762 138.48673 143.73702 148.26004 154.62615 157.80422 162.25749 167.82659 176.09554">R&#x00b4;esultat:</tspan></text>
<text xml:space="preserve" transform="matrix(1 0 -0 1 0 1190.551)" font-size="9.9626" font-family="CMR10"><tspan y="-964.04098" x="182.602 189.10759 194.08889 198.01415 200.78376 204.65921 207.42882 212.41011 221.26686 226.80606 235.67278 239.57811 244.5594 250.64656 256.18577 265.0425 268.09107 273.07237 278.61158 283.03498 288.5742 295.80705 301.89418 307.71235 312.69364">Positionduroidujoueur:pos</tspan></text>
<path transform="matrix(1,0,0,-1,317.17,226.31104)" stroke-width=".398" stroke-linecap="butt" stroke-miterlimit="10" stroke-linejoin="miter" fill="none" stroke="#000000" d="M0 0H2.989"/>
<text xml:space="preserve" transform="matrix(1 0 -0 1 0 1190.551)" font-size="9.9626" font-family="CMR10"><tspan y="-964.041" x="320.159 324.06434 329.04563">roi</tspan></text>
<text xml:space="preserve" transform="matrix(1 0 -0 1 0 1190.551)" font-size="6.9738" font-family="CMBX7" font-weight="bold"><tspan y="-947.796" x="120.394">1</tspan></text>
<text xml:space="preserve" transform="matrix(1 0 -0 1 0 1190.551)" font-size="9.9626" font-family="CMBX10" font-weight="bold"><tspan y="-947.796" x="129.88899 136.5739 142.3024 148.6685">pour</tspan></text>
<text xml:space="preserve" transform="matrix(1 0 -0 1 0 1190.551)" font-size="9.9626" font-family="CMTI10" font-style="italic"><tspan y="-947.796" x="156.70499 163.33011 168.42099 171.4795 174.02994 179.12082 184.7198 191.594 196.68488 204.82431 213.4818 213.48181 222.1393 229.5415 235.78806 239.63362 247.34468 254.74689 261.50154">iallantde1`aNLIGNES</tspan></text>
<text xml:space="preserve" transform="matrix(1 0 -0 1 0 1190.551)" font-size="9.9626" font-family="CMBX10" font-weight="bold"><tspan y="-947.796" x="271.61799 275.11488 280.68397 283.86204 288.5843">faire</tspan></text>
<path transform="matrix(1,0,0,-1,135.069,344.971)" stroke-width=".398" stroke-linecap="butt" stroke-miterlimit="10" stroke-linejoin="miter" fill="none" stroke="#000000" d="M0 0V98.63"/>
<text xml:space="preserve" transform="matrix(1 0 -0 1 0 1190.551)" font-size="6.9738" font-family="CMBX7" font-weight="bold"><tspan y="-935.841" x="120.792">2</tspan></text>
<text xml:space="preserve" transform="matrix(1 0 -0 1 0 1190.551)" font-size="9.9626" font-family="CMBX10" font-weight="bold"><tspan y="-935.841" x="145.231 151.91591 157.64441 164.01052">pour</tspan></text>
<text xml:space="preserve" transform="matrix(1 0 -0 1 0 1190.551)" font-size="9.9626" font-family="CMTI10" font-style="italic"><tspan y="-935.841" x="172.047 178.67212 183.763 186.82152 189.37195 194.46283 200.06182 206.936 212.02689 220.16632 228.8238 228.82382 237.48131 244.88352 252.01674 259.65806 265.9046 273.54594 280.94816 288.35038 295.105">jallantde1`aNCOLONNES</tspan></text>
<text xml:space="preserve" transform="matrix(1 0 -0 1 0 1190.551)" font-size="9.9626" font-family="CMBX10" font-weight="bold"><tspan y="-935.841" x="305.222 308.71888 314.28797 317.46604 322.1883">faire</tspan></text>
<path transform="matrix(1,0,0,-1,150.412,332.02003)" stroke-width=".398" stroke-linecap="butt" stroke-miterlimit="10" stroke-linejoin="miter" fill="none" stroke="#000000" d="M0 0V73.724"/>
<text xml:space="preserve" transform="matrix(1 0 -0 1 0 1190.551)" font-size="6.9738" font-family="CMBX7" font-weight="bold"><tspan y="-923.886" x="121.191">3</tspan></text>
<text xml:space="preserve" transform="matrix(1 0 -0 1 0 1190.551)" font-size="9.9626" font-family="CMBX10" font-weight="bold"><tspan y="-923.886" x="160.574 165.09703">si</tspan></text>
<text xml:space="preserve" transform="matrix(1 0 -0 1 0 1190.551)" font-size="9.9626" font-family="CMTI10" font-style="italic"><tspan y="-923.886" x="171.59601 174.14644 182.80394 186.87865 191.96955 196.04425 204.18369 204.18369 212.84117 215.3916 224.04909 228.6319 233.72278 237.79749 240.856 244.16359 247.2221 252.31299 261.47859 265.54335 268.60188 275.22703 278.28556 285.92689 290.50968 294.58439 301.4586 306.04139 310.1061 314.6889 320.03883 324.88066 325.1297 329.7125">lacase`alaposition(i,j)estoccup&#x00b4;ee</tspan></text>
<text xml:space="preserve" transform="matrix(1 0 -0 1 0 1190.551)" font-size="9.9626" font-family="CMBX10" font-weight="bold"><tspan y="-923.886" x="338.354 343.9231 347.10118 352.82966 357.5519">alors</tspan></text>
<path transform="matrix(1,0,0,-1,165.754,319.06904)" stroke-width=".398" stroke-linecap="butt" stroke-miterlimit="10" stroke-linejoin="miter" fill="none" stroke="#000000" d="M0 0V48.817"/>
<text xml:space="preserve" transform="matrix(1 0 -0 1 0 1190.551)" font-size="6.9738" font-family="CMBX7" font-weight="bold"><tspan y="-911.931" x="121.589">4</tspan></text>
<text xml:space="preserve" transform="matrix(1 0 -0 1 0 1190.551)" font-size="9.9626" font-family="CMBX10" font-weight="bold"><tspan y="-911.931" x="175.916 180.43903">si</tspan></text>
<text xml:space="preserve" transform="matrix(1 0 -0 1 0 1190.551)" font-size="9.9626" font-family="CMTI10" font-style="italic"><tspan y="-911.931" x="186.939 189.48943 198.14693 203.23783 206.03731 206.29634 210.87914 214.94388 223.09328 223.09329 231.75078 234.30121 242.9587 247.5415 252.63239 256.7071 259.76564 263.0732 266.13175 271.22264 280.37825 284.45295 287.51148 294.13664 297.19517 304.8365 309.41929 313.494 320.3682 322.90867 331.05809 334.7542 339.8451 346.47026 351.56114 360.47767 363.5362 368.62709 373.977 378.55979 383.9097">lapi`ece`alaposition(i,j)estleroidujoueur</tspan></text>
<text xml:space="preserve" transform="matrix(1 0 -0 1 0 1190.551)" font-size="9.9626" font-family="CMBX10" font-weight="bold"><tspan y="-911.931" x="392.465 398.0341 401.21217 406.94065 411.6629">alors</tspan></text>
<path transform="matrix(1,0,0,-1,181.097,306.117)" stroke-width=".398" stroke-linecap="butt" stroke-miterlimit="10" stroke-linejoin="miter" fill="none" stroke="#000000" d="M0 0V23.91"/>
<text xml:space="preserve" transform="matrix(1 0 -0 1 0 1190.551)" font-size="6.9738" font-family="CMBX7" font-weight="bold"><tspan y="-899.976" x="121.988">5</tspan></text>
<text xml:space="preserve" transform="matrix(1 0 -0 1 0 1190.551)" font-size="9.9626" font-family="CMR10"><tspan y="-899.976" x="191.259 197.07715 202.05844">pos</tspan></text>
<path transform="matrix(1,0,0,-1,206.579,290.37605)" stroke-width=".398" stroke-linecap="butt" stroke-miterlimit="10" stroke-linejoin="miter" fill="none" stroke="#000000" d="M0 0H2.989"/>
<text xml:space="preserve" transform="matrix(1 0 -0 1 0 1190.551)" font-size="9.9626" font-family="CMR10"><tspan y="-899.976" x="209.568 213.47333 218.45462">roi</tspan></text>
<text xml:space="preserve" transform="matrix(1 0 -0 1 0 1190.551)" font-size="9.9626" font-family="CMSY10" font-style="italic"><tspan y="-899.976" x="224.54">&#x2190;</tspan></text>
<text xml:space="preserve" transform="matrix(1 0 -0 1 0 1190.551)" font-size="9.9626" font-family="CMR10"><tspan y="-899.976" x="237.823 243.64115 248.62244 252.5477 255.3173 259.19276 261.96235 266.94364 275.80039 279.67585 282.44544 288.53257 291.58113">position(i,j)</tspan></text>
<text xml:space="preserve" transform="matrix(1 0 -0 1 0 1190.551)" font-size="6.9738" font-family="CMBX7" font-weight="bold"><tspan y="-888.02" x="121.988">6</tspan></text>
<text xml:space="preserve" transform="matrix(1 0 -0 1 0 1190.551)" font-size="9.9626" font-family="CMBX10" font-weight="bold"><tspan y="-888.02" x="191.259 195.98128 201.23157 205.68485 211.41335 217.77945 222.50173 228.86783 234.11812">retourner</tspan></text>
<text xml:space="preserve" transform="matrix(1 0 -0 1 0 1190.551)" font-size="9.9626" font-family="CMR10"><tspan y="-888.02" x="242.151 247.96915 252.95044">pos</tspan></text>
<path transform="matrix(1,0,0,-1,257.471,302.33106)" stroke-width=".398" stroke-linecap="butt" stroke-miterlimit="10" stroke-linejoin="miter" fill="none" stroke="#000000" d="M0 0H2.989"/>
<text xml:space="preserve" transform="matrix(1 0 -0 1 0 1190.551)" font-size="9.9626" font-family="CMR10"><tspan y="-888.02" x="260.46 264.36534 269.34663">roi</tspan></text>
<text xml:space="preserve" transform="matrix(1 0 -0 1 0 1190.551)" font-size="6.9738" font-family="CMBX7" font-weight="bold"><tspan y="-875.06906" x="121.58899">7</tspan></text>
<text xml:space="preserve" transform="matrix(1 0 -0 1 0 1190.551)" font-size="9.9626" font-family="CMBX10" font-weight="bold"><tspan y="-875.06906" x="175.91599 179.09406 182.28209">fin</tspan></text>
<text xml:space="preserve" transform="matrix(1 0 -0 1 0 1190.551)" font-size="6.9738" font-family="CMBX7" font-weight="bold"><tspan y="-862.11807" x="121.19099">8</tspan></text>
<text xml:space="preserve" transform="matrix(1 0 -0 1 0 1190.551)" font-size="9.9626" font-family="CMBX10" font-weight="bold"><tspan y="-862.11807" x="160.57399 163.75206 166.9401">fin</tspan></text>
<text xml:space="preserve" transform="matrix(1 0 -0 1 0 1190.551)" font-size="6.9738" font-family="CMBX7" font-weight="bold"><tspan y="-849.166" x="120.79199">9</tspan></text>
<text xml:space="preserve" transform="matrix(1 0 -0 1 0 1190.551)" font-size="9.9626" font-family="CMBX10" font-weight="bold"><tspan y="-849.166" x="145.23099 148.40906 151.59709">fin</tspan></text>
<text xml:space="preserve" transform="matrix(1 0 -0 1 0 1190.551)" font-size="6.9738" font-family="CMBX7" font-weight="bold"><tspan y="-836.215" x="115.87999 120.39204">10</tspan></text>
<text xml:space="preserve" transform="matrix(1 0 -0 1 0 1190.551)" font-size="9.9626" font-family="CMBX10" font-weight="bold"><tspan y="-836.215" x="129.88899 133.06707 136.2551">fin</tspan></text>
<text xml:space="preserve" transform="matrix(1 0 -0 1 0 1190.551)" font-size="6.9738" font-family="CMBX7" font-weight="bold"><tspan y="-824.26" x="115.87999 120.39204">11</tspan></text>
<text xml:space="preserve" transform="matrix(1 0 -0 1 0 1190.551)" font-size="9.9626" font-family="CMBX10" font-weight="bold"><tspan y="-824.26" x="129.88899 134.61127 139.86156 144.31484 150.04334 156.40944 161.13172 167.49782 172.74811">retourner</tspan></text>
<text xml:space="preserve" transform="matrix(1 0 -0 1 0 1190.551)" font-size="9.9626" font-family="CMR10"><tspan y="-824.26" x="180.78099 188.25295 193.23424 198.77344">None</tspan></text>
<text xml:space="preserve" transform="matrix(1 0 -0 1 0 1190.551)" font-size="9.9626" font-family="CMTT10"><tspan y="-824.26" x="206.51799 211.74835 222.20908 227.43944 232.6698 237.90016 243.13053 253.59125 258.82164 264.052 274.51277 279.74314 284.9735 290.2039 295.43428 300.66465 300.66465 311.1254 316.35578 321.58616 326.81654 337.27729 342.50767 352.9684 358.1988 363.42918 368.65956 373.88993 379.1203">//Aucunroitrouv&#x00b4;epourcejoueur</tspan></text>
<path transform="matrix(1,0,0,-1,114.945,372.26905)" stroke-width=".797" stroke-linecap="butt" stroke-miterlimit="10" stroke-linejoin="miter" fill="none" stroke="#000000" d="M0 0H612"/>
</svg>
