<svg xmlns="http://www.w3.org/2000/svg" xmlns:xlink="http://www.w3.org/1999/xlink" version="1.1" width="841.89pt" height="1190.551pt" viewBox="0 0 841.89 1190.551">
<path transform="matrix(1,0,0,-1,114.945,191.60803)" stroke-width=".797" stroke-linecap="butt" stroke-miterlimit="10" stroke-linejoin="miter" fill="none" stroke="#000000" d="M0 0H612"/>
<text xml:space="preserve" transform="matrix(1 0 -0 1 0 1190.551)" font-size="9.9626" font-family="CMBX10" font-weight="bold"><tspan y="-989.634" x="122.417 131.0745 134.25257 139.98107 145.70957 150.43184 153.60991 158.06319 164.42929 173.97347 183.03943 192.59357">Algorithme6:</tspan></text>
<text xml:space="preserve" transform="matrix(1 0 -0 1 0 1190.551)" font-size="9.9626" font-family="CMR10"><tspan y="-989.634" x="199.108 201.87761 204.64722 208.57248 212.44794">liste</tspan></text>
<path transform="matrix(1,0,0,-1,217.473,200.71802)" stroke-width=".398" stroke-linecap="butt" stroke-miterlimit="10" stroke-linejoin="miter" fill="none" stroke="#000000" d="M0 0H2.989"/>
<text xml:space="preserve" transform="matrix(1 0 -0 1 0 1190.551)" font-size="9.9626" font-family="CMR10"><tspan y="-989.634" x="220.461 228.75984 233.74114 239.28034 244.26165 248.68505 256.9839 261.4073 266.67753">mouvement</tspan></text>
<path transform="matrix(1,0,0,-1,271.149,200.71802)" stroke-width=".398" stroke-linecap="butt" stroke-miterlimit="10" stroke-linejoin="miter" fill="none" stroke="#000000" d="M0 0H2.989"/>
<text xml:space="preserve" transform="matrix(1 0 -0 1 0 1190.551)" font-size="9.9626" font-family="CMR10"><tspan y="-989.634" x="274.138 279.67723 282.4468 287.4281">pion</tspan></text>
<path transform="matrix(1,0,0,-1,114.945,205.245)" stroke-width=".797" stroke-linecap="butt" stroke-miterlimit="10" stroke-linejoin="miter" fill="none" stroke="#000000" d="M0 0H612"/>
<text xml:space="preserve" transform="matrix(1 0 -0 1 0 1190.551)" font-size="9.9626" font-family="CMBX10" font-weight="bold"><tspan y="-975.996" x="129.889 138.67603 144.40453 150.77063 156.89763 157.13674 162.38703 167.63732 175.97602">Donn&#x00b4;ees:</tspan></text>
<text xml:space="preserve" transform="matrix(1 0 -0 1 0 1190.551)" font-size="9.9626" font-family="CMR10"><tspan y="-975.996" x="182.477 188.98259 193.96389 197.88915 200.65876 204.53421 207.30382 212.28511 221.15183 226.13312 230.55652 234.43198 239.97118 244.39458 247.16419 249.93379 257.67475 263.21397 272.0707 277.60993 280.37953 285.3608 294.21757 300.31468 306.12287 311.10417">Positionactuelledupion:pos</tspan></text>
<text xml:space="preserve" transform="matrix(1 0 -0 1 0 1190.551)" font-size="9.9626" font-family="CMBX10" font-weight="bold"><tspan y="-964.04098" x="129.889 138.24762 138.48673 143.73702 148.26004 154.62615 157.80422 162.25749 167.82659 176.09554">R&#x00b4;esultat:</tspan></text>
<text xml:space="preserve" transform="matrix(1 0 -0 1 0 1190.551)" font-size="9.9626" font-family="CMR10"><tspan y="-964.04098" x="182.602 188.82863 191.59824 195.5235 199.39896 207.13991 212.67911 217.10251 224.35529 232.65413 237.63542 243.17462 248.15593 252.57933 260.87818 265.30158 270.56184 274.4373 281.69007 286.39244 291.37373 294.1433 296.9129 302.45213 306.87553 314.11833 319.65754 328.52427 334.06349 336.83308 341.81437 350.6711 356.75825 359.52784 362.29743 366.2227 370.09815">Listedesmouvementsvalidesdupion:liste</tspan></text>
<path transform="matrix(1,0,0,-1,375.119,226.31104)" stroke-width=".398" stroke-linecap="butt" stroke-miterlimit="10" stroke-linejoin="miter" fill="none" stroke="#000000" d="M0 0H2.989"/>
<text xml:space="preserve" transform="matrix(1 0 -0 1 0 1190.551)" font-size="9.9626" font-family="CMR10"><tspan y="-964.041" x="378.108 386.40687 391.1092 396.09049">move</tspan></text>
<path transform="matrix(1,0,0,-1,401.122,226.31104)" stroke-width=".398" stroke-linecap="butt" stroke-miterlimit="10" stroke-linejoin="miter" fill="none" stroke="#000000" d="M0 0H2.989"/>
<text xml:space="preserve" transform="matrix(1 0 -0 1 0 1190.551)" font-size="9.9626" font-family="CMR10"><tspan y="-964.041" x="404.111 409.6502 412.4198 417.4011">pion</tspan></text>
<text xml:space="preserve" transform="matrix(1 0 -0 1 0 1190.551)" font-size="6.9738" font-family="CMBX7" font-weight="bold"><tspan y="-947.796" x="120.39398">1</tspan></text>
<text xml:space="preserve" transform="matrix(1 0 -0 1 0 1190.551)" font-size="9.9626" font-family="CMR10"><tspan y="-947.796" x="129.88898 133.48548 139.02468 141.79428 145.66974 148.43935 153.42064 156.19025 158.95986 162.88512 167.30852 174.5314 177.30101 180.07062 183.99588 187.87134">Initialiserliste</tspan></text>
<path transform="matrix(1,0,0,-1,192.892,242.55506)" stroke-width=".398" stroke-linecap="butt" stroke-miterlimit="10" stroke-linejoin="miter" fill="none" stroke="#000000" d="M0 0H2.989"/>
<text xml:space="preserve" transform="matrix(1 0 -0 1 0 1190.551)" font-size="9.9626" font-family="CMR10"><tspan y="-947.796" x="195.88 204.17885 208.8812 213.87245">move</tspan></text>
<path transform="matrix(1,0,0,-1,218.894,242.55506)" stroke-width=".398" stroke-linecap="butt" stroke-miterlimit="10" stroke-linejoin="miter" fill="none" stroke="#000000" d="M0 0H2.989"/>
<text xml:space="preserve" transform="matrix(1 0 -0 1 0 1190.551)" font-size="9.9626" font-family="CMR10"><tspan y="-947.796" x="221.883 227.4222 230.1918 235.1731 244.02985 248.45325 253.43454 261.7334 270.03227 277.78318 283.3224 288.8616 296.60255 299.37214 302.14173 306.067 309.94245 317.68339 322.94364 325.71324 331.25245">pioncommeunelistevide</tspan></text>
<text xml:space="preserve" transform="matrix(1 0 -0 1 0 1190.551)" font-size="6.9738" font-family="CMBX7" font-weight="bold"><tspan y="-935.841" x="120.394">2</tspan></text>
<text xml:space="preserve" transform="matrix(1 0 -0 1 0 1190.551)" font-size="9.9626" font-family="CMR10"><tspan y="-935.841" x="129.88899 137.22147 137.50041 141.92382 144.68843 147.46302 153.00222 155.77182 162.97478 168.51398 172.93738">D&#x00b4;efinirdep</tspan></text>
<path transform="matrix(1,0,0,-1,179.057,254.51105)" stroke-width=".398" stroke-linecap="butt" stroke-miterlimit="10" stroke-linejoin="miter" fill="none" stroke="#000000" d="M0 0H2.989"/>
<text xml:space="preserve" transform="matrix(1 0 -0 1 0 1190.551)" font-size="9.9626" font-family="CMR10"><tspan y="-935.841" x="182.046 187.5852 190.35482 195.3361 204.17293 208.59633 213.57762 221.87647 230.17531 237.89633 240.66594 245.08934 252.31223 260.59114 265.85139 266.1303 270.5537 276.09294 278.85258 283.8438 288.2672 292.6906 300.98948 305.41288 310.67314 314.54859 321.77146 327.57966 332.56095 336.49617 340.42143 343.191 348.73023 351.48988 355.92323 363.13615 368.67536 377.51219 383.0514 385.82099 390.80229 399.6391 403.51457 408.2169 412.9292 417.9105 423.4497 427.8731 432.2965 436.20185 442.2591 447.7983 451.70365 456.12705 461.66627 467.20549 471.1108 478.83183 483.25523 492.09205 497.63127 500.40086 505.38215 510.36344 515.3447 520.8839 525.86526 528.6348 536.35586 536.35586 544.63479 549.6161 554.5974 560.1366 564.28109 569.82028 574.24368 580.31088 585.85006 589.7554 594.1788 599.71798 605.25717 609.1625 616.87356 621.3069 630.1337 635.6729 638.4425 643.4238 648.40518 653.3865 658.92568 663.907 666.6766 674.3976 674.3976 682.6765 688.2157 692.12106 697.10238 699.87197 703.7474 708.1708">pioncommeles3d&#x00b4;eplacementspossiblesdupion(avancer,prendreendiagonale`agauche,prendreendiagonale`adroite)</tspan></text>
<text xml:space="preserve" transform="matrix(1 0 -0 1 0 1190.551)" font-size="6.9738" font-family="CMBX7" font-weight="bold"><tspan y="-923.886" x="120.394008">3</tspan></text>
<text xml:space="preserve" transform="matrix(1 0 -0 1 0 1190.551)" font-size="9.9626" font-family="CMBX10" font-weight="bold"><tspan y="-923.886" x="129.889 134.41204">si</tspan></text>
<text xml:space="preserve" transform="matrix(1 0 -0 1 0 1190.551)" font-size="9.9626" font-family="CMTI10" font-style="italic"><tspan y="-923.886" x="140.91101 146.00189 149.06041 154.1513 163.3169 167.89969 171.9744 178.84859 185.86226 192.10881 199.51102 206.91323">pionestBLANC</tspan></text>
<text xml:space="preserve" transform="matrix(1 0 -0 1 0 1190.551)" font-size="9.9626" font-family="CMBX10" font-weight="bold"><tspan y="-923.886" x="218.81601 224.3851 227.56317 233.29167 238.01395">alors</tspan></text>
<path transform="matrix(1,0,0,-1,135.069,282.20704)" stroke-width=".398" stroke-linecap="butt" stroke-miterlimit="10" stroke-linejoin="miter" fill="none" stroke="#000000" d="M0 0V11.955"/>
<text xml:space="preserve" transform="matrix(1 0 -0 1 0 1190.551)" font-size="6.9738" font-family="CMBX7" font-weight="bold"><tspan y="-911.931" x="120.792">4</tspan></text>
<text xml:space="preserve" transform="matrix(1 0 -0 1 0 1190.551)" font-size="9.9626" font-family="CMR10"><tspan y="-911.931" x="145.231 148.8275 154.08776 159.06906 163.49246 167.3978 171.32306 175.75643 182.97931 185.74892 194.04776 199.58696 202.35657 206.2619 210.6853 215.1087 218.98416 221.75377 226.73506 235.59181 241.13101 245.55442 252.80719 258.06745 258.34638 262.76979 268.309 271.07859 276.05989 280.48329 284.90669 293.20555 297.62895 302.8892 306.76466 314.00746 319.54667 324.52796 330.06718 337.31996 342.85917 347.28257">Inverserladirectiondesd&#x00b4;eplacementsdansdep</tspan></text>
<path transform="matrix(1,0,0,-1,353.412,278.42103)" stroke-width=".398" stroke-linecap="butt" stroke-miterlimit="10" stroke-linejoin="miter" fill="none" stroke="#000000" d="M0 0H2.989"/>
<text xml:space="preserve" transform="matrix(1 0 -0 1 0 1190.551)" font-size="9.9626" font-family="CMR10"><tspan y="-911.931" x="356.401 361.94023 364.7098 369.6911">pion</tspan></text>
<text xml:space="preserve" transform="matrix(1 0 -0 1 0 1190.551)" font-size="6.9738" font-family="CMBX7" font-weight="bold"><tspan y="-899.976" x="120.394">5</tspan></text>
<text xml:space="preserve" transform="matrix(1 0 -0 1 0 1190.551)" font-size="9.9626" font-family="CMBX10" font-weight="bold"><tspan y="-899.976" x="129.88899 134.41202 137.59009 143.95619 149.6847">sinon</tspan></text>
<text xml:space="preserve" transform="matrix(1 0 -0 1 0 1190.551)" font-size="6.9738" font-family="CMBX7" font-weight="bold"><tspan y="-884.434" x="120.39399">6</tspan></text>
<text xml:space="preserve" transform="matrix(1 0 -0 1 0 1190.551)" font-size="9.9626" font-family="CMBX10" font-weight="bold"><tspan y="-884.434" x="129.88899 133.06707 136.2551">fin</tspan></text>
<text xml:space="preserve" transform="matrix(1 0 -0 1 0 1190.551)" font-size="6.9738" font-family="CMBX7" font-weight="bold"><tspan y="-872.479" x="120.39399">7</tspan></text>
<text xml:space="preserve" transform="matrix(1 0 -0 1 0 1190.551)" font-size="9.9626" font-family="CMBX10" font-weight="bold"><tspan y="-872.479" x="129.88899 136.5739 142.3024 148.6685 157.20645 161.97853 168.34464 173.91373 179.96103 186.32714">pourchaque</tspan></text>
<text xml:space="preserve" transform="matrix(1 0 -0 1 0 1190.551)" font-size="9.9626" font-family="CMTI10" font-style="italic"><tspan y="-872.479" x="194.89499 199.72684 199.98586 204.56865 209.65955 212.20998 217.30088 221.37558 225.95838 234.10779 238.69058 244.28957 251.16376 256.25465 261.34553 266.9445 274.57585 279.66673 284.2495">d&#x00b4;eplacementdansdep</tspan></text>
<path transform="matrix(1,0,0,-1,289.962,317.87306)" stroke-width=".398" stroke-linecap="butt" stroke-miterlimit="10" stroke-linejoin="miter" fill="none" stroke="#000000" d="M0 0H3.055"/>
<text xml:space="preserve" transform="matrix(1 0 -0 1 0 1190.551)" font-size="9.9626" font-family="CMTI10" font-style="italic"><tspan y="-872.479" x="293.017 298.10789 301.1664 306.2573">pion</tspan></text>
<text xml:space="preserve" transform="matrix(1 0 -0 1 0 1190.551)" font-size="9.9626" font-family="CMBX10" font-weight="bold"><tspan y="-872.479" x="315.943 319.43989 325.00898 328.18705 332.9093">faire</tspan></text>
<path transform="matrix(1,0,0,-1,135.069,541.833)" stroke-width=".398" stroke-linecap="butt" stroke-miterlimit="10" stroke-linejoin="miter" fill="none" stroke="#000000" d="M0 0V220.174"/>
<text xml:space="preserve" transform="matrix(1 0 -0 1 0 1190.551)" font-size="6.9738" font-family="CMBX7" font-weight="bold"><tspan y="-860.524" x="120.792">8</tspan></text>
<text xml:space="preserve" transform="matrix(1 0 -0 1 0 1190.551)" font-size="9.9626" font-family="CMR10"><tspan y="-860.524" x="145.231 151.04915 156.03044">pos</tspan></text>
<path transform="matrix(1,0,0,-1,160.552,329.828)" stroke-width=".398" stroke-linecap="butt" stroke-miterlimit="10" stroke-linejoin="miter" fill="none" stroke="#000000" d="M0 0H2.989"/>
<text xml:space="preserve" transform="matrix(1 0 -0 1 0 1190.551)" font-size="9.9626" font-family="CMR10"><tspan y="-860.524" x="163.54 166.58855 172.12775 176.0032 181.5424">futur</tspan></text>
<text xml:space="preserve" transform="matrix(1 0 -0 1 0 1190.551)" font-size="9.9626" font-family="CMSY10" font-style="italic"><tspan y="-860.524" x="188.752">&#x2190;</tspan></text>
<text xml:space="preserve" transform="matrix(1 0 -0 1 0 1190.551)" font-size="9.9626" font-family="CMR10"><tspan y="-860.524" x="202.035 207.85315 212.83444 220.07726 231.1457 237.66124 242.64253 246.5678 250.44326 255.7035 255.98247 260.40586 265.94508 268.71467 273.69596 278.11936 282.54277 290.8416 295.265 300.52528 304.40074 307.17033 312.1516 314.9212 321.00834 326.2686 326.54753 330.97093 336.51014 339.27973 344.26103 348.68443 353.10783 361.40669 365.83009 371.1003 374.97578 377.74537 382.72666 385.4863">pos+Pos(d&#x00b4;eplacement[0],d&#x00b4;eplacement[1])</tspan></text>
<text xml:space="preserve" transform="matrix(1 0 -0 1 0 1190.551)" font-size="6.9738" font-family="CMBX7" font-weight="bold"><tspan y="-848.568" x="120.79201">9</tspan></text>
<text xml:space="preserve" transform="matrix(1 0 -0 1 0 1190.551)" font-size="9.9626" font-family="CMBX10" font-weight="bold"><tspan y="-848.568" x="145.231 149.75403">si</tspan></text>
<text xml:space="preserve" transform="matrix(1 0 -0 1 0 1190.551)" font-size="9.9626" font-family="CMTI10" font-style="italic"><tspan y="-848.568" x="156.254 160.83679 165.92768">pos</tspan></text>
<path transform="matrix(1,0,0,-1,170.613,341.78303)" stroke-width=".398" stroke-linecap="butt" stroke-miterlimit="10" stroke-linejoin="miter" fill="none" stroke="#000000" d="M0 0H3.055"/>
<text xml:space="preserve" transform="matrix(1 0 -0 1 0 1190.551)" font-size="9.9626" font-family="CMTI10" font-style="italic"><tspan y="-848.568" x="173.668 176.72652 182.07643 185.38402 190.73394 198.50476 203.07759 206.13611 210.7189 214.79361 221.6678 226.25061 231.34149 238.9828 244.0737 249.16458 253.3688 261.01014 266.101 275.00758 280.09846 282.64888 287.73976 291.04734 295.12205 300.21293">futurn&#x2019;estpashorsduplateau</tspan></text>
<text xml:space="preserve" transform="matrix(1 0 -0 1 0 1190.551)" font-size="9.9626" font-family="CMBX10" font-weight="bold"><tspan y="-848.568" x="309.636 315.20509 318.38316 324.11164 328.8339">alors</tspan></text>
<path transform="matrix(1,0,0,-1,150.412,528.882)" stroke-width=".398" stroke-linecap="butt" stroke-miterlimit="10" stroke-linejoin="miter" fill="none" stroke="#000000" d="M0 0V183.313"/>
<text xml:space="preserve" transform="matrix(1 0 -0 1 0 1190.551)" font-size="6.9738" font-family="CMBX7" font-weight="bold"><tspan y="-836.613" x="116.677 121.18905">10</tspan></text>
<text xml:space="preserve" transform="matrix(1 0 -0 1 0 1190.551)" font-size="9.9626" font-family="CMBX10" font-weight="bold"><tspan y="-836.613" x="160.574 165.09703">si</tspan></text>
<text xml:space="preserve" transform="matrix(1 0 -0 1 0 1190.551)" font-size="9.9626" font-family="CMTI10" font-style="italic"><tspan y="-836.613" x="171.59601 176.42786 176.68688 181.26967 186.36057 188.911 194.00189 198.0766 202.6594 210.8088 215.3916 220.99059 227.86478 232.44757 241.60321 250.01165 254.59444 258.66914 265.54335 274.20085 278.27555 283.36643 287.94923 293.0401 298.63908 302.71379 307.29658 315.05744 318.36503 323.4559 328.80583 335.68003 340.7709 344.46705 349.55793 352.61647 355.92405">d&#x00b4;eplacementenyest0(avancertoutdroit)</tspan></text>
<text xml:space="preserve" transform="matrix(1 0 -0 1 0 1190.551)" font-size="9.9626" font-family="CMBX10" font-weight="bold"><tspan y="-836.613" x="363.688 369.25709 372.43516 378.16365 382.8859">alors</tspan></text>
<path transform="matrix(1,0,0,-1,165.754,467.11305)" stroke-width=".398" stroke-linecap="butt" stroke-miterlimit="10" stroke-linejoin="miter" fill="none" stroke="#000000" d="M0 0V109.589"/>
<text xml:space="preserve" transform="matrix(1 0 -0 1 0 1190.551)" font-size="6.9738" font-family="CMBX7" font-weight="bold"><tspan y="-824.658" x="117.076 121.58804">11</tspan></text>
<text xml:space="preserve" transform="matrix(1 0 -0 1 0 1190.551)" font-size="9.9626" font-family="CMBX10" font-weight="bold"><tspan y="-824.658" x="175.916 180.43903">si</tspan></text>
<text xml:space="preserve" transform="matrix(1 0 -0 1 0 1190.551)" font-size="9.9626" font-family="CMTI10" font-style="italic"><tspan y="-824.658" x="186.939 189.48943 198.14693 202.22164 207.31253 211.38724 219.52667 224.61756 232.76696 237.34976 242.44065">lacasedepos</tspan></text>
<path transform="matrix(1,0,0,-1,247.126,365.69404)" stroke-width=".398" stroke-linecap="butt" stroke-miterlimit="10" stroke-linejoin="miter" fill="none" stroke="#000000" d="M0 0H3.055"/>
<text xml:space="preserve" transform="matrix(1 0 -0 1 0 1190.551)" font-size="9.9626" font-family="CMTI10" font-style="italic"><tspan y="-824.658" x="250.181 253.23952 258.58946 261.89704 267.24696 275.0178 279.5906 282.64915 287.23194 291.30665 298.18086 302.76365 307.85453 315.49586 320.07865 324.15336 328.73616 334.08607 338.9179 339.17695 343.75975">futurn&#x2019;estpasoccup&#x00b4;ee</tspan></text>
<text xml:space="preserve" transform="matrix(1 0 -0 1 0 1190.551)" font-size="9.9626" font-family="CMBX10" font-weight="bold"><tspan y="-824.658" x="352.398 357.9671 361.14518 366.87367 371.59593">alors</tspan></text>
<path transform="matrix(1,0,0,-1,181.097,454.16206)" stroke-width=".398" stroke-linecap="butt" stroke-miterlimit="10" stroke-linejoin="miter" fill="none" stroke="#000000" d="M0 0V84.682"/>
<text xml:space="preserve" transform="matrix(1 0 -0 1 0 1190.551)" font-size="6.9738" font-family="CMBX7" font-weight="bold"><tspan y="-812.703" x="117.474 121.986049">12</tspan></text>
<text xml:space="preserve" transform="matrix(1 0 -0 1 0 1190.551)" font-size="9.9626" font-family="CMR10"><tspan y="-812.703" x="191.259 198.73096 201.77951 206.7608 212.3 216.17546 220.59886 227.82175 233.6399 238.62119">Ajouterpos</tspan></text>
<path transform="matrix(1,0,0,-1,243.137,377.64906)" stroke-width=".398" stroke-linecap="butt" stroke-miterlimit="10" stroke-linejoin="miter" fill="none" stroke="#000000" d="M0 0H2.989"/>
<text xml:space="preserve" transform="matrix(1 0 -0 1 0 1190.551)" font-size="9.9626" font-family="CMR10"><tspan y="-812.703" x="246.125 249.17356 254.71276 258.5882 264.1274 271.35029 271.35029 279.6591 282.42869 285.19828 289.12355 292.999">futur`aliste</tspan></text>
<path transform="matrix(1,0,0,-1,298.003,377.64906)" stroke-width=".398" stroke-linecap="butt" stroke-miterlimit="10" stroke-linejoin="miter" fill="none" stroke="#000000" d="M0 0H2.989"/>
<text xml:space="preserve" transform="matrix(1 0 -0 1 0 1190.551)" font-size="9.9626" font-family="CMR10"><tspan y="-812.703" x="300.992 309.29087 313.9932 318.9745">move</tspan></text>
<path transform="matrix(1,0,0,-1,324.006,377.64906)" stroke-width=".398" stroke-linecap="butt" stroke-miterlimit="10" stroke-linejoin="miter" fill="none" stroke="#000000" d="M0 0H2.989"/>
<text xml:space="preserve" transform="matrix(1 0 -0 1 0 1190.551)" font-size="9.9626" font-family="CMR10"><tspan y="-812.703" x="326.994 332.5332 335.3028 340.2841">pion</tspan></text>
<text xml:space="preserve" transform="matrix(1 0 -0 1 0 1190.551)" font-size="6.9738" font-family="CMBX7" font-weight="bold"><tspan y="-800.748" x="117.47398 121.98603">13</tspan></text>
<text xml:space="preserve" transform="matrix(1 0 -0 1 0 1190.551)" font-size="9.9626" font-family="CMBX10" font-weight="bold"><tspan y="-800.748" x="191.25899 195.78202">si</tspan></text>
<text xml:space="preserve" transform="matrix(1 0 -0 1 0 1190.551)" font-size="9.9626" font-family="CMTI10" font-style="italic"><tspan y="-800.748" x="202.28099 207.37189 210.4304 215.5213 224.68689 229.26969 233.34439 240.21858 240.20864 248.86614 252.94084 261.59837 266.18116 271.27204 275.34675 278.40528 281.71287 284.7714 289.86228 299.02787 302.0864 307.68537 310.7439 314.05149 317.11003 322.2009 324.7513">pionest`asapositioninitiale</tspan></text>
<text xml:space="preserve" transform="matrix(1 0 -0 1 0 1190.551)" font-size="9.9626" font-family="CMBX10" font-weight="bold"><tspan y="-800.748" x="333.396 338.9651 342.14317 347.87165 352.5939">alors</tspan></text>
<path transform="matrix(1,0,0,-1,196.439,441.211)" stroke-width=".398" stroke-linecap="butt" stroke-miterlimit="10" stroke-linejoin="miter" fill="none" stroke="#000000" d="M0 0V47.821"/>
<text xml:space="preserve" transform="matrix(1 0 -0 1 0 1190.551)" font-size="6.9738" font-family="CMBX7" font-weight="bold"><tspan y="-788.793" x="117.873 122.38505">14</tspan></text>
<text xml:space="preserve" transform="matrix(1 0 -0 1 0 1190.551)" font-size="9.9626" font-family="CMR10"><tspan y="-788.793" x="206.601 213.794 214.07295 218.49636 222.40169 225.1713 227.93592 230.7105 235.1339 242.35678 245.12639 253.4352 259.24339 264.22468 268.14994 272.0752 274.8448 280.384 283.1536 285.9232 288.69279 292.29927 292.56825 300.31916 305.85838 308.62797 314.16719 323.02394 328.56315 333.54444 339.08366 344.62287 347.39247 355.1334 359.05867 364.03996 369.57917">V&#x00b4;erifierlapossibilit&#x00b4;ed&#x2019;undoublesaut</tspan></text>
<text xml:space="preserve" transform="matrix(1 0 -0 1 0 1190.551)" font-size="6.9738" font-family="CMBX7" font-weight="bold"><tspan y="-776.83706" x="117.873 122.38505">15</tspan></text>
<text xml:space="preserve" transform="matrix(1 0 -0 1 0 1190.551)" font-size="9.9626" font-family="CMBX10" font-weight="bold"><tspan y="-776.83706" x="206.601 211.12403">si</tspan></text>
<text xml:space="preserve" transform="matrix(1 0 -0 1 0 1190.551)" font-size="9.9626" font-family="CMTI10" font-style="italic"><tspan y="-776.83706" x="217.624 222.71488 227.80576 233.15567 237.73847 240.2889 248.4383 252.513 257.60389 262.9538 269.81803 274.40083 278.47554 285.34974 289.93254 295.0234 299.0981 303.17283 306.23136 310.81416 313.36457">doublesautestpossible</tspan></text>
<text xml:space="preserve" transform="matrix(1 0 -0 1 0 1190.551)" font-size="9.9626" font-family="CMBX10" font-weight="bold"><tspan y="-776.83706" x="322.005 327.5741 330.75218 336.48066 341.2029">alors</tspan></text>
<path transform="matrix(1,0,0,-1,211.782,429.255)" stroke-width=".398" stroke-linecap="butt" stroke-miterlimit="10" stroke-linejoin="miter" fill="none" stroke="#000000" d="M0 0V11.955"/>
<text xml:space="preserve" transform="matrix(1 0 -0 1 0 1190.551)" font-size="6.9738" font-family="CMBX7" font-weight="bold"><tspan y="-764.882" x="118.271 122.78305">16</tspan></text>
<text xml:space="preserve" transform="matrix(1 0 -0 1 0 1190.551)" font-size="9.9626" font-family="CMR10"><tspan y="-764.882" x="221.944 229.41596 232.46451 237.4458 242.985 246.86046 251.28386 258.50675 261.27635 269.58515 275.39335 280.37464 284.2999 287.0695 290.94496 293.71455 298.69584 307.56257 313.10179 321.95854 327.49775 332.47904 338.01826 343.55747 346.32707 354.068 357.99327 362.97456 368.51377 375.70677 375.70677 384.01557 386.78517 389.55476 393.48 397.35548">Ajouterlapositiondudoublesaut`aliste</tspan></text>
<path transform="matrix(1,0,0,-1,402.34,425.47004)" stroke-width=".398" stroke-linecap="butt" stroke-miterlimit="10" stroke-linejoin="miter" fill="none" stroke="#000000" d="M0 0H2.989"/>
<text xml:space="preserve" transform="matrix(1 0 -0 1 0 1190.551)" font-size="9.9626" font-family="CMR10"><tspan y="-764.882" x="405.329 413.62788 418.3302 423.3115">move</tspan></text>
<path transform="matrix(1,0,0,-1,428.342,425.47004)" stroke-width=".398" stroke-linecap="butt" stroke-miterlimit="10" stroke-linejoin="miter" fill="none" stroke="#000000" d="M0 0H2.989"/>
<text xml:space="preserve" transform="matrix(1 0 -0 1 0 1190.551)" font-size="9.9626" font-family="CMR10"><tspan y="-764.882" x="431.331 436.8702 439.6398 444.6211">pion</tspan></text>
<text xml:space="preserve" transform="matrix(1 0 -0 1 0 1190.551)" font-size="6.9738" font-family="CMBX7" font-weight="bold"><tspan y="-752.927" x="117.872989 122.38503">17</tspan></text>
<text xml:space="preserve" transform="matrix(1 0 -0 1 0 1190.551)" font-size="9.9626" font-family="CMBX10" font-weight="bold"><tspan y="-752.927" x="206.60099 209.77906 212.96709">fin</tspan></text>
<text xml:space="preserve" transform="matrix(1 0 -0 1 0 1190.551)" font-size="6.9738" font-family="CMBX7" font-weight="bold"><tspan y="-739.976" x="117.47398 121.98603">18</tspan></text>
<text xml:space="preserve" transform="matrix(1 0 -0 1 0 1190.551)" font-size="9.9626" font-family="CMBX10" font-weight="bold"><tspan y="-739.976" x="191.25899 194.43706 197.62509">fin</tspan></text>
<text xml:space="preserve" transform="matrix(1 0 -0 1 0 1190.551)" font-size="6.9738" font-family="CMBX7" font-weight="bold"><tspan y="-727.024" x="117.07599 121.588039">19</tspan></text>
<text xml:space="preserve" transform="matrix(1 0 -0 1 0 1190.551)" font-size="9.9626" font-family="CMBX10" font-weight="bold"><tspan y="-727.024" x="175.91599 179.09406 182.28209">fin</tspan></text>
<text xml:space="preserve" transform="matrix(1 0 -0 1 0 1190.551)" font-size="6.9738" font-family="CMBX7" font-weight="bold"><tspan y="-714.073" x="116.67699 121.18903">20</tspan></text>
<text xml:space="preserve" transform="matrix(1 0 -0 1 0 1190.551)" font-size="9.9626" font-family="CMBX10" font-weight="bold"><tspan y="-714.073" x="160.57399 165.09702 168.27509 174.64119 180.36969">sinon</tspan></text>
<path transform="matrix(1,0,0,-1,165.754,515.93008)" stroke-width=".398" stroke-linecap="butt" stroke-miterlimit="10" stroke-linejoin="miter" fill="none" stroke="#000000" d="M0 0V35.866"/>
<text xml:space="preserve" transform="matrix(1 0 -0 1 0 1190.551)" font-size="6.9738" font-family="CMBX7" font-weight="bold"><tspan y="-702.118" x="117.076 121.58804">21</tspan></text>
<text xml:space="preserve" transform="matrix(1 0 -0 1 0 1190.551)" font-size="9.9626" font-family="CMBX10" font-weight="bold"><tspan y="-702.118" x="175.916 180.43903">si</tspan></text>
<text xml:space="preserve" transform="matrix(1 0 -0 1 0 1190.551)" font-size="9.9626" font-family="CMTI10" font-style="italic"><tspan y="-702.118" x="186.939 189.48943 198.14693 202.22164 207.31253 211.38724 219.52667 224.61756 232.76696 237.34976 242.44065">lacasedepos</tspan></text>
<path transform="matrix(1,0,0,-1,247.126,488.234)" stroke-width=".398" stroke-linecap="butt" stroke-miterlimit="10" stroke-linejoin="miter" fill="none" stroke="#000000" d="M0 0H3.055"/>
<text xml:space="preserve" transform="matrix(1 0 -0 1 0 1190.551)" font-size="9.9626" font-family="CMTI10" font-style="italic"><tspan y="-702.118" x="250.181 253.23952 258.58946 261.89704 267.24696 275.0178 279.6006 283.6753 290.53953 295.1223 299.19703 303.77983 309.12974 313.97157 314.2206 318.8034 326.95283 331.5356 336.6265 344.39735 349.7373 358.9029 363.99378 369.08467 373.66746 378.25025 382.45448 386.52919 391.62007 394.6786 398.37474">futurestoccup&#x00b4;eeparunadversaire</tspan></text>
<text xml:space="preserve" transform="matrix(1 0 -0 1 0 1190.551)" font-size="9.9626" font-family="CMBX10" font-weight="bold"><tspan y="-702.118" x="407.01 412.5791 415.75718 421.48567 426.20793">alors</tspan></text>
<path transform="matrix(1,0,0,-1,181.097,503.97505)" stroke-width=".398" stroke-linecap="butt" stroke-miterlimit="10" stroke-linejoin="miter" fill="none" stroke="#000000" d="M0 0V11.955"/>
<text xml:space="preserve" transform="matrix(1 0 -0 1 0 1190.551)" font-size="6.9738" font-family="CMBX7" font-weight="bold"><tspan y="-690.162" x="117.474 121.986049">22</tspan></text>
<text xml:space="preserve" transform="matrix(1 0 -0 1 0 1190.551)" font-size="9.9626" font-family="CMR10"><tspan y="-690.162" x="191.259 198.73096 201.77951 206.7608 212.3 216.17546 220.59886 227.82175 233.6399 238.62119">Ajouterpos</tspan></text>
<path transform="matrix(1,0,0,-1,243.137,500.18904)" stroke-width=".398" stroke-linecap="butt" stroke-miterlimit="10" stroke-linejoin="miter" fill="none" stroke="#000000" d="M0 0H2.989"/>
<text xml:space="preserve" transform="matrix(1 0 -0 1 0 1190.551)" font-size="9.9626" font-family="CMR10"><tspan y="-690.162" x="246.125 249.17356 254.71276 258.5882 264.1274 271.35029 271.35029 279.6591 282.42869 285.19828 289.12355 292.999">futur`aliste</tspan></text>
<path transform="matrix(1,0,0,-1,298.003,500.18904)" stroke-width=".398" stroke-linecap="butt" stroke-miterlimit="10" stroke-linejoin="miter" fill="none" stroke="#000000" d="M0 0H2.989"/>
<text xml:space="preserve" transform="matrix(1 0 -0 1 0 1190.551)" font-size="9.9626" font-family="CMR10"><tspan y="-690.162" x="300.992 309.29087 313.9932 318.9745">move</tspan></text>
<path transform="matrix(1,0,0,-1,324.006,500.18904)" stroke-width=".398" stroke-linecap="butt" stroke-miterlimit="10" stroke-linejoin="miter" fill="none" stroke="#000000" d="M0 0H2.989"/>
<text xml:space="preserve" transform="matrix(1 0 -0 1 0 1190.551)" font-size="9.9626" font-family="CMR10"><tspan y="-690.162" x="326.994 332.5332 335.3028 340.2841">pion</tspan></text>
<text xml:space="preserve" transform="matrix(1 0 -0 1 0 1190.551)" font-size="6.9738" font-family="CMBX7" font-weight="bold"><tspan y="-678.207" x="117.07599 121.588039">23</tspan></text>
<text xml:space="preserve" transform="matrix(1 0 -0 1 0 1190.551)" font-size="9.9626" font-family="CMBX10" font-weight="bold"><tspan y="-678.207" x="175.91599 179.09406 182.28209">fin</tspan></text>
<text xml:space="preserve" transform="matrix(1 0 -0 1 0 1190.551)" font-size="6.9738" font-family="CMBX7" font-weight="bold"><tspan y="-665.256" x="116.67699 121.18903">24</tspan></text>
<text xml:space="preserve" transform="matrix(1 0 -0 1 0 1190.551)" font-size="9.9626" font-family="CMBX10" font-weight="bold"><tspan y="-665.256" x="160.57399 163.75206 166.9401">fin</tspan></text>
<text xml:space="preserve" transform="matrix(1 0 -0 1 0 1190.551)" font-size="6.9738" font-family="CMBX7" font-weight="bold"><tspan y="-652.30398" x="116.27899 120.79104">25</tspan></text>
<text xml:space="preserve" transform="matrix(1 0 -0 1 0 1190.551)" font-size="9.9626" font-family="CMBX10" font-weight="bold"><tspan y="-652.30398" x="145.23099 148.40906 151.59709">fin</tspan></text>
<text xml:space="preserve" transform="matrix(1 0 -0 1 0 1190.551)" font-size="6.9738" font-family="CMBX7" font-weight="bold"><tspan y="-639.35299" x="115.87999 120.39204">26</tspan></text>
<text xml:space="preserve" transform="matrix(1 0 -0 1 0 1190.551)" font-size="9.9626" font-family="CMBX10" font-weight="bold"><tspan y="-639.35299" x="129.88899 133.06707 136.2551">fin</tspan></text>
<text xml:space="preserve" transform="matrix(1 0 -0 1 0 1190.551)" font-size="6.9738" font-family="CMBX7" font-weight="bold"><tspan y="-627.39797" x="115.87999 120.39204">27</tspan></text>
<text xml:space="preserve" transform="matrix(1 0 -0 1 0 1190.551)" font-size="9.9626" font-family="CMBX10" font-weight="bold"><tspan y="-627.39797" x="129.88899 134.61127 139.86156 144.31484 150.04334 156.40944 161.13172 167.49782 172.74811">retourner</tspan></text>
<text xml:space="preserve" transform="matrix(1 0 -0 1 0 1190.551)" font-size="9.9626" font-family="CMR10"><tspan y="-627.39797" x="180.78099 183.5506 186.3202 190.24547 194.12093">liste</tspan></text>
<path transform="matrix(1,0,0,-1,199.146,562.95407)" stroke-width=".398" stroke-linecap="butt" stroke-miterlimit="10" stroke-linejoin="miter" fill="none" stroke="#000000" d="M0 0H2.989"/>
<text xml:space="preserve" transform="matrix(1 0 -0 1 0 1190.551)" font-size="9.9626" font-family="CMR10"><tspan y="-627.398" x="202.134 210.43285 215.1352 220.12645">move</tspan></text>
<path transform="matrix(1,0,0,-1,225.148,562.95407)" stroke-width=".398" stroke-linecap="butt" stroke-miterlimit="10" stroke-linejoin="miter" fill="none" stroke="#000000" d="M0 0H2.989"/>
<text xml:space="preserve" transform="matrix(1 0 -0 1 0 1190.551)" font-size="9.9626" font-family="CMR10"><tspan y="-627.398" x="228.137 233.6762 236.4458 241.4271">pion</tspan></text>
<path transform="matrix(1,0,0,-1,114.945,569.13107)" stroke-width=".797" stroke-linecap="butt" stroke-miterlimit="10" stroke-linejoin="miter" fill="none" stroke="#000000" d="M0 0H612"/>
</svg>
